<svg xmlns="http://www.w3.org/2000/svg" width="198.39" height="185.625" viewBox="0 0 198.39 185.625">
  <g id="congratulation" transform="translate(-2.5 -6.01)">
    <path id="Path_84" data-name="Path 84" d="M51.329,54.977A1.438,1.438,0,0,1,50,52.987a10.088,10.088,0,0,0,.394-1.1,1.438,1.438,0,1,1,2.752.834,14.46,14.46,0,0,1-.489,1.374A1.438,1.438,0,0,1,51.329,54.977Z" transform="translate(88.868 84.108)" fill="#323c6b"/>
    <path id="Path_85" data-name="Path 85" d="M57.627,63.187a1.438,1.438,0,0,1-1.4-1.124,59.431,59.431,0,0,0-9.2-19.109,1.438,1.438,0,1,1,2.386-1.6,62.1,62.1,0,0,1,9.621,20.083,1.438,1.438,0,0,1-1.09,1.725,1.42,1.42,0,0,1-.316.029Z" transform="translate(83.037 65.078)" fill="#323c6b"/>
    <path id="Path_86" data-name="Path 86" d="M96.492,100.365l-2.933,1.294a.1.1,0,0,1-.057.029h-.086c-8.194.891-26.452-10.523-44.135-28.206-17.6-17.6-28.982-35.739-28.206-44.02L22.4,26.27c4.313-4.284,17.654,1.7,32.806,13.887a171.029,171.029,0,0,1,14.434,13A180.561,180.561,0,0,1,82.4,67.3c12.306,15.267,18.43,28.752,14.089,33.065Z" transform="translate(34.761 35.404)" fill="#bbbbcd"/>
    <path id="Path_87" data-name="Path 87" d="M21.991,30.934a1.438,1.438,0,0,1-1.438-1.561,6.366,6.366,0,0,1,1.725-4.08,1.438,1.438,0,0,1,2.346,1.564L23.3,30.049a1.438,1.438,0,0,1-1.311.886Z" transform="translate(33.844 35.369)" fill="#323c6b"/>
    <path id="Path_88" data-name="Path 88" d="M47.2,54.811a1.438,1.438,0,0,1-.575-2.754l2.936-1.294a1.438,1.438,0,0,1,1.6,2.335,6.075,6.075,0,0,1-3.45,1.668,1.607,1.607,0,0,1-.506.046Z" transform="translate(81.123 83.69)" fill="#323c6b"/>
    <path id="Path_89" data-name="Path 89" d="M37.244,72.875,3,87.51,14.07,60.77a201.973,201.973,0,0,0,23.174,12.1Z" transform="translate(0.937 102.688)" fill="#edc74f"/>
    <path id="Path_90" data-name="Path 90" d="M29.452,63.71,6.646,73.2,3,82,37.244,67.362c-3.12-1.363-4.839-2.156-7.792-3.652Z" transform="translate(0.937 108.201)" fill="#ddb63d"/>
    <path id="Path_91" data-name="Path 91" d="M56.937,75.232l-26.912,11.5A201.974,201.974,0,0,1,6.85,74.628l8.8-21.248A191.631,191.631,0,0,0,56.937,75.232Z" transform="translate(8.157 88.83)" fill="#eeefee"/>
    <path id="Path_92" data-name="Path 92" d="M46.9,63.155l-26.912,11.5C17.347,73.506,14.73,72.27,12.2,71L38.566,59.82c2.76,1.179,5.52,2.329,8.338,3.335Z" transform="translate(18.19 100.906)" fill="#e1e6e9"/>
    <path id="Path_93" data-name="Path 93" d="M8.137,70A1.438,1.438,0,0,1,6.809,68.01l9.868-23.821a1.438,1.438,0,0,1,2.657,1.1L9.463,69.111A1.438,1.438,0,0,1,8.137,70Z" transform="translate(7.876 69.93)" fill="#323c6b"/>
    <path id="Path_94" data-name="Path 94" d="M12.431,45.264A1.438,1.438,0,0,1,11.1,43.277l.742-1.788a1.438,1.438,0,1,1,2.657,1.1l-.742,1.788a1.438,1.438,0,0,1-1.328.886Z" transform="translate(15.928 64.867)" fill="#323c6b"/>
    <path id="Path_95" data-name="Path 95" d="M81.935,76.344,51.227,89.484H51.2A191.631,191.631,0,0,1,9.91,67.632L18.967,45.78c12.047,8.827,38.068,26.078,62.968,30.564Z" transform="translate(13.895 74.578)" fill="#edc74f"/>
    <path id="Path_96" data-name="Path 96" d="M72,59.89,45.477,71.242h-.029a181.1,181.1,0,0,1-35.4-17.979L9.91,53.6A191.63,191.63,0,0,0,51.2,75.451h.029l30.707-13.14A89.968,89.968,0,0,1,72,59.89Z" transform="translate(13.895 88.61)" fill="#e2ba3b"/>
    <path id="Path_97" data-name="Path 97" d="M108.374,76.072,76.056,89.9h-.029c-24.9-4.485-50.92-21.737-62.968-30.564l8.6-20.788s49.138,43.445,86.717,37.522Z" transform="translate(19.802 61.02)" fill="#eeefee"/>
    <path id="Path_98" data-name="Path 98" d="M73.738,51.619,41.421,65.449h-.029a82.12,82.12,0,0,1-9.862-2.415L58.471,51.59a52.255,52.255,0,0,0,15.268.029Z" transform="translate(54.438 85.473)" fill="#e1e6e9"/>
    <path id="Path_99" data-name="Path 99" d="M102.767,98.706C65.188,104.629,16.05,61.184,16.05,61.184l14.376-34.7C29.65,34.761,41.036,52.9,58.632,70.5c17.683,17.683,35.94,29.1,44.135,28.206Z" transform="translate(25.409 38.386)" fill="#edc74f"/>
    <path id="Path_100" data-name="Path 100" d="M47.2,54.035a1.438,1.438,0,1,1,0-2.875V52.6l.06-1.438.486,1.366.017-1.461a1.438,1.438,0,0,1,.483,2.832l-.518.086a1.682,1.682,0,0,1-.529.052Z" transform="translate(81.122 84.466)" fill="#323c6b"/>
    <path id="Path_101" data-name="Path 101" d="M40.718,57.122a1.438,1.438,0,0,1-1.1-2.366c.221-.259,22.223-25.776,49.88-18.672a1.438,1.438,0,1,1-.716,2.786C62.843,32.2,42.024,56.365,41.82,56.613A1.438,1.438,0,0,1,40.718,57.122Z" transform="translate(68.976 54.053)" fill="#323c6b"/>
    <path id="Path_102" data-name="Path 102" d="M40.72,59.089A1.438,1.438,0,0,1,39.7,56.642c.181-.181,18.062-18.508,21.173-37.191a1.438,1.438,0,0,1,2.835.472C60.445,39.517,42.5,57.876,41.741,58.661a1.438,1.438,0,0,1-1.021.428Z" transform="translate(68.977 23.031)" fill="#323c6b"/>
    <path id="Path_103" data-name="Path 103" d="M30.617,77.6A1.438,1.438,0,0,1,29.6,75.14C61.055,43.685,47.282,13.929,47.138,13.633a1.438,1.438,0,1,1,2.588-1.248c.152.316,14.782,31.915-18.1,64.785a1.438,1.438,0,0,1-1.009.426Z" transform="translate(50.026 10.33)" fill="#323c6b"/>
    <path id="Path_104" data-name="Path 104" d="M64.173,15.807a9.3,9.3,0,1,1-9.3-9.3A9.3,9.3,0,0,1,64.173,15.807Z" transform="translate(80.777 0.939)" fill="#fcd462"/>
    <path id="Path_105" data-name="Path 105" d="M55.833,27.511A10.75,10.75,0,1,1,66.566,16.746,10.75,10.75,0,0,1,55.833,27.511Zm0-18.626a7.875,7.875,0,1,0,7.858,7.858,7.875,7.875,0,0,0-7.858-7.858Z" transform="translate(79.819 0)" fill="#323c6b"/>
    <path id="Path_106" data-name="Path 106" d="M76.972,56.2a9.3,9.3,0,1,1-9.3-9.3,9.3,9.3,0,0,1,9.3,9.3Z" transform="translate(104.778 76.678)" fill="#fff"/>
    <path id="Path_107" data-name="Path 107" d="M68.633,67.9A10.75,10.75,0,1,1,79.366,57.135,10.75,10.75,0,0,1,68.633,67.9Zm0-18.626a7.875,7.875,0,1,0,7.858,7.861,7.875,7.875,0,0,0-7.858-7.861Z" transform="translate(103.822 75.739)" fill="#323c6b"/>
    <path id="Path_108" data-name="Path 108" d="M42.61,15.809a9.3,9.3,0,1,1-9.3-9.3,9.3,9.3,0,0,1,9.3,9.3Z" transform="translate(40.342 0.938)" fill="#f0f0ff"/>
    <path id="Path_109" data-name="Path 109" d="M34.27,27.511A10.75,10.75,0,1,1,45,16.746,10.75,10.75,0,0,1,34.27,27.511Zm0-18.626a7.875,7.875,0,1,0,7.858,7.861A7.875,7.875,0,0,0,34.27,8.885Z" transform="translate(39.383 0)" fill="#323c6b"/>
    <path id="Path_110" data-name="Path 110" d="M75.439,25.524l-4.12,7.533L67.2,25.524,59.665,21.4l7.533-4.12,4.12-7.533,4.12,7.533,7.533,4.12Z" transform="translate(107.198 7.013)" fill="#fff"/>
    <path id="Path_111" data-name="Path 111" d="M72.254,35.4a1.438,1.438,0,0,1-1.259-.748l-3.919-7.177-7.162-3.919a1.438,1.438,0,0,1,0-2.522l7.162-3.91,3.916-7.159a1.492,1.492,0,0,1,2.522,0l3.919,7.159L84.6,21.041a1.438,1.438,0,0,1,0,2.522l-7.165,3.91-3.919,7.188A1.438,1.438,0,0,1,72.254,35.4ZM63.6,22.3l5.227,2.861a1.438,1.438,0,0,1,.575.575l2.858,5.227,2.855-5.213a1.438,1.438,0,0,1,.575-.575l5.227-2.861-5.227-2.861a1.438,1.438,0,0,1-.575-.575l-2.861-5.227-2.858,5.227a1.438,1.438,0,0,1-.575.575Z" transform="translate(106.262 6.111)" fill="#323c6b"/>
    <path id="Path_112" data-name="Path 112" d="M78.668,43l-4.12,7.533L70.427,43l-7.533-4.12,7.533-4.12,4.12-7.533,4.12,7.533,7.533,4.12Z" transform="translate(113.253 39.779)" fill="#fe7058"/>
    <path id="Path_113" data-name="Path 113" d="M75.483,52.872a1.438,1.438,0,0,1-1.259-.748L70.3,44.959,63.142,41.04a1.438,1.438,0,0,1,0-2.522L70.3,34.6l3.919-7.165a1.492,1.492,0,0,1,2.522,0L80.664,34.6l7.162,3.919a1.438,1.438,0,0,1,0,2.522l-7.162,3.919-3.919,7.165a1.438,1.438,0,0,1-1.262.748ZM66.825,39.781l5.227,2.861a1.438,1.438,0,0,1,.575.575l2.858,5.227,2.861-5.227a1.438,1.438,0,0,1,.575-.575l5.227-2.861L78.921,36.92a1.438,1.438,0,0,1-.575-.575l-2.861-5.227-2.858,5.227a1.438,1.438,0,0,1-.575.575Z" transform="translate(112.317 38.875)" fill="#323c6b"/>
    <path id="Path_114" data-name="Path 114" d="M24.778,34.891l-4.12,7.533-4.12-7.533L9,30.77l7.533-4.12,4.12-7.533,4.12,7.533,7.533,4.12Z" transform="translate(12.196 24.579)" fill="#f7f7f7"/>
    <path id="Path_115" data-name="Path 115" d="M21.594,44.766a1.438,1.438,0,0,1-1.259-.748l-3.919-7.162L9.251,32.934a1.438,1.438,0,0,1,0-2.522l7.165-3.919,3.919-7.165a1.492,1.492,0,0,1,2.522,0l3.919,7.165,7.165,3.919a1.438,1.438,0,0,1,0,2.522l-7.165,3.919-3.907,7.162a1.438,1.438,0,0,1-1.274.75Zm-8.66-13.091,5.227,2.858a1.438,1.438,0,0,1,.575.575L21.6,40.335l2.861-5.227a1.438,1.438,0,0,1,.575-.575l5.227-2.858-5.227-2.861a1.438,1.438,0,0,1-.575-.575L21.6,23.012l-2.861,5.227a1.438,1.438,0,0,1-.575.575Z" transform="translate(11.259 23.674)" fill="#fd7058"/>
    <path id="Path_116" data-name="Path 116" d="M55.557,75.29l-4.12,7.533-4.12-7.533-7.533-4.12,7.533-4.12,4.12-7.533,4.12,7.533,7.533,4.12Z" transform="translate(69.914 100.336)" fill="#e1e6e9"/>
    <g id="Group_136" data-name="Group 136" transform="translate(2.5 58.625)">
      <path id="Path_117" data-name="Path 117" d="M52.373,85.2a1.438,1.438,0,0,1-1.259-.748L47.2,77.285,40.03,73.366a1.438,1.438,0,0,1,0-2.522L47.2,66.926l3.925-7.162a1.435,1.435,0,0,1,2.519,0l3.919,7.165,7.162,3.919a1.438,1.438,0,0,1,0,2.522l-7.168,3.916L53.633,84.45a1.438,1.438,0,0,1-1.259.748ZM43.716,72.107l5.227,2.861a1.438,1.438,0,0,1,.575.575l2.861,5.227,2.858-5.227a1.438,1.438,0,0,1,.575-.575l5.227-2.861-5.227-2.861a1.438,1.438,0,0,1-.575-.575l-2.858-5.227-2.861,5.227a1.438,1.438,0,0,1-.575.575Z" transform="translate(66.477 40.774)" fill="#323c6b"/>
      <path id="Path_118" data-name="Path 118" d="M93.4,104.109c-9.163,0-27.056-11.544-44.2-28.683C31.515,57.74,19.747,39.163,20.578,30.256a1.478,1.478,0,0,1,.1-.417L22,26.648a1.438,1.438,0,0,1,.313-.469c5.808-5.75,21.743,3.344,34.721,13.787a171.9,171.9,0,0,1,14.552,13.1A181.749,181.749,0,0,1,84.457,67.326c10.578,13.123,19.8,29.2,13.985,34.986a1.437,1.437,0,0,1-.434.288l-2.892,1.274a1.541,1.541,0,0,1-.676.17,9.575,9.575,0,0,1-1.044.066ZM23.427,30.736c-.44,6.978,8.913,23.758,27.806,42.663,19.115,19.115,36,28.416,42.841,27.8l2.5-1.1c2.7-3.249-1.305-14.779-14.356-30.969A179.173,179.173,0,0,0,69.563,55.1,169.064,169.064,0,0,0,55.248,42.214C39.258,29.35,27.824,25.4,24.543,28.051Z" transform="translate(31.323 -24.15)" fill="#323c6b"/>
      <path id="Path_119" data-name="Path 119" d="M96.312,101.645c-36.349,0-78.385-36.771-80.276-38.445a1.438,1.438,0,0,1-.377-1.627l14.376-34.7a1.438,1.438,0,0,1,2.76.684c-.641,6.852,8.7,23.778,27.792,42.87,19.224,19.227,36.188,28.519,42.962,27.786a1.438,1.438,0,0,1,.38,2.849,49,49,0,0,1-7.616.587Zm-77.6-39.931C24.492,66.621,61.4,96.9,93.518,98.68c-9.638-4.252-22.5-13.758-34.966-26.222C44.015,57.921,33.474,42.783,30.645,32.906Z" transform="translate(21.971 -21.179)" fill="#323c6b"/>
      <path id="Path_120" data-name="Path 120" d="M76.993,92.277C51.9,87.786,26.24,71.026,13.149,61.435a1.438,1.438,0,0,1-.48-1.708l8.6-20.788a1.438,1.438,0,0,1,2.28-.529c.486.431,49.066,42.95,85.541,37.18a1.441,1.441,0,0,1,.788,2.749L77.557,92.168a1.438,1.438,0,0,1-.564.109ZM15.751,59.787c13.068,9.488,37.5,25.2,61.058,29.572L101,79.008C68.221,78.462,31.185,48.674,23.155,41.88Z" transform="translate(16.365 1.458)" fill="#323c6b"/>
      <path id="Path_121" data-name="Path 121" d="M52.162,91.85a1.6,1.6,0,0,1-.515-.083A193.766,193.766,0,0,1,10.034,69.748a1.438,1.438,0,0,1-.518-1.725l9.057-21.852a1.437,1.437,0,0,1,2.177-.61c12.89,9.445,38.134,25.943,62.372,30.311a1.438,1.438,0,0,1,.311,2.737L52.726,91.75a1.438,1.438,0,0,1-.564.1ZM12.622,68.029A190.173,190.173,0,0,0,52.1,88.874l26-11.127c-22.435-5.313-44.94-19.692-57.574-28.8Z" transform="translate(10.46 15.024)" fill="#323c6b"/>
      <path id="Path_122" data-name="Path 122" d="M30.956,89.106a1.438,1.438,0,0,1-.575-.121A202,202,0,0,1,7.04,76.8a1.438,1.438,0,0,1-.575-1.783l8.8-21.248a1.438,1.438,0,0,1,2.139-.638A190.917,190.917,0,0,0,58.366,74.816a1.438,1.438,0,0,1,.08,2.677l-26.912,11.5a1.437,1.437,0,0,1-.578.112ZM9.585,74.969A198.461,198.461,0,0,0,30.965,86.1L54,76.257A197.694,197.694,0,0,1,17.236,56.492Z" transform="translate(4.725 29.269)" fill="#323c6b"/>
      <path id="Path_123" data-name="Path 123" d="M3.937,89.884A1.438,1.438,0,0,1,2.609,87.9l11.07-26.74a1.438,1.438,0,0,1,2.07-.681,199.13,199.13,0,0,0,23,12.018,1.438,1.438,0,0,1,0,2.639L4.513,89.769a1.438,1.438,0,0,1-.575.115ZM15.7,63.806,6.614,85.738,34.6,73.777a205,205,0,0,1-18.9-9.971Z" transform="translate(-2.5 43.126)" fill="#323c6b"/>
      <path id="Path_124" data-name="Path 124" d="M49.137,43.377a1.438,1.438,0,0,1-1.118-2.34c.63-.779,15.578-19.031,34.267-16.484a1.438,1.438,0,0,1,1.231,1.619A1.455,1.455,0,0,1,81.9,27.4c-17.01-2.335-31.5,15.262-31.628,15.44A1.438,1.438,0,0,1,49.137,43.377Z" transform="translate(82.26 -24.309)" fill="#323c6b"/>
    </g>
    <path id="Path_125" data-name="Path 125" d="M42.421,54.182a1.705,1.705,0,0,1-.822-.21A202.5,202.5,0,0,1,23.29,42.638,1.725,1.725,0,1,1,25.253,39.8a199.707,199.707,0,0,0,18,11.142,1.725,1.725,0,0,1-.825,3.24Z" transform="translate(37.511 62.737)" fill="#fff"/>
    <path id="Path_126" data-name="Path 126" d="M23.3,42.28a1.725,1.725,0,0,1-1.021-.336l-1.438-1.064a1.725,1.725,0,1,1,2.067-2.763l1.412,1.047A1.725,1.725,0,0,1,23.3,42.277Z" transform="translate(33.098 59.562)" fill="#fff"/>
  </g>
</svg>
