<svg xmlns="http://www.w3.org/2000/svg" xmlns:xlink="http://www.w3.org/1999/xlink" width="130" height="130" viewBox="0 0 130 130">
  <defs>
    <clipPath id="clip-path">
      <circle id="Ellipse_34" data-name="Ellipse 34" cx="65" cy="65" r="65" transform="translate(604 1994)" fill="#e3eafe"/>
    </clipPath>
    <clipPath id="clip-path-2">
      <path id="Path_352" data-name="Path 352" d="M9.436-13.611h63.58V-80.262H9.436Z" fill="none"/>
    </clipPath>
    <clipPath id="clip-path-3">
      <path id="Path_354" data-name="Path 354" d="M24.981-13.611H57.472V-80.262H24.981Z" fill="none"/>
    </clipPath>
    <clipPath id="clip-path-4">
      <path id="Path_356" data-name="Path 356" d="M9.436-11.839H21.354V-84.125H9.436Z" fill="none"/>
    </clipPath>
    <clipPath id="clip-path-5">
      <path id="Path_359" data-name="Path 359" d="M48.509-40.981H31.087s.441,12.612-1.693,16.275H50.42c-2.132-3.662-1.911-16.275-1.911-16.275" fill="none" clip-rule="evenodd"/>
    </clipPath>
    <clipPath id="clip-path-6">
      <path id="Path_358" data-name="Path 358" d="M-143,205H311V-164H-143Z" fill="none"/>
    </clipPath>
    <clipPath id="clip-path-7">
      <path id="Path_362" data-name="Path 362" d="M30.992-33.23h0c.226-4,.1-7.751.1-7.751s.131,3.748-.1,7.751" fill="none" clip-rule="evenodd"/>
    </clipPath>
    <clipPath id="clip-path-9">
      <path id="Path_365" data-name="Path 365" d="M40.094-30.685c-3.258,0-6.19-1.246-9.1-2.545.226-4,.1-7.751.1-7.751h17.42s-.07,3.985.248,8.122a22,22,0,0,1-7.532,2.123c-.381.035-.758.05-1.13.05" fill="none" clip-rule="evenodd"/>
    </clipPath>
    <clipPath id="clip-path-11">
      <path id="Path_368" data-name="Path 368" d="M72.205-17.556,47.941-26.513H31.85L7.585-17.556s-8.5,2.88-7.5,16.851H79.71c1.158-14.831-7.5-16.851-7.5-16.851" fill="none" clip-rule="evenodd"/>
    </clipPath>
    <clipPath id="clip-path-13">
      <path id="Path_371" data-name="Path 371" d="M61.8-64.957c-.718,4.187.526,7.908,2.773,8.307s4.643-2.664,5.357-6.853-.529-7.909-2.778-8.31-4.64,2.666-5.352,6.856" fill="none" clip-rule="evenodd"/>
    </clipPath>
    <clipPath id="clip-path-15">
      <path id="Path_374" data-name="Path 374" d="M64.5-66.091s.034-.235.122-.617a7.364,7.364,0,0,1,.541-1.506c.282-.56.735-1.2,1.306-1.236a1.214,1.214,0,0,1,.432.057l.219.106.159.126a2.119,2.119,0,0,1,.543.913,5.185,5.185,0,0,1,.263,1.189,5.628,5.628,0,0,1,.015,1.2c-.068.422-.09.853-.172,1.218s-.146.725-.213,1.05c-.092.327-.161.631-.224.9s-.148.5-.2.691c-.115.381-.173.608-.173.608s.115-.192.3-.544c.086-.178.215-.381.322-.642s.242-.545.372-.866.233-.7.354-1.091a12.271,12.271,0,0,0,.27-1.217,5.379,5.379,0,0,0,.056-1.436,6.1,6.1,0,0,0-.288-1.417,2.913,2.913,0,0,0-.783-1.228,1.756,1.756,0,0,0-.32-.218,2,2,0,0,0-.308-.118,1.819,1.819,0,0,0-.676-.031,1.765,1.765,0,0,0-1.1.739,3.722,3.722,0,0,0-.532,1.05,6.326,6.326,0,0,0-.3,1.686,4.125,4.125,0,0,0,.017.636" fill="none" clip-rule="evenodd"/>
    </clipPath>
    <clipPath id="clip-path-17">
      <path id="Path_377" data-name="Path 377" d="M64.5-66.091s-.206-.448,1.272-.551c0,0,1.652.287.681,2.372a6.579,6.579,0,0,0-.494,1.4c-.148.7.116,1.648-.281,2.269a1.067,1.067,0,0,1-1.891-.571,5.1,5.1,0,0,1,1.053-2.4,1.8,1.8,0,0,0-.34-2.52" fill="none" clip-rule="evenodd"/>
    </clipPath>
    <clipPath id="clip-path-19">
      <path id="Path_380" data-name="Path 380" d="M63.784-61.259l-.114.113a1.3,1.3,0,0,0-.217.391,1.161,1.161,0,0,0-.078.3,1.01,1.01,0,0,0-.027.345c.01.119.012.249.035.374a2.722,2.722,0,0,0,.121.35,1.731,1.731,0,0,0,.168.319l.219.24a.942.942,0,0,0,.45.3,1.435,1.435,0,0,0,.506.117,3.093,3.093,0,0,0-.231-.508l-.124-.2-.1-.232-.123-.22-.1-.233a2.4,2.4,0,0,1-.18-.456l-.064-.232-.054-.228c-.059-.287-.088-.546-.088-.546" fill="none" clip-rule="evenodd"/>
    </clipPath>
    <clipPath id="clip-path-21">
      <path id="Path_383" data-name="Path 383" d="M19.036-64.957c.717,4.187-.526,7.908-2.773,8.307S11.62-59.314,10.908-63.5s.529-7.909,2.777-8.31,4.641,2.666,5.352,6.856" fill="none" clip-rule="evenodd"/>
    </clipPath>
    <clipPath id="clip-path-23">
      <path id="Path_386" data-name="Path 386" d="M16.336-66.091s-.034-.235-.122-.617a7.364,7.364,0,0,0-.541-1.506c-.282-.56-.735-1.2-1.306-1.236a1.218,1.218,0,0,0-.432.057l-.219.106-.159.126a2.141,2.141,0,0,0-.541.913,5.068,5.068,0,0,0-.264,1.189,5.552,5.552,0,0,0-.015,1.2c.071.422.092.853.172,1.218s.147.725.213,1.05c.092.327.161.631.224.9s.148.5.2.691c.116.381.174.608.174.608s-.117-.192-.3-.544c-.086-.178-.213-.381-.323-.642s-.241-.545-.371-.866-.233-.7-.352-1.091-.182-.793-.271-1.217a5.284,5.284,0,0,1-.054-1.436,5.981,5.981,0,0,1,.286-1.417,2.926,2.926,0,0,1,.784-1.228,1.746,1.746,0,0,1,.319-.218,1.985,1.985,0,0,1,.307-.118,1.827,1.827,0,0,1,.677-.031,1.762,1.762,0,0,1,1.1.739,3.758,3.758,0,0,1,.533,1.05,6.316,6.316,0,0,1,.3,1.686,3.944,3.944,0,0,1-.017.636" fill="none" clip-rule="evenodd"/>
    </clipPath>
    <clipPath id="clip-path-25">
      <path id="Path_389" data-name="Path 389" d="M16.336-66.091s.208-.448-1.272-.551c0,0-1.652.287-.681,2.372a6.515,6.515,0,0,1,.494,1.4c.148.7-.116,1.648.281,2.269a1.066,1.066,0,0,0,1.89-.571A5.086,5.086,0,0,0,16-63.571a1.8,1.8,0,0,1,.34-2.52" fill="none" clip-rule="evenodd"/>
    </clipPath>
    <clipPath id="clip-path-27">
      <path id="Path_392" data-name="Path 392" d="M17.048-61.259l.115.113a1.3,1.3,0,0,1,.217.391,1.264,1.264,0,0,1,.079.3,1.039,1.039,0,0,1,.026.345,3.52,3.52,0,0,1-.035.374,2.722,2.722,0,0,1-.121.35,1.728,1.728,0,0,1-.167.319l-.22.24a.942.942,0,0,1-.45.3,1.44,1.44,0,0,1-.506.117,3.093,3.093,0,0,1,.231-.508l.124-.2.106-.232.123-.22.094-.233a2.4,2.4,0,0,0,.18-.456l.065-.232.053-.228c.059-.287.088-.546.087-.546" fill="none" clip-rule="evenodd"/>
    </clipPath>
    <clipPath id="clip-path-29">
      <path id="Path_395" data-name="Path 395" d="M62.5-98.975s-7.643-7.915-22.686-8.353c-15.03.745-22.645,8.935-22.645,8.937-4.09,12.457-1.472,27.061.267,39.7,1.285,9.333,7.923,15.864,16.291,20.409a16.145,16.145,0,0,0,6.9,2.018,16.093,16.093,0,0,0,6.848-2.157c8.13-5.211,14.352-11.65,15.9-21.136a132.833,132.833,0,0,0,1.344-25.509A47.826,47.826,0,0,0,62.5-98.975" fill="none" clip-rule="evenodd"/>
    </clipPath>
    <clipPath id="clip-path-31">
      <path id="Path_398" data-name="Path 398" d="M33.274-73.484a17.055,17.055,0,0,0-10.931.7c1.094-5.608,11.366-3.307,11.366-3.307s.678.151.6,1.155c0,0-.272,1.723-1.039,1.451" fill="none" clip-rule="evenodd"/>
    </clipPath>
    <clipPath id="clip-path-33">
      <path id="Path_401" data-name="Path 401" d="M45.8-73.484s6.111-1.71,11.67.7c-1.095-5.608-12.106-3.307-12.106-3.307s-.677.151-.6,1.155c0,0,.271,1.723,1.039,1.451" fill="none" clip-rule="evenodd"/>
    </clipPath>
    <clipPath id="clip-path-35">
      <path id="Path_404" data-name="Path 404" d="M26.453-68.267c.012,1.627.976,2.94,2.155,2.933s2.13-1.331,2.118-2.956-.975-2.939-2.154-2.933-2.129,1.331-2.119,2.956" fill="none" clip-rule="evenodd"/>
    </clipPath>
    <clipPath id="clip-path-37">
      <path id="Path_407" data-name="Path 407" d="M27.742-69.2a.9.9,0,0,1-.924.873.9.9,0,0,1-.925-.873.9.9,0,0,1,.925-.875.9.9,0,0,1,.924.875" fill="none" clip-rule="evenodd"/>
    </clipPath>
    <clipPath id="clip-path-39">
      <path id="Path_410" data-name="Path 410" d="M53.362-68.267c-.01,1.627-.975,2.94-2.155,2.933s-2.129-1.331-2.118-2.956.975-2.939,2.155-2.933,2.129,1.331,2.118,2.956" fill="none" clip-rule="evenodd"/>
    </clipPath>
    <clipPath id="clip-path-41">
      <path id="Path_413" data-name="Path 413" d="M52.073-69.2A.9.9,0,0,0,53-68.33a.9.9,0,0,0,.925-.873A.9.9,0,0,0,53-70.077a.9.9,0,0,0-.925.875" fill="none" clip-rule="evenodd"/>
    </clipPath>
    <clipPath id="clip-path-43">
      <path id="Path_416" data-name="Path 416" d="M34.557-49.925c.012,1.572,2.366,2.846,5.273,2.846s5.264-1.274,5.274-2.846H34.557" fill="none" clip-rule="evenodd"/>
    </clipPath>
    <clipPath id="clip-path-45">
      <path id="Path_419" data-name="Path 419" d="M44.825-49.485a5.638,5.638,0,0,0,1.718-.6s-.86-.343-2.07-.688c-3.107-1.24-2.9.366-4.55.362-.829.025-1.656-.83-2.431-.727a15.939,15.939,0,0,0-2.119.369,10.832,10.832,0,0,0-2.071.684,6.629,6.629,0,0,0,1.877.687,22.722,22.722,0,0,1,3.374.155,5.637,5.637,0,0,0,2.35.057,16.877,16.877,0,0,1,3.921-.3" fill="none" clip-rule="evenodd"/>
    </clipPath>
    <clipPath id="clip-path-47">
      <path id="Path_422" data-name="Path 422" d="M45.5-50.089a8.317,8.317,0,0,1-6.046,2.26,7.972,7.972,0,0,1-5.128-2.26H33.272l.1.238a10,10,0,0,0,.9,1.472c.194.246.393.5.6.757a7.868,7.868,0,0,0,.754.708l.4.354.475.3a4.007,4.007,0,0,0,1.045.547,9.1,9.1,0,0,0,1.209.365l.518.066.261.032.13.019.065.008.175.01,1.23-.146a9.16,9.16,0,0,0,1.15-.362,4.184,4.184,0,0,0,1.019-.54l.475-.3.4-.356a7.839,7.839,0,0,0,.751-.708c.206-.257.406-.512.6-.757a9.743,9.743,0,0,0,.9-1.475l.106-.232H45.5" fill="none" clip-rule="evenodd"/>
    </clipPath>
    <clipPath id="clip-path-49">
      <path id="Path_425" data-name="Path 425" d="M39.831-46.329c4.32-.273,5.12-2.647,5.12-2.647A6.439,6.439,0,0,1,39.831-47a.324.324,0,0,0-.285.356s.066.329.285.313" fill="none" clip-rule="evenodd"/>
    </clipPath>
    <clipPath id="clip-path-51">
      <path id="Path_428" data-name="Path 428" d="M73.017-77.213s1.319-31.928-24.975-36.461c0,0-18.647-2.815-25.642,8.119l6.995,16.742s-.125,5.982,29.1,11.876c0,0,5.983,1.445,6.352,12a19.511,19.511,0,0,1,8.17-12.274" fill="none" clip-rule="evenodd"/>
    </clipPath>
    <clipPath id="clip-path-53">
      <path id="Path_431" data-name="Path 431" d="M36.872-57.166l.114-.023c.072-.013.183-.052.306-.07.252-.053.588-.112.954-.171s.754-.1,1.135-.116.763-.032,1.13-.03.727.036,1.086.068c.183.028.362.037.54.059s.364.053.538.069.354.061.514.08a4.188,4.188,0,0,1,.431.055c.123.01.241.045.314.056l.117.023-.03.105a1.863,1.863,0,0,1-.1.288,2.636,2.636,0,0,1-.577.878,2.555,2.555,0,0,1-.537.444,3.129,3.129,0,0,1-.7.363,3.341,3.341,0,0,1-.812.227,3.567,3.567,0,0,1-.864.067,4.184,4.184,0,0,1-.85-.1,4.176,4.176,0,0,1-.776-.248,3.85,3.85,0,0,1-1.183-.788,3.155,3.155,0,0,1-.61-.84,1.712,1.712,0,0,1-.115-.286l-.032-.107" fill="none" clip-rule="evenodd"/>
    </clipPath>
    <clipPath id="clip-path-55">
      <path id="Path_434" data-name="Path 434" d="M65.409-.705c-.066-6.592.384-13.211,6-17.146L50.42-25.6,39.545-16.129l-9.7-9.644L8.135-17.762c4.112,2.2,5.309,7.83,5.634,11.918A44.6,44.6,0,0,1,13.9-.705h51.51" fill="none" clip-rule="evenodd"/>
    </clipPath>
    <clipPath id="clip-path-57">
      <path id="Path_437" data-name="Path 437" d="M33.272-89.843S16.989-86.58,17.051-64.869c0,0-.694-6.98-5.034-6.035,0,0-12.161-28.855,16.313-36.985l4.941,18.046" fill="none" clip-rule="evenodd"/>
    </clipPath>
    <clipPath id="clip-path-59">
      <path id="Path_440" data-name="Path 440" d="M26.453-94.493l1.441,7.806,2.009-1-3.45-6.8" fill="none" clip-rule="evenodd"/>
    </clipPath>
  </defs>
  <g id="Female" transform="translate(-604 -1994)">
    <circle id="Ellipse_35" data-name="Ellipse 35" cx="65" cy="65" r="65" transform="translate(604 1994)" fill="#e3eafe"/>
    <g id="Mask_Group_2" data-name="Mask Group 2" clip-path="url(#clip-path)">
      <g id="Group_993" data-name="Group 993" transform="translate(629 2116)">
        <g id="Group_934" data-name="Group 934" clip-path="url(#clip-path-2)">
          <path id="Path_351" data-name="Path 351" d="M4.436-85.262h73.58V-8.611H4.436Z" fill="#322124"/>
        </g>
        <g id="Group_935" data-name="Group 935" clip-path="url(#clip-path-3)">
          <path id="Path_353" data-name="Path 353" d="M19.981-85.262H62.472V-8.611H19.981Z" fill="#1c1011"/>
        </g>
        <g id="Group_936" data-name="Group 936" clip-path="url(#clip-path-4)">
          <path id="Path_355" data-name="Path 355" d="M4.436-89.125H26.354V-6.839H4.436Z" fill="#322124"/>
        </g>
        <g id="Group_938" data-name="Group 938" clip-path="url(#clip-path-5)">
          <g id="Group_937" data-name="Group 937" clip-path="url(#clip-path-6)">
            <path id="Path_357" data-name="Path 357" d="M24.395-45.981H55.42v26.275H24.395Z" fill="#edb389"/>
          </g>
        </g>
        <g id="Group_940" data-name="Group 940" clip-path="url(#clip-path-7)">
          <g id="Group_939" data-name="Group 939" clip-path="url(#clip-path-6)">
            <path id="Path_360" data-name="Path 360" d="M25.991-45.981H36.125V-28.23H25.991Z" fill="#1b0d0e"/>
          </g>
        </g>
        <g id="Group_942" data-name="Group 942" clip-path="url(#clip-path-9)">
          <g id="Group_941" data-name="Group 941" clip-path="url(#clip-path-6)">
            <path id="Path_363" data-name="Path 363" d="M25.992-45.981H53.756v20.3H25.992Z" fill="#e39d78"/>
          </g>
        </g>
        <g id="Group_944" data-name="Group 944" clip-path="url(#clip-path-11)">
          <g id="Group_943" data-name="Group 943" clip-path="url(#clip-path-6)">
            <path id="Path_366" data-name="Path 366" d="M-5-31.513H84.817V4.295H-5Z" fill="#edb389"/>
          </g>
        </g>
        <g id="Group_946" data-name="Group 946" clip-path="url(#clip-path-13)">
          <g id="Group_945" data-name="Group 945" clip-path="url(#clip-path-6)">
            <path id="Path_369" data-name="Path 369" d="M56.594-76.849H75.127v25.234H56.594Z" fill="#edb389"/>
          </g>
        </g>
        <g id="Group_948" data-name="Group 948" clip-path="url(#clip-path-15)">
          <g id="Group_947" data-name="Group 947" clip-path="url(#clip-path-6)">
            <path id="Path_372" data-name="Path 372" d="M59.476-75.22H73.816v18.827H59.476Z" fill="#e99f79"/>
          </g>
        </g>
        <g id="Group_950" data-name="Group 950" clip-path="url(#clip-path-17)">
          <g id="Group_949" data-name="Group 949" clip-path="url(#clip-path-6)">
            <path id="Path_375" data-name="Path 375" d="M58.781-71.642H71.756v16.458H58.781Z" fill="#e99f79"/>
          </g>
        </g>
        <g id="Group_952" data-name="Group 952" clip-path="url(#clip-path-19)">
          <g id="Group_951" data-name="Group 951" clip-path="url(#clip-path-6)">
            <path id="Path_378" data-name="Path 378" d="M58.342-66.259h11.5v12.851h-11.5Z" fill="#e99f79"/>
          </g>
        </g>
        <g id="Group_954" data-name="Group 954" clip-path="url(#clip-path-21)">
          <g id="Group_953" data-name="Group 953" clip-path="url(#clip-path-6)">
            <path id="Path_381" data-name="Path 381" d="M5.707-76.849H24.239v25.234H5.707Z" fill="#edb389"/>
          </g>
        </g>
        <g id="Group_956" data-name="Group 956" clip-path="url(#clip-path-23)">
          <g id="Group_955" data-name="Group 955" clip-path="url(#clip-path-6)">
            <path id="Path_384" data-name="Path 384" d="M7.017-75.22h14.34v18.827H7.017Z" fill="#e99f79"/>
          </g>
        </g>
        <g id="Group_958" data-name="Group 958" clip-path="url(#clip-path-25)">
          <g id="Group_957" data-name="Group 957" clip-path="url(#clip-path-6)">
            <path id="Path_387" data-name="Path 387" d="M9.078-71.642H22.051v16.458H9.078Z" fill="#e99f79"/>
          </g>
        </g>
        <g id="Group_960" data-name="Group 960" clip-path="url(#clip-path-27)">
          <g id="Group_959" data-name="Group 959" clip-path="url(#clip-path-6)">
            <path id="Path_390" data-name="Path 390" d="M10.986-66.259h11.5v12.851h-11.5Z" fill="#e99f79"/>
          </g>
        </g>
        <g id="Group_962" data-name="Group 962" clip-path="url(#clip-path-29)">
          <g id="Group_961" data-name="Group 961" clip-path="url(#clip-path-6)">
            <path id="Path_393" data-name="Path 393" d="M9.993-112.328H69.822v81.063H9.993Z" fill="#edb389"/>
          </g>
        </g>
        <g id="Group_964" data-name="Group 964" clip-path="url(#clip-path-31)">
          <g id="Group_963" data-name="Group 963" clip-path="url(#clip-path-6)">
            <path id="Path_396" data-name="Path 396" d="M17.343-81.558H39.319v13.775H17.343Z" fill="#322124"/>
          </g>
        </g>
        <g id="Group_966" data-name="Group 966" clip-path="url(#clip-path-33)">
          <g id="Group_965" data-name="Group 965" clip-path="url(#clip-path-6)">
            <path id="Path_399" data-name="Path 399" d="M39.758-81.558H62.472v13.775H39.758Z" fill="#322124"/>
          </g>
        </g>
        <g id="Group_968" data-name="Group 968" clip-path="url(#clip-path-35)">
          <g id="Group_967" data-name="Group 967" clip-path="url(#clip-path-6)">
            <path id="Path_402" data-name="Path 402" d="M21.453-76.223H35.727v15.89H21.453Z" fill="#221710"/>
          </g>
        </g>
        <g id="Group_970" data-name="Group 970" clip-path="url(#clip-path-37)">
          <g id="Group_969" data-name="Group 969" clip-path="url(#clip-path-6)">
            <path id="Path_405" data-name="Path 405" d="M20.893-75.077H32.742V-63.33H20.893Z" fill="#fffefe"/>
          </g>
        </g>
        <g id="Group_972" data-name="Group 972" clip-path="url(#clip-path-39)">
          <g id="Group_971" data-name="Group 971" clip-path="url(#clip-path-6)">
            <path id="Path_408" data-name="Path 408" d="M44.088-76.223H58.362v15.89H44.088Z" fill="#221710"/>
          </g>
        </g>
        <g id="Group_974" data-name="Group 974" clip-path="url(#clip-path-41)">
          <g id="Group_973" data-name="Group 973" clip-path="url(#clip-path-6)">
            <path id="Path_411" data-name="Path 411" d="M47.073-75.077h11.85V-63.33H47.073Z" fill="#fffefe"/>
          </g>
        </g>
        <g id="Group_976" data-name="Group 976" clip-path="url(#clip-path-43)">
          <g id="Group_975" data-name="Group 975" clip-path="url(#clip-path-6)">
            <path id="Path_414" data-name="Path 414" d="M29.558-54.925H50.1v12.846H29.558Z" fill="#fffefe"/>
          </g>
        </g>
        <g id="Group_978" data-name="Group 978" clip-path="url(#clip-path-45)">
          <g id="Group_977" data-name="Group 977" clip-path="url(#clip-path-6)">
            <path id="Path_417" data-name="Path 417" d="M28.3-56.244H51.544v12.168H28.3Z" fill="#e47675"/>
          </g>
        </g>
        <g id="Group_980" data-name="Group 980" clip-path="url(#clip-path-47)">
          <g id="Group_979" data-name="Group 979" clip-path="url(#clip-path-6)">
            <path id="Path_420" data-name="Path 420" d="M28.272-55.089H51.533v14.874H28.272Z" fill="#e47675"/>
          </g>
        </g>
        <g id="Group_982" data-name="Group 982" clip-path="url(#clip-path-49)">
          <g id="Group_981" data-name="Group 981" clip-path="url(#clip-path-6)">
            <path id="Path_423" data-name="Path 423" d="M34.545-53.977H49.951v12.648H34.545Z" fill="#fffefe"/>
          </g>
        </g>
        <g id="Group_984" data-name="Group 984" clip-path="url(#clip-path-51)">
          <g id="Group_983" data-name="Group 983" clip-path="url(#clip-path-6)">
            <path id="Path_426" data-name="Path 426" d="M17.4-119H78.028v59.06H17.4Z" fill="#322124"/>
          </g>
        </g>
        <g id="Group_986" data-name="Group 986" clip-path="url(#clip-path-53)">
          <g id="Group_985" data-name="Group 985" clip-path="url(#clip-path-6)">
            <path id="Path_429" data-name="Path 429" d="M31.872-62.576h17.18v12.786H31.872Z" fill="#ec9f80"/>
          </g>
        </g>
        <g id="Group_988" data-name="Group 988" clip-path="url(#clip-path-55)">
          <g id="Group_987" data-name="Group 987" clip-path="url(#clip-path-6)">
            <path id="Path_432" data-name="Path 432" d="M3.135-30.773H76.407V4.295H3.135Z" fill="#ffc409"/>
          </g>
        </g>
        <g id="Group_990" data-name="Group 990" clip-path="url(#clip-path-57)">
          <g id="Group_989" data-name="Group 989" clip-path="url(#clip-path-6)">
            <path id="Path_435" data-name="Path 435" d="M4.436-112.889H38.272v53.021H4.436Z" fill="#322124"/>
          </g>
        </g>
        <g id="Group_992" data-name="Group 992" clip-path="url(#clip-path-59)">
          <g id="Group_991" data-name="Group 991" clip-path="url(#clip-path-6)">
            <path id="Path_438" data-name="Path 438" d="M21.453-99.493H34.9v17.806H21.453Z" fill="#edb389"/>
          </g>
        </g>
      </g>
    </g>
  </g>
</svg>
