<svg xmlns="http://www.w3.org/2000/svg" xmlns:xlink="http://www.w3.org/1999/xlink" width="360" height="1062" viewBox="0 0 360 1062">
  <defs>
    <clipPath id="clip-path">
      <rect id="Rectangle_55" data-name="Rectangle 55" width="360" height="705.719" transform="translate(0 62.987)" fill="#cde2f6"/>
    </clipPath>
    <clipPath id="clip-path-2">
      <rect id="Rectangle_33" data-name="Rectangle 33" width="360" height="768" transform="translate(0 0)"/>
    </clipPath>
    <clipPath id="clip-path-3">
      <rect id="Rectangle_28" data-name="Rectangle 28" width="360.96" height="637.022"/>
    </clipPath>
    <clipPath id="clip-path-4">
      <rect id="Rectangle_29" data-name="Rectangle 29" width="360.96" height="781.908"/>
    </clipPath>
    <clipPath id="clip-path-5">
      <rect id="Rectangle_31" data-name="Rectangle 31" width="137.94" height="189.111"/>
    </clipPath>
    <clipPath id="clip-path-6">
      <rect id="Rectangle_35" data-name="Rectangle 35" width="360" height="658" transform="translate(0 0)"/>
    </clipPath>
    <clipPath id="clip-path-7">
      <rect id="Rectangle_34" data-name="Rectangle 34" width="82.5" height="141.842"/>
    </clipPath>
    <clipPath id="clip-path-9">
      <rect id="Rectangle_37" data-name="Rectangle 37" width="104.34" height="58.936"/>
    </clipPath>
    <clipPath id="clip-path-10">
      <rect id="Rectangle_56" data-name="Rectangle 56" width="304.911" height="195.465" fill="none"/>
    </clipPath>
  </defs>
  <g id="fiche3-candidat" transform="translate(0 293.295)">
    <rect id="Rectangle_61" data-name="Rectangle 61" width="360" height="1050" transform="translate(0 -293.295)" fill="#fff"/>
    <g id="Mask_Group_3" data-name="Mask Group 3" clip-path="url(#clip-path)">
      <g id="Group_933" data-name="Group 933" transform="translate(0 -0.295)">
        <g id="Group_97" data-name="Group 97" clip-path="url(#clip-path-2)">
          <g id="Group_76" data-name="Group 76" transform="translate(-0.6 -14.122)">
            <g id="Group_75" data-name="Group 75">
              <g id="Group_74" data-name="Group 74">
                <g id="Group_73" data-name="Group 73" clip-path="url(#clip-path-3)">
                  <path id="Path_73" data-name="Path 73" d="M441.6,168.507c67.44,71,21.48,153.791-89.64,217.344s95.46,156.173-14.88,225.683c-75.3,47.412-280.38,47.829-373.62.953-126.72-63.672-87.3-296.562-71.52-347.607,18.18-58.788,85.5-106.8,170.34-131.633,204.42-59.8,349.56,3.931,379.32,35.261Z" transform="translate(51.183 -29.488)" fill="#e8f2fc"/>
                </g>
              </g>
            </g>
          </g>
          <g id="Group_77" data-name="Group 77" transform="translate(-0.6 -14.122)" clip-path="url(#clip-path-4)">
            <path id="Path_74" data-name="Path 74" d="M301.431,749.527c-46.26-20.906-203.7,14.533-251.58,28.352s-103.44-18.226-132.36-65.4c-28.86-47.114-195.78,4.05-188.16,130.859,7.56,126.809,40.114,137.579,115.834,188.565s383.718,19.552,422.118,25.925-29.812-119.547,19.748-145.04c49.5-25.493,41.22-151.11,14.4-163.261Z" transform="translate(108.969 -266.713)" fill="#cde2f6"/>
          </g>
          <g id="Group_87" data-name="Group 87" transform="translate(0 130.377)" clip-path="url(#clip-path-5)">
            <path id="Path_77" data-name="Path 77" d="M-37.34,359.742h0a.985.985,0,0,0-1.44,0,.968.968,0,0,0,0,1.429h0a.985.985,0,0,0,1.44,0,.968.968,0,0,0,0-1.429m-3.48-3.752a1.022,1.022,0,0,0-1.38-.06,1.024,1.024,0,0,0-.12,1.43l.06.06a1.022,1.022,0,0,0,1.38.06,1.034,1.034,0,0,0,.06-1.489c.06.06,0,.06,0,0m7.26,7.207h0a1.052,1.052,0,0,0-1.5.06,1,1,0,0,0,.06,1.37l.06.06a1.042,1.042,0,0,0,1.44-.119,1.071,1.071,0,0,0-.06-1.37M-44,352a1.013,1.013,0,0,0-1.32-.119,1.036,1.036,0,0,0-.24,1.43h0l.12.119a1.013,1.013,0,0,0,1.32.119,1.036,1.036,0,0,0,.24-1.43c-.06,0-.06-.06-.12-.119m14.46,14.295-.12-.119a1,1,0,0,0-1.44.238,1,1,0,0,0,.12,1.31l.12.119a1,1,0,0,0,1.44-.238,1.173,1.173,0,0,0-.12-1.31m-17.28-18.524a1,1,0,0,0-1.26-.119,1.055,1.055,0,0,0-.36,1.429c.06.06.12.119.12.179a1,1,0,0,0,1.26.119,1.055,1.055,0,0,0,.36-1.43c-.06-.06-.06-.119-.12-.179m21.54,21.383c-.06-.06-.12-.119-.18-.119a1.072,1.072,0,0,0-1.44.357,1.061,1.061,0,0,0,.12,1.251c.06.06.12.119.18.119a1.072,1.072,0,0,0,1.44-.357,1.061,1.061,0,0,0-.12-1.251m-24.06-25.791a1,1,0,0,0-1.2-.179,1.068,1.068,0,0,0-.48,1.37.822.822,0,0,0,.18.238,1,1,0,0,0,1.2.179,1.068,1.068,0,0,0,.48-1.37c-.06-.06-.12-.179-.18-.238m28.5,28.233c-.06-.06-.18-.119-.24-.179a1.029,1.029,0,0,0-1.38.477,1.074,1.074,0,0,0,.18,1.191c.06.06.18.119.24.179a1.029,1.029,0,0,0,1.38-.477.98.98,0,0,0-.18-1.191M-51.5,338.716a1.126,1.126,0,0,0-1.14-.238.976.976,0,0,0-.54,1.31h0a1.246,1.246,0,0,0,.24.357,1.126,1.126,0,0,0,1.14.238.976.976,0,0,0,.54-1.31,1.245,1.245,0,0,0-.24-.357m35.34,35.023a.765.765,0,0,0-.36-.238,1,1,0,0,0-1.32.536,1,1,0,0,0,.24,1.132.765.765,0,0,0,.36.238h0a1,1,0,0,0,1.32-.536,1.254,1.254,0,0,0-.24-1.132m-37.08-39.788a1.044,1.044,0,0,0-1.02-.238,1.043,1.043,0,0,0-.66,1.31.959.959,0,0,0,.24.417,1.044,1.044,0,0,0,1.02.238,1.043,1.043,0,0,0,.66-1.31.958.958,0,0,0-.24-.417m41.88,41.515a.969.969,0,0,0-.42-.238,1.055,1.055,0,0,0-1.32.655,1.026,1.026,0,0,0,.24,1.013.969.969,0,0,0,.42.238,1.055,1.055,0,0,0,1.32-.655,1.026,1.026,0,0,0-.24-1.013m-43.26-46.4a.938.938,0,0,0-.96-.238,1.074,1.074,0,0,0-.78,1.251.818.818,0,0,0,.3.477.938.938,0,0,0,.96.238,1.074,1.074,0,0,0,.78-1.251h0a1.3,1.3,0,0,0-.3-.476m48.18,47.769a1.308,1.308,0,0,0-.48-.3,1.116,1.116,0,0,0-1.26.774,1.065,1.065,0,0,0,.24.953.743.743,0,0,0,.48.238,1.116,1.116,0,0,0,1.26-.774.853.853,0,0,0-.24-.893m-49.14-52.772a1,1,0,0,0-.9-.3,1.023,1.023,0,0,0-.84,1.191.8.8,0,0,0,.3.536,1,1,0,0,0,.9.3,1.023,1.023,0,0,0,.84-1.191,1.15,1.15,0,0,0-.3-.536M-1.4,377.789a1.576,1.576,0,0,0-.54-.3,1.113,1.113,0,0,0-1.2.834.979.979,0,0,0,.3.893,1.576,1.576,0,0,0,.54.3,1.113,1.113,0,0,0,1.2-.834.979.979,0,0,0-.3-.893M-56.18,319a1.145,1.145,0,0,0-.78-.3,1.046,1.046,0,0,0-.96,1.072.953.953,0,0,0,.3.655,1.145,1.145,0,0,0,.78.3,1.063,1.063,0,0,0,.96-1.132.949.949,0,0,0-.3-.6M3.7,378.385a.967.967,0,0,0-.66-.3.974.974,0,0,0-1.08.953,1.128,1.128,0,0,0,.3.774.967.967,0,0,0,.66.3h0A.974.974,0,0,0,4,379.159a.773.773,0,0,0-.3-.774m-60.06-64.506a1,1,0,0,0-.72-.3,1.048,1.048,0,0,0-1.02,1.013.983.983,0,0,0,.3.715,1,1,0,0,0,.72.3,1.048,1.048,0,0,0,1.02-1.013.983.983,0,0,0-.3-.715M8.86,378.563a1,1,0,0,0-.72-.3,1.048,1.048,0,0,0-1.02,1.013.983.983,0,0,0,.3.715,1,1,0,0,0,.72.3,1.048,1.048,0,0,0,1.02-1.013.983.983,0,0,0-.3-.715m-65.04-69.807a.967.967,0,0,0-.66-.3.974.974,0,0,0-1.08.953,1.128,1.128,0,0,0,.3.774.967.967,0,0,0,.66.3.974.974,0,0,0,1.08-.953.867.867,0,0,0-.3-.774m70.14,69.569a1.145,1.145,0,0,0-.78-.3,1.046,1.046,0,0,0-.96,1.072.954.954,0,0,0,.3.655,1.145,1.145,0,0,0,.78.3,1.046,1.046,0,0,0,.96-1.072.953.953,0,0,0-.3-.655m-69.48-74.632a1.577,1.577,0,0,0-.54-.3,1.113,1.113,0,0,0-1.2.834.979.979,0,0,0,.3.893,1.576,1.576,0,0,0,.54.3,1.113,1.113,0,0,0,1.2-.834,1.6,1.6,0,0,0-.3-.893m74.58,74.036a1,1,0,0,0-.9-.3,1.023,1.023,0,0,0-.84,1.191.8.8,0,0,0,.3.536,1,1,0,0,0,.9.3,1.023,1.023,0,0,0,.84-1.191.625.625,0,0,0-.3-.536M-54.5,298.69a1.308,1.308,0,0,0-.48-.3,1.116,1.116,0,0,0-1.26.774,1.065,1.065,0,0,0,.24.953,1.308,1.308,0,0,0,.48.3,1.116,1.116,0,0,0,1.26-.774,1.065,1.065,0,0,0-.24-.953m78.66,78.027a1.112,1.112,0,0,0-.96-.3h0a1.044,1.044,0,0,0-.78,1.251.818.818,0,0,0,.3.477.938.938,0,0,0,.96.238,1.044,1.044,0,0,0,.78-1.251c-.12-.119-.18-.3-.3-.417m-77.28-82.911a.969.969,0,0,0-.42-.238,1.055,1.055,0,0,0-1.32.655,1.026,1.026,0,0,0,.24,1.013.969.969,0,0,0,.42.238,1.055,1.055,0,0,0,1.32-.655,1.026,1.026,0,0,0-.24-1.013m82.2,81.482a1.025,1.025,0,0,0-1.68,1.072.958.958,0,0,0,.24.417,1.025,1.025,0,0,0,1.68-1.072.958.958,0,0,0-.24-.417m-80.4-86.306a.765.765,0,0,0-.36-.238,1,1,0,0,0-1.32.536,1,1,0,0,0,.24,1.132.766.766,0,0,0,.36.238,1,1,0,0,0,1.32-.536,1.254,1.254,0,0,0-.24-1.132M33.94,373.5a1.126,1.126,0,0,0-1.14-.238h0a.976.976,0,0,0-.54,1.31,1.245,1.245,0,0,0,.24.357,1.126,1.126,0,0,0,1.14.238h0a.976.976,0,0,0,.54-1.31,1.245,1.245,0,0,1-.24-.357m-83.1-89.165c-.06-.06-.18-.119-.24-.179a1.029,1.029,0,0,0-1.38.477,1.074,1.074,0,0,0,.18,1.191c.06.06.18.119.24.179a1.029,1.029,0,0,0,1.38-.476,1.107,1.107,0,0,0-.18-1.191m87.78,87.021a1,1,0,0,0-1.2-.179,1.068,1.068,0,0,0-.48,1.37.823.823,0,0,0,.18.238,1,1,0,0,0,1.2.179,1.068,1.068,0,0,0,.48-1.37c-.06-.06-.12-.179-.18-.238m-85.26-91.428c-.06-.06-.12-.119-.18-.119a1.072,1.072,0,0,0-1.44.357,1.06,1.06,0,0,0,.12,1.251c.06.06.12.119.18.119a1.072,1.072,0,0,0,1.44-.357,1.06,1.06,0,0,0-.12-1.251m89.7,88.927a1,1,0,0,0-1.26-.119,1.055,1.055,0,0,0-.36,1.43c.06.06.12.119.12.179a1,1,0,0,0,1.26.119,1.055,1.055,0,0,0,.36-1.43c0-.06-.06-.119-.12-.179m-86.82-93.215-.12-.119a1,1,0,0,0-1.44.238,1,1,0,0,0,.12,1.31l.12.119a1,1,0,0,0,1.44-.238,1.164,1.164,0,0,0-.12-1.31M47.38,366a1.013,1.013,0,0,0-1.32-.119,1.036,1.036,0,0,0-.24,1.43l.12.119a1.013,1.013,0,0,0,1.32.119,1.036,1.036,0,0,0,.24-1.43c-.06-.06-.12-.06-.12-.119m-87.96-94.347-.06-.06a1.042,1.042,0,0,0-1.44.119,1,1,0,0,0,.06,1.37l.06.06a1.042,1.042,0,0,0,1.44-.119h0a1,1,0,0,0-.06-1.37m91.98,91.19a1.017,1.017,0,0,0-1.5,1.37l.06.06a1.022,1.022,0,0,0,1.38.06h0a1.034,1.034,0,0,0,.06-1.489h0M-37.1,267.9h0a.985.985,0,0,0-1.44,0,.968.968,0,0,0,0,1.429h0a.985.985,0,0,0,1.44,0h0a.968.968,0,0,0,0-1.429m92.46,91.309h0a.985.985,0,0,0-1.44,0l-.06.06-.06.06a.968.968,0,0,0,0,1.429.985.985,0,0,0,1.44,0l.06-.06.06-.06a1.08,1.08,0,0,0,0-1.429m-88.68-94.824a1.022,1.022,0,0,0-1.38-.06h0a1.024,1.024,0,0,0-.12,1.429l.06.06a1.022,1.022,0,0,0,1.38.06,1.034,1.034,0,0,0,.06-1.489h0m92.16,91.012-.06-.06a1.042,1.042,0,0,0-1.44.119,1,1,0,0,0,.06,1.37l.06.06a1.042,1.042,0,0,0,1.44-.119,1.007,1.007,0,0,0-.06-1.37m3.18-3.991-.12-.119a1.02,1.02,0,0,0-1.32,1.549l.12.119a1.02,1.02,0,0,0,1.32-1.549m2.88-4.289-.18-.179a1.072,1.072,0,0,0-1.44.357,1.06,1.06,0,0,0,.12,1.251l.18.179a1.052,1.052,0,0,0,1.32-1.608M-20.54,255.8a1,1,0,0,0-1.2-.179,1.068,1.068,0,0,0-.48,1.37.822.822,0,0,0,.18.238,1,1,0,0,0,1.2.179,1.068,1.068,0,0,0,.48-1.37.319.319,0,0,0-.18-.238m87.96,86.842c-.06-.06-.18-.119-.24-.179a1.029,1.029,0,0,0-1.38.477h0a1.074,1.074,0,0,0,.18,1.191c.06.06.18.119.24.179a1.029,1.029,0,0,0,1.38-.476,1.091,1.091,0,0,0-.18-1.191m-83.28-88.986a1.126,1.126,0,0,0-1.14-.238.976.976,0,0,0-.54,1.31,1.245,1.245,0,0,0,.24.357,1.126,1.126,0,0,0,1.14.238.976.976,0,0,0,.54-1.31.547.547,0,0,0-.24-.357M69.58,338a.765.765,0,0,0-.36-.238,1.009,1.009,0,0,0-1.08,1.668.765.765,0,0,0,.36.238,1,1,0,0,0,1.32-.536A1.292,1.292,0,0,0,69.58,338M-11,251.874a1.044,1.044,0,0,0-1.02-.238,1.043,1.043,0,0,0-.66,1.31.959.959,0,0,0,.24.417,1.044,1.044,0,0,0,1.02.238,1.043,1.043,0,0,0,.66-1.31.958.958,0,0,0-.24-.417m82.32,81.362A.969.969,0,0,0,70.9,333a1.055,1.055,0,0,0-1.32.655,1.026,1.026,0,0,0,.24,1.013.969.969,0,0,0,.42.238,1.055,1.055,0,0,0,1.32-.655.909.909,0,0,0-.24-1.013m-77.4-82.792a.938.938,0,0,0-.96-.238,1.074,1.074,0,0,0-.78,1.251,1.194,1.194,0,0,0,.24.477.938.938,0,0,0,.96.238,1.074,1.074,0,0,0,.78-1.251.54.54,0,0,0-.24-.477m78.84,77.848a1.307,1.307,0,0,0-.48-.3,1.116,1.116,0,0,0-1.26.774.949.949,0,0,0,.3.953,1.307,1.307,0,0,0,.48.3,1.116,1.116,0,0,0,1.26-.774,1.306,1.306,0,0,0-.3-.953m-73.8-78.861a1,1,0,0,0-.9-.3,1.023,1.023,0,0,0-.84,1.191.8.8,0,0,0,.3.536,1,1,0,0,0,.9.3,1.023,1.023,0,0,0,.84-1.191.822.822,0,0,0-.3-.536m74.76,73.858a1.576,1.576,0,0,0-.54-.3,1.113,1.113,0,0,0-1.2.834.979.979,0,0,0,.3.893,1.575,1.575,0,0,0,.54.3,1.113,1.113,0,0,0,1.2-.834.979.979,0,0,0-.3-.893M4.12,248.836a1.145,1.145,0,0,0-.78-.3,1.063,1.063,0,0,0-.96,1.132.953.953,0,0,0,.3.655,1.145,1.145,0,0,0,.78.3,1.063,1.063,0,0,0,.96-1.132,1.34,1.34,0,0,0-.3-.655m70.2,69.39a1.02,1.02,0,0,0-1.74.655,1.128,1.128,0,0,0,.3.774A1.02,1.02,0,0,0,74.62,319a.818.818,0,0,0-.3-.774M9.22,248.6a1,1,0,0,0-.72-.3,1.048,1.048,0,0,0-1.02,1.013.983.983,0,0,0,.3.715,1,1,0,0,0,.72.3h0a1.048,1.048,0,0,0,1.02-1.013.983.983,0,0,0-.3-.715m65.34,64.566a1,1,0,0,0-.72-.3,1.048,1.048,0,0,0-1.02,1.013.983.983,0,0,0,.3.715,1,1,0,0,0,.72.3,1.048,1.048,0,0,0,1.02-1.013.983.983,0,0,0-.3-.715M14.38,248.777a1.02,1.02,0,0,0-1.74.655,1.128,1.128,0,0,0,.3.774.967.967,0,0,0,.66.3h0a.974.974,0,0,0,1.08-.953,1.128,1.128,0,0,0-.3-.774m60,59.265a1.146,1.146,0,0,0-.78-.3,1.109,1.109,0,0,0-.96,1.132.954.954,0,0,0,.3.655,1.145,1.145,0,0,0,.78.3,1.109,1.109,0,0,0,.96-1.132,2.195,2.195,0,0,0-.3-.655m-54.9-58.729a1.576,1.576,0,0,0-.54-.3,1.113,1.113,0,0,0-1.2.834.979.979,0,0,0,.3.893,1.577,1.577,0,0,0,.54.3,1.113,1.113,0,0,0,1.2-.834,1.456,1.456,0,0,0-.3-.893m54.3,53.666a1,1,0,0,0-.9-.3,1.023,1.023,0,0,0-.84,1.191.8.8,0,0,0,.3.536,1,1,0,0,0,.9.3,1.023,1.023,0,0,0,.84-1.191,2.41,2.41,0,0,0-.3-.536M24.52,250.266a1.309,1.309,0,0,0-.48-.3,1.116,1.116,0,0,0-1.26.774.949.949,0,0,0,.3.953,1.308,1.308,0,0,0,.48.3,1.116,1.116,0,0,0,1.26-.774,1.094,1.094,0,0,0-.3-.953m48.24,47.71a.938.938,0,0,0-.96-.238,1.074,1.074,0,0,0-.78,1.251,1.194,1.194,0,0,0,.24.476.938.938,0,0,0,.96.238,1.074,1.074,0,0,0,.78-1.251.733.733,0,0,0-.24-.476m-43.32-46.34a.969.969,0,0,0-.42-.238h0a1.055,1.055,0,0,0-1.32.655,1.026,1.026,0,0,0,.24,1.013.969.969,0,0,0,.42.238,1.055,1.055,0,0,0,1.32-.655,1.026,1.026,0,0,0-.24-1.013m41.94,41.456a1.025,1.025,0,0,0-1.68,1.072.958.958,0,0,0,.24.417,1.025,1.025,0,0,0,1.68-1.072.958.958,0,0,0-.24-.417M34.24,253.363a.765.765,0,0,0-.36-.238,1.009,1.009,0,0,0-1.08,1.668.765.765,0,0,0,.36.238,1.009,1.009,0,0,0,1.08-1.668m35.4,34.963a1.126,1.126,0,0,0-1.14-.238.976.976,0,0,0-.54,1.31,1.245,1.245,0,0,0,.24.357,1.126,1.126,0,0,0,1.14.238.976.976,0,0,0,.54-1.31,3.531,3.531,0,0,0-.24-.357M38.92,255.447c-.06-.06-.18-.119-.24-.179a1.029,1.029,0,0,0-1.38.477,1.074,1.074,0,0,0,.18,1.191c.06.06.18.119.24.179a1.029,1.029,0,0,0,1.38-.476,1.074,1.074,0,0,0-.18-1.191M67.48,283.68a1,1,0,0,0-1.2-.179,1.068,1.068,0,0,0-.48,1.37.823.823,0,0,0,.18.238,1,1,0,0,0,1.2.179,1.068,1.068,0,0,0,.48-1.37c-.06-.06-.12-.179-.18-.238M43.42,257.949c-.06-.06-.12-.119-.18-.119a1.072,1.072,0,0,0-1.44.357,1.061,1.061,0,0,0,.12,1.251c.06.06.12.119.18.119a1.072,1.072,0,0,0,1.44-.357,1.06,1.06,0,0,0-.12-1.251m21.54,21.323a1,1,0,0,0-1.26-.119,1.055,1.055,0,0,0-.36,1.429c.06.06.12.119.12.179a1,1,0,0,0,1.26.119,1.055,1.055,0,0,0,.36-1.429c0-.06-.06-.179-.12-.179M47.68,260.749l-.12-.119a1.02,1.02,0,0,0-1.32,1.549l.12.119a1,1,0,0,0,1.44-.238,1.164,1.164,0,0,0-.12-1.31m14.4,14.3a1.013,1.013,0,0,0-1.32-.119,1.036,1.036,0,0,0-.24,1.429l.12.119a1.013,1.013,0,0,0,1.32.119,1.036,1.036,0,0,0,.24-1.429.129.129,0,0,0-.12-.119M51.7,263.905l-.06-.06a1.042,1.042,0,0,0-1.44.119,1,1,0,0,0,.06,1.37l.06.06a1.042,1.042,0,0,0,1.44-.119,1.071,1.071,0,0,0-.06-1.37m7.26,7.148a1.017,1.017,0,0,0-1.5,1.37l.06.06a1.022,1.022,0,0,0,1.38.06,1.034,1.034,0,0,0,.06-1.489h0M55.42,267.3h0a.985.985,0,0,0-1.44,0,.968.968,0,0,0,0,1.43h0a.985.985,0,0,0,1.44,0,.968.968,0,0,0,0-1.43" transform="translate(23.24 -230.491)" fill="#6b95ce"/>
          </g>
        </g>
        <g id="Group_104" data-name="Group 104" clip-path="url(#clip-path-6)">
          <g id="Group_103" data-name="Group 103" transform="translate(277.5 238.08)">
            <g id="Group_102" data-name="Group 102">
              <g id="Group_101" data-name="Group 101">
                <g id="Group_100" data-name="Group 100" clip-path="url(#clip-path-7)">
                  <path id="Path_80" data-name="Path 80" d="M550.92,422.653h0a.7.7,0,0,0,.18-1.021.767.767,0,0,0-1.08-.18h0a.7.7,0,0,0-.18,1.021.767.767,0,0,0,1.08.18m3.24-2.1a.69.69,0,0,0,.18-.961.781.781,0,0,0-1.08-.24.059.059,0,0,0-.06.06.69.69,0,0,0-.18.961.779.779,0,0,0,1.14.18h0m-6.3,4.386h0a.724.724,0,0,0,.12-1.081.817.817,0,0,0-1.08-.12.059.059,0,0,0-.06.06.7.7,0,0,0-.06,1.021.832.832,0,0,0,1.08.12m9.66-6.248a.693.693,0,0,0,.24-.9.843.843,0,0,0-1.08-.36h0c-.06,0-.06.06-.12.06a.693.693,0,0,0-.24.9.843.843,0,0,0,1.08.36c.06,0,.06,0,.12-.06m-12.48,8.771c.06,0,.06-.06.12-.06a.692.692,0,0,0,0-1.021.746.746,0,0,0-1.02-.06c-.06,0-.06.06-.12.06a.692.692,0,0,0,0,1.021.742.742,0,0,0,1.02.06m16.02-10.273a.679.679,0,0,0,.24-.9.749.749,0,0,0-1.02-.421c-.06,0-.12.06-.18.06a.679.679,0,0,0-.24.9.748.748,0,0,0,1.02.421.22.22,0,0,0,.18-.06M542.4,430.223c.06-.06.12-.06.12-.12a.656.656,0,0,0-.12-1.021.813.813,0,0,0-.96-.06c-.06.06-.12.06-.12.12a.656.656,0,0,0,.12,1.021.672.672,0,0,0,.96.06m22.32-14.358a.883.883,0,0,0,.3-.841.761.761,0,0,0-.96-.481.454.454,0,0,0-.24.12.883.883,0,0,0-.3.841.761.761,0,0,0,.96.481c.06,0,.12-.06.24-.12M540,433.107l.18-.18a.7.7,0,0,0-.18-1.021.815.815,0,0,0-.9,0l-.18.18a.7.7,0,0,0,.18,1.021.651.651,0,0,0,.9,0m28.44-18.263a.783.783,0,0,0,.3-.781.926.926,0,0,0-.96-.6h0c-.12,0-.18.06-.3.12a.783.783,0,0,0-.3.781.925.925,0,0,0,.96.6.458.458,0,0,0,.3-.12M537.9,436.291c.06-.06.18-.12.18-.24a.732.732,0,0,0-1.08-.961c-.06.06-.18.12-.18.24h0a.714.714,0,0,0,.24,1.021.852.852,0,0,0,.84-.06m34.38-22.168a.732.732,0,0,0,.3-.721.763.763,0,0,0-.9-.6.851.851,0,0,0-.36.12.732.732,0,0,0-.3.721.763.763,0,0,0,.9.6.852.852,0,0,0,.36-.12m-36.3,25.353a.6.6,0,0,0,.24-.3.757.757,0,0,0-.36-1.021.834.834,0,0,0-.84.06.6.6,0,0,0-.24.3.757.757,0,0,0,.36,1.021.718.718,0,0,0,.84-.06M576.12,413.7a.642.642,0,0,0,.3-.661.747.747,0,0,0-.84-.661,1.11,1.11,0,0,0-.42.12.643.643,0,0,0-.3.661.747.747,0,0,0,.84.661h0a3.83,3.83,0,0,0,.42-.12m-41.7,29.2a.552.552,0,0,0,.24-.361.731.731,0,0,0-.42-.961.754.754,0,0,0-.78.12.552.552,0,0,0-.24.36.731.731,0,0,0,.42.961,1.2,1.2,0,0,0,.78-.12m45.6-29.378a.732.732,0,0,0-.48-1.322,1.41,1.41,0,0,0-.48.12.732.732,0,0,0,.48,1.322.466.466,0,0,0,.48-.12M533.1,446.384a1.078,1.078,0,0,0,.3-.421.712.712,0,0,0-.54-.9.793.793,0,0,0-.72.12,1.077,1.077,0,0,0-.3.421.721.721,0,0,0,.48.9,1.143,1.143,0,0,0,.78-.12M583.92,413.7a.772.772,0,0,0-.42-1.382,1.75,1.75,0,0,0-.54.12.74.74,0,0,0-.3.6.784.784,0,0,0,.72.781,1.2,1.2,0,0,0,.54-.12m-51.84,36.287a.947.947,0,0,0,.3-.481.749.749,0,0,0-.6-.9.832.832,0,0,0-.66.12.948.948,0,0,0-.3.481h0a.749.749,0,0,0,.6.9.832.832,0,0,0,.66-.12m55.74-35.926a.631.631,0,0,0,.3-.541.747.747,0,0,0-.66-.841.7.7,0,0,0-.6.12.631.631,0,0,0-.3.541.747.747,0,0,0,.66.841.7.7,0,0,0,.6-.12M531.3,453.653a.631.631,0,0,0,.3-.541.747.747,0,0,0-.66-.841.7.7,0,0,0-.6.12.631.631,0,0,0-.3.541.747.747,0,0,0,.66.841.9.9,0,0,0,.6-.12m60.36-38.81a.949.949,0,0,0,.3-.481.749.749,0,0,0-.6-.9.832.832,0,0,0-.66.12.948.948,0,0,0-.3.481.749.749,0,0,0,.6.9,1.186,1.186,0,0,0,.66-.12m-60.78,42.475a.772.772,0,0,0-.42-1.382,1.75,1.75,0,0,0-.54.12.772.772,0,0,0,.42,1.382.538.538,0,0,0,.54-.12m64.56-41.453a1.077,1.077,0,0,0,.3-.421.711.711,0,0,0-.54-.9,1.031,1.031,0,0,0-.72.12,1.076,1.076,0,0,0-.3.421.711.711,0,0,0,.54.9,1.031,1.031,0,0,0,.72-.12m-64.68,45.178a.732.732,0,0,0-.48-1.322,1.41,1.41,0,0,0-.48.12.732.732,0,0,0,.48,1.322.5.5,0,0,0,.48-.12m68.34-43.916a.551.551,0,0,0,.24-.36.731.731,0,0,0-.42-.961.754.754,0,0,0-.78.12.552.552,0,0,0-.24.36.731.731,0,0,0,.42.961.888.888,0,0,0,.78-.12m-68.16,47.7a.642.642,0,0,0,.3-.661h0a.747.747,0,0,0-.84-.661,1.112,1.112,0,0,0-.42.12.643.643,0,0,0-.3.661.747.747,0,0,0,.84.661.866.866,0,0,0,.42-.12m71.7-46.2a.6.6,0,0,0,.24-.3.757.757,0,0,0-.36-1.021.834.834,0,0,0-.84.06.6.6,0,0,0-.24.3.757.757,0,0,0,.36,1.021.834.834,0,0,0,.84-.06m-71.22,49.864a.732.732,0,0,0,.3-.721.763.763,0,0,0-.9-.6.852.852,0,0,0-.36.12.732.732,0,0,0-.3.721.763.763,0,0,0,.9.6c.18,0,.3,0,.36-.12m74.64-48c.06-.06.18-.12.18-.24a.732.732,0,0,0-1.08-.961c-.06.06-.18.12-.18.24a.714.714,0,0,0,.24,1.021.845.845,0,0,0,.84-.06m-73.8,51.666a.783.783,0,0,0,.3-.781h0a.926.926,0,0,0-.96-.6c-.12,0-.18.06-.3.12a.783.783,0,0,0-.3.781h0a.925.925,0,0,0,.96.6c.12,0,.18-.06.3-.12m77.04-49.624.18-.18a.7.7,0,0,0-.18-1.021.815.815,0,0,0-.9,0l-.18.18a.7.7,0,0,0,.18,1.021.815.815,0,0,0,.9,0m-75.96,53.228a.884.884,0,0,0,.3-.841.761.761,0,0,0-.96-.481.455.455,0,0,0-.24.12.884.884,0,0,0-.3.841.761.761,0,0,0,.96.481.455.455,0,0,0,.24-.12m79.08-50.945c.06-.06.12-.06.12-.12a.656.656,0,0,0-.12-1.021.813.813,0,0,0-.96-.06c-.06.06-.12.06-.12.12a.656.656,0,0,0,.12,1.021.728.728,0,0,0,.96.06m-77.7,54.43a.679.679,0,0,0,.24-.9.749.749,0,0,0-1.02-.421c-.06,0-.12.06-.18.06a.679.679,0,0,0-.24.9.749.749,0,0,0,1.02.421.22.22,0,0,0,.18-.06m80.64-51.907c.06,0,.06-.06.12-.06a.692.692,0,0,0,0-1.021.746.746,0,0,0-1.02-.06c-.06,0-.06.06-.12.06a.692.692,0,0,0,0,1.021.746.746,0,0,0,1.02.06M536.4,482.61a.693.693,0,0,0,.24-.9.843.843,0,0,0-1.08-.36c-.06,0-.06.06-.12.06a.693.693,0,0,0-.24.9.843.843,0,0,0,1.08.36.186.186,0,0,0,.12-.06M618.06,430.1h0a.724.724,0,0,0,.12-1.081.817.817,0,0,0-1.08-.12.059.059,0,0,0-.06.06.694.694,0,0,0-.06,1.021h0a.817.817,0,0,0,1.08.12m-79.74,55.812a.69.69,0,0,0,.18-.961.781.781,0,0,0-1.08-.24.059.059,0,0,0-.06.06.69.69,0,0,0-.18.961h0a.893.893,0,0,0,1.14.18h0m82.14-52.928h0a.7.7,0,0,0,.18-1.021.767.767,0,0,0-1.08-.18h0a.7.7,0,0,0-.18,1.021h0a.767.767,0,0,0,1.08.18M540.6,489.1h0a.7.7,0,0,0,.18-1.021l-.06-.06a.059.059,0,0,0-.06-.06.767.767,0,0,0-1.08-.18.7.7,0,0,0-.18,1.021l.06.06a.059.059,0,0,0,.06.06.721.721,0,0,0,1.08.18m82.08-52.988a.69.69,0,0,0,.18-.961h0a.781.781,0,0,0-1.08-.24.059.059,0,0,0-.06.06.69.69,0,0,0-.18.961.779.779,0,0,0,1.14.18c-.06.06,0,.06,0,0m-79.62,55.932h0a.724.724,0,0,0,.12-1.081.817.817,0,0,0-1.08-.12.059.059,0,0,0-.06.06.694.694,0,0,0-.06,1.021.9.9,0,0,0,1.08.12m2.64,2.7c.06,0,.06-.06.12-.06a.692.692,0,0,0,0-1.021.746.746,0,0,0-1.02-.06c-.06,0-.06.06-.12.06a.692.692,0,0,0,0,1.021.746.746,0,0,0,1.02.06m2.94,2.523c.06-.06.12-.06.12-.12a.656.656,0,0,0-.12-1.021.813.813,0,0,0-.96-.06c-.06.06-.12.06-.12.12a.656.656,0,0,0,.12,1.021.669.669,0,0,0,.96.06M627.66,446.2a.884.884,0,0,0,.3-.841.761.761,0,0,0-.96-.481.454.454,0,0,0-.24.12.884.884,0,0,0-.3.841.761.761,0,0,0,.96.481.312.312,0,0,0,.24-.12M551.7,499.612l.18-.18a.7.7,0,0,0-.18-1.021h0a.815.815,0,0,0-.9,0l-.18.18a.7.7,0,0,0,.18,1.021.815.815,0,0,0,.9,0m77.1-49.8a.783.783,0,0,0,.3-.781.925.925,0,0,0-.96-.6c-.12,0-.18.06-.3.12a.783.783,0,0,0-.3.781.925.925,0,0,0,.96.6c.12,0,.18-.06.3-.12M555,501.655c.06-.06.18-.12.18-.24a.69.69,0,0,0-.3-1.021.718.718,0,0,0-.84.06c-.06.06-.18.12-.18.24a.69.69,0,0,0,.3,1.021.852.852,0,0,0,.84-.06m74.58-48.182a.732.732,0,0,0,.3-.721.763.763,0,0,0-.9-.6.852.852,0,0,0-.36.12.732.732,0,0,0-.3.721.763.763,0,0,0,.9.6.852.852,0,0,0,.36-.12m-71.16,49.984a.6.6,0,0,0,.24-.3.757.757,0,0,0-.36-1.021.834.834,0,0,0-.84.06.6.6,0,0,0-.24.3.757.757,0,0,0,.36,1.021.834.834,0,0,0,.84-.06M630.06,457.2a.643.643,0,0,0,.3-.661.747.747,0,0,0-.84-.661,1.112,1.112,0,0,0-.42.12.642.642,0,0,0-.3.661.747.747,0,0,0,.84.661.867.867,0,0,0,.42-.12m-68.1,47.821a.552.552,0,0,0,.24-.36.731.731,0,0,0-.42-.961.754.754,0,0,0-.78.12.552.552,0,0,0-.24.36.731.731,0,0,0,.42.961,1.645,1.645,0,0,0,.78-.12m68.28-44.1a.732.732,0,0,0-.48-1.322,1.411,1.411,0,0,0-.48.12.732.732,0,0,0,.48,1.322,1.129,1.129,0,0,0,.48-.12m-64.62,45.358a1.077,1.077,0,0,0,.3-.421.711.711,0,0,0-.54-.9,1.032,1.032,0,0,0-.72.12,1.078,1.078,0,0,0-.3.421.711.711,0,0,0,.54.9.93.93,0,0,0,.72-.12m64.5-41.633a.74.74,0,0,0,.3-.6.784.784,0,0,0-.72-.781,1.75,1.75,0,0,0-.54.12.74.74,0,0,0-.3.6.784.784,0,0,0,.72.781.538.538,0,0,0,.54-.12M569.4,507.3a.948.948,0,0,0,.3-.481.749.749,0,0,0-.6-.9.832.832,0,0,0-.66.12.947.947,0,0,0-.3.481.749.749,0,0,0,.6.9.832.832,0,0,0,.66-.12m60.3-38.93a.631.631,0,0,0,.3-.541.747.747,0,0,0-.66-.841.7.7,0,0,0-.6.12.631.631,0,0,0-.3.541h0a.747.747,0,0,0,.66.841.655.655,0,0,0,.6-.12m-56.46,39.591a.631.631,0,0,0,.3-.541.747.747,0,0,0-.66-.841.7.7,0,0,0-.6.12.631.631,0,0,0-.3.541.747.747,0,0,0,.66.841.7.7,0,0,0,.6-.12m55.74-35.926a.948.948,0,0,0,.3-.481.749.749,0,0,0-.6-.9.832.832,0,0,0-.66.12.948.948,0,0,0-.3.481h0a.749.749,0,0,0,.6.9.832.832,0,0,0,.66-.12m-51.84,36.407a.74.74,0,0,0,.3-.6.784.784,0,0,0-.72-.781,1.75,1.75,0,0,0-.54.12.74.74,0,0,0-.3.6.784.784,0,0,0,.72.781.612.612,0,0,0,.54-.12m50.82-32.8a1.077,1.077,0,0,0,.3-.421.711.711,0,0,0-.54-.9,1.031,1.031,0,0,0-.72.12,1.077,1.077,0,0,0-.3.421.711.711,0,0,0,.54.9.93.93,0,0,0,.72-.12m-46.92,32.922a.732.732,0,0,0-.48-1.322,1.41,1.41,0,0,0-.48.12.732.732,0,0,0,.48,1.322.5.5,0,0,0,.48-.12m45.6-29.438a.551.551,0,0,0,.24-.36.731.731,0,0,0-.42-.961.754.754,0,0,0-.78.12.552.552,0,0,0-.24.36.731.731,0,0,0,.42.961,1.086,1.086,0,0,0,.78-.12m-41.76,29.318a.643.643,0,0,0,.3-.661.747.747,0,0,0-.84-.661,1.112,1.112,0,0,0-.42.12.643.643,0,0,0-.3.661.747.747,0,0,0,.84.661.7.7,0,0,0,.42-.12m40.2-25.953a.6.6,0,0,0,.24-.3h0a.757.757,0,0,0-.36-1.021.834.834,0,0,0-.84.06.6.6,0,0,0-.24.3.757.757,0,0,0,.36,1.021.834.834,0,0,0,.84-.06m-36.3,25.473a.732.732,0,0,0,.3-.721.763.763,0,0,0-.9-.6.852.852,0,0,0-.36.12.732.732,0,0,0-.3.721.763.763,0,0,0,.9.6.643.643,0,0,0,.36-.12m34.44-22.168c.06-.06.18-.12.18-.24a.732.732,0,0,0-1.08-.961c-.06.06-.18.12-.18.24a.714.714,0,0,0,.24,1.021,1.348,1.348,0,0,0,.84-.06m-30.6,21.448a.783.783,0,0,0,.3-.781.926.926,0,0,0-.96-.6c-.12,0-.18.06-.3.12a.782.782,0,0,0-.3.781.925.925,0,0,0,.96.6c.12,0,.18-.06.3-.12m28.44-18.384.18-.18a.7.7,0,0,0-.18-1.021.815.815,0,0,0-.9,0l-.18.18a.7.7,0,0,0,.18,1.021.72.72,0,0,0,.9,0m-24.72,17.362a.884.884,0,0,0,.3-.841.761.761,0,0,0-.96-.481.455.455,0,0,0-.24.12.884.884,0,0,0-.3.841.761.761,0,0,0,.96.481c.12-.06.18-.06.24-.12M618.66,491.8c.06-.06.12-.06.12-.12a.656.656,0,0,0-.12-1.021.813.813,0,0,0-.96-.06c-.06.06-.12.06-.12.12a.656.656,0,0,0,.12,1.021.817.817,0,0,0,.96.06M600,504.9a.679.679,0,0,0,.24-.9.748.748,0,0,0-1.02-.421c-.06,0-.12.06-.18.06a.679.679,0,0,0-.24.9.748.748,0,0,0,1.02.421.22.22,0,0,0,.18-.06m16.08-10.393c.06,0,.06-.06.12-.06a.692.692,0,0,0,0-1.021.746.746,0,0,0-1.02-.06c-.06,0-.06.06-.12.06a.692.692,0,0,0,0,1.021.742.742,0,0,0,1.02.06m-12.54,8.831a.754.754,0,0,0,.24-.961.844.844,0,0,0-1.08-.36c-.06,0-.06.06-.12.06a.754.754,0,0,0-.24.961.843.843,0,0,0,1.08.36c.06-.06.06-.06.12-.06m9.66-6.248h0a.724.724,0,0,0,.12-1.081.817.817,0,0,0-1.08-.12.059.059,0,0,0-.06.06.694.694,0,0,0-.06,1.021.817.817,0,0,0,1.08.12m-6.3,4.446a.689.689,0,0,0,.18-.961.781.781,0,0,0-1.08-.24.059.059,0,0,0-.06.06.69.69,0,0,0-.18.961,1.08,1.08,0,0,0,1.14.18h0m3.24-2.163h0a.7.7,0,0,0,.18-1.021.767.767,0,0,0-1.08-.18h0a.7.7,0,0,0-.18,1.021.767.767,0,0,0,1.08.18" transform="translate(-489.3 -402.347)" fill="#6b95ce"/>
                </g>
              </g>
            </g>
          </g>
        </g>
        <g id="line" clip-path="url(#clip-path-6)">
          <g id="Group_113" data-name="Group 113" transform="translate(0 467.215)">
            <g id="Group_112" data-name="Group 112">
              <g id="Group_111" data-name="Group 111">
                <g id="Group_110" data-name="Group 110" clip-path="url(#clip-path-9)">
                  <path id="Path_82" data-name="Path 82" d="M-100.9,793.5c15.54,0,15.54,15.2,31.14,15.2,15.54,0,15.54-15.2,31.14-15.2,15.54,0,15.54,15.2,31.14,15.2s15.6-15.2,31.14-15.2c15.6,0,15.6,15.2,31.14,15.2" transform="translate(40.36 -783.707)" fill="none" stroke="#030304" stroke-miterlimit="10" stroke-width="1"/>
                </g>
              </g>
            </g>
          </g>
        </g>
        <g id="ilustration" transform="translate(77.897 358)">
          <g id="avatar">
            <g id="Group_934" data-name="Group 934" clip-path="url(#clip-path-10)">
              <path id="Path_304" data-name="Path 304" d="M-64.438,32.9H-206a1.542,1.542,0,0,1-1.541-1.543V29.05A1.542,1.542,0,0,1-206,27.507H-64.438A1.542,1.542,0,0,1-62.9,29.05v2.311A1.542,1.542,0,0,1-64.438,32.9" transform="translate(207.537 64.705)" fill="#fff"/>
              <path id="Path_305" data-name="Path 305" d="M-27.781-44.82c1.919,6.771-2.766,13.748-7.927,15.214s-8.844-3.135-10.761-9.906.71-13.448,5.87-14.914,10.9,2.835,12.818,9.606" transform="translate(207.331 64.705)" fill="#f09959"/>
              <path id="Path_306" data-name="Path 306" d="M-56.735,86.381s13.226,20.568,15.012,21.462,6.252,1.118,4.578,4.472-2.345,16.544-3.908,17.214-14.96,2.236-12.95,0,3.246-1.117,4.26-5.142,2.439-11.625.541-13.19-13.509-15.65-13.509-15.65Z" transform="translate(207.352 64.705)" fill="#f09959"/>
              <path id="Path_307" data-name="Path 307" d="M-123.413,95.214s-16.077,26.531-19.054,28.916-12.8,5.962-4.763,6.558,11.909-2.682,16.97-4.173,11.312-2.385,8.932-6.26-1.393-12.336,3.741-17.7-5.826-7.339-5.826-7.339" transform="translate(207.464 64.705)" fill="#f09959"/>
              <path id="Path_308" data-name="Path 308" d="M-41.344,33.691s-39.8-1.042-55.578,11.924c-9.229,14.011-31.557,55.351-33.292,59.906,1.19,1.193,7.89,3.344,10.867,3.046,8.783-10.485,20.392-19.551,25.008-27.776,5.69-10.135,7.443-15.2,16.673-16.1s30.07-3.875,36.322-3.875,0-27.128,0-27.128" transform="translate(207.438 64.705)" fill="#455ba6"/>
            </g>
          </g>
          <path id="Path_309" data-name="Path 309" d="M-23.547,68.265l14.96,62.495H-6.5L-18.958,68.265Z" transform="translate(207.301 64.705)" fill="#fff"/>
          <path id="Path_310" data-name="Path 310" d="M-54.39,66.055-69.053,130.76h2.086L-49.8,66.055Z" transform="translate(207.36 64.705)" fill="#fff"/>
          <g id="Group_937" data-name="Group 937">
            <g id="Group_936" data-name="Group 936" clip-path="url(#clip-path-10)">
              <path id="Path_311" data-name="Path 311" d="M-18.628,30.961l-23.138,4s-30.748.283-44.8,2.9c-12.788,2.385-14.672,16.934,0,36.965,8.334,11.38,15.38,20.457,29.791,30.692,3.666-2.7,5.068-3.714,6.081-10.2-1.043-1.432-3.743-10.393-4.58-12.147-7.971-16.683-18.61-22.75-18.758-24.391,1.787-2.906,47.316,15.15,56.369,4.528,8.643-10.139-.961-32.352-.961-32.352" transform="translate(207.395 64.705)" fill="#455ba6"/>
              <path id="Path_312" data-name="Path 312" d="M-17.6-21.489a24.183,24.183,0,0,0-18.1,4.511C-40.78-11.8-46.52-3.263-46.168,10.819c.446,17.886-2.764,19.034.585,23.953,13.969,5.776,37.859,30.592,32.234,3.987C-17.423,19.5-4.415,5.136-14.908-16.232c-.855-1.739-1.922-3.426-2.695-5.257" transform="translate(207.331 64.705)" fill="#f6ce3c"/>
              <path id="Path_313" data-name="Path 313" d="M-17.588-21.489a72.866,72.866,0,0,1-4.674-18.888l-9.824,2.906s5.582,12.52.223,16.991a51.331,51.331,0,0,0-3.829,3.5,24.183,24.183,0,0,1,18.1-4.511" transform="translate(207.317 64.705)" fill="#f09959"/>
              <path id="Path_314" data-name="Path 314" d="M-21.962-38.009c-.582-.518-1.31-1.166-2.075-1.842l-8.013,2.37c-.006.015-.012.029-.017.044a32.791,32.791,0,0,1,2.5,9.8c2.388-1.45,5-3.816,7.992-7.948-.162-.916-.29-1.734-.389-2.423" transform="translate(207.312 64.705)" fill="#e38540"/>
              <path id="Path_315" data-name="Path 315" d="M-24.558-18.692c-10.119,3.543-9,14.217-18.308,29.958-4.82,8.146-9.3,8.025-9.3,8.025a215.248,215.248,0,0,1-24.974-1.583c-8.561-1.048-9.1,1.5-3.151,3.635,12.009,4.3,24.471,8.926,34.518,7.808S-18.536,2.364-17.651-4.318c1.225-9.241-1.811-16.159-6.907-14.374" transform="translate(207.379 64.705)" fill="#f09959"/>
              <path id="Path_316" data-name="Path 316" d="M-29.745,70.87q-.944,0-1.935-.025a96.091,96.091,0,0,1-18.37-2.264c-5.266-1.071-8.167-1.662-11.543-.046a2.6,2.6,0,0,1-3.469-1.227,2.606,2.606,0,0,1,1.225-3.473c4.949-2.367,9.09-1.524,14.822-.358A91.545,91.545,0,0,0-31.55,65.638c8.717.218,14.031-1.077,16.725-4.068,2.4-2.665,3.1-7.143,2.209-14.092-.3-2.378-.61-4.356-.88-6.1-.761-4.924-1.262-8.176-.641-13.2.578-4.669,2.122-10.889,5.7-22.949A2.6,2.6,0,0,1-5.2,3.468,2.6,2.6,0,0,1-3.452,6.706c-6.664,22.474-6.326,24.663-4.9,33.875.275,1.776.585,3.789.9,6.233,1.1,8.569-.013,14.367-3.505,18.244-3.6,3.993-9.434,5.812-18.783,5.812" transform="translate(207.355 64.705)" fill="#fff"/>
              <path id="Path_317" data-name="Path 317" d="M-122.32,117.575c-10.667,5.224-16.409,8.217-19.829,7.932-.808-.067-1.477-.15-2.038-.237-3.8,2.251-9.876,4.911-3.044,5.418,8.039.6,11.909-2.683,16.97-4.173s11.313-2.385,8.932-6.261a8.182,8.182,0,0,1-.991-2.679" transform="translate(207.464 64.705)" fill="#584ea8"/>
              <path id="Path_318" data-name="Path 318" d="M-40.549,108.28c-.261,8.457-1.422,16.837-6.588,18.42a8.665,8.665,0,0,1-3.721.332c-.813,1.006-1.8,1.017-3.135,2.5-2.009,2.235,11.387.67,12.95,0s2.233-13.862,3.908-17.215c1.375-2.755-1.392-3.4-3.415-4.035" transform="translate(207.341 64.705)" fill="#584ea8"/>
              <path id="Path_319" data-name="Path 319" d="M-81.739,28.247h-33.889a2.6,2.6,0,0,1-2.359-1.507L-131.681-2.772a2.606,2.606,0,0,1,1.262-3.459,2.6,2.6,0,0,1,3.455,1.264l13,28.005h32.23a2.6,2.6,0,0,1,2.6,2.6,2.6,2.6,0,0,1-2.6,2.6" transform="translate(207.44 64.705)"/>
              <path id="Path_320" data-name="Path 320" d="M-74.614,18c-6.847-.1-13.638-4.186-17.013-3.59s-14.389,8.248-13,8.546,10.123-4.235,10.421-4.3,2.183,3.139,6.847,4.318.033-3.5,14.491.872c9.4,2.843-1.746-5.842-1.746-5.842" transform="translate(207.405 64.705)" fill="#f09959"/>
              <path id="Path_321" data-name="Path 321" d="M-18.6-29.606l1.008,8.117s-8.862.528-13.271,3.012S-41.783-8.815-41.783-8.815l5.316-9.165.765-5.863Z" transform="translate(207.325 64.705)" fill="#fff"/>
              <path id="Path_322" data-name="Path 322" d="M-22.416-19.67C-29-20.905-32.043-15-36.31-5.361s-11.552,21.345-13,22.855-24.413,0-24.413,0-.7,6.657,0,7.452,4.664.7,4.664.7,1.588,1.269,3.076,2.274,14.093,2.893,19.947,2.595,11.215-.8,12.009-1.689S-17.256,3.284-16.263-5.56s-2.794-13.48-6.153-14.11" transform="translate(207.366 64.705)" fill="#fff"/>
              <path id="Path_323" data-name="Path 323" d="M-41.8-60.212c-12.448.6-10.5,19.346-10.5,19.346s3.233,1,10.006-.118c-.521-2.012-.3-7.155-.3-7.155A46.879,46.879,0,0,0-40.8-41.431c1.431.657,3.051.074,5.806-.592,1.414,5.957,5.41,8.475,8.147,9.336,3.023.952,6.223,2.087,9.8.3s1.608-20.072-.289-23.749c-2.847-5.519-7.58-10.458-15.768-7.85A60.784,60.784,0,0,0-41.8-60.212" transform="translate(207.338 64.705)" fill="#303d61"/>
              <path id="Path_324" data-name="Path 324" d="M-20.109-37.944-15.02-30.5S-20.66-16.391-4.256-10C8.591-4.991,7.077,3.83,1.273,12.7S4.746,29.32,4.746,29.32s1.414-9.827,13.9-11.682c17.019-2.529,21.839-25.409,9.126-36.849-10.519-9.467-13.72-1.627-20.84-10.123S-13.634-32.09-13.634-32.09l-4.927-7.195Z" transform="translate(207.297 64.705)" fill="#303d61"/>
              <path id="Path_325" data-name="Path 325" d="M33.632,3.837a.446.446,0,0,1-.217-.056.453.453,0,0,1-.18-.615c4.279-7.831.787-17.318-.969-19.888-.187-.273-.364-.549-.55-.841-1.726-2.7-3.873-6.054-15.333-8.12-2.759-.5-4.995-2.14-7.361-3.879C4.136-33.154-1.4-37.225-13.437-31.679a.452.452,0,0,1-.6-.222.452.452,0,0,1,.222-.6C-1.3-38.272,4.47-34.033,9.559-30.292c2.279,1.675,4.431,3.257,6.985,3.717,11.849,2.136,14.114,5.678,15.935,8.523.184.286.357.556.535.818,1.84,2.692,5.5,12.632,1.016,20.835a.452.452,0,0,1-.4.236" transform="translate(207.289 64.705)" fill="#303d61"/>
              <path id="Path_326" data-name="Path 326" d="M-22.847-30.317a17.932,17.932,0,0,1-2.644-.213c-4.354-.653-10.2-3.131-10.655-17.047a.453.453,0,0,1,.437-.468.453.453,0,0,1,.467.438c.189,5.736,1.325,9.98,3.378,12.614a9.491,9.491,0,0,0,6.508,3.567c4.03.6,6.7-.141,7.939-2.215A.453.453,0,0,1-16.8-33.8a.454.454,0,0,1,.156.622c-1.135,1.9-3.218,2.859-6.207,2.859" transform="translate(207.317 64.705)" fill="#303d61"/>
            </g>
          </g>
          <path id="Path_327" data-name="Path 327" d="M-95.088,31.182l13.01,99.578h3.344l-9-99.578Z" transform="translate(207.393 64.705)" fill="#fff"/>
          <g id="Group_939" data-name="Group 939">
            <g id="Group_938" data-name="Group 938" clip-path="url(#clip-path-10)">
              <path id="Path_328" data-name="Path 328" d="M52.6,46.707c5.787,5.29,3.271,10.58-1.007,20.4s-5.032,46.1-5.032,46.1l3.522-.5s-.5-37.281,4.277-47.356,6.792-15.114,11.07-11.84-12.831-6.8-12.831-6.8" transform="translate(207.211 64.705)" fill="#73b570"/>
              <path id="Path_329" data-name="Path 329" d="M49.427,39.858c.7-3.135,4.876-6.527,10.457-9.4-.83,4.623-3.491,12.183-.737,13.734,3.713,2.091.362-8.464,1.795-14.266a68.892,68.892,0,0,1,17.349-5.7c-.009.022-.015.042-.024.064C75,32.6,70.718,35.875,72.48,37.135c1.324.947,5.64-8.655,11.338-13.577,4.277-.228,7.9.352,10.036,2.049,3.309,2.623,5.53,4.95,2.2,12.936a14.929,14.929,0,0,1-7.225,2.622c-7.547.756-11.07,1.008-5.787,3.527,2.588,1.233,6.923-.07,10.44-.864-1.141,2.1-2.543,4.487-4.247,7.2A26.723,26.723,0,0,1,85.7,55.533c-2.433.467-4.553.472-5.676-.01-3.522-1.511-12.579-6.3-14.843-4.282-2.216,1.973,16.772,3.222,15.457,8.234-9.2,5.31-19.737,2.783-21.6-2.092-2.5-6.548-11.733-8.089-9.617-17.525" transform="translate(207.208 64.705)" fill="#9cd499"/>
              <path id="Path_330" data-name="Path 330" d="M68.442,75.675c-10.063-7.557-20.378-.5-25.661,7.557s-1.509,26.2-1.509,26.2,2.012,0,2.012-.755S37.75,87.262,50.832,77.942c8.183-5.831,14.088-3.023,14.843-.252S62.4,85.5,62.4,85.5Z" transform="translate(207.22 64.705)" fill="#73b570"/>
              <path id="Path_331" data-name="Path 331" d="M45.3,60.141c10.063,0,13.334,15.618,10.566,24.686s-6.542,25.946-6.542,25.946l-2.516-2.519S56.374,84.575,54.11,74s-7.8-12.343-8.806-12.343,0-1.511,0-1.511" transform="translate(207.213 64.705)" fill="#9cd499"/>
              <path id="Path_332" data-name="Path 332" d="M53.753,84.9A7.3,7.3,0,0,1,56.4,82.668a19.946,19.946,0,0,1-.522,2.159c-1.261,4.132-2.73,9.884-3.957,14.923l-.549-3.174c-.062-.362-.111-.756-.146-1.172A97.556,97.556,0,0,0,53.753,84.9" transform="translate(207.205 64.705)" fill="#73b570"/>
              <path id="Path_333" data-name="Path 333" d="M56.5,84.973c19.118-8.061,9.045-19.122,25.9-11.817a12.5,12.5,0,0,1,4.082,3.6,12.525,12.525,0,0,1-5.339.429c-5.032-.755-3.272,3.275,5.032,4.283a18.644,18.644,0,0,1,3.889.821c3.956,7.607,5.738,17.615-2.632,21.094a18.967,18.967,0,0,1-5.957,1.224c-2.583-2.056.63-13.949-3.352-12.308-3.823,1.576,1.2,10.2.51,12.368A55.134,55.134,0,0,1,66.7,102.992a5.947,5.947,0,0,1-3.157-3.639c-1.258-5.289,7.043-8.564,7.3-13.1.231-4.169-3.043,9.17-11.717,11.133-7.844-3.668-11.55-8.647-2.613-12.415" transform="translate(207.205 64.705)" fill="#9cd499"/>
              <path id="Path_334" data-name="Path 334" d="M42.831,70.721c2.012-4.282-3.271-5.29-3.019-2.015.223,2.9.248,9.955-2.724,11.875a46.6,46.6,0,0,1-17.372-5.776,2.146,2.146,0,0,1,.222-1.313c2.264-4.534,16.855-8.313,12.327-9.824-3.606-1.2-9.925,5.9-15.018,9.48-3.059-2.324-5.108-5.094-5.108-8.185,0-4.185,5.078-8.922,11.646-11.187,2.956.3,5.7,1.917,9.99,4.35,6.335,3.6,4.87-2.217-1.121-5.666a18.034,18.034,0,0,1,14.129,7.765s-.36,2.259,2.028,5.753c6.514,9.533-1,15.1-9.99,14.736.508-2.513,2.62-7.034,4.01-9.993" transform="translate(207.255 64.705)" fill="#9cd499"/>
              <path id="Path_335" data-name="Path 335" d="M67.87,75.248c4.92,3.807,10.385,8.257,17.094,11.28S90.331,99.4,90.331,99.4s1.007-8.51-4.584-11.42S76.466,81.6,72.217,80.93a61.632,61.632,0,0,1-6.6-1.343s1.341-2.688.559-3.695,1.691-.644,1.691-.644" transform="translate(207.187 64.705)" fill="#73b570"/>
              <path id="Path_336" data-name="Path 336" d="M92.109,30.548c-18,4.814-31.2,16.346-33.657,19.145s-2.46,3.583-2.46,3.583l1.9,3.583.895-.448s-1.454-3.023,2.348-6.942c6.557-6.758,14.536-12.091,20.015-14.443s10.958-4.478,10.958-4.478" transform="translate(207.199 64.705)" fill="#73b570"/>
              <path id="Path_337" data-name="Path 337" d="M42.387,130.323h6.878a8.861,8.861,0,0,0,8.856-8.867V105.633H33.531v15.823a8.861,8.861,0,0,0,8.856,8.867" transform="translate(207.228 64.705)" fill="#edd742"/>
            </g>
          </g>
          <rect id="Rectangle_59" data-name="Rectangle 59" width="24.589" height="1.733" transform="translate(240.758 173.167)" fill="#fff"/>
          <rect id="Rectangle_60" data-name="Rectangle 60" width="24.589" height="1.02" transform="translate(240.758 176.327)" fill="#fff"/>
        </g>
      </g>
    </g>
  </g>
</svg>
