<svg xmlns="http://www.w3.org/2000/svg" xmlns:xlink="http://www.w3.org/1999/xlink" viewBox="0 0 309 155.73"><defs><style>.cls-1{fill:#91ccf2;}.cls-2{fill:#445ca6;}.cls-3{fill:url(#linear-gradient);}.cls-4{fill:#263572;}.cls-5{fill:url(#linear-gradient-2);}.cls-12,.cls-6{fill:#fff;}.cls-7{fill:#319188;}.cls-11,.cls-8{fill:none;}.cls-8{stroke:#21295b;stroke-linecap:round;stroke-linejoin:round;stroke-width:0.5px;}.cls-9{fill:#4fae86;}.cls-10{fill:#6ce08b;}.cls-11{stroke:#4e5683;stroke-miterlimit:10;}.cls-12{opacity:0.3;}.cls-13{fill:#fec4ad;}.cls-14{fill:#0f2e40;}.cls-15{fill:#471a16;}.cls-16{fill:#133a50;}.cls-17{fill:#f5ce3a;}.cls-18{fill:#c9cdd8;}</style><linearGradient id="linear-gradient" x1="160.19" y1="133.31" x2="160.19" y2="154.74" gradientUnits="userSpaceOnUse"><stop offset="0" stop-color="#eef4fb"/><stop offset="0.31" stop-color="#e3edf8"/><stop offset="1" stop-color="#cfe1f3"/></linearGradient><linearGradient id="linear-gradient-2" x1="151.86" y1="110.44" x2="151.86" y2="136.18" xlink:href="#linear-gradient"/></defs><title>aucun-candidat</title><g id="Calque_2" data-name="Calque 2"><g id="OBJECTS"><rect class="cls-1" x="127.65" y="62.3" width="5.96" height="10.22" transform="translate(261.27 134.82) rotate(180)"/><rect class="cls-1" x="131.45" y="68.09" width="7.78" height="7.78" transform="translate(270.68 143.95) rotate(180)"/><rect class="cls-1" x="124.13" y="44.24" width="0.54" height="27.33" transform="translate(248.8 115.82) rotate(180)"/><path class="cls-2" d="M117.29,133.31h44.94c.69,17.35,21.17,21.43,21.17,21.43h-46S118,150.66,117.29,133.31Z"/><path class="cls-3" d="M121.85,133.31h55.52c.69,17.35,21.16,21.43,21.16,21.43H146.12S122.54,150.66,121.85,133.31Z"/><path class="cls-4" d="M62.05,137h175.2c2.73,0,8.14-2.21,8-4.93L235.59,4.93A5.25,5.25,0,0,0,230.41,0H57c-2.73,0-6.55,3-6.41,5.7L56.87,132A5.25,5.25,0,0,0,62.05,137Z"/><path class="cls-2" d="M64.47,136.18h176.3a4.64,4.64,0,0,0,4.69-4.93L239.16,4.93A5.24,5.24,0,0,0,234,0H57.68A4.64,4.64,0,0,0,53,4.93l6.3,126.32A5.24,5.24,0,0,0,64.47,136.18Z"/><path class="cls-5" d="M64.47,136.18h176.3a4.64,4.64,0,0,0,4.69-4.93l-1-20.81H58.25l1,20.81A5.24,5.24,0,0,0,64.47,136.18Z"/><polygon class="cls-6" points="237.65 104.47 232.76 6.47 59.54 6.47 64.42 104.47 237.65 104.47"/><path class="cls-7" d="M30.21,138.1s1.69-21-2.2-25.84c-3.29-4.08-1-10.18-.23-12a1,1,0,0,0-.07-1c-.83-1.3-3-5.15-1.79-8.47a11.07,11.07,0,0,1,4.49-5.48,1,1,0,0,0,.46-1c-.49-3-1.66-14.8,10-17.5a1,1,0,0,1,1.1.49,20.53,20.53,0,0,1,2.57,8.07A15.44,15.44,0,0,1,42.07,85a1,1,0,0,0,.18,1.31c1.19,1.06,3.38,3.56,2.36,7a21.32,21.32,0,0,1-2.75,6.12,1,1,0,0,0-.14.89c.46,1.53,1.66,6.34-.17,10.92-2.2,5.54-10.56,27.36-10,37.54A78.64,78.64,0,0,1,30.21,138.1Z"/><path class="cls-8" d="M39.4,71.93s-6.2,16.21-9.17,63.81"/><path class="cls-9" d="M31.81,131.67s-1.4-16.94,1.89-22.07c2.78-4.35-.23-10.23-1.22-11.93a1,1,0,0,1,0-1c.67-1.37,2.33-5.38.76-8.57a11.63,11.63,0,0,0-5.14-5.07,1,1,0,0,1-.57-1c.13-3-.11-14.86-12-16.55a1,1,0,0,0-1.07.6,20,20,0,0,0-1.57,8.23,15.87,15.87,0,0,0,3.61,9.3,1,1,0,0,1,0,1.33,6.57,6.57,0,0,0-1.49,7.14A22.11,22.11,0,0,0,18.38,98a1,1,0,0,1,.24.86,17.49,17.49,0,0,0,1.48,10.86C23,115,28.78,135,29.45,145.2A30.79,30.79,0,0,0,31.81,131.67Z"/><path class="cls-10" d="M20.7,98C13.49,86.74,4.19,84.54,1.22,84.11A1,1,0,0,0,.06,85,7,7,0,0,0,3.3,91.82l3.54,2.54A1,1,0,0,1,7,95.92c-1.21,1.25-2.63,3.91,1.93,7.44,4.17,3.23,6.55,5.31,7.7,6.37a1,1,0,0,1,0,1.54c-1.3,1.14-3.2,3.6,0,6.57,4.43,4.12,12,21,12.81,28.42C29.36,146.26,29.39,111.65,20.7,98Z"/><path class="cls-10" d="M39.86,88.71c7.2-11.29,16.5-13.49,19.47-13.91a1,1,0,0,1,1.17.87,7.09,7.09,0,0,1-3.25,6.84L53.71,85a1,1,0,0,0-.12,1.57c1.21,1.24,2.63,3.9-1.93,7.43-4.17,3.23-6.54,5.31-7.7,6.37A1,1,0,0,0,44,102c1.31,1.14,3.21,3.6,0,6.57-4.43,4.12-12,21-12.8,28.42C31.2,136.94,31.17,102.33,39.86,88.71Z"/><path class="cls-9" d="M31.42,135.74c4.36-10.31,5.94-18.77,11.8-28.62,3.47-5.84,7.44-17.11,19.15-23.81a1,1,0,0,1,1.55.94c-.1,3.24-.65,10-3.53,13-1.53,1.56-2.47,2.48-3,3a1,1,0,0,0,0,1.48c1.21,1.22,2.78,3.93-1.67,7.64-4,3.38-6.48,5.3-7.67,6.22a1,1,0,0,0-.17,1.47c1,1.26,2.3,3.87-1.21,6.42-7.22,5.25-13.34,13.77-17.28,22.63Z"/><path class="cls-8" d="M30.23,143.65c2.33-43.19-13.17-73.52-13.17-73.52"/><path class="cls-8" d="M61,87.21s-24.87,31-30.35,55.64"/><path class="cls-8" d="M38.2,154.61H24.9a5.87,5.87,0,0,1-5.83-5.09l-3-22.3H47l-3,22.3A5.87,5.87,0,0,1,38.2,154.61Z"/><path class="cls-2" d="M18.19,142.89l.88,6.63a5.87,5.87,0,0,0,5.83,5.09H38.2A5.87,5.87,0,0,0,44,149.52l.88-6.63Z"/><rect class="cls-8" x="14.13" y="121.88" width="34.96" height="5.14"/><rect class="cls-11" x="99.93" y="34.67" width="103.89" height="15.88" rx="3.38"/><path class="cls-12" d="M224,61.77a6.2,6.2,0,0,1-1.59.73c-5.2,1.64-13.2-2.92-18.51-10.91S197.5,34.46,201,30.3a6.56,6.56,0,0,1,1.28-1.19c5-3.33,14.23,1.33,20.11,10.18S229,58.44,224,61.77Z"/><path class="cls-13" d="M236.09,73.3c-1.16-1.68-2-1.36-2.7-1.58s-2,.81-2.3,1.82-.48,1-.36,1.79,2.2.68,3.16.64a28.57,28.57,0,0,1,4,.54l2.84-3.18Z"/><path class="cls-13" d="M237.35,72.83c-.84-1.5-1.53-.9-2.57-.51a18.62,18.62,0,0,0-2.48,1.27s-.24.94.46,1.17,2.63-.6,3,.61,4.93-2,4.93-2Z"/><path class="cls-14" d="M267.49,52.58c-3.05-.37-5,1.4-6.65,9.13a37.94,37.94,0,0,1-4,10.68l-18.72.32-1.2,3.74s18.61,3.55,22.57,3c5.48-.74,8.33-10.11,11-17.4C272.37,56.9,271.64,53.07,267.49,52.58Z"/><path class="cls-13" d="M246.25,44.67a32.91,32.91,0,0,0,1.83,4.23c.66,1,.21,3,0,3.93s1.72.71,1.72.71a15.81,15.81,0,0,1,2.67,2.93c.65.88,2.32-.24,3.47-.61s1.63-1.75,3-3.65a12.89,12.89,0,0,0,1.71-5l-1.73-6.47-7.55-.64Z"/><path class="cls-15" d="M246.71,45.81c-2.22.46-5.88-4-.6-5.71,2.4-.78,7.44-4.49,9.92-3.4a4.3,4.3,0,0,1,2.73,3s1.41-.48,2.83,2.39-.48,8.88-.2,10.51L258,49.83s1.63-2,.86-3.73-3.42-1.7-3.26.1-.82,2.14-.82,2.14-1.55-1.48-1.23-2.63c.59-2.15-3-4.24-3.77-2.87S248.66,45.4,246.71,45.81Z"/><path class="cls-13" d="M264.83,51.39a2.84,2.84,0,0,1-.65,0c-.88-.23-6.42-2-6.42-2l-1.05,6.25s7.5,5.45,10.15,6.78C266.05,58.76,265.34,55.1,264.83,51.39Z"/><polygon class="cls-16" points="263.61 50.57 260.88 60.74 263.33 62.37 266.25 51.03 263.61 50.57"/><path class="cls-16" d="M266.25,51l4.23-.07c4-.07,12,3.19,16.55,6.71,7.34,5.63,15.06,20.6,15.06,20.6a24.38,24.38,0,0,1-7.65,4.53A43.72,43.72,0,0,1,284.91,85s-7.51-11.51-13.45-12.81a19.11,19.11,0,0,1-9.58-5.62Z"/><path class="cls-14" d="M302.09,78.27c2.1,5.45,1.66,12.33,0,17.27A153.63,153.63,0,0,0,296.66,116c-.85,4.77,4,18.36,9.23,29.61l-5.71,3.11s-15.45-23.1-15.45-29.94.18-33.82.18-33.82Z"/><polygon class="cls-14" points="305.89 145.64 309 151.53 301.74 155.73 298.58 155.73 302.45 150.77 300.96 147.97 305.89 145.64"/><path class="cls-16" d="M301.58,79.06c2.09,5.44,1.39,12.25,0,17.26s-14.4,19.49-15.14,23.49c-1.52,8.19-7.55,27.89-7.55,27.89h-6.53s3.48-22,3.48-28.89,8.56-33,8.56-33Z"/><polygon class="cls-16" points="278.88 147.7 278.1 155.14 268.24 155.3 272.53 152.05 273.9 147.7 278.88 147.7"/><polygon class="cls-16" points="229.06 68.61 226.7 70.57 220.85 63.46 223.2 61.5 229.06 68.61"/><path class="cls-17" d="M243.07,85.77l-2.26,1.88a1,1,0,0,1-1.42-.13L225.21,70.26a1,1,0,0,1,.13-1.42L227.6,67a1,1,0,0,1,1.42.13L243.2,84.35A1,1,0,0,1,243.07,85.77Z"/><path class="cls-17" d="M223.73,38.42C216.93,28.18,206.29,23.29,200,27.5s-5.94,15.91.86,26.14,17.45,15.12,23.77,10.92S230.53,48.65,223.73,38.42ZM224,61.77a6.2,6.2,0,0,1-1.59.73c-5.2,1.64-13.2-2.92-18.51-10.91S197.5,34.46,201,30.3a6.56,6.56,0,0,1,1.28-1.19c5-3.33,14.23,1.33,20.11,10.18S229,58.44,224,61.77Z"/><path class="cls-16" d="M222.41,39.29c-5.88-8.85-15.09-13.51-20.11-10.18A6.56,6.56,0,0,0,201,30.3c5.2-1.64,13.21,2.91,18.52,10.9s6.4,17.14,2.88,21.3a6.2,6.2,0,0,0,1.59-.73C229,58.44,228.29,48.15,222.41,39.29Z"/><path class="cls-16" d="M200.82,53.64C194,43.41,193.63,31.7,200,27.5l-3.17,2.1c-6.32,4.21-5.94,15.91.87,26.15s17.44,15.12,23.77,10.91l3.16-2.1C218.27,68.76,207.63,63.88,200.82,53.64Z"/><path class="cls-13" d="M240.94,78.33s-5.1-1-6.25-.71a25.09,25.09,0,0,0-4.28,2.26l.47.27,1.12-.07-.85.61.67.57.81-.24,1.07,0-1.42.62L233,82l1.58-.19-1,.5.41.53,3.73-1.31,2.35-1,2.74.53Z"/><path class="cls-16" d="M267,53.36c-2.91-1-5,1.27-4.93,9.18a77.5,77.5,0,0,1-.91,12.65l-20.2,3.14-.45,3.91s20.17.11,24.15.57,4.87-11.87,5.5-17.34S271,54.67,267,53.36Z"/><rect class="cls-18" x="105.06" y="59.17" width="35.24" height="2.32"/><rect class="cls-9" x="99.9" y="59.17" width="2.35" height="2.32"/><rect class="cls-9" x="99.9" y="64.09" width="2.35" height="2.32"/><rect class="cls-9" x="99.9" y="69.01" width="2.35" height="2.32"/><rect class="cls-18" x="105.06" y="64.09" width="29.81" height="2.32"/><rect class="cls-18" x="105.06" y="69.01" width="43.75" height="2.32"/><rect class="cls-18" x="105.06" y="73.93" width="39.88" height="2.32"/><rect class="cls-9" x="121.73" y="84.34" width="16.81" height="1.16"/><rect class="cls-17" x="139.56" y="22.01" width="27.94" height="5.61"/><rect class="cls-9" x="171.96" y="83.18" width="11.23" height="2.32"/><rect class="cls-9" x="188.99" y="83.18" width="27.88" height="2.32"/></g></g></svg>