<svg xmlns="http://www.w3.org/2000/svg" viewBox="0 0 309 304.24"><defs><style>.cls-1{isolation:isolate;}.cls-2{fill:#fff;}.cls-3,.cls-9{fill:#dadeea;}.cls-3{mix-blend-mode:multiply;}.cls-4{fill:#f5a784;}.cls-5{fill:#1585c6;}.cls-6{fill:#011948;}.cls-7{fill:#116da3;}.cls-8{fill:#e0855c;}.cls-10{fill:#011236;}.cls-11{fill:#c3c6d1;}.cls-12{fill:#05004a;}.cls-13{fill:#1274ad;}.cls-14{fill:#f5ce3a;}.cls-15{fill:#e2ac00;}.cls-16{fill:#f2cc9d;}.cls-17{fill:#1d3b87;}.cls-18{fill:#445ca6;}</style></defs><title>aucun recruteur</title><g class="cls-1"><g id="Calque_2" data-name="Calque 2"><g id="Layer_1" data-name="Layer 1"><path class="cls-2" d="M226.75,64.37a19,19,0,0,1,.1-2.1,8.71,8.71,0,0,1,.36-1.72,6.35,6.35,0,0,1,.68-1.47A8.4,8.4,0,0,1,229,57.74q.47-.52.87-1a7.56,7.56,0,0,0,.69-1,5.36,5.36,0,0,0,.45-1.05,4,4,0,0,0,.17-1.17q0-2.91-1.89-2.91a1.57,1.57,0,0,0-.68.16,1.87,1.87,0,0,0-.64.54,2.94,2.94,0,0,0-.47.92,4.69,4.69,0,0,0-.2,1.35h-4.94a8.65,8.65,0,0,1,.56-3.18,6.07,6.07,0,0,1,1.47-2.22,6,6,0,0,1,2.19-1.3,8.15,8.15,0,0,1,2.71-.43,8.62,8.62,0,0,1,2.88.45,5.67,5.67,0,0,1,3.5,3.48,8.54,8.54,0,0,1,.47,2.93,6.32,6.32,0,0,1-.32,2.06,7.7,7.7,0,0,1-.82,1.74,10.66,10.66,0,0,1-1.17,1.57l-1.36,1.55a5.61,5.61,0,0,0-.64.91,4.66,4.66,0,0,0-.4,1,6.85,6.85,0,0,0-.22,1.06c0,.38-.07.8-.08,1.25Zm-.46,5.35a2.87,2.87,0,0,1,.19-1.07,2.53,2.53,0,0,1,.54-.84,2.65,2.65,0,0,1,.85-.57A2.82,2.82,0,0,1,229,67a2.88,2.88,0,0,1,1.13.21,2.5,2.5,0,0,1,.84.57,2.4,2.4,0,0,1,.55.84,3.08,3.08,0,0,1,.19,1.07,3,3,0,0,1-.19,1.06,2.58,2.58,0,0,1-.55.86,2.5,2.5,0,0,1-.84.57,3.08,3.08,0,0,1-1.13.2,3,3,0,0,1-1.11-.2,2.65,2.65,0,0,1-.85-.57,2.73,2.73,0,0,1-.54-.86A2.81,2.81,0,0,1,226.29,69.72Z"/><path class="cls-3" d="M289.08,298.45c0,5.76-23,6.49-55.17,5.31-9.87-.36-15.63-2.1-15.63-5.31,0-3.86,18.06-4.82,44.66-5C279.05,293.82,289.08,295.08,289.08,298.45Z"/><path class="cls-4" d="M239.75,292.06a18.92,18.92,0,0,0-.79,3,1.57,1.57,0,0,0,0,.23l-.06.29c-.1.56-.2,1.19-.29,1.9s-9.52,1.32-10.54.61.16-1,.16-1a14.58,14.58,0,0,0,5.16-1.5c2.8-1.8,2.83-4,2.83-4C238.07,288.92,239.75,292.06,239.75,292.06Z"/><path class="cls-4" d="M282.52,298.08c-1,.72-10.67,0-10.77-.64s-.22-1.36-.3-1.93a.6.6,0,0,1,0-.12c-.38-2.83-.45-4-.45-4s2.06-2.76,4-.08c0,0-.24,3,2.07,4.1l.15.07.17.08a18.21,18.21,0,0,0,5,1.41S283.56,297.35,282.52,298.08Z"/><path class="cls-5" d="M278.44,222.07l-1.68,70.24a6.06,6.06,0,0,1-1.51.48,8.46,8.46,0,0,1-.9.14,16.63,16.63,0,0,1-3.66-.07c-.43-.05-.77-.1-1-.14l-.22,0s-6.07-67-6.15-67.4a4.33,4.33,0,0,0-.22-.8c-.41-1.09-1-1.18-1.58-1a1.85,1.85,0,0,0-1.14,1.22c-.18.51-5.74,17.61-6,18.31-.29,1-3.76,13-3.83,13.31-.63,2.3-8.82,35.66-8.82,35.66a10.79,10.79,0,0,1-3.94.74l-.6,0a8.1,8.1,0,0,1-3.09-.72s7.94-46.42,8-46.61c.62-2.77,4.65-21.77,5-23.59a2.17,2.17,0,0,1,.07-.33c.1-.5.22-1,.33-1.49s.21-1,.32-1.49c1.85-8.44,3.31-15,3.31-15h24c.06.63.32,1.93.66,3.58C276.84,211.57,278.44,218.81,278.44,222.07Z"/><path class="cls-6" d="M238.92,295.31l-.06.29c-.1.56-.2,1.19-.29,1.9s-9.52,1.32-10.54.61.16-1,.16-1a14.79,14.79,0,0,0,5.16-1.5A19.35,19.35,0,0,0,238.92,295.31Z"/><path class="cls-6" d="M282.52,298.08c-1,.72-10.67,0-10.77-.64s-.22-1.36-.3-1.93a.6.6,0,0,1,0-.12,20.34,20.34,0,0,0,5.76.13l.17.08a18.21,18.21,0,0,0,5,1.41S283.56,297.35,282.52,298.08Z"/><path class="cls-7" d="M278.44,222.07s0,2.66,0,3.12a40.6,40.6,0,0,1-12.32-2.11c-5.12-1.61-14.36-2.63-14.36-2.63l7.25-17h12.82l4.08,3.58C276.84,211.57,278.44,218.81,278.44,222.07Z"/><path class="cls-6" d="M273.27,149.17a55.44,55.44,0,0,1,1.86-7.56,1.65,1.65,0,0,0-1.73-2.23,7.33,7.33,0,0,0-1.68.52s1.31-3.92-.56-5.2-4.75,1.18-5.85,3a1.84,1.84,0,0,0-.58-2.37c-1.34-.87-7.43,5.83-6.23,11.34s1.63,4,1.63,4S272.89,149.88,273.27,149.17Z"/><path class="cls-8" d="M259.86,148.28a1.46,1.46,0,0,0-2.36,0c-1.17,1.41.83,4.12,2.36,4.23A34.71,34.71,0,0,0,259.86,148.28Z"/><path class="cls-4" d="M281.77,164.66c-.76,1.81-3.59,8.76-4.5,14.41-.49,3-2.34,13.35-2.34,13.35-10.65,2.92-21.46,0-21.46,0s-7.33-27-2.38-30.16a10.86,10.86,0,0,1,3.94-1.12,44.87,44.87,0,0,1,4.9-.4l1.5,0,.14-1.56,0-.16.35-3.68a11,11,0,0,0,8.82-2.16,28.43,28.43,0,0,0-.37,3.54c0,.59-.07,1.18-.08,1.72,0,.17,0,.34,0,.51,0,1.16,0,2,0,2l.67,0a26.15,26.15,0,0,1,3.48.41,22.62,22.62,0,0,1,7.13,2.58A.58.58,0,0,1,281.77,164.66Z"/><path class="cls-8" d="M270.76,153.16c-1.37,6.21-7.62,5.79-9.09,5l.27-2.8A10.92,10.92,0,0,0,270.76,153.16Z"/><path class="cls-4" d="M260.13,144.2c-.79.82-.85,2.64-.92,4.66-.19,6.1,1.64,8,4.75,8.34s6.38-.86,7.05-6.52c.34-2.83.7-5.45-.33-6.67C269.14,142.19,262.52,141.71,260.13,144.2Z"/><path class="cls-4" d="M270.58,149.86s.95-2.53,2.46-1.19-.58,5.16-2.88,4.88C270.16,153.55,269.85,150.73,270.58,149.86Z"/><path class="cls-4" d="M308,177.15a5.63,5.63,0,0,1-1.57,4,4.31,4.31,0,0,1-2.08.85,12.4,12.4,0,0,1-1.92.09c-5.06-.13-22.95-5-26.61-7.32-.71-.45-1-1.52-1.07-2.81-.16-3.13,1-7.64,1.13-8.49.14-1,1-1.43,2.26-1.38,5.71.22,20.35,9.31,22.14,10.12-.65-3.19-1.21-5.65-1.72-8.18-.34-1.67-.66-3.37-1-5.34-.18-1.12-.35-2.33-.52-3.68-.12-.92-.24-1.92-.35-3,1.72-.39,4.64-2.32,5.08-.61.13.54.74,2.23.91,2.83.33,1.18,1.89,6.43,2.28,7.77C306.67,167.7,308.27,173.7,308,177.15Z"/><path class="cls-8" d="M272.34,149.82a2.08,2.08,0,0,0-.92.6,2.6,2.6,0,0,0-.67.85c0,.11.1.17.17.11s.35-.4.54-.6a1.16,1.16,0,0,0,.44.35c.14.05.24-.12.18-.24a1.1,1.1,0,0,0-.37-.34,5.81,5.81,0,0,0,.73-.55A.11.11,0,0,0,272.34,149.82Z"/><path class="cls-6" d="M261.89,148.71s-.52.2-.44-.74.44-.72.44-.72.37,0,.31.73S261.89,148.71,261.89,148.71Z"/><path class="cls-6" d="M267.24,148.71s-.53.2-.45-.74.45-.72.45-.72.37,0,.31.73S267.24,148.71,267.24,148.71Z"/><path class="cls-8" d="M264.29,151.2c-.27,0-.88.12-1-.17a8,8,0,0,1,.39-1.9,24.71,24.71,0,0,0,.62-2.53s-.08-.07-.1,0a28.69,28.69,0,0,0-1.22,4.61.14.14,0,0,0,.12.17c.4,0,.78.07,1.17.07C264.39,151.43,264.43,151.22,264.29,151.2Z"/><path class="cls-6" d="M262.47,145.87c-.38-.19-1.08-.24-1.36.15a.12.12,0,0,0,.1.18c.19,0,.36-.1.55-.12a1.52,1.52,0,0,1,.59.09A.16.16,0,0,0,262.47,145.87Z"/><path class="cls-6" d="M268,146.33c-.21-.53-1.15-.58-1.55-.25-.09.07,0,.22.07.25a4.31,4.31,0,0,0,.72,0,2.43,2.43,0,0,1,.58.18A.15.15,0,0,0,268,146.33Z"/><path class="cls-2" d="M263,153.09a5.69,5.69,0,0,0,3.35-.58,2.84,2.84,0,0,1-1.67,1.57C263.46,154.4,263,153.09,263,153.09Z"/><path class="cls-4" d="M250.64,177c-1.63,5.19-4.45,14.73-4.93,17.88-.28,1.82-.3,8.62-.27,14,0,2.63.08,7,.08,7-1.41,2.75-4.79,1.87-4.79,1.87s-.1-.44-.26-1.23c-.22-1.08-.57-2.8-.93-4.87-.88-5-1.89-12-1.68-16.82.21-4.62,5.79-23.65,7.06-27.16a8.87,8.87,0,0,1,8-6.13C255.13,161.55,252.06,172.45,250.64,177Z"/><path class="cls-6" d="M279,214.28c.53,3.48.95,6,.95,6-9.16,1.79-14.64,0-14.64,0l-1.61-15.7-2.89,15.7c-2.48,1.79-15.56-.82-15.56-.82s5.42-22.16,5.6-26.6S249.21,162,249.21,162a34.73,34.73,0,0,1,8.88-1.38c.56,0,1,0,1.48,0,1.18,0,1.86.11,1.86.11s2.12.82,8.82.21c.66-.06,1.29-.09,1.87-.09s1.15,0,1.66.08a31.39,31.39,0,0,1,7.42,1.6c-1.32,2.72-2.33,7.9-3.09,13.33-1,7.29-1.55,15-1.65,17.78-.12,3.22,1.43,13.82,2.5,20.64Z"/><path class="cls-4" d="M240.64,216.2s.14,1.49.11,3.36-.11,6,.54,7.17a2.92,2.92,0,0,0,.51.42.56.56,0,0,0,.15.1,3.6,3.6,0,0,0,1.21.46l.12,0a3.29,3.29,0,0,0,1.2,0l.11,0a4.38,4.38,0,0,0,1.08-.38s0-4.17.49-5.49c0,0,.66,2.49,1.44,2.69l.53-.17s-.4-2.76-.47-4a7.75,7.75,0,0,0-2.64-5.05S241.73,214.31,240.64,216.2Z"/><path class="cls-8" d="M244.48,227.69l.11,0a43.56,43.56,0,0,1,.1-5.59s-.05,0-.06,0A13.4,13.4,0,0,0,244.48,227.69Z"/><path class="cls-8" d="M243.16,227.71l.12,0a41.93,41.93,0,0,1,.09-5.6s-.05,0-.06,0A13.17,13.17,0,0,0,243.16,227.71Z"/><path class="cls-8" d="M241.8,227.15a.56.56,0,0,0,.15.1,47,47,0,0,1,.11-5.3s-.05,0-.06,0A12.88,12.88,0,0,0,241.8,227.15Z"/><path class="cls-9" d="M272.15,160.84l-8.48,28.37-4.1-28.6a7.76,7.76,0,0,0,1.91-.37l.09-1.08,0-.16c1,.16,2.88.41,3.92,1.92a11.09,11.09,0,0,1,4.55-2.47l.25,0v.09c0,.14,0,.28,0,.42l0,1.16a3.78,3.78,0,0,0,1.86.75Z"/><path class="cls-6" d="M250.3,179.39s-3.52,10.53-4.39,15.09c-.07.39-.12.71-.15,1-.36,3.79,0,16.76,0,16.76a8.68,8.68,0,0,1-6.44,2s-1.43-15.87-1.49-17a40.31,40.31,0,0,1,.31-6.59c.06-.46.12-.91.19-1.34.47-3.32,1.11-5.86,1.11-5.86C244.26,162,249.21,162,249.21,162,254.16,165.05,250.3,179.39,250.3,179.39Z"/><path class="cls-6" d="M308,177.15a5.63,5.63,0,0,1-1.57,4,4.31,4.31,0,0,1-2.08.85,12.4,12.4,0,0,1-1.92.09c-5.06-.13-22.95-5-26.61-7.32-.71-.45-1-1.52-1.07-2.81a39.45,39.45,0,0,1,3.27-9.64c0-.08.53-.48.56-.56,5.72.22,19.91,9.64,21.7,10.45-1.08-5.31-1.92-8.6-2.68-13.52.38,0,.76.12,1.09.13a16.57,16.57,0,0,0,5.14-.74C305.82,164.72,308.33,172.89,308,177.15Z"/><path class="cls-4" d="M301.17,153.73s.55-1.39,1.41-3,2.79-5.28,2.75-6.65a3.22,3.22,0,0,0-.26-.6l-.09-.16a3.47,3.47,0,0,0-.88-1l-.09-.07a3.29,3.29,0,0,0-1.1-.51l-.11,0a4.78,4.78,0,0,0-1.13-.14s-1.87,3.73-2.91,4.68c0,0,.53-2.52-.08-3.05l-.55-.09s-.88,2.65-1.38,3.79a7.77,7.77,0,0,0,.08,5.7S299.35,154.93,301.17,153.73Z"/><path class="cls-8" d="M302.91,141.74l-.11,0a41.22,41.22,0,0,1-2.61,5s0,.07.06,0A13.45,13.45,0,0,0,302.91,141.74Z"/><path class="cls-8" d="M304.1,142.32l-.09-.07a43.31,43.31,0,0,1-2.61,4.95s0,.07.05,0A13.14,13.14,0,0,0,304.1,142.32Z"/><path class="cls-8" d="M305.07,143.43l-.09-.16a46.73,46.73,0,0,1-2.49,4.68s0,.07.05,0A12,12,0,0,0,305.07,143.43Z"/><path class="cls-10" d="M250.3,179.39s-3.58,10.52-4.39,15.09l-.2.41s.77-14.54,4.18-22.42C249.89,172.47,250,173.42,250.3,179.39Z"/><path class="cls-10" d="M279,214.27c-.29-.39-5.21-7.41-5.41-19.39-.2-12.31,4.56-19,4.56-19-1,7.29-1.55,15-1.65,17.78C276.34,196.85,277.89,207.45,279,214.27Z"/><path class="cls-11" d="M265.35,164.43a.51.51,0,0,0,0,1A.51.51,0,0,0,265.35,164.43Z"/><path class="cls-11" d="M265,170.4a.61.61,0,0,0,0,1.22A.61.61,0,0,0,265,170.4Z"/><path class="cls-11" d="M264.44,177.41a.63.63,0,0,0,0,1.25A.63.63,0,0,0,264.44,177.41Z"/><path class="cls-9" d="M285.67,89.48,302,88.14a6.49,6.49,0,0,1,7,6.66l-.94,30.77a7.12,7.12,0,0,1-7.38,6.9l-7.39-.28c-3,5.22-9.71,5.58-9.71,5.58a8.24,8.24,0,0,0,3.63-6.08,7.11,7.11,0,0,1-4.91-6.35l-1.67-28.63A7.12,7.12,0,0,1,285.67,89.48Z"/><path class="cls-2" d="M292.42,114a19.37,19.37,0,0,1,.1-2,8.69,8.69,0,0,1,.34-1.63,6.19,6.19,0,0,1,.64-1.38,8.05,8.05,0,0,1,1-1.27c.3-.33.57-.65.82-1a7.76,7.76,0,0,0,.66-.95,4.75,4.75,0,0,0,.42-1,3.59,3.59,0,0,0,.16-1.11c0-1.83-.59-2.75-1.78-2.75a1.41,1.41,0,0,0-.64.16,1.64,1.64,0,0,0-.6.5,2.74,2.74,0,0,0-.45.87,4.65,4.65,0,0,0-.19,1.27h-4.66a8.25,8.25,0,0,1,.52-3,5.91,5.91,0,0,1,1.4-2.09,5.66,5.66,0,0,1,2.06-1.23,8.57,8.57,0,0,1,5.27,0,5.39,5.39,0,0,1,2,1.25,5.63,5.63,0,0,1,1.28,2,8.09,8.09,0,0,1,.44,2.77,5.94,5.94,0,0,1-.3,1.94,7.45,7.45,0,0,1-.77,1.64,11.81,11.81,0,0,1-1.1,1.48c-.42.48-.86,1-1.29,1.46a5.59,5.59,0,0,0-.6.86,4.42,4.42,0,0,0-.38.9,7.35,7.35,0,0,0-.21,1c0,.36-.07.75-.08,1.18Zm-.42,5a2.75,2.75,0,0,1,.18-1,2.3,2.3,0,0,1,1.31-1.33,2.51,2.51,0,0,1,1-.2,2.62,2.62,0,0,1,1.07.2,2.48,2.48,0,0,1,.8.53,2.38,2.38,0,0,1,.51.8,2.9,2.9,0,0,1,0,2,2.42,2.42,0,0,1-.51.81,2.2,2.2,0,0,1-.8.53,2.8,2.8,0,0,1-1.07.19,2.68,2.68,0,0,1-1-.19,2.12,2.12,0,0,1-.8-.53,2.42,2.42,0,0,1-.51-.81A2.73,2.73,0,0,1,292,119.09Z"/><path class="cls-3" d="M101.27,277.73c0,5.76-23,6.48-55.17,5.31-9.87-.36-15.63-2.1-15.63-5.31,0-3.87,18.06-4.82,44.66-5.05C91.24,273.1,101.27,274.35,101.27,277.73Z"/><path class="cls-4" d="M81,245.81a5.21,5.21,0,0,1,1.53-.17,4.12,4.12,0,0,1,2,.38c1.72,1,1.19,4.2,1.17,5.81,0,5,.18,19.66.12,19.68a9.67,9.67,0,0,0,.68,3.55A4.71,4.71,0,0,0,88,276.32,10.51,10.51,0,0,0,92.17,278s1.31.49.08,1.2-9.61-.75-9.65-1.51-.1-1.55-.16-2.19a24.64,24.64,0,0,0-.58-3.67c-.72-2.66-1.33-5.35-1.9-8.05-1-4.8-2.95-10.38-1.22-15.15a4.38,4.38,0,0,1,1.94-2.65A2.6,2.6,0,0,1,81,245.81Z"/><path class="cls-12" d="M82.6,277.65c0,.76,8.41,2.22,9.65,1.51s-.08-1.2-.08-1.2A10.51,10.51,0,0,1,88,276.32a12,12,0,0,1-5.51-.86C82.5,276.1,82.56,276.84,82.6,277.65Z"/><path class="cls-4" d="M46.7,276.48c1.42.16.64-1,.64-1a10.22,10.22,0,0,1-2.23-3.36l-.18-.47a4.59,4.59,0,0,1-.36-1.83,9.62,9.62,0,0,1,1.56-3.25c.07,0,8.62-11.95,11.6-15.9,1-1.29,3.31-3.56,2.52-5.37a4.17,4.17,0,0,0-1.41-1.51,5.27,5.27,0,0,0-1.33-.78l-.37-.11a4.25,4.25,0,0,0-3.13,1c-4.22,2.8-6,8.44-8,12.91-1.14,2.5-2.25,5-3.25,7.59A24.73,24.73,0,0,1,41,267.67a.42.42,0,0,1-.09.14c-.31.53-.67,1.1-1.09,1.73S45.28,276.32,46.7,276.48Z"/><path class="cls-5" d="M88.85,270.2s-11.8,1.88-18-1.17c0,0,5.24-36.33,4.72-44.21-.92-14.33-3.33-22.48-3.33-22.48s-1,21.49-2.21,28.4S53,269,53,269,42.39,267,39.32,260.7L58.9,228.9a3.59,3.59,0,0,0,.53-2.13c-.33-4.42-1.47-20.54-1.31-28.32,0-.55,0-1.11.05-1.68a69.09,69.09,0,0,1,.63-7.46,43,43,0,0,1,3.26-11.76,54.74,54.74,0,0,0,9,1.36,38,38,0,0,0,4.66.07,23,23,0,0,0,5-.75s2,2.73,3.6,10.56c.15.75.31,1.54.47,2.39,1.18,6.6,2.08,16.19,1.77,29.75Z"/><path class="cls-12" d="M46.7,276.48c1.42.16.64-1,.64-1a10.22,10.22,0,0,1-2.23-3.36,20.94,20.94,0,0,1-4.19-4.3c-.31.53-.67,1.1-1.09,1.73S45.28,276.32,46.7,276.48Z"/><path class="cls-13" d="M84.74,191.18c-9.6,5.22-21.57,5.66-26.57,5.59a69.09,69.09,0,0,1,.63-7.46A19.66,19.66,0,0,1,62.66,187l10.86-10.48,10.75,12.28C84.42,189.54,84.58,190.33,84.74,191.18Z"/><path class="cls-4" d="M109.28,160.47c1-1.37,2.07-2.73,3.13-4.07a15.47,15.47,0,0,1,2.34-2.75c1.77-1.38,2.55-3.56,4.47-4.87a2.17,2.17,0,0,0,.69-.62.65.65,0,0,0-.09-.84.9.9,0,0,0-.51-.13,8.12,8.12,0,0,0-3.17.47c-.63.26-1.25,1-2,1-1.21,0,.26-1.36-.31-2.06l-.41-.14s-1,1.94-1.58,2.76a8.05,8.05,0,0,0-1.42,3.66s-3.59,3.77-4,5C105.62,160,108.26,160.92,109.28,160.47Z"/><path class="cls-14" d="M114,155.87c-2.66,3.59-12.29,14-16.06,14.68a8.87,8.87,0,0,1-3-.12c-4.24-.85-9.81-4.07-13.62-7.31-2.16-1.83-3.76-3.66-4.23-5.07-.9-2.71-1.16-6.63,2.83-6.36A9,9,0,0,1,84,153.4c4.54,2.94,8,6.55,12.91,8.92,1.33.64,12.15-9.95,12.32-10C111,151.27,113.34,154.59,114,155.87Z"/><path class="cls-15" d="M94.9,170.43c-4.24-.85-9.81-4.07-13.62-7.31l1.31-2.9S89.72,166,94.9,170.43Z"/><path class="cls-4" d="M62.17,162a59.14,59.14,0,0,1,.37,8.31c0,1,.28,1.86.26,2.82,0,.26-.49,3.47-.55,3.45a42,42,0,0,0,14.93,1.18,18.54,18.54,0,0,0,2.88-1.55s1.19-10.29,2.17-13.06c.23-.65-3-4.19-3-5.39a44,44,0,0,0-.49-7.61c0-.2-.39-.06-.57-.09-1.8-.28-3.43-.35-3.43-.35l-.52-5.33c-.27-2.79-6-1.59-6-1.59v6.86a15.56,15.56,0,0,1-2.85.31l-.51,0a21,21,0,0,0-3.63.48c-1.38.37-.92,1.41-.76,2.66.38,2.88,1.21,5.67,1.64,8.54C62.14,161.76,62.15,161.87,62.17,162Z"/><path class="cls-4" d="M33.32,158.35c-1-1.38-2.07-2.74-3.13-4.08-2.12-2.67-3.91-5.37-6.72-7.41-.49-.36-1-.77-1.11-1.38a.48.48,0,0,1,.08-.37.61.61,0,0,1,.34-.17,6.7,6.7,0,0,1,4.39.43c2.22,1,.41-.92,2-1.08.51.92,1,1.87,1.59,2.75a8.14,8.14,0,0,1,1.41,3.66s3.59,3.77,4,5C37,157.86,34.34,158.79,33.32,158.35Z"/><path class="cls-14" d="M44.7,168.42c-3.78-.66-13.4-11.08-16.06-14.68.62-1.28,2.95-4.6,4.76-3.59.17.09,11,10.69,12.33,10,4.86-2.36,8.37-6,12.9-8.91a8.8,8.8,0,0,1,4.09-1.71c4-.28,3.73,3.64,2.83,6.35C64,160.48,50.76,169.47,44.7,168.42Z"/><path class="cls-14" d="M80.58,172.93a37.64,37.64,0,0,1,1.14-6.05,23.59,23.59,0,0,0,1.08-4.24,7.29,7.29,0,0,0-.21-2.42,67.24,67.24,0,0,0-3.19-6.77s-1.39,5-6.6,5.07a51.31,51.31,0,0,1-8.15-.87c-1-.17-6.26-2.15-7.15-2.25,0,0,2.62,3.44,4.1,17,0,0-1.18,11.4-5.36,18a42,42,0,0,0,14.49,2.33s2.1-.34,2.08-12.68h.29c.71,3.4,2.6,11.63,4.39,12.68,0,0,3.49.63,7.92-2C85.41,190.81,81.51,179.05,80.58,172.93Z"/><path class="cls-8" d="M68.22,143.49v2a9.1,9.1,0,0,0,6.33,2.21l-.33-3.4C73,142.84,69.44,143.28,68.22,143.49Z"/><path class="cls-8" d="M65.09,138.6a2,2,0,0,1,.86.56,2.5,2.5,0,0,1,.64.81c0,.1-.1.16-.16.1s-.34-.38-.51-.56a1.23,1.23,0,0,1-.42.33.16.16,0,0,1-.17-.23,1,1,0,0,1,.35-.33,5.13,5.13,0,0,1-.69-.51A.1.1,0,0,1,65.09,138.6Z"/><path class="cls-16" d="M77.37,131.64s4.75,6.54,1.34,15.87a11.19,11.19,0,0,1,.69,7.81s1.56,3.69,0,6.94a9,9,0,0,1-.62,7s1.64,2.42-.25,6.43c0,0,2,2.33.59,7.5a9.92,9.92,0,0,0,3.17,2.35s-2,3.24-5.21,1.72l1.44-4a7.89,7.89,0,0,1-1.64-7.08s-1.46-3.88-.42-6.75a14.65,14.65,0,0,1,.26-6.81,9.5,9.5,0,0,1-1.21-6.49s-2.23-3.55-1.07-6l-.31-5.34S73.79,132.52,77.37,131.64Z"/><path class="cls-16" d="M66.1,130.1a58.37,58.37,0,0,1,2.12,17.66,13.94,13.94,0,0,1-.24,6.92s1.7,3.63.23,6.94a9,9,0,0,1-.35,7.06s1.73,2.35,0,6.43c0,0,2.08,2.25.87,7.47a8.26,8.26,0,0,0,3.41,3s-1.83,3.31-5.14,1.92l1-4.65a8.44,8.44,0,0,1-1.82-7.19s-1.61-3.82-.69-6.72a15,15,0,0,1,0-6.82,9.51,9.51,0,0,1-1.45-6.44s-2.36-3.47-1.29-6C62.8,149.68,59,135.33,66.1,130.1Z"/><path class="cls-16" d="M77.49,137.69s2.6-9-5.7-9c-9.63,0-8.81,7.42-7.26,10S77.79,141.64,77.49,137.69Z"/><path class="cls-4" d="M76.61,133.78c.62.87.81,2.49.87,4.4.18,5.78-2.61,7.9-4.5,7.9s-6-.82-6.67-6.17c-.32-2.68-.3-4.93.31-6.32C67.92,130.7,73.9,130,76.61,133.78Z"/><path class="cls-8" d="M72.22,140.46c.25,0,.83.11,1-.16a7.21,7.21,0,0,0-.37-1.8c-.06-.25-.12-.48-.19-.7l.07-.05a.52.52,0,0,1,.16-.06c.24.92.41,1.89.63,2.76a.13.13,0,0,1-.12.16c-.37,0-.73.07-1.1.07C72.12,140.68,72.09,140.48,72.22,140.46Z"/><path class="cls-16" d="M72.09,131.9a1.85,1.85,0,0,1-.65,1.09,3.53,3.53,0,0,1-1.24.39,1.45,1.45,0,0,0-1.08.69,3.77,3.77,0,0,0-.17.9,1.61,1.61,0,0,1-.76,1.08c-.35.21-.79.28-1,.61a4.44,4.44,0,0,0-.36.8c-.13.26-.43.49-.68.37A8,8,0,0,1,65,135a4.88,4.88,0,0,1,1.69-4.28,5.19,5.19,0,0,1,4.39-1C72.23,129.91,72.33,130.82,72.09,131.9Z"/><path class="cls-4" d="M66.72,138.64s-.91-2.39-2.33-1.12.53,4.69,2.71,4.42C67.1,141.94,67.41,139.46,66.72,138.64Z"/><path class="cls-6" d="M74.26,135.65c.36-.18,1-.23,1.29.14a.12.12,0,0,1-.1.17c-.18,0-.33-.1-.51-.11a1.49,1.49,0,0,0-.56.08A.15.15,0,0,1,74.26,135.65Z"/><path class="cls-6" d="M69.27,136.09c.2-.51,1.09-.56,1.47-.24a.14.14,0,0,1-.07.23,3.08,3.08,0,0,1-.68,0,2.69,2.69,0,0,0-.55.17A.14.14,0,0,1,69.27,136.09Z"/><path class="cls-8" d="M73.67,142.19a3.3,3.3,0,0,0-1.39-.18,1.53,1.53,0,0,0-1.13.32,0,0,0,0,0,0,.07,2.19,2.19,0,0,0,1,.08c.46,0,.92.11,1.38.1C73.75,142.58,73.87,142.28,73.67,142.19Z"/><path class="cls-6" d="M70.33,137.48a.3.3,0,0,0-.51,0l-.07.09a1,1,0,0,0-.07.32c0,.06,0,.11,0,.16a1,1,0,0,0,.19.61c.11.17.42.23.52,0A1.18,1.18,0,0,0,70.33,137.48Z"/><path class="cls-6" d="M75.12,137.48a.3.3,0,0,0-.51,0l-.07.09a1,1,0,0,0-.07.32,1,1,0,0,0,0,.16,1,1,0,0,0,.19.61c.11.17.42.23.52,0A1.18,1.18,0,0,0,75.12,137.48Z"/><path class="cls-15" d="M60,152.11c-.1-.3-.59-.26-.57.08.07,1.47.36,2.94.49,4.41.12,1.29.12,2.6.36,3.88,0,.25.48.26.51,0A20.64,20.64,0,0,0,60,152.11Z"/><path class="cls-9" d="M49.73,118.73c4.68-2.87,7.55-6.69,7.55-10.9,0-8.89-12.82-16.1-28.64-16.1S0,98.94,0,107.83s12.82,16.11,28.64,16.11a46.78,46.78,0,0,0,14.12-2.1c3.61,6.11,11.46,6.53,11.46,6.53C50.36,126.09,49.76,121.26,49.73,118.73Z"/><path class="cls-2" d="M14.68,108.23a2.32,2.32,0,0,1,.15-.84,2,2,0,0,1,.42-.67,2.05,2.05,0,0,1,.67-.44,2.09,2.09,0,0,1,.88-.17,2.14,2.14,0,0,1,.89.17,2.05,2.05,0,0,1,.67.44,2,2,0,0,1,.42.67,2.32,2.32,0,0,1,.15.84,2.24,2.24,0,0,1-.15.84,2.16,2.16,0,0,1-.42.68,2.08,2.08,0,0,1-.67.45,2.52,2.52,0,0,1-.89.15,2.46,2.46,0,0,1-.88-.15,2.08,2.08,0,0,1-.67-.45,2.16,2.16,0,0,1-.42-.68A2.24,2.24,0,0,1,14.68,108.23Z"/><path class="cls-2" d="M26.51,108.23a2.32,2.32,0,0,1,.15-.84,1.88,1.88,0,0,1,.43-.67,2,2,0,0,1,.67-.44,2,2,0,0,1,.87-.17,2.11,2.11,0,0,1,.89.17,2,2,0,0,1,.67.44,2,2,0,0,1,.43.67,2.32,2.32,0,0,1,.15.84,2.24,2.24,0,0,1-.15.84,2.18,2.18,0,0,1-.43.68,2,2,0,0,1-.67.45,2.48,2.48,0,0,1-.89.15,2.41,2.41,0,0,1-.87-.15,2,2,0,0,1-.67-.45,2,2,0,0,1-.43-.68A2.24,2.24,0,0,1,26.51,108.23Z"/><path class="cls-2" d="M38.34,108.23a2.13,2.13,0,0,1,.16-.84,2,2,0,0,1,.42-.67,2.19,2.19,0,0,1,1.55-.61,2.14,2.14,0,0,1,.89.17,1.91,1.91,0,0,1,.66.44,1.88,1.88,0,0,1,.43.67,2.32,2.32,0,0,1,.15.84,2.24,2.24,0,0,1-.15.84,2,2,0,0,1-.43.68,1.93,1.93,0,0,1-.66.45,2.52,2.52,0,0,1-.89.15,2.42,2.42,0,0,1-.88-.15,2.08,2.08,0,0,1-.67-.45,2.16,2.16,0,0,1-.42-.68A2.06,2.06,0,0,1,38.34,108.23Z"/><path class="cls-2" d="M209.19,161a1.88,1.88,0,0,1,.13-.72,1.68,1.68,0,0,1,.36-.57,1.85,1.85,0,0,1,.58-.39,2,2,0,0,1,.75-.14,2,2,0,0,1,.76.14,1.85,1.85,0,0,1,.58.39,1.68,1.68,0,0,1,.36.57,1.88,1.88,0,0,1,.13.72,1.93,1.93,0,0,1-.13.73,1.83,1.83,0,0,1-.36.58,1.67,1.67,0,0,1-.58.38,2,2,0,0,1-.76.14,2,2,0,0,1-.75-.14,1.67,1.67,0,0,1-.58-.38,1.83,1.83,0,0,1-.36-.58A1.93,1.93,0,0,1,209.19,161Z"/><path class="cls-2" d="M219.35,161a1.88,1.88,0,0,1,.13-.72,1.68,1.68,0,0,1,.36-.57,1.85,1.85,0,0,1,.58-.39,2,2,0,0,1,.75-.14,2,2,0,0,1,.76.14,1.85,1.85,0,0,1,.58.39,1.68,1.68,0,0,1,.36.57,1.88,1.88,0,0,1,.13.72,1.93,1.93,0,0,1-.13.73,1.83,1.83,0,0,1-.36.58,1.67,1.67,0,0,1-.58.38,2,2,0,0,1-.76.14,2,2,0,0,1-.75-.14,1.67,1.67,0,0,1-.58-.38,1.83,1.83,0,0,1-.36-.58A1.93,1.93,0,0,1,219.35,161Z"/><path class="cls-2" d="M229.51,161a1.88,1.88,0,0,1,.13-.72,1.68,1.68,0,0,1,.36-.57,1.85,1.85,0,0,1,.58-.39,2,2,0,0,1,.75-.14,2,2,0,0,1,.76.14,1.75,1.75,0,0,1,.94,1,1.88,1.88,0,0,1,.13.72,1.93,1.93,0,0,1-.13.73,1.85,1.85,0,0,1-.37.58,1.54,1.54,0,0,1-.57.38,2,2,0,0,1-.76.14,2,2,0,0,1-.75-.14,1.67,1.67,0,0,1-.58-.38,1.83,1.83,0,0,1-.36-.58A1.93,1.93,0,0,1,229.51,161Z"/><path class="cls-3" d="M207.89,253.87c0,7-29.39,7.88-70.64,6.45-12.62-.44-20-2.55-20-6.45,0-4.69,23.12-5.86,57.18-6.12C195.05,248.25,207.89,249.77,207.89,253.87Z"/><path class="cls-17" d="M189.07,208.85a24.91,24.91,0,0,0-8.27-5.55,27.75,27.75,0,0,0-10.21-2,3.15,3.15,0,0,0-.46,0H158l1.69,1.78-.68.26a24.91,24.91,0,0,0-8.27,5.55,24.26,24.26,0,0,0-5.28,8.27,29.71,29.71,0,0,0,0,20.8,25.35,25.35,0,0,0,5.28,8.36,23.2,23.2,0,0,0,8.27,5.54l.07,0-1.28,1.92,12,0a29.2,29.2,0,0,0,11-2,23.2,23.2,0,0,0,8.27-5.54,25.51,25.51,0,0,0,5.28-8.36,29.71,29.71,0,0,0,0-20.8A24.41,24.41,0,0,0,189.07,208.85Z"/><path class="cls-17" d="M234.61,38.37a54.86,54.86,0,0,0-34.2-33.94A83,83,0,0,0,172.35,0a81.2,81.2,0,0,0-26.52,4.18,58.78,58.78,0,0,0-21.32,12.7A59.62,59.62,0,0,0,110.1,38.54a75,75,0,0,0-4.69,18.94,10.86,10.86,0,0,0,10.84,12.1h20.64a18.88,18.88,0,0,0,18-13l0-.11a29.15,29.15,0,0,1,4.61-9,17.56,17.56,0,0,1,6.22-5.2,15.46,15.46,0,0,1,6.65-1.62q18.42,0,18.42,28.48a38.79,38.79,0,0,1-1.62,11.43,50.65,50.65,0,0,1-4.43,10.23,73.42,73.42,0,0,1-6.74,9.81q-3.91,4.86-8.53,10a85.4,85.4,0,0,0-10.32,13.13A63.69,63.69,0,0,0,152.48,138a85.68,85.68,0,0,0-3.49,16.8q-.69,6.14-.92,13.31a7.06,7.06,0,0,0,7.06,7.24h22.31a13.76,13.76,0,0,0,13.66-12.08v-.11a63.65,63.65,0,0,1,2.14-10.41,45.74,45.74,0,0,1,3.92-9.3,56.22,56.22,0,0,1,6.22-8.86q6.83-7.68,13.31-15.1a119,119,0,0,0,11.42-15.35,81.22,81.22,0,0,0,8-17A62.16,62.16,0,0,0,239.21,67Q239.21,50.83,234.61,38.37Z"/><path class="cls-18" d="M150.87,175.33a13.64,13.64,0,0,1-13.58-14.65q.21-3.06.53-5.9a86.41,86.41,0,0,1,3.5-16.8A63.25,63.25,0,0,1,148,123.65a85.4,85.4,0,0,1,10.32-13.13q4.61-5.11,8.53-10a73.32,73.32,0,0,0,6.73-9.81A50.14,50.14,0,0,0,178,80.5a38.79,38.79,0,0,0,1.62-11.43q0-28.47-18.42-28.48a15.43,15.43,0,0,0-6.65,1.62,17.59,17.59,0,0,0-6.23,5.2,29.36,29.36,0,0,0-4.6,9l0,.11a18.86,18.86,0,0,1-17.94,13H114.09A18.33,18.33,0,0,1,96.25,46.77a66.07,66.07,0,0,1,2.69-8.23,59.62,59.62,0,0,1,14.41-21.66,58.78,58.78,0,0,1,21.32-12.7A81.2,81.2,0,0,1,161.19,0a83,83,0,0,1,28.06,4.43,54.88,54.88,0,0,1,34.19,33.94Q228,50.82,228.05,67A62.43,62.43,0,0,1,225,87.15a81.22,81.22,0,0,1-8,17,119,119,0,0,1-11.43,15.35c-4.32,5-8.82,9.93-13.3,15.1a51.9,51.9,0,0,0-6.22,8.86,46.34,46.34,0,0,0-3.93,9.3A63.66,63.66,0,0,0,180,163.14v.11a13.68,13.68,0,0,1-13.54,12.08Zm-18.5,52.19a28.28,28.28,0,0,1,1.87-10.41,24.48,24.48,0,0,1,5.29-8.27,25.09,25.09,0,0,1,8.27-5.54,27.72,27.72,0,0,1,10.83-2.05,28.2,28.2,0,0,1,11,2.05,25.09,25.09,0,0,1,8.27,5.54,24.48,24.48,0,0,1,5.29,8.27,29.73,29.73,0,0,1,0,20.81,25.37,25.37,0,0,1-5.29,8.36,23.12,23.12,0,0,1-8.27,5.54,29.14,29.14,0,0,1-11,2,28.65,28.65,0,0,1-10.83-2,23.12,23.12,0,0,1-8.27-5.54,25.37,25.37,0,0,1-5.29-8.36A28.19,28.19,0,0,1,132.37,227.52Z"/><path class="cls-17" d="M168.75,210.57c-.58-.32-1.33.34-.94.94,3.77,5.85,7.08,11.09,5.18,18.38-1.68,6.43-6.49,9.57-11.41,13.38-.6.47.08,1.24.66,1.14C176.76,242,182.26,218,168.75,210.57Z"/><path class="cls-17" d="M158.23,11.6c-22-4.22-44.42,9.2-51.71,30.22-.32.93,1.2,1.59,1.61.68,9.05-20,28.07-30.6,49.82-28.77A1.09,1.09,0,0,0,158.23,11.6Z"/></g></g></g></svg>