<svg xmlns="http://www.w3.org/2000/svg" width="280" height="207.999" viewBox="0 0 280 207.999">
  <g id="set-new-password" transform="translate(-992.727 -139.437)">
    <g id="Background_Complete" data-name="Background Complete">
      <g id="Group_1" data-name="Group 1">
        <rect id="Rectangle_1" data-name="Rectangle 1" width="280" height="0.14" transform="translate(992.727 322.225)" fill="#ebebeb"/>
        <rect id="Rectangle_2" data-name="Rectangle 2" width="12.14" height="0.14" transform="translate(1232.532 331.21)" fill="#ebebeb"/>
        <rect id="Rectangle_3" data-name="Rectangle 3" width="19.101" height="0.14" transform="translate(1166.64 328.314)" fill="#ebebeb"/>
        <rect id="Rectangle_4" data-name="Rectangle 4" width="24.934" height="0.14" transform="translate(1214.815 326.027)" fill="#ebebeb"/>
        <rect id="Rectangle_5" data-name="Rectangle 5" width="6.237" height="0.14" transform="translate(1083.378 328.841)" fill="#ebebeb"/>
        <rect id="Rectangle_6" data-name="Rectangle 6" width="21.498" height="0.14" transform="translate(1056.895 328.841)" fill="#ebebeb"/>
        <rect id="Rectangle_7" data-name="Rectangle 7" width="15.509" height="0.14" transform="translate(1029.859 326.484)" fill="#ebebeb"/>
        <path id="Path_1" data-name="Path 1" d="M1125.455,297.329H1017.319a3.194,3.194,0,0,1-3.195-3.187V142.622a3.193,3.193,0,0,1,3.195-3.184h108.136a3.2,3.2,0,0,1,3.2,3.184v151.52A3.2,3.2,0,0,1,1125.455,297.329ZM1017.319,139.577a3.052,3.052,0,0,0-3.055,3.045v151.52a3.054,3.054,0,0,0,3.055,3.047h108.136a3.056,3.056,0,0,0,3.057-3.047V142.622a3.054,3.054,0,0,0-3.057-3.045Z" fill="#ebebeb"/>
        <path id="Path_2" data-name="Path 2" d="M1246.58,297.329H1138.447a3.194,3.194,0,0,1-3.2-3.187V142.622a3.194,3.194,0,0,1,3.2-3.184H1246.58a3.194,3.194,0,0,1,3.2,3.184v151.52A3.194,3.194,0,0,1,1246.58,297.329ZM1138.447,139.577a3.054,3.054,0,0,0-3.057,3.045v151.52a3.056,3.056,0,0,0,3.057,3.047H1246.58a3.056,3.056,0,0,0,3.057-3.047V142.622a3.054,3.054,0,0,0-3.057-3.045Z" fill="#ebebeb"/>
      </g>
      <g id="Group_26" data-name="Group 26">
        <g id="Group_2" data-name="Group 2">
          <path id="Path_3" data-name="Path 3" d="M1057.115,206.242a11.673,11.673,0,1,0,0-23.347h-1.436v23.347Z" fill="#e0e0e0"/>
          <ellipse id="Ellipse_1" data-name="Ellipse 1" cx="11.71" cy="11.673" rx="11.71" ry="11.673" transform="translate(1043.969 182.896)" fill="#f5f5f5"/>
          <path id="Path_4" data-name="Path 4" d="M1055.142,196.036a15.67,15.67,0,0,1-15.675-15.625v-9.338a1.473,1.473,0,0,1,2.945,0v9.338a12.723,12.723,0,0,0,12.73,12.689,1.468,1.468,0,1,1,0,2.936Z" fill="#e0e0e0"/>
          <path id="Path_5" data-name="Path 5" d="M1027.913,179.295h26.053a2.716,2.716,0,0,0,2.629-3.408l-2.26-8.5a2.717,2.717,0,0,0-2.629-2.017h-21.532a2.717,2.717,0,0,0-2.63,2.017l-2.26,8.5A2.716,2.716,0,0,0,1027.913,179.295Z" fill="#f5f5f5"/>
        </g>
        <g id="Group_3" data-name="Group 3">
          <path id="Path_6" data-name="Path 6" d="M1222.483,206.242a11.673,11.673,0,1,0,0-23.347h-1.436v23.347Z" fill="#e0e0e0"/>
          <ellipse id="Ellipse_2" data-name="Ellipse 2" cx="11.71" cy="11.673" rx="11.71" ry="11.673" transform="translate(1209.336 182.896)" fill="#f5f5f5"/>
          <path id="Path_7" data-name="Path 7" d="M1220.51,196.036a15.668,15.668,0,0,1-15.675-15.625v-9.338a1.471,1.471,0,0,1,2.943,0v9.338A12.725,12.725,0,0,0,1220.51,193.1a1.468,1.468,0,1,1,0,2.936Z" fill="#e0e0e0"/>
          <path id="Path_8" data-name="Path 8" d="M1193.281,179.295h26.053a2.716,2.716,0,0,0,2.63-3.408l-2.26-8.5a2.717,2.717,0,0,0-2.63-2.017h-21.532a2.717,2.717,0,0,0-2.629,2.017l-2.26,8.5A2.714,2.714,0,0,0,1193.281,179.295Z" fill="#f5f5f5"/>
        </g>
        <g id="Group_9" data-name="Group 9">
          <g id="Group_4" data-name="Group 4">
            <rect id="Rectangle_8" data-name="Rectangle 8" width="8.516" height="32.896" transform="matrix(-1, 0, 0, -1, 1076.273, 285.078)" fill="#e6e6e6"/>
            <path id="Path_9" data-name="Path 9" d="M1044.668,285.078h28.263l4.268-38.5h-28.263Z" fill="#f0f0f0"/>
            <path id="Path_10" data-name="Path 10" d="M1041.607,285.078H1070.8l4.268-38.5h-29.194Z" fill="#f5f5f5"/>
            <path id="Path_11" data-name="Path 11" d="M1068.691,282.044l3.6-32.434h-24.3l-3.6,32.434Z" fill="#fff"/>
            <path id="Path_12" data-name="Path 12" d="M1063.672,274.183l.148-1.322c.9-8.137-4.195-15.389-10.816-15.389h0l-.148,1.322c-.9,8.137,4.195,15.389,10.816,15.389Z" fill="#f5f5f5"/>
          </g>
          <g id="Group_6" data-name="Group 6">
            <g id="Group_5" data-name="Group 5">
              <rect id="Rectangle_9" data-name="Rectangle 9" width="25.11" height="37.147" transform="matrix(-1, 0, 0, -1, 1050.924, 322.225)" fill="#e6e6e6"/>
              <path id="Path_13" data-name="Path 13" d="M1028.34,322.225h-2.526v-7.161h5.174Z" fill="#f0f0f0"/>
              <rect id="Rectangle_10" data-name="Rectangle 10" width="25.11" height="37.147" transform="matrix(-1, 0, 0, -1, 1121.299, 322.225)" fill="#e6e6e6"/>
              <rect id="Rectangle_11" data-name="Rectangle 11" width="72.579" height="32.753" transform="matrix(-1, 0, 0, -1, 1098.393, 317.831)" fill="#f0f0f0"/>
              <path id="Path_14" data-name="Path 14" d="M1095.868,322.225h2.526v-7.161h-5.174Z" fill="#f0f0f0"/>
              <rect id="Rectangle_12" data-name="Rectangle 12" width="68.66" height="13.216" transform="matrix(-1, 0, 0, -1, 1096.434, 300.343)" fill="#e6e6e6"/>
              <path id="Path_15" data-name="Path 15" d="M1057.524,295.743h9.159a14.505,14.505,0,0,0,10.515-4.509h-30.189A14.509,14.509,0,0,0,1057.524,295.743Z" fill="#f0f0f0"/>
              <rect id="Rectangle_13" data-name="Rectangle 13" width="68.66" height="13.216" transform="matrix(-1, 0, 0, -1, 1096.434, 315.695)" fill="#e6e6e6"/>
              <path id="Path_16" data-name="Path 16" d="M1057.524,311.094h9.159a14.505,14.505,0,0,0,10.515-4.509h-30.189A14.509,14.509,0,0,0,1057.524,311.094Z" fill="#f0f0f0"/>
            </g>
          </g>
          <g id="Group_8" data-name="Group 8">
            <path id="Path_17" data-name="Path 17" d="M1093.8,283.564h.647c-.005-1.332.005-4.712.069-12.456.117-14.037.341-14.892.341-14.892l-1.545,6.48C1092.328,269.872,1093.591,277.081,1093.8,283.564Z" fill="#e6e6e6"/>
            <path id="Path_18" data-name="Path 18" d="M1092.514,261.729c-2.225-2.641-6.972-3.41-11.836-4.067-1.909-.256,5.017,4.093,8.4,7.181,2.629,2.4,4.312,3.063,5.035,5.453C1094.489,267.314,1094.428,264.005,1092.514,261.729Z" fill="#e6e6e6"/>
            <path id="Path_19" data-name="Path 19" d="M1095.462,266.452c2.225-2.641,6.972-3.41,11.836-4.067,1.909-.259-5.017,4.09-8.4,7.178-2.63,2.4-4.312,3.063-5.032,5.455C1093.487,272.036,1093.548,268.728,1095.462,266.452Z" fill="#e6e6e6"/>
            <path id="Path_20" data-name="Path 20" d="M1094.51,255.594c1.667-3.157,5.862-6.128,10.569-7.254,1.848-.444-4.281,5.828-6.611,9.873-1.81,3.141-4.208,6.833-4.582,9.482C1093.324,262.442,1092.845,258.751,1094.51,255.594Z" fill="#e6e6e6"/>
            <g id="Group_7" data-name="Group 7">
              <path id="Path_21" data-name="Path 21" d="M1094.314,285.079h0c-1.985,0-3.627-.992-3.739-2.263l-.331-2.167h8.143l-.331,2.167C1097.941,284.086,1096.3,285.079,1094.314,285.079Z" fill="#f0f0f0"/>
              <path id="Path_22" data-name="Path 22" d="M1098.913,281.482h-9.2l-.263-2.416h9.725Z" fill="#f0f0f0"/>
            </g>
          </g>
        </g>
        <g id="Group_15" data-name="Group 15">
          <g id="Group_12" data-name="Group 12">
            <g id="Group_11" data-name="Group 11">
              <g id="Group_10" data-name="Group 10">
                <rect id="Rectangle_14" data-name="Rectangle 14" width="89.715" height="81.574" transform="matrix(-1, 0, 0, -1, 1177.385, 235.323)" fill="#e6e6e6"/>
                <rect id="Rectangle_15" data-name="Rectangle 15" width="90.857" height="81.574" transform="matrix(-1, 0, 0, -1, 1176.508, 235.323)" fill="#f5f5f5"/>
                <rect id="Rectangle_16" data-name="Rectangle 16" width="74.266" height="83.609" transform="matrix(0, 1, -1, 0, 1172.884, 157.403)" fill="#fafafa"/>
                <path id="Path_23" data-name="Path 23" d="M1162.624,231.669,1129.718,157.4h-11.177l32.906,74.266Z" fill="#fff"/>
                <path id="Path_24" data-name="Path 24" d="M1148.279,231.669,1115.373,157.4h-7.7l32.906,74.266Z" fill="#fff"/>
                <rect id="Rectangle_17" data-name="Rectangle 17" width="74.266" height="4.324" transform="matrix(0, 1, -1, 0, 1120.32, 157.403)" fill="#e6e6e6"/>
                <rect id="Rectangle_18" data-name="Rectangle 18" width="74.266" height="4.324" transform="matrix(0, 1, -1, 0, 1149.059, 157.403)" fill="#e6e6e6"/>
                <rect id="Rectangle_19" data-name="Rectangle 19" width="79.302" height="5.465" transform="matrix(0, 1, -1, 0, 1119.54, 154.686)" fill="#f5f5f5"/>
                <rect id="Rectangle_20" data-name="Rectangle 20" width="79.302" height="5.465" transform="matrix(0, 1, -1, 0, 1148.279, 154.686)" fill="#f5f5f5"/>
                <rect id="Rectangle_21" data-name="Rectangle 21" width="74.266" height="0.385" transform="matrix(0, 1, -1, 0, 1089.66, 157.403)" fill="#e6e6e6"/>
              </g>
            </g>
          </g>
          <g id="Group_14" data-name="Group 14">
            <g id="Group_13" data-name="Group 13">
              <path id="Path_25" data-name="Path 25" d="M1084.129,149.049h97.2a.47.47,0,0,1,.468.467h0a.468.468,0,0,1-.468.464h-97.2a.468.468,0,0,1-.468-.464h0A.47.47,0,0,1,1084.129,149.049Z" fill="#e6e6e6"/>
              <path id="Path_26" data-name="Path 26" d="M1177.385,152.124h0a.632.632,0,0,0,.631-.629v-1.35a.63.63,0,0,0-.631-.629h0a.632.632,0,0,0-.631.629v1.35A.633.633,0,0,0,1177.385,152.124Z" fill="#e6e6e6"/>
              <path id="Path_27" data-name="Path 27" d="M1091.178,152.124h0a.633.633,0,0,0,.631-.629v-1.35a.632.632,0,0,0-.631-.629h0a.632.632,0,0,0-.631.629v1.35A.633.633,0,0,0,1091.178,152.124Z" fill="#e6e6e6"/>
            </g>
            <rect id="Rectangle_22" data-name="Rectangle 22" width="90.791" height="63.882" transform="matrix(-1, 0, 0, -1, 1175.069, 213.397)" fill="#e0e0e0" opacity="0.6"/>
          </g>
        </g>
        <g id="Group_25" data-name="Group 25">
          <g id="Group_16" data-name="Group 16">
            <rect id="Rectangle_23" data-name="Rectangle 23" width="21.681" height="13.231" rx="6.615" transform="translate(1164.621 253.882)" fill="#fafafa"/>
            <rect id="Rectangle_24" data-name="Rectangle 24" width="21.681" height="2.833" rx="1.417" transform="translate(1164.621 251.439)" fill="#e6e6e6"/>
          </g>
          <g id="Group_17" data-name="Group 17">
            <path id="Path_28" data-name="Path 28" d="M1164.94,281.785s.285,9.3,11.159,9.3,11.159-9.3,11.159-9.3Z" fill="#f0f0f0"/>
          </g>
          <g id="Group_18" data-name="Group 18">
            <path id="Path_29" data-name="Path 29" d="M1189.738,281.785s.283,9.3,11.159,9.3,11.159-9.3,11.159-9.3Z" fill="#f0f0f0"/>
          </g>
          <g id="Group_19" data-name="Group 19">
            <rect id="Rectangle_25" data-name="Rectangle 25" width="29.794" height="19.223" rx="9.612" transform="translate(1181.022 247.89)" fill="#f0f0f0"/>
            <rect id="Rectangle_26" data-name="Rectangle 26" width="29.794" height="3.894" rx="1.947" transform="translate(1181.022 244.532)" fill="#f5f5f5"/>
          </g>
          <g id="Group_24" data-name="Group 24">
            <rect id="Rectangle_27" data-name="Rectangle 27" width="2.821" height="46.134" transform="matrix(-1, 0, 0, -1, 1159.57, 322.225)" fill="#e6e6e6"/>
            <g id="Group_21" data-name="Group 21">
              <g id="Group_20" data-name="Group 20">
                <rect id="Rectangle_28" data-name="Rectangle 28" width="15.282" height="8.978" transform="translate(1222.959 267.113)" fill="#e6e6e6"/>
                <rect id="Rectangle_29" data-name="Rectangle 29" width="75.981" height="8.978" transform="matrix(-1, 0, 0, -1, 1222.959, 276.091)" fill="#f5f5f5"/>
              </g>
            </g>
            <g id="Group_23" data-name="Group 23">
              <g id="Group_22" data-name="Group 22">
                <rect id="Rectangle_30" data-name="Rectangle 30" width="15.282" height="8.978" transform="translate(1222.959 291.087)" fill="#e6e6e6"/>
                <rect id="Rectangle_31" data-name="Rectangle 31" width="75.981" height="8.978" transform="matrix(-1, 0, 0, -1, 1222.959, 300.065)" fill="#f5f5f5"/>
              </g>
            </g>
            <rect id="Rectangle_32" data-name="Rectangle 32" width="2.821" height="46.134" transform="matrix(-1, 0, 0, -1, 1235.552, 322.225)" fill="#e6e6e6"/>
            <rect id="Rectangle_33" data-name="Rectangle 33" width="2.821" height="46.134" transform="matrix(-1, 0, 0, -1, 1222.959, 322.225)" fill="#f5f5f5"/>
            <rect id="Rectangle_34" data-name="Rectangle 34" width="2.821" height="46.134" transform="matrix(-1, 0, 0, -1, 1149.799, 322.225)" fill="#f5f5f5"/>
          </g>
        </g>
      </g>
    </g>
    <g id="Shadow">
      <ellipse id="_Path_" data-name="&lt;Path&gt;" cx="108.578" cy="6.321" rx="108.578" ry="6.321" transform="translate(1024.15 334.794)" fill="#f5f5f5"/>
    </g>
    <g id="Login">
      <g id="Group_29" data-name="Group 29">
        <g id="Group_27" data-name="Group 27">
          <path id="Path_30" data-name="Path 30" d="M1138.559,312.789h-71.441a4.545,4.545,0,0,1-4.5-4.26l-6.394-123.675a4.015,4.015,0,0,1,4.055-4.26h71.441a4.547,4.547,0,0,1,4.5,4.26l6.394,123.675A4.015,4.015,0,0,1,1138.559,312.789Z" fill="#407bff"/>
          <path id="Path_31" data-name="Path 31" d="M1138.559,312.789h-71.441a4.545,4.545,0,0,1-4.5-4.26l-6.394-123.675a4.015,4.015,0,0,1,4.055-4.26h71.441a4.547,4.547,0,0,1,4.5,4.26l6.394,123.675A4.015,4.015,0,0,1,1138.559,312.789Z" fill="#fff" opacity="0.8"/>
        </g>
        <rect id="Rectangle_35" data-name="Rectangle 35" width="7.902" height="0.558" transform="translate(1116.771 176.56)" fill="#407bff"/>
        <rect id="Rectangle_36" data-name="Rectangle 36" width="2.894" height="0.558" transform="translate(1111.14 176.56)" fill="#407bff"/>
        <path id="Path_32" data-name="Path 32" d="M1141.631,304.946H1073.3a4.344,4.344,0,0,1-4.3-4.075l-6.117-118.283a3.839,3.839,0,0,1,3.877-4.075h68.328a4.344,4.344,0,0,1,4.3,4.075l6.117,118.283A3.836,3.836,0,0,1,1141.631,304.946Z" fill="#407bff"/>
        <path id="Path_33" data-name="Path 33" d="M1141.631,302.224H1073.3a1.632,1.632,0,0,1-1.571-1.492l-6.117-118.283a1.151,1.151,0,0,1,.3-.87,1.135,1.135,0,0,1,.848-.343h68.328a1.636,1.636,0,0,1,1.573,1.492l6.114,118.283a1.111,1.111,0,0,1-1.151,1.213Zm-74.864-120.848a.972.972,0,0,0-1.01,1.066l6.117,118.283a1.485,1.485,0,0,0,1.431,1.36h68.328a.972.972,0,0,0,1.01-1.066l-6.114-118.283a1.489,1.489,0,0,0-1.433-1.36Z" fill="#fff"/>
        <ellipse id="Ellipse_3" data-name="Ellipse 3" cx="20.158" cy="21.157" rx="20.158" ry="21.157" transform="matrix(0.698, -0.716, 0.716, 0.698, 1073.269, 209.208)" fill="#fff" opacity="0.3"/>
        <path id="Path_34" data-name="Path 34" d="M1119.272,209.583a15.984,15.984,0,0,1-1.611,7.947,15.71,15.71,0,0,1-14.262,8.734,17.782,17.782,0,0,1-15.163-8.734,17.219,17.219,0,0,1-2.433-7.947,15.707,15.707,0,0,1,15.874-16.681A17.793,17.793,0,0,1,1119.272,209.583Z" fill="#fff"/>
        <path id="Path_35" data-name="Path 35" d="M1117.661,217.531a15.71,15.71,0,0,1-14.262,8.734,17.782,17.782,0,0,1-15.163-8.734,25.351,25.351,0,0,1,14.484-4.446A27.57,27.57,0,0,1,1117.661,217.531Z" fill="#407bff"/>
        <ellipse id="Ellipse_4" data-name="Ellipse 4" cx="7.265" cy="7.625" rx="7.265" ry="7.625" transform="translate(1091.694 203.741) rotate(-45.738)" fill="#407bff"/>
        <g id="Group_28" data-name="Group 28">
          <path id="Path_36" data-name="Path 36" d="M1131.839,258.936h-53.5a1.839,1.839,0,0,1-1.817-1.725l-.4-7.835a1.623,1.623,0,0,1,1.639-1.725h53.5a1.839,1.839,0,0,1,1.817,1.725l.4,7.835A1.623,1.623,0,0,1,1131.839,258.936Z" fill="#fff"/>
          <path id="Path_37" data-name="Path 37" d="M1115.454,243.346h-22.341a1.838,1.838,0,0,1-1.82-1.723l-.087-1.665a1.626,1.626,0,0,1,1.642-1.725h22.344a1.84,1.84,0,0,1,1.818,1.725l.086,1.665A1.623,1.623,0,0,1,1115.454,243.346Z" opacity="0.3"/>
          <path id="Path_38" data-name="Path 38" d="M1123.765,296.5H1090.3a3.135,3.135,0,0,1-3.1-2.938l-.2-3.847a2.766,2.766,0,0,1,2.795-2.936h33.465a3.133,3.133,0,0,1,3.1,2.936l.2,3.847A2.766,2.766,0,0,1,1123.765,296.5Z" opacity="0.3"/>
          <path id="Path_39" data-name="Path 39" d="M1132.814,277.822h-53.5a1.841,1.841,0,0,1-1.82-1.723l-.4-7.835a1.626,1.626,0,0,1,1.642-1.725h53.5a1.84,1.84,0,0,1,1.82,1.725l.4,7.835A1.623,1.623,0,0,1,1132.814,277.822Z" fill="#fff"/>
          <path id="Path_40" data-name="Path 40" d="M1085.143,253.293a1.8,1.8,0,0,1-1.815,1.908,2.035,2.035,0,0,1-2.013-1.908,1.8,1.8,0,0,1,1.815-1.908A2.035,2.035,0,0,1,1085.143,253.293Z" fill="#263238"/>
          <path id="Path_41" data-name="Path 41" d="M1091.028,253.293a1.8,1.8,0,0,1-1.818,1.908,2.038,2.038,0,0,1-2.013-1.908,1.8,1.8,0,0,1,1.817-1.908A2.038,2.038,0,0,1,1091.028,253.293Z" fill="#263238"/>
          <path id="Path_42" data-name="Path 42" d="M1096.91,253.293a1.8,1.8,0,0,1-1.815,1.908,2.035,2.035,0,0,1-2.013-1.908,1.8,1.8,0,0,1,1.815-1.908A2.035,2.035,0,0,1,1096.91,253.293Z" fill="#263238"/>
          <path id="Path_43" data-name="Path 43" d="M1102.8,253.293a1.8,1.8,0,0,1-1.818,1.908,2.038,2.038,0,0,1-2.013-1.908,1.8,1.8,0,0,1,1.818-1.908A2.038,2.038,0,0,1,1102.8,253.293Z" fill="#263238"/>
          <path id="Path_44" data-name="Path 44" d="M1086.12,272.181a1.8,1.8,0,0,1-1.817,1.908,2.038,2.038,0,0,1-2.014-1.908,1.8,1.8,0,0,1,1.817-1.911A2.039,2.039,0,0,1,1086.12,272.181Z" fill="#263238"/>
          <path id="Path_45" data-name="Path 45" d="M1092,272.181a1.8,1.8,0,0,1-1.815,1.908,2.035,2.035,0,0,1-2.013-1.908,1.8,1.8,0,0,1,1.815-1.911A2.035,2.035,0,0,1,1092,272.181Z" fill="#263238"/>
          <path id="Path_46" data-name="Path 46" d="M1097.888,272.181a1.8,1.8,0,0,1-1.817,1.908,2.038,2.038,0,0,1-2.013-1.908,1.8,1.8,0,0,1,1.817-1.911A2.039,2.039,0,0,1,1097.888,272.181Z" fill="#263238"/>
          <path id="Path_47" data-name="Path 47" d="M1103.77,272.181a1.8,1.8,0,0,1-1.815,1.908,2.037,2.037,0,0,1-2.014-1.908,1.8,1.8,0,0,1,1.815-1.911A2.035,2.035,0,0,1,1103.77,272.181Z" fill="#263238"/>
          <path id="Path_48" data-name="Path 48" d="M1109.655,272.181a1.8,1.8,0,0,1-1.815,1.908,2.035,2.035,0,0,1-2.013-1.908,1.8,1.8,0,0,1,1.815-1.911A2.035,2.035,0,0,1,1109.655,272.181Z" fill="#263238"/>
          <path id="Path_49" data-name="Path 49" d="M1115.54,272.181a1.8,1.8,0,0,1-1.817,1.908,2.038,2.038,0,0,1-2.013-1.908,1.8,1.8,0,0,1,1.817-1.911A2.039,2.039,0,0,1,1115.54,272.181Z" fill="#263238"/>
        </g>
      </g>
    </g>
    <g id="Character">
      <g id="Group_36" data-name="Group 36">
        <g id="Group_35" data-name="Group 35">
          <path id="Path_50" data-name="Path 50" d="M1179.225,207.356c.14.208.211.322.3.472l.252.416c.16.277.3.553.448.83.28.551.545,1.1.781,1.662a31,31,0,0,1,1.214,3.405,35.584,35.584,0,0,1,1.326,7l.043.441c.008.063.015.162.018.266l.013.3a6.966,6.966,0,0,1-.066,1.162,9.462,9.462,0,0,1-.555,2.078,14.154,14.154,0,0,1-1.94,3.337,23.723,23.723,0,0,1-5.213,4.92l-1.54-1.8a32.277,32.277,0,0,0,3.716-5.128,11.842,11.842,0,0,0,1.135-2.636,5.171,5.171,0,0,0,.186-1.2,2.871,2.871,0,0,0-.02-.52l-.015-.119c-.005-.036-.01-.076-.023-.152l-.071-.393a43.491,43.491,0,0,0-1.522-6.143c-.323-.995-.72-1.959-1.125-2.905-.2-.477-.42-.936-.647-1.385l-.346-.657-.173-.31-.143-.244Z" fill="#803e3c"/>
          <path id="Path_51" data-name="Path 51" d="M1174,233.676l2.029,4.268,1.609-3.608s-1.425-3.126-3.355-2.839Z" fill="#7f3e3b"/>
          <path id="Path_52" data-name="Path 52" d="M1177.478,238.156l1.61-2.632-1.455-1.189-1.608,3.609Z" fill="#7f3e3b"/>
          <path id="Path_53" data-name="Path 53" d="M1168.364,336.638a5.67,5.67,0,0,0,1.237-.167.112.112,0,0,0,.084-.089.108.108,0,0,0-.048-.112c-.16-.107-1.586-1.023-2.131-.776a.378.378,0,0,0-.221.312.631.631,0,0,0,.183.589A1.362,1.362,0,0,0,1168.364,336.638Zm.924-.327a2.213,2.213,0,0,1-1.67-.081.417.417,0,0,1-.112-.393.154.154,0,0,1,.092-.14C1167.885,335.565,1168.707,335.963,1169.288,336.311Z" fill="#407bff"/>
          <path id="Path_54" data-name="Path 54" d="M1169.575,336.473a.109.109,0,0,0,.056-.015.114.114,0,0,0,.056-.1c0-.056-.008-1.4-.517-1.852a.577.577,0,0,0-.471-.147.388.388,0,0,0-.374.307c-.1.528.748,1.538,1.2,1.789A.1.1,0,0,0,1169.575,336.473Zm-.8-1.9a.37.37,0,0,1,.247.1,2.519,2.519,0,0,1,.435,1.474c-.445-.355-.977-1.114-.914-1.436.01-.051.041-.114.183-.132Z" fill="#407bff"/>
          <path id="Path_55" data-name="Path 55" d="M1163.074,334.36a.11.11,0,0,0-.076-.185c-.232-.013-2.245-.094-2.7.393l-.028.033a.359.359,0,0,0-.048.348.612.612,0,0,0,.41.406c.652.2,1.8-.528,2.423-.979Zm-2.609.355a4.386,4.386,0,0,1,2.192-.33c-.873.589-1.594.87-1.96.756a.4.4,0,0,1-.265-.269.143.143,0,0,1,.018-.14Z" fill="#407bff"/>
          <path id="Path_56" data-name="Path 56" d="M1163.074,334.36l.013-.02a.111.111,0,0,0,0-.109c-.028-.046-.652-1.144-1.395-1.345a.8.8,0,0,0-.639.084c-.265.155-.28.335-.247.457.143.518,1.571.974,2.184.969A.11.11,0,0,0,1163.074,334.36Zm-2.011-1.119a.46.46,0,0,1,.107-.081.579.579,0,0,1,.468-.058,2.569,2.569,0,0,1,1.148,1.061c-.664-.076-1.677-.482-1.764-.794A.122.122,0,0,1,1161.063,333.241Z" fill="#407bff"/>
          <path id="Path_57" data-name="Path 57" d="M1169.239,191c-.545,2.773-1.772,8.828.176,10.677,0,0-.761,2.814-5.933,2.814-5.687,0-2.716-2.814-2.716-2.814,3.1-.738,3.021-3.035,2.482-5.189Z" fill="#7f3e3b"/>
          <path id="Path_58" data-name="Path 58" d="M1159.763,184.461a.206.206,0,0,0,.1-.025.219.219,0,0,0,.1-.3,2.2,2.2,0,0,0-1.611-1.226.221.221,0,0,0-.051.439h0a1.761,1.761,0,0,1,1.265.987A.23.23,0,0,0,1159.763,184.461Z" fill="#263238"/>
          <path id="Path_59" data-name="Path 59" d="M1158.065,186.884a10.076,10.076,0,0,1-1.634,2.225,1.632,1.632,0,0,0,1.308.416Z" fill="#630f0f"/>
          <path id="Path_60" data-name="Path 60" d="M1158.482,186.283c-.048.376-.285.655-.529.624s-.407-.358-.359-.733.282-.652.527-.622S1158.528,185.91,1158.482,186.283Z" fill="#263238"/>
          <path id="Path_61" data-name="Path 61" d="M1158.228,185.585l-.871-.37S1157.734,185.973,1158.228,185.585Z" fill="#263238"/>
          <path id="Path_62" data-name="Path 62" d="M1168.016,333.3l-4.568,1.064-2.776-10.474,4.568-1.064Z" fill="#7f3e3b"/>
          <path id="Path_63" data-name="Path 63" d="M1175.03,336.363h-4.691l.368-10.828h4.691Z" fill="#7f3e3b"/>
          <path id="Path_64" data-name="Path 64" d="M1169.967,335.821h5.272a.371.371,0,0,1,.374.32l.6,4.156a.754.754,0,0,1-.754.832c-1.838-.033-2.724-.14-5.04-.14-1.426,0-3.508.147-5.478.147-1.924,0-2.074-1.941-1.252-2.116a9.176,9.176,0,0,0,5.493-2.913A1.239,1.239,0,0,1,1169.967,335.821Z" fill="#263238"/>
          <path id="Path_65" data-name="Path 65" d="M1163.044,333.664l4.788-2.195a.374.374,0,0,1,.474.134l2.288,3.524a.751.751,0,0,1-.336,1.071c-1.682.736-2.53,1.007-4.635,1.972-1.3.594-3.912,1.959-5.7,2.778-1.749.8-2.7-.9-2.026-1.4a12.673,12.673,0,0,0,4.556-5.3A1.225,1.225,0,0,1,1163.044,333.664Z" fill="#263238"/>
          <g id="Group_30" data-name="Group 30">
            <path id="Path_66" data-name="Path 66" d="M1160.674,323.892l1.486,5.611,4.514-1.276-1.43-5.4Z" opacity="0.2"/>
            <path id="Path_67" data-name="Path 67" d="M1175.4,325.537h-4.693l-.187,5.581h4.693Z" opacity="0.2"/>
          </g>
          <path id="Path_68" data-name="Path 68" d="M1177.5,202.745c1.95.426,4.029,7.414,4.029,7.414L1176.026,216s-4.572-6.562-3.64-8.975C1173.355,204.509,1175.2,202.243,1177.5,202.745Z" fill="#263238"/>
          <path id="Path_69" data-name="Path 69" d="M1174.417,207.193c-.985-.9-1.652-.632-2.1.084-.448,2.076,2.2,6.425,3.276,8.071C1176.079,213.382,1176.644,209.236,1174.417,207.193Z" opacity="0.4"/>
          <path id="Path_70" data-name="Path 70" d="M1152.836,202.88s-2.235.784,2.24,28.221h19.05c-.318-7.729-.328-12.494,3.378-28.355a56.493,56.493,0,0,0-8.089-1.063,60.673,60.673,0,0,0-8.649,0C1157.049,202.02,1152.836,202.88,1152.836,202.88Z" fill="#263238"/>
          <path id="Path_71" data-name="Path 71" d="M1152.666,213.41c.122,1.335.285,2.837.5,4.534,1.56-1.4,2.836-5.384,2.367-7.709A13.706,13.706,0,0,0,1152.666,213.41Z" opacity="0.4"/>
          <path id="Path_72" data-name="Path 72" d="M1154.7,209.251a82.344,82.344,0,0,1-3.464,7.566,46.213,46.213,0,0,1-4.47,7.254l-.359.439-.178.221a2.732,2.732,0,0,1-.209.239,6.841,6.841,0,0,1-1.107.982,9.038,9.038,0,0,1-2.342,1.165,16.963,16.963,0,0,1-4.5.792,33.428,33.428,0,0,1-8.489-.751l.311-2.347c1.285.005,2.637-.023,3.938-.1a31.5,31.5,0,0,0,3.846-.429,15.126,15.126,0,0,0,3.436-.957,5.225,5.225,0,0,0,1.237-.751,2.421,2.421,0,0,0,.384-.4c.02-.02.071-.094.115-.152l.13-.185.262-.368a56.182,56.182,0,0,0,3.747-6.76c1.138-2.375,2.232-4.836,3.263-7.239Z" fill="#803e3c"/>
          <path id="Path_73" data-name="Path 73" d="M1152.836,202.88c-2.332.568-5.2,6.947-5.2,6.947l4.839,7.087s6.443-8.084,5.676-10.556C1157.352,203.786,1155.664,202.192,1152.836,202.88Z" fill="#263238"/>
          <path id="Path_74" data-name="Path 74" d="M1131.233,225.158,1127.2,223.3l-.4,4s3.373.99,5.037-.025Z" fill="#7f3e3b"/>
          <path id="Path_75" data-name="Path 75" d="M1124.779,222.9l-.385,3.046,2.4,1.358.406-4Z" fill="#7f3e3b"/>
          <path id="Path_76" data-name="Path 76" d="M1171.266,186.557c-.853,4.56-1.118,6.511-3.739,8.581-3.943,3.118-9.377,1.073-9.909-3.649-.476-4.253,1-11,5.74-12.271A6.341,6.341,0,0,1,1171.266,186.557Z" fill="#7f3e3b"/>
          <path id="Path_77" data-name="Path 77" d="M1161.214,187.516c-.262,2.327-.361,8.371,4.765,8.561,6.282.231,8.161-5.118,7.6-7.257,3.268-2.652,3.739-7.211.066-10.7s-11.76-1.538-14.018,1.86C1156.828,184.194,1161.214,187.516,1161.214,187.516Z" fill="#263238"/>
          <path id="Path_78" data-name="Path 78" d="M1167.5,179.475c-.3-2.454-.066-4.146,2.235-4.146s5.452.835,6.608,3.184,1.247,6.026-1.973,5.653S1167.867,182.413,1167.5,179.475Z" fill="#407bff"/>
          <path id="Path_79" data-name="Path 79" d="M1171.075,178.886c-.55-2.928,2.067-11.162,8.448-11.7,2.955-.249,4.325,2.923,2.777,3.443,2.792-.033,4.592,3.656,1.98,4.212,2.064,1.314,1.55,4.019-1.39,5.346C1180.722,181.167,1171.833,182.936,1171.075,178.886Z" fill="#263238"/>
          <path id="Path_80" data-name="Path 80" d="M1177.891,182.027a10.577,10.577,0,0,1-5.531-1.188,2.735,2.735,0,0,1-1.316-2.124.14.14,0,0,1,.13-.15.135.135,0,0,1,.15.127,2.47,2.47,0,0,0,1.194,1.916c2.533,1.69,8.39,1.144,10.225.546a3.864,3.864,0,0,0,2.861-2.662,2.3,2.3,0,0,0-.939-2.258.14.14,0,0,1,.176-.218,2.6,2.6,0,0,1,1.039,2.527,4.132,4.132,0,0,1-3.049,2.877A18.345,18.345,0,0,1,1177.891,182.027Z" fill="#263238"/>
          <path id="Path_81" data-name="Path 81" d="M1159.785,186.9a3.468,3.468,0,0,0-.6,2.522c.186,1.17,1.331,1.248,2.161.5.746-.675,1.548-2.1.937-3.07A1.474,1.474,0,0,0,1159.785,186.9Z" fill="#7f3e3b"/>
          <path id="Path_82" data-name="Path 82" d="M1160.109,231.1s2.721,32.093,5.547,50.182c2.281,14.608,4.08,48.756,4.08,48.756h6.4s2.273-33.128,1.117-47.576c-2.932-36.564,3.6-39.543-3.123-51.362Z" fill="#407bff"/>
          <path id="Path_83" data-name="Path 83" d="M1168.16,243.232a31.193,31.193,0,0,0-6.043,9.086c.746,7.214,1.632,15.219,2.571,22.23A61.439,61.439,0,0,0,1168.16,243.232Z" opacity="0.4"/>
          <path id="Path_84" data-name="Path 84" d="M1155.631,230.9s-5.905,35.049-6.84,50.849c2.319,14.608,11.806,45.488,11.806,45.488l5.819-2.1s-3.217-33.671-6.738-42.889c7.878-26.445,13.669-33.128,11.984-51.144C1167.646,231.1,1155.631,230.9,1155.631,230.9Z" fill="#407bff"/>
          <path id="Path_85" data-name="Path 85" d="M1159.818,328.779l7.862-2.128-.446-3.124-8.418,2.269Z" fill="#263238"/>
          <path id="Path_86" data-name="Path 86" d="M1168.86,330.164h8.147l.428-2.849-8.622-.291Z" fill="#263238"/>
          <g id="Group_31" data-name="Group 31">
            <path id="Path_87" data-name="Path 87" d="M1174.412,229.987l.86,1.7c.066.132-.089.266-.311.266h-19.979c-.171,0-.313-.084-.323-.19l-.173-1.7c-.013-.119.137-.218.326-.218H1174.1A.344.344,0,0,1,1174.412,229.987Z" fill="#407bff"/>
            <path id="Path_88" data-name="Path 88" d="M1174.412,229.987l.86,1.7c.066.132-.089.266-.311.266h-19.979c-.171,0-.313-.084-.323-.19l-.173-1.7c-.013-.119.137-.218.326-.218H1174.1A.344.344,0,0,1,1174.412,229.987Z" opacity="0.5"/>
          </g>
          <path id="Path_89" data-name="Path 89" d="M1171.823,232.138h.517c.1,0,.181-.053.173-.119l-.242-2.208c-.008-.066-.1-.117-.2-.117h-.517c-.1,0-.181.051-.173.117l.242,2.208C1171.629,232.085,1171.719,232.138,1171.823,232.138Z" fill="#407bff"/>
          <g id="Group_34" data-name="Group 34">
            <path id="Path_90" data-name="Path 90" d="M1164.886,215.871a.28.28,0,0,1-.27-.208c-1.828-6.729-5.625-12.263-7.435-13.116a.623.623,0,0,0-.473-.079.279.279,0,0,1-.369-.14.276.276,0,0,1,.14-.368,1.1,1.1,0,0,1,.942.081c1.932.911,5.763,6.382,7.68,13.268,1.372-.018,3.49-.188,4-.231.641-.759,5.338-6.61,3.579-13.009a.279.279,0,0,1,.2-.343.282.282,0,0,1,.346.2c1.955,7.125-3.716,13.547-3.775,13.611a.267.267,0,0,1-.183.091C1169.237,215.628,1166.444,215.871,1164.886,215.871Z" fill="#407bff"/>
            <g id="Group_33" data-name="Group 33">
              <g id="Group_32" data-name="Group 32">
                <path id="Path_91" data-name="Path 91" d="M1174.162,219.817c-3.052-5.7-4.3-6.1-4.847-7.937a9.393,9.393,0,0,1,1.741-2.786c-.374-.1-1.168-.261-1.665-.358.056-.249.115-.5.171-.733a5.244,5.244,0,0,0-1.705.076l-.02-.563a7.173,7.173,0,0,0-2.171-.137c.064.259.127.53.188.8-.545.1-1.415.279-1.825.393a7.955,7.955,0,0,1,1.711,3.111c-1.644,2.817-8.041,20.939,2.362,22.3S1177.214,225.521,1174.162,219.817Z" fill="#407bff"/>
                <path id="Path_92" data-name="Path 92" d="M1174.162,219.817c-3.052-5.7-4.3-6.1-4.847-7.937a9.393,9.393,0,0,1,1.741-2.786c-.374-.1-1.168-.261-1.665-.358.056-.249.115-.5.171-.733a5.244,5.244,0,0,0-1.705.076l-.02-.563a7.173,7.173,0,0,0-2.171-.137c.064.259.127.53.188.8-.545.1-1.415.279-1.825.393a7.955,7.955,0,0,1,1.711,3.111c-1.644,2.817-8.041,20.939,2.362,22.3S1177.214,225.521,1174.162,219.817Z" fill="#fff" opacity="0.4"/>
              </g>
              <path id="Path_93" data-name="Path 93" d="M1165.352,211.147a3.435,3.435,0,0,0-.081.873c-.013.211.547.35,1.176.406s3.233.165,3.151-.127.127-.685.14-.931-1.039-.254-1.914-.221S1165.526,210.834,1165.352,211.147Z" fill="#407bff"/>
            </g>
          </g>
          <path id="Path_94" data-name="Path 94" d="M1159.3,232.138h.517c.1,0,.181-.053.173-.119l-.242-2.208c-.008-.066-.1-.117-.2-.117h-.517c-.1,0-.181.051-.173.117l.242,2.208C1159.106,232.085,1159.195,232.138,1159.3,232.138Z" fill="#407bff"/>
        </g>
      </g>
    </g>
  </g>
</svg>
