<svg xmlns="http://www.w3.org/2000/svg" xmlns:xlink="http://www.w3.org/1999/xlink" width="29" height="29" viewBox="0 0 29 29">
  <defs>
    <linearGradient id="linear-gradient" y1="0.5" x2="1" y2="0.5" gradientUnits="objectBoundingBox">
      <stop offset="0" stop-color="#ff8f42"/>
      <stop offset="1" stop-color="#dd3191"/>
    </linearGradient>
    <linearGradient id="linear-gradient-3" x1="0" y1="0.5" x2="1" y2="0.5" xlink:href="#linear-gradient"/>
  </defs>
  <g id="circle-instagram" transform="translate(-47.58 -23.16)">
    <g id="Group_19" data-name="Group 19">
      <circle id="Ellipse_5" data-name="Ellipse 5" cx="14.5" cy="14.5" r="14.5" transform="translate(47.58 23.16)" fill="#f2f2f2"/>
      <g id="Group_18" data-name="Group 18">
        <g id="Group_17" data-name="Group 17">
          <path id="Path_16" data-name="Path 16" d="M62.081,33.69a3.97,3.97,0,1,0,3.97,3.97A3.974,3.974,0,0,0,62.081,33.69Zm0,7.061a3.091,3.091,0,1,1,3.091-3.091A3.094,3.094,0,0,1,62.081,40.751Z" fill="url(#linear-gradient)"/>
          <path id="Path_17" data-name="Path 17" d="M68.069,31.671a5.11,5.11,0,0,0-3.635-1.511H59.727a5.16,5.16,0,0,0-5.146,5.146v4.707a5.16,5.16,0,0,0,5.146,5.146h4.707a5.161,5.161,0,0,0,5.146-5.146V35.306A5.11,5.11,0,0,0,68.069,31.671Zm.632,8.342a4.272,4.272,0,0,1-4.268,4.267H59.727a4.272,4.272,0,0,1-4.267-4.267V35.306a4.272,4.272,0,0,1,4.267-4.268h4.707A4.272,4.272,0,0,1,68.7,35.306Z" fill="url(#linear-gradient)"/>
        </g>
        <path id="Path_18" data-name="Path 18" d="M66.168,33.133a.44.44,0,1,0,.311.129A.442.442,0,0,0,66.168,33.133Z" fill="url(#linear-gradient-3)"/>
      </g>
    </g>
  </g>
</svg>
