<svg xmlns="http://www.w3.org/2000/svg" viewBox="0 0 31 31"><defs><style>.cls-1{fill:none;stroke:#3b5998;stroke-miterlimit:10;}.cls-2{fill:#3b5998;}</style></defs><g id="Layer_2" data-name="Layer 2"><g id="Mode_Isolation" data-name="Mode Isolation"><circle class="cls-1" cx="15.5" cy="15.5" r="15"/><path class="cls-2" d="M11.83,16h1.7v7a.25.25,0,0,0,.25.25h2.89a.25.25,0,0,0,.25-.25V16h1.95a.25.25,0,0,0,.25-.22l.3-2.58a.3.3,0,0,0-.06-.2.27.27,0,0,0-.19-.08H16.92V11.34c0-.48.26-.73.78-.73h1.47a.25.25,0,0,0,.25-.25V8a.25.25,0,0,0-.25-.25H17.05a3.9,3.9,0,0,0-2.55,1,2.65,2.65,0,0,0-.88,2.37V13H11.83a.25.25,0,0,0-.25.25v2.55A.25.25,0,0,0,11.83,16Z"/></g></g></svg>