<svg xmlns="http://www.w3.org/2000/svg" xmlns:xlink="http://www.w3.org/1999/xlink" viewBox="0 0 31 31"><defs><style>.cls-1{fill:none;stroke-miterlimit:10;stroke:url(#Dégradé_sans_nom_13);}.cls-2{fill:url(#Dégradé_sans_nom_13-2);}.cls-3{fill:url(#Dégradé_sans_nom_13-3);}.cls-4{fill:url(#Dégradé_sans_nom_13-4);}</style><linearGradient id="Dégradé_sans_nom_13" y1="15.5" x2="31" y2="15.5" gradientUnits="userSpaceOnUse"><stop offset="0" stop-color="#ff8f42"/><stop offset="1" stop-color="#dd3191"/></linearGradient><linearGradient id="Dégradé_sans_nom_13-2" x1="11.39" x2="19.61" xlink:href="#Dégradé_sans_nom_13"/><linearGradient id="Dégradé_sans_nom_13-3" x1="7.74" x2="23.26" xlink:href="#Dégradé_sans_nom_13"/><linearGradient id="Dégradé_sans_nom_13-4" x1="19.27" y1="11.27" x2="20.18" y2="11.27" xlink:href="#Dégradé_sans_nom_13"/></defs><g id="Layer_2" data-name="Layer 2"><g id="Capa_1" data-name="Capa 1"><circle class="cls-1" cx="15.5" cy="15.5" r="15"/><path class="cls-2" d="M15.5,11.39a4.11,4.11,0,1,0,4.11,4.11A4.12,4.12,0,0,0,15.5,11.39Zm0,7.31a3.2,3.2,0,1,1,3.2-3.2A3.21,3.21,0,0,1,15.5,18.7Z"/><path class="cls-3" d="M21.7,9.3a5.34,5.34,0,0,0-3.77-1.56H13.07a5.33,5.33,0,0,0-5.33,5.33v4.86a5.33,5.33,0,0,0,5.33,5.33h4.86a5.33,5.33,0,0,0,5.33-5.33V13.07A5.34,5.34,0,0,0,21.7,9.3Zm.65,8.63a4.42,4.42,0,0,1-4.42,4.42H13.07a4.42,4.42,0,0,1-4.42-4.42V13.07a4.42,4.42,0,0,1,4.42-4.42h4.86a4.42,4.42,0,0,1,4.42,4.42Z"/><path class="cls-4" d="M19.73,10.82a.46.46,0,0,0-.32.13.45.45,0,0,0-.14.32.48.48,0,0,0,.46.46.45.45,0,0,0,.32-.14.46.46,0,0,0,.13-.32.44.44,0,0,0-.45-.45Z"/></g></g></svg>