<svg xmlns="http://www.w3.org/2000/svg" viewBox="0 0 198.43 39.27"><defs><style>.cls-1{fill:#fff;}.cls-2{fill:#f5ce3e;}</style></defs><g id="Layer_2" data-name="Layer 2"><g id="Calque_1" data-name="Calque 1"><path class="cls-1" d="M127,12.22a11,11,0,0,0-15.57,0,10.62,10.62,0,0,0-3.22,7.8v5.51h0v0h0a1.71,1.71,0,0,1-3.41,0h0V11.73A2.71,2.71,0,0,0,102,9H93.15a2.62,2.62,0,0,0-1.93.79,2.65,2.65,0,0,0-.8,1.94V21.8a3.77,3.77,0,1,1-7.53,0V11.73A2.71,2.71,0,0,0,80.16,9a2.7,2.7,0,0,0-2.73,2.73V21.8A3.77,3.77,0,0,1,71,24.46a3.61,3.61,0,0,1-1.1-2.66V11.73a2.74,2.74,0,1,0-5.47,0V21.8A9.24,9.24,0,0,0,73.67,31a8.86,8.86,0,0,0,6.49-2.68,9.22,9.22,0,0,0,13,0,8.9,8.9,0,0,0,2.71-6.53V14.49h0v0h0a1.71,1.71,0,0,1,3.41,0h0V28.29a2.62,2.62,0,0,0,.79,1.93A2.67,2.67,0,0,0,102,31h8.88a2.73,2.73,0,0,0,2.73-2.73V20a5.35,5.35,0,0,1,1.63-3.93,5.52,5.52,0,0,1,7.83,0A5.35,5.35,0,0,1,124.73,20v8.27a2.72,2.72,0,0,0,4.65,1.93,2.57,2.57,0,0,0,.82-1.93V20A10.63,10.63,0,0,0,127,12.22Z"/><path class="cls-1" d="M102,5.46A2.62,2.62,0,0,0,104,4.67a2.61,2.61,0,0,0,.8-1.94A2.59,2.59,0,0,0,104,.8,2.63,2.63,0,0,0,102,0a2.67,2.67,0,0,0-1.94.8,2.62,2.62,0,0,0-.79,1.93A2.7,2.7,0,0,0,102,5.46Z"/><path class="cls-1" d="M195.2,12.22a11,11,0,0,0-15.57,0A10.63,10.63,0,0,0,176.4,20v5.51h0v0h0a1.71,1.71,0,0,1-3.41,0h0V11.73a2.65,2.65,0,0,0-.8-1.94A2.62,2.62,0,0,0,170.26,9h-8.88a2.71,2.71,0,0,0-2.73,2.73V21.8a3.77,3.77,0,1,1-7.53,0V11.73a2.65,2.65,0,0,0-.8-1.94,2.73,2.73,0,0,0-4.66,1.94V21.8a3.77,3.77,0,0,1-6.43,2.66,3.61,3.61,0,0,1-1.1-2.66V11.73a2.74,2.74,0,1,0-5.47,0V21.8A9.24,9.24,0,0,0,141.9,31a8.86,8.86,0,0,0,6.49-2.68,9.22,9.22,0,0,0,13,0,8.9,8.9,0,0,0,2.71-6.53V14.49h0v0h0a1.7,1.7,0,0,1,3.4,0h0V28.29a2.62,2.62,0,0,0,.79,1.93,2.65,2.65,0,0,0,1.94.8h8.87a2.73,2.73,0,0,0,2.74-2.73V20a5.35,5.35,0,0,1,1.63-3.93,5.26,5.26,0,0,1,3.9-1.63A5.57,5.57,0,0,1,193,20v8.27a2.74,2.74,0,0,0,5.47,0V20A10.63,10.63,0,0,0,195.2,12.22Z"/><path class="cls-1" d="M170.26,5.46a2.62,2.62,0,0,0,1.93-.79,2.65,2.65,0,0,0,.8-1.94,2.63,2.63,0,0,0-.8-1.93,2.74,2.74,0,0,0-3.87,0,2.62,2.62,0,0,0-.79,1.93,2.64,2.64,0,0,0,.79,1.94A2.64,2.64,0,0,0,170.26,5.46Z"/><path class="cls-2" d="M9.31,5.46a2.64,2.64,0,0,0,1.94-.79A2.64,2.64,0,0,0,12,2.73,2.62,2.62,0,0,0,11.25.8,2.74,2.74,0,0,0,7.38.8a2.63,2.63,0,0,0-.8,1.93,2.65,2.65,0,0,0,.8,1.94A2.62,2.62,0,0,0,9.31,5.46Z"/><path class="cls-2" d="M9.52,10.89a2.73,2.73,0,0,0-2.73,2.72v16.1a3.94,3.94,0,0,1-1.21,2.9,4,4,0,0,1-2.85,1.2A2.62,2.62,0,0,0,.8,34.6,2.67,2.67,0,0,0,0,36.54a2.63,2.63,0,0,0,.8,1.93,2.63,2.63,0,0,0,1.93.8,9.21,9.21,0,0,0,6.72-2.79,9.24,9.24,0,0,0,2.78-6.77V13.61a2.71,2.71,0,0,0-2.71-2.72Z"/><path class="cls-2" d="M26.46,9a10.61,10.61,0,0,0-7.78,3.22A10.62,10.62,0,0,0,15.46,20a10.59,10.59,0,0,0,3.22,7.77A10.62,10.62,0,0,0,26.46,31a10.63,10.63,0,0,0,7.8-3.23A10.59,10.59,0,0,0,37.48,20a10.62,10.62,0,0,0-3.22-7.8A10.62,10.62,0,0,0,26.46,9Zm3.93,14.94a5.38,5.38,0,0,1-3.93,1.62A5.55,5.55,0,0,1,20.92,20a5.39,5.39,0,0,1,1.63-3.93,5.29,5.29,0,0,1,3.91-1.63A5.57,5.57,0,0,1,32,20,5.35,5.35,0,0,1,30.39,23.94Z"/><path class="cls-2" d="M58.74,12.22A10.6,10.6,0,0,0,51,9a10.77,10.77,0,0,0-5.54,1.5V6.78a1.49,1.49,0,0,0,0-.21V2.71A2.58,2.58,0,0,0,44.59.8,2.61,2.61,0,0,0,42.68,0a2.65,2.65,0,0,0-1.94.8A2.61,2.61,0,0,0,40,2.71V20a10.59,10.59,0,0,0,3.22,7.77,11,11,0,0,0,15.57,0A10.6,10.6,0,0,0,62,20,10.63,10.63,0,0,0,58.74,12.22ZM54.87,23.94A5.55,5.55,0,0,1,45.41,20,5.35,5.35,0,0,1,47,16.09a5.52,5.52,0,0,1,7.83,0,5.52,5.52,0,0,1,0,7.85Z"/></g></g></svg>