<svg xmlns="http://www.w3.org/2000/svg" viewBox="0 0 31 31"><defs><style>.cls-1{fill:none;stroke:#73a1fb;stroke-miterlimit:10;}.cls-2{fill:#73a1fb;}</style></defs><g id="Layer_2" data-name="Layer 2"><g id="Capa_1" data-name="Capa 1"><circle class="cls-1" cx="15.5" cy="15.5" r="15"/><path class="cls-2" d="M22.91,10.61a7.61,7.61,0,0,1-.75.28,3.42,3.42,0,0,0,.67-1.19.25.25,0,0,0-.08-.27.24.24,0,0,0-.28,0,6.14,6.14,0,0,1-1.75.69,3.33,3.33,0,0,0-5.66,2.38c0,.14,0,.29,0,.43A8.54,8.54,0,0,1,9.23,9.8.27.27,0,0,0,9,9.71a.28.28,0,0,0-.2.13,3.34,3.34,0,0,0,.34,3.83,2.48,2.48,0,0,1-.44-.2.28.28,0,0,0-.25,0,.28.28,0,0,0-.13.21v.05A3.32,3.32,0,0,0,10,16.59l-.26,0a.23.23,0,0,0-.23.08.23.23,0,0,0-.05.24,3.3,3.3,0,0,0,2.44,2.23,5.92,5.92,0,0,1-3.15.9A5.53,5.53,0,0,1,8,20a.25.25,0,0,0-.16.46,9,9,0,0,0,4.85,1.42,8.64,8.64,0,0,0,6.7-2.94,9.34,9.34,0,0,0,2.32-6.07v-.28A6.59,6.59,0,0,0,23.22,11a.26.26,0,0,0,0-.3A.26.26,0,0,0,22.91,10.61Z"/></g></g></svg>