<svg xmlns="http://www.w3.org/2000/svg" viewBox="0 0 50 45.83"><defs><style>.cls-1{fill:#858585;}</style></defs><title>about us</title><g id="Calque_2" data-name="Calque 2"><g id="Capa_1" data-name="Capa 1"><path class="cls-1" d="M47.33,7.63a5.15,5.15,0,0,0,.59-2.42,5.21,5.21,0,1,0-5.21,5.21,5.09,5.09,0,0,0,2.41-.59L47.33,12a1.56,1.56,0,0,0,1.11.46,1.52,1.52,0,0,0,1.1-.46,1.56,1.56,0,0,0,0-2.21Zm-6.7-2.42a2.08,2.08,0,1,1,2.08,2.08A2.09,2.09,0,0,1,40.63,5.21Z"/><path class="cls-1" d="M3.65,12.5h26a3.65,3.65,0,0,0,3.64-3.65V3.65A3.65,3.65,0,0,0,29.69,0h-26A3.66,3.66,0,0,0,0,3.65v5.2A3.66,3.66,0,0,0,3.65,12.5Z"/><path class="cls-1" d="M48.44,17.71H34.9a1.56,1.56,0,1,0,0,3.12H48.44a1.56,1.56,0,1,0,0-3.12Z"/><path class="cls-1" d="M48.44,24H34.9a1.56,1.56,0,1,0,0,3.12H48.44a1.56,1.56,0,1,0,0-3.12Z"/><path class="cls-1" d="M48.44,30.21H34.9a1.56,1.56,0,1,0,0,3.12H48.44a1.56,1.56,0,1,0,0-3.12Z"/><path class="cls-1" d="M48.44,36.46H34.9a1.56,1.56,0,1,0,0,3.12H48.44a1.56,1.56,0,0,0,0-3.12Z"/><path class="cls-1" d="M48.44,42.71H34.9a1.56,1.56,0,1,0,0,3.12H48.44a1.56,1.56,0,1,0,0-3.12Z"/><path class="cls-1" d="M3.65,45.83H25.52a3.66,3.66,0,0,0,3.65-3.64V21.35a3.66,3.66,0,0,0-3.65-3.64H3.65A3.66,3.66,0,0,0,0,21.35V42.19A3.66,3.66,0,0,0,3.65,45.83ZM9.9,39.58A1.57,1.57,0,0,1,8.33,38v-.77a4.17,4.17,0,0,1,4.38-3.92h3.75a4.16,4.16,0,0,1,4.37,3.92V38a1.56,1.56,0,0,1-1.56,1.56Zm1.56-11.45a3.13,3.13,0,1,1,3.12,3.12A3.12,3.12,0,0,1,11.46,28.13Z"/></g></g></svg>