<svg xmlns="http://www.w3.org/2000/svg" viewBox="0 0 20 15.85"><defs><style>.cls-1{fill:#858585;}</style></defs><g id="Layer_2" data-name="Layer 2"><g id="Capa_1" data-name="Capa 1"><path class="cls-1" d="M0,6.62a1.78,1.78,0,0,0,1.17,1.7V5.08s0-.11,0-.16A1.82,1.82,0,0,0,0,6.62Z"/><path class="cls-1" d="M6.36,10.63H3.31l1.14,4.15A1.47,1.47,0,0,0,7,15.27,1.36,1.36,0,0,0,7.27,14Z"/><path class="cls-1" d="M1.19,4.9h0v0S1.21,4.9,1.19,4.9Z"/><path class="cls-1" d="M17.9,4.57h-.18V8.76h.18a2.1,2.1,0,1,0,0-4.19Z"/><path class="cls-1" d="M1.86,5.08V8.39A1.59,1.59,0,0,0,3.45,9.93H7.69V3.64H3.45A1.51,1.51,0,0,0,1.86,5.08Z"/><polygon class="cls-1" points="8.39 10.02 17.02 13.47 17.02 0 8.39 3.45 8.39 10.02"/></g></g></svg>