<svg xmlns="http://www.w3.org/2000/svg" viewBox="0 0 135.46 135.46"><defs><style>.cls-1{fill:#405A98;}.cls-2{fill:#fff;}</style></defs><g id="Layer_2" data-name="Layer 2"><g id="Capa_1" data-name="Capa 1"><circle class="cls-1" cx="67.73" cy="67.73" r="67.73"/><path class="cls-2" d="M67,78.09l5-5V61.91a15.14,15.14,0,0,0-30.27,0V73.05l5.05,5v2.45L26.59,90.63v16.69h5V93.74L51.81,83.65V76l-5-5.05v-9a10.09,10.09,0,0,1,20.18,0v9L61.9,76v7.64L82.08,93.74v8.54H56.86v5H87.13V90.63L67,80.54Z"/><rect class="cls-2" x="36.68" y="102.28" width="5.05" height="5.05"/><rect class="cls-2" x="46.77" y="102.28" width="5.05" height="5.05"/><path class="cls-2" d="M87.13,62.88v-1H97.22V46.78A20.18,20.18,0,0,0,57.7,41l4.83,1.44a15.13,15.13,0,0,1,29.64,4.33V56.87H82.08V66l20.18,10.09v6H92.17v5h15.14V73Z"/></g></g></svg>