<svg xmlns="http://www.w3.org/2000/svg" viewBox="0 0 20 18.03"><defs><style>.cls-1{fill:#858585;}</style></defs><g id="Layer_2" data-name="Layer 2"><g id="Capa_1" data-name="Capa 1"><path class="cls-1" d="M17.32,12.62H16.08V2.68A2.68,2.68,0,0,0,13.4,0H2.55A.39.39,0,0,0,2.4,0,2.72,2.72,0,0,0,0,3,2.73,2.73,0,0,0,2.4,5.38l.15,0h.14v10A2.7,2.7,0,0,0,5.37,18h12a2.71,2.71,0,0,0,0-5.41ZM2.69,3.94v0a1.25,1.25,0,0,1,0-2.49H11a2.78,2.78,0,0,0,0,2.51Zm11.48,9.78H4.36V12.29h9.81Zm0-2.87H4.36V9.42h9.81Zm0-2.86H4.36V6.55h9.81Zm3.18,8.55A1.24,1.24,0,0,1,16.1,15.3V14.06h1.25a1.24,1.24,0,0,1,0,2.48Z"/></g></g></svg>