<svg xmlns="http://www.w3.org/2000/svg" width="10" height="19" viewBox="0 0 10 19">
  <g id="facebook-input" transform="translate(-453.442 -277.375)">
    <g id="Group_9" data-name="Group 9">
      <path id="Path_8" data-name="Path 8" d="M453.761,287.494h2.17v8.575a.313.313,0,0,0,.319.306h3.68a.313.313,0,0,0,.319-.306v-8.534h2.495a.315.315,0,0,0,.317-.272l.379-3.156a.3.3,0,0,0-.079-.239.328.328,0,0,0-.239-.1h-2.873v-1.979c0-.6.335-.9.995-.9h1.878a.313.313,0,0,0,.32-.307v-2.9a.313.313,0,0,0-.32-.306h-2.589l-.118,0a5.094,5.094,0,0,0-3.245,1.174,3.186,3.186,0,0,0-1.131,2.9v2.314h-2.278a.313.313,0,0,0-.319.306v3.116A.313.313,0,0,0,453.761,287.494Z" fill="#3b5998"/>
    </g>
  </g>
</svg>
