<svg xmlns="http://www.w3.org/2000/svg" viewBox="0 0 50 50.01"><defs><style>.cls-1{fill:#858585;}</style></defs><title>home</title><g id="Calque_2" data-name="Calque 2"><g id="Calque_1-2" data-name="Calque 1"><path class="cls-1" d="M48.66,21.75h0L28.26,1.35a4.61,4.61,0,0,0-6.52,0L1.36,21.74l0,0a4.6,4.6,0,0,0,0,6.5A4.53,4.53,0,0,0,4.4,29.6h1v15A5.39,5.39,0,0,0,10.74,50h8a1.47,1.47,0,0,0,1.47-1.47V36.77a2.46,2.46,0,0,1,2.46-2.46h4.7a2.46,2.46,0,0,1,2.46,2.46V48.54A1.47,1.47,0,0,0,31.28,50h8a5.4,5.4,0,0,0,5.39-5.39v-15h.75a4.56,4.56,0,0,0,3.25-1.35A4.61,4.61,0,0,0,48.66,21.75Z"/></g></g></svg>