<svg xmlns="http://www.w3.org/2000/svg" xmlns:xlink="http://www.w3.org/1999/xlink" width="15" height="15" viewBox="0 0 15 15">
  <defs>
    <linearGradient id="linear-gradient" y1="0.5" x2="1" y2="0.5" gradientUnits="objectBoundingBox">
      <stop offset="0" stop-color="#ff8f42"/>
      <stop offset="1" stop-color="#dd3191"/>
    </linearGradient>
    <linearGradient id="linear-gradient-2" x1="0" y1="0.5" x2="1" y2="0.5" xlink:href="#linear-gradient"/>
    <linearGradient id="linear-gradient-3" x1="-0.001" y1="0.5" x2="1.001" y2="0.5" xlink:href="#linear-gradient"/>
  </defs>
  <g id="instagram" transform="translate(-450.822 -288.64)">
    <g id="Group_11" data-name="Group 11">
      <g id="Group_10" data-name="Group 10">
        <path id="Path_10" data-name="Path 10" d="M458.322,292.17a3.969,3.969,0,1,0,3.969,3.97A3.975,3.975,0,0,0,458.322,292.17Zm0,7.061a3.091,3.091,0,1,1,3.091-3.091A3.095,3.095,0,0,1,458.322,299.231Z" fill="url(#linear-gradient)"/>
        <path id="Path_11" data-name="Path 11" d="M464.31,290.151a5.106,5.106,0,0,0-3.635-1.511h-4.707a5.159,5.159,0,0,0-5.146,5.146v4.707a5.161,5.161,0,0,0,5.146,5.147h4.707a5.162,5.162,0,0,0,5.147-5.147v-4.707A5.11,5.11,0,0,0,464.31,290.151Zm.633,8.342a4.273,4.273,0,0,1-4.268,4.268h-4.707a4.272,4.272,0,0,1-4.267-4.268v-4.707a4.272,4.272,0,0,1,4.267-4.267h4.707a4.272,4.272,0,0,1,4.268,4.267Z" fill="url(#linear-gradient-2)"/>
      </g>
      <path id="Path_12" data-name="Path 12" d="M462.409,291.613a.44.44,0,1,0,.31.129A.442.442,0,0,0,462.409,291.613Z" fill="url(#linear-gradient-3)"/>
    </g>
  </g>
</svg>
