<svg xmlns="http://www.w3.org/2000/svg" width="60" height="60" viewBox="0 0 60 60">
  <g id="linkedin" transform="translate(-1148 -391)">
    <path id="iconfinder_linkedin_circle_color_107178" d="M50.837,48.137V36.425c0-6.275-3.35-9.195-7.816-9.195A6.738,6.738,0,0,0,36.9,30.6V27.71h-6.79c.09,1.917,0,20.427,0,20.427H36.9V36.729a4.63,4.63,0,0,1,.224-1.655,3.714,3.714,0,0,1,3.482-2.483c2.458,0,3.44,1.873,3.44,4.618V48.138h6.789ZM22.959,24.922A3.541,3.541,0,1,0,23,17.863a3.539,3.539,0,1,0-.088,7.059ZM34,64A30,30,0,1,1,64,34,30,30,0,0,1,34,64ZM26.354,48.137V27.71H19.565V48.137Z" transform="translate(1144 387)" fill="#007ab9" fill-rule="evenodd"/>
  </g>
</svg>
