<svg xmlns="http://www.w3.org/2000/svg" viewBox="0 0 512 415.6"><g id="Layer_2" data-name="Layer 2" fill="#405A98"><g id="Layer_1-2" data-name="Layer 1"><path d="M285.62,192.8h34.72a113.53,113.53,0,1,0,0,30H285.62a79.27,79.27,0,1,1,0-30Z"/><path d="M467.55,207.8,509,152.53a15,15,0,0,0-12-24H416.67a15,15,0,0,0-12,6l-48.2,64.27a15,15,0,0,0,0,18l48.2,64.27a15,15,0,0,0,12,6H497a15,15,0,0,0,12-24Z"/><path d="M380.67,299.07l-36-48c-18.39,58.07-72.79,100.27-136.86,100.27-79.14,0-143.53-64.39-143.53-143.53S128.65,64.27,207.8,64.27c64.07,0,118.47,42.2,136.86,100.27l36-48a44.84,44.84,0,0,1,9.13-9.07A207.76,207.76,0,0,0,207.8,0C93,0,0,93,0,207.8S93,415.6,207.8,415.6a207.74,207.74,0,0,0,182-107.46,44.84,44.84,0,0,1-9.13-9.07Z"/><path d="M207.8,192.8h46.92a49.27,49.27,0,1,0,0,30H207.8a15,15,0,0,1,0-30Z"/></g></g></svg>
