<svg xmlns="http://www.w3.org/2000/svg" width="110.79" height="83.233" viewBox="0 0 110.79 83.233">
  <g id="no-notification" transform="translate(-1123 -300.567)">
    <g id="Layer_2" transform="translate(1145.7 310.9)">
      <g id="Layer_3">
        <path id="Path_2" data-name="Path 2" d="M54.2,54.4l-5.1-6.3a4.069,4.069,0,0,1-.8-2.4v-13A18.21,18.21,0,0,0,35.1,15.2V10.1a5.015,5.015,0,0,0-5-5,5.081,5.081,0,0,0-5,5v5A18.181,18.181,0,0,0,11.9,32.7v13a4.069,4.069,0,0,1-.8,2.4L6,54.4a3.157,3.157,0,0,0-.7,1.9v7.9H55.1V56.3a5.575,5.575,0,0,0-.9-1.9ZM28,10.1a2,2,0,1,1,4,0v4.5a14.083,14.083,0,0,0-4.1,0V10.1Zm23.9,51H8.1V56.3L13.2,50a6.627,6.627,0,0,0,1.5-4.3v-13a15.3,15.3,0,1,1,30.6,0v13A6.627,6.627,0,0,0,46.8,50l5.1,6.3v4.8Z" fill="#767676"/>
        <path id="Path_3" data-name="Path 3" d="M28,20.8v3A11.139,11.139,0,0,1,39.1,34.9h3A14.084,14.084,0,0,0,28,20.8Z" fill="#767676"/>
        <path id="Path_4" data-name="Path 4" d="M30,69.9a5.164,5.164,0,0,1-5.2-5.2h-3a8.2,8.2,0,0,0,16.4,0h-3A5.164,5.164,0,0,1,30,69.9Z" fill="#767676"/>
      </g>
    </g>
    <circle id="Ellipse_1" data-name="Ellipse 1" cx="37" cy="37" r="37" transform="translate(1139 302)" fill="rgba(68,92,166,0.34)"/>
    <g id="Polygon_1" data-name="Polygon 1" transform="translate(1202 297)">
      <path id="Path_8" data-name="Path 8" d="M17.524,4.348a1,1,0,0,1,1.951,0l1.7,7.558a1,1,0,0,0,1.084.775l8.423-.917a1,1,0,0,1,.516,1.907L24.154,16.82a1,1,0,0,0-.457,1.414l3.642,6.286a1,1,0,0,1-1.482,1.289l-6.74-5.276a1,1,0,0,0-1.233,0l-6.74,5.276A1,1,0,0,1,9.662,24.52L13.3,18.234a1,1,0,0,0-.457-1.414L5.8,13.672a1,1,0,0,1,.516-1.907l8.423.917a1,1,0,0,0,1.084-.775Z" fill="none"/>
      <path id="Path_9" data-name="Path 9" d="M18.5,4.567l-1.7,7.558a1.988,1.988,0,0,1-1.951,1.562,2.017,2.017,0,0,1-.217-.012l-8.423-.917h0l7.042,3.148a2,2,0,0,1,.914,2.828l-3.642,6.286h0l6.74-5.276a2,2,0,0,1,2.465,0l6.74,5.276-3.642-6.286a2,2,0,0,1,.914-2.828l7.042-3.148h0l-8.423.917a2.015,2.015,0,0,1-.217.012A1.988,1.988,0,0,1,20.2,12.125L18.5,4.567m0-1a.976.976,0,0,1,.976.781l1.7,7.558a1,1,0,0,0,1.084.775l8.423-.917a1.158,1.158,0,0,1,.125-.007,1,1,0,0,1,.391,1.914L24.154,16.82a1,1,0,0,0-.457,1.414l3.642,6.286a1.006,1.006,0,0,1-.869,1.509.985.985,0,0,1-.613-.221l-6.74-5.276a1,1,0,0,0-1.233,0l-6.74,5.276a.985.985,0,0,1-.613.221,1.006,1.006,0,0,1-.869-1.509L13.3,18.234a1,1,0,0,0-.457-1.414L5.8,13.672A1,1,0,0,1,6.2,11.758a1.154,1.154,0,0,1,.125.007l8.423.917a1,1,0,0,0,1.084-.775l1.7-7.558A.976.976,0,0,1,18.5,3.567Z" fill="#707070"/>
    </g>
    <g id="Ellipse_2" data-name="Ellipse 2" transform="translate(1123 306)" fill="#fff" stroke="#707070" stroke-width="1">
      <circle cx="5.5" cy="5.5" r="5.5" stroke="none"/>
      <circle cx="5.5" cy="5.5" r="5" fill="none"/>
    </g>
  </g>
</svg>
