<svg xmlns="http://www.w3.org/2000/svg" width="26" height="25" viewBox="0 0 26 25">
  <g id="phone-icon" transform="translate(-393.536 -375.4)">
    <g id="Group_1" data-name="Group 1">
      <ellipse id="Ellipse_1" data-name="Ellipse 1" cx="13" cy="12.5" rx="13" ry="12.5" transform="translate(393.536 375.4)" fill="#445ca6"/>
      <path id="Path_1" data-name="Path 1" d="M412.376,390.013a8.224,8.224,0,0,1-2.488-.38,1.092,1.092,0,0,0-1.082.22l-1.576,1.143a8.63,8.63,0,0,1-3.913-3.762l1.157-1.478a1.039,1.039,0,0,0,.27-1.075,7.3,7.3,0,0,1-.4-2.395,1.076,1.076,0,0,0-1.095-1.053H400.7a1.076,1.076,0,0,0-1.095,1.053,12.55,12.55,0,0,0,12.774,12.283,1.076,1.076,0,0,0,1.095-1.052v-2.45A1.074,1.074,0,0,0,412.376,390.013Z" fill="#fff"/>
    </g>
  </g>
</svg>
