<svg xmlns="http://www.w3.org/2000/svg" viewBox="0 0 30 30"><defs><style>.cls-1{fill:#445ca6;}</style></defs><g id="Layer_2" data-name="Layer 2"><g id="Capa_1" data-name="Capa 1"><path class="cls-1" d="M25.84,4.62A15,15,0,1,0,4.62,25.79s0,0,0,0,.18.15.27.24l.73.64.42.31c.24.18.48.36.73.52s.34.22.52.32.46.28.7.41.41.2.61.3l.68.31c.23.1.46.17.7.25l.65.23c.26.08.52.14.77.2l.65.16c.29.06.59.09.89.13a5.39,5.39,0,0,0,.56.08,13.73,13.73,0,0,0,3,0,5.39,5.39,0,0,0,.56-.08c.3,0,.6-.07.89-.13l.65-.16c.25-.06.51-.12.77-.2l.65-.23.7-.25.68-.31c.2-.1.41-.19.61-.3s.47-.27.7-.41a5.58,5.58,0,0,0,.52-.32c.25-.16.49-.34.73-.52l.42-.31.73-.64c.09-.09.19-.16.27-.24s0,0,0,0A15,15,0,0,0,25.84,4.62ZM23.43,24.67c-.19.17-.4.33-.6.49l-.36.27c-.2.14-.39.28-.59.4s-.3.19-.45.27l-.57.33-.52.25c-.18.08-.37.17-.56.24l-.59.22-.55.18-.66.17-.52.12c-.25.05-.51.08-.77.12l-.44.06c-.42,0-.83.06-1.25.06s-.84,0-1.25-.06l-.45-.06c-.26,0-.52-.07-.77-.12L12,27.49l-.66-.17-.54-.18-.59-.22c-.2-.07-.38-.16-.56-.24l-.52-.25c-.2-.11-.39-.21-.58-.33a4,4,0,0,1-.44-.27c-.2-.12-.4-.26-.59-.4l-.37-.27-.6-.49-.13-.12a8.59,8.59,0,0,1,5.84-8,6.34,6.34,0,0,0,5.45,0,8.58,8.58,0,0,1,5.84,8ZM11.26,8.59a4.28,4.28,0,1,1,5.84,5.83h0a5.06,5.06,0,0,1-.9.38l-.16,0-.33.07q-.31,0-.63.06h-.13a6.2,6.2,0,0,1-.62-.06L14,14.86l-.17,0a5.06,5.06,0,0,1-.9-.38h0A4.27,4.27,0,0,1,11.26,8.59Zm14.2,13.84h0A10.73,10.73,0,0,0,19.73,15a6.43,6.43,0,1,0-9.47,0,10.76,10.76,0,0,0-5.73,7.39,12.86,12.86,0,1,1,20.93,0Z"/></g></g></svg>