<svg xmlns="http://www.w3.org/2000/svg" viewBox="0 0 45.83 50"><defs><style>.cls-1{fill:#858585;}</style></defs><title>swipe</title><g id="Calque_2" data-name="Calque 2"><g id="Layer_1" data-name="Layer 1"><path class="cls-1" d="M45,32.36,39.4,21.25a5.23,5.23,0,0,0-3.87-2.82l-11.07-1.7h0a5.59,5.59,0,0,0-5.71,2.82l-3.4-6.81a8.19,8.19,0,0,0,1.32-4.41,8.34,8.34,0,1,0-9,8.27L17.35,36a1,1,0,0,1,0,1,1.06,1.06,0,0,1-.89.49H7.74a3.57,3.57,0,0,0-3.57,3.57,3.71,3.71,0,0,0,.37,1.6l.78,1.55a1,1,0,0,0,.62.52l14.71,4.6A14.36,14.36,0,0,0,25,50a14.6,14.6,0,0,0,6.46-1.52l9.79-4.9A8.37,8.37,0,0,0,45,32.36ZM14.2,10.44l-2-3.92A4.25,4.25,0,0,0,8.43,4.17,4.31,4.31,0,0,0,4.17,8.62a4.21,4.21,0,0,0,.45,1.9l1.87,3.76a6.26,6.26,0,1,1,7.71-3.84Z"/></g></g></svg>