<svg xmlns="http://www.w3.org/2000/svg" viewBox="0 0 479 512" fill="#ffffff"><g id="Layer_2" data-name="Layer 2"><g id="Mode_Isolation" data-name="Mode Isolation"><path d="M359,274a119,119,0,0,0,0,238c66.17,0,120-53.38,120-119S425.17,274,359,274Zm36.52,104.6-40,48A15,15,0,0,1,344,432a14.46,14.46,0,0,1-1.73-.1,15,15,0,0,1-11.69-8.19l-16-32a15,15,0,1,1,26.84-13.42l5.74,11.49,25.32-30.38a15,15,0,0,1,23,19.2Z"/><path d="M352.54,85.45,291.67,22.51l-.09-.09A75.47,75.47,0,0,0,238.09,0H45A45.05,45.05,0,0,0,0,45V434a45.05,45.05,0,0,0,45,45H237.39A148.19,148.19,0,0,1,210,393c0-82.16,66.84-149,149-149,5.06,0,10.07.25,15,.74V138A74.58,74.58,0,0,0,352.54,85.45ZM159,335H79a15,15,0,0,1,0-30h80a15,15,0,0,1,0,30Zm0-80H79a15,15,0,0,1,0-30h80a15,15,0,0,1,0,30Zm0-80H79a15,15,0,0,1,0-30h80a15,15,0,0,1,0,30Zm96,80H239a15,15,0,0,1,0-30h16a15,15,0,0,1,0,30Zm0-80H239a15,15,0,0,1,0-30h16a15,15,0,0,1,0,30Z"/></g></g></svg>
