<svg xmlns="http://www.w3.org/2000/svg" xmlns:xlink="http://www.w3.org/1999/xlink" width="359.746" height="731" viewBox="0 0 359.746 731">
  <defs>
    <clipPath id="clip-path">
      <rect id="Rectangle_16" data-name="Rectangle 16" width="359.746" height="731" transform="translate(0.07 -192.989)" fill="#fff"/>
    </clipPath>
    <clipPath id="clip-path-2">
      <rect id="Rectangle_12" data-name="Rectangle 12" width="98.508" height="94.608" fill="none"/>
    </clipPath>
  </defs>
  <g id="background-files" transform="translate(-0.07 192.989)">
    <rect id="Rectangle_16-2" data-name="Rectangle 16" width="359.746" height="731" transform="translate(0.07 -192.989)" fill="#fff"/>
    <g id="Mask_Group_1" data-name="Mask Group 1" clip-path="url(#clip-path)">
      <g id="Calque_1-2" data-name="Calque 1-2" transform="translate(0.07 3.732)">
        <path id="Path_22" data-name="Path 22" d="M359.84,75.911,359.2,553.46.13,555.063V128.99c29.31-2.214,88.776-7.888,128.11-19.57l2.039-.612a128.036,128.036,0,0,0,20.252-7.95c20.386-10.445,36.037-24.864,51.918-35.471l1.871-1.223c18.423-11.955,37.434-18.412,64.748-7.3a131.215,131.215,0,0,0,16.894,5.5c.941.245,1.883.477,2.836.7C314.8,69.243,341.867,69.5,359.84,75.911Z" transform="translate(-0.094 -19.866)" fill="#405a98"/>
        <path id="Path_23" data-name="Path 23" d="M359.84,75.911V475.187H.13V128.99c29.31-2.214,88.776-7.888,128.11-19.57l2.039-.612a128.036,128.036,0,0,0,20.252-7.95c20.386-10.445,36.037-24.864,51.918-35.471l1.871-1.223c18.423-11.955,37.434-18.412,64.748-7.3a131.215,131.215,0,0,0,16.894,5.5c.941.245,1.883.477,2.836.7C314.8,69.243,341.867,69.5,359.84,75.911Z" transform="translate(-0.094 -19.866)" fill="none" stroke="#425cc7" stroke-miterlimit="10" stroke-width="0.25"/>
        <path id="Path_24" data-name="Path 24" d="M371.97,9.7A9.516,9.516,0,1,1,362.454.183,9.516,9.516,0,0,1,371.97,9.7Z" transform="translate(-81.397 28)" fill="#6b95ce"/>
        <path id="Path_25" data-name="Path 25" d="M416.943,68.8a15.919,15.919,0,1,1-16.078-16.05h.162A15.977,15.977,0,0,1,416.943,68.8Z" transform="translate(-104.289 14.507)" fill="#fff"/>
        <path id="Path_26" data-name="Path 26" d="M441.608,162.42a3.367,3.367,0,0,0-3.246,2.785A3.425,3.425,0,0,0,440.4,169a3.314,3.314,0,0,0,4.049-1.29,3.462,3.462,0,0,0-.442-4.3,3.321,3.321,0,0,0-2.4-.987Z" transform="translate(-132.573 -12.1)" fill="#f5ce3a"/>
        <path id="Path_27" data-name="Path 27" d="M381.481,260.082a2.956,2.956,0,1,1-2.955-3.012h0A2.984,2.984,0,0,1,381.481,260.082Z" transform="translate(-143.457 -173.87)" fill="#fff"/>
        <path id="Path_28" data-name="Path 28" d="M1.053,189.554c42.916-15.68,73.315-29.849,90.377-42.1,14.889-10.714,26.756-22.436,38.231-33.774,26.481-26.154,49.34-48.749,96.8-44.033,23.112,2.306,47.793-.612,69.574-3.143,26.2-3.058,48.865-5.735,62.866.746h0l.875-.722-.174-.08c-14.239-6.769-37.174-4.077-63.681-.966-21.733,2.548-46.367,5.436-69.37,3.143-47.871-4.752-70.923,17.984-97.571,44.316C117.892,123.892,106.2,135.6,90.867,146.61,73.859,158.841,43.416,173.01.4,188.71l-.33.122v.893l.983.153Z" transform="translate(-0.07 -24.178)" fill="#1c1d1c"/>
      </g>
      <g id="Group_23" data-name="Group 23" transform="translate(-0.184 -192.57)" clip-path="url(#clip-path-2)">
        <path id="Path_16" data-name="Path 16" d="M98.508,0H0V94.608C50.143,86.687,89.822,48.509,98.508,0" fill="#e8f2ff"/>
      </g>
    </g>
  </g>
</svg>
