<svg xmlns="http://www.w3.org/2000/svg" xmlns:xlink="http://www.w3.org/1999/xlink" width="599.622" height="1803.943" viewBox="0 0 599.622 1803.943">
  <defs>
    <clipPath id="clip-path">
      <rect id="Rectangle_12" data-name="Rectangle 12" width="98.508" height="94.608" fill="none"/>
    </clipPath>
  </defs>
  <g id="background-files-l" transform="translate(0.272 191)">
    <g id="Calque_1" data-name="Calque 1" transform="translate(0.07 -191)">
      <g id="Calque_1-2" data-name="Calque 1-2">
        <rect id="Rectangle_37" data-name="Rectangle 37" width="599" height="1296" fill="#fff"/>
        <path id="Path_368" data-name="Path 368" d="M596.432,91.6l.1,1466.9-599.368.183.068-1381c48.393-3.614,149.464-12.339,214.412-31.4l3.366-1a212.864,212.864,0,0,0,33.439-12.977c33.657-17.05,59.5-40.588,85.726-57.9l3.088-2c30.42-19.515,61.81-30.057,106.909-11.919a218.434,218.434,0,0,0,27.9,8.984c1.554.4,3.108.779,4.683,1.148C519.677,80.7,566.754,81.132,596.432,91.6Z" transform="translate(2.748 245.26)" fill="#405a98"/>
        <path id="Path_370" data-name="Path 370" d="M384.6,15.832A15.832,15.832,0,1,1,368.762,0,15.832,15.832,0,0,1,384.6,15.832Z" transform="translate(-0.693 245.35)" fill="#6b95ce"/>
        <path id="Path_371" data-name="Path 371" d="M438.076,78.954a26.483,26.483,0,1,1-26.753-26.2h.269a26.333,26.333,0,0,1,26.483,26.2Z" transform="translate(-0.75 245.257)" fill="#fff"/>
        <path id="Path_372" data-name="Path 372" d="M443.81,162.42a5.57,5.57,0,1,0,3.987,1.61A5.57,5.57,0,0,0,443.81,162.42Z" transform="translate(-0.844 245.063)" fill="#f5ce3a"/>
        <path id="Path_374" data-name="Path 374" d="M1.707,270.072c71.464-25.6,122.074-48.724,150.484-68.728,24.8-17.489,44.551-36.625,63.657-55.132C259.94,103.517,298,66.632,377.033,74.339c38.482,3.763,79.579-1,115.845-5.131,43.633-4.991,81.356-9.363,104.675,1.218h0l1.457-1.178-.289-.13c-23.708-11.05-61.891-6.658-106.032-1.577-36.186,4.163-77.2,8.874-115.506,5.131-79.709-7.756-118.091,29.358-162.463,72.342-18.467,17.878-37.933,36.985-63.468,54.963C122.933,219.941,72.242,243.07.619,268.7l-.549.2v1.457l1.637.25v-.529Z" transform="translate(-0.07 245.24)" fill="#1c1d1c"/>
        <g id="Group_23" data-name="Group 23" transform="translate(-0.342 0.419)" clip-path="url(#clip-path)">
          <path id="Path_16" data-name="Path 16" d="M98.508,0H0V94.608C50.143,86.687,89.822,48.509,98.508,0" fill="#e8f2ff"/>
        </g>
      </g>
    </g>
  </g>
</svg>
