<svg xmlns="http://www.w3.org/2000/svg" width="132" height="132" viewBox="0 0 132 132">
  <g id="default-image" transform="translate(-119 -1531)">
    <circle id="Ellipse_31" data-name="Ellipse 31" cx="66" cy="66" r="66" transform="translate(119 1531)" fill="#e3eafe"/>
    <g id="Group_864" data-name="Group 864" transform="translate(5 214)">
      <text id="Ajouter_une_photo" data-name="Ajouter une photo" transform="translate(130 1406)" fill="#445ca6" font-size="12.7" font-family="Helvetica"><tspan x="0" y="0">Ajouter une photo</tspan></text>
      <g id="Vector_Smart_Object" data-name="Vector Smart Object">
        <g id="Group_24" data-name="Group 24" transform="translate(-366.54 1247.955)">
          <path id="Path_65" data-name="Path 65" d="M565.243,114.562a4.321,4.321,0,0,0-3.078-1.226h-6.152v-.069a3.063,3.063,0,0,0-1-2.277,3.505,3.505,0,0,0-2.41-.946H541.479a3.525,3.525,0,0,0-2.447.946,3.12,3.12,0,0,0-1,2.277v.069h-6.115a4.321,4.321,0,0,0-3.078,1.226,4.065,4.065,0,0,0-1.3,2.908v17.443a3.854,3.854,0,0,0,1.3,2.906,4.54,4.54,0,0,0,3.078,1.226h30.248a4.311,4.311,0,0,0,3.078-1.226,4.056,4.056,0,0,0,1.3-2.906V117.471A3.859,3.859,0,0,0,565.243,114.562Zm-.629,20.351h-.039a2.186,2.186,0,0,1-.7,1.609,2.441,2.441,0,0,1-1.706.666H531.916a2.441,2.441,0,0,1-1.706-.666,2.186,2.186,0,0,1-.7-1.609V117.471a2.188,2.188,0,0,1,.7-1.611,2.452,2.452,0,0,1,1.706-.666h7.153a.97.97,0,0,0,1-.946v-1.014a1.339,1.339,0,0,1,.408-.983,1.5,1.5,0,0,1,1.037-.386H552.6a1.5,1.5,0,0,1,1.037.386,1.339,1.339,0,0,1,.408.983v1.014a.97.97,0,0,0,1,.946H562.2a2.456,2.456,0,0,1,1.706.666,2.188,2.188,0,0,1,.7,1.611Z"/>
          <path id="Path_66" data-name="Path 66" d="M547.04,117.576a9.411,9.411,0,0,0-6.451,2.52,8.29,8.29,0,0,0,0,12.188,9.509,9.509,0,0,0,12.9,0,8.31,8.31,0,0,0,2.67-6.094,8.409,8.409,0,0,0-2.67-6.094A9.411,9.411,0,0,0,547.04,117.576Zm5.041,13.414a7.463,7.463,0,0,1-10.083,0,6.518,6.518,0,0,1-2.077-4.765A6.659,6.659,0,0,1,542,121.462a7.3,7.3,0,0,1,5.041-1.96,7.46,7.46,0,0,1,5.041,1.96,6.517,6.517,0,0,1,2.077,4.763A6.384,6.384,0,0,1,552.081,130.99Z"/>
          <ellipse id="Ellipse_7" data-name="Ellipse 7" cx="1.817" cy="1.716" rx="1.817" ry="1.716" transform="translate(558.421 117.54)"/>
        </g>
        <path id="Color_Overlay" data-name="Color Overlay" d="M165.376,1387a4.541,4.541,0,0,1-3.079-1.226,3.854,3.854,0,0,1-1.3-2.905v-17.443a4.065,4.065,0,0,1,1.3-2.909,4.324,4.324,0,0,1,3.079-1.226h6.115v-.068a3.119,3.119,0,0,1,1-2.277,3.523,3.523,0,0,1,2.447-.946h11.123a3.5,3.5,0,0,1,2.41.946,3.063,3.063,0,0,1,1,2.277v.068h6.152a4.32,4.32,0,0,1,3.078,1.226,3.86,3.86,0,0,1,1.3,2.909v17.443a4.055,4.055,0,0,1-1.3,2.905,4.309,4.309,0,0,1-3.078,1.226Zm-1.706-23.186a2.188,2.188,0,0,0-.7,1.612v17.443a2.185,2.185,0,0,0,.7,1.608,2.44,2.44,0,0,0,1.706.666h30.248a2.439,2.439,0,0,0,1.705-.666,2.186,2.186,0,0,0,.7-1.608h.039v-17.443a2.189,2.189,0,0,0-.7-1.612,2.458,2.458,0,0,0-1.706-.665h-7.155a.97.97,0,0,1-1-.946v-1.014a1.339,1.339,0,0,0-.409-.983,1.5,1.5,0,0,0-1.037-.385H174.974a1.5,1.5,0,0,0-1.037.385,1.339,1.339,0,0,0-.409.983v1.014a.97.97,0,0,1-1,.946h-7.152A2.456,2.456,0,0,0,163.67,1363.814Zm10.38,16.426a8.29,8.29,0,0,1,0-12.189,9.516,9.516,0,0,1,12.9,0,8.41,8.41,0,0,1,2.669,6.095,8.31,8.31,0,0,1-2.669,6.094,9.509,9.509,0,0,1-12.9,0Zm1.409-10.823a6.656,6.656,0,0,0-2.078,4.763,6.519,6.519,0,0,0,2.078,4.766,7.463,7.463,0,0,0,10.083,0,6.388,6.388,0,0,0,2.077-4.766,6.518,6.518,0,0,0-2.077-4.763,7.461,7.461,0,0,0-5.042-1.96A7.3,7.3,0,0,0,175.459,1369.417Zm16.422-2.206a1.82,1.82,0,1,1,1.816,1.716A1.769,1.769,0,0,1,191.881,1367.212Z" fill="#445ca6"/>
      </g>
    </g>
  </g>
</svg>
