<svg xmlns="http://www.w3.org/2000/svg" width="280" height="207.999" viewBox="0 0 280 207.999">
  <g id="forgot-password" transform="translate(-992.727 -139.437)">
    <g id="Background_Complete" data-name="Background Complete">
      <g id="Group_1" data-name="Group 1">
        <rect id="Rectangle_1" data-name="Rectangle 1" width="280" height="0.14" transform="translate(992.727 322.225)" fill="#ebebeb"/>
        <rect id="Rectangle_2" data-name="Rectangle 2" width="14.257" height="0.14" transform="translate(1155.244 326.027)" fill="#ebebeb"/>
        <rect id="Rectangle_3" data-name="Rectangle 3" width="33.787" height="0.14" transform="translate(1213.99 329.047)" fill="#ebebeb"/>
        <rect id="Rectangle_4" data-name="Rectangle 4" width="34.907" height="0.14" transform="translate(1117.304 326.096)" fill="#ebebeb"/>
        <rect id="Rectangle_5" data-name="Rectangle 5" width="7.303" height="0.14" transform="translate(1087.367 330.272)" fill="#ebebeb"/>
        <rect id="Rectangle_6" data-name="Rectangle 6" width="33.251" height="0.14" transform="translate(1101.764 330.272)" fill="#ebebeb"/>
        <rect id="Rectangle_7" data-name="Rectangle 7" width="21.534" height="0.14" transform="translate(1022.104 327.915)" fill="#ebebeb"/>
        <path id="Path_1" data-name="Path 1" d="M1125.455,297.329H1017.319a3.194,3.194,0,0,1-3.195-3.187V142.622a3.193,3.193,0,0,1,3.195-3.184h108.136a3.2,3.2,0,0,1,3.2,3.184v151.52A3.2,3.2,0,0,1,1125.455,297.329ZM1017.319,139.577a3.052,3.052,0,0,0-3.055,3.045v151.52a3.054,3.054,0,0,0,3.055,3.047h108.136a3.056,3.056,0,0,0,3.057-3.047V142.622a3.054,3.054,0,0,0-3.057-3.045Z" fill="#ebebeb"/>
        <path id="Path_2" data-name="Path 2" d="M1246.58,297.329H1138.447a3.194,3.194,0,0,1-3.2-3.187V142.622a3.194,3.194,0,0,1,3.2-3.184H1246.58a3.194,3.194,0,0,1,3.2,3.184v151.52A3.194,3.194,0,0,1,1246.58,297.329ZM1138.447,139.577a3.054,3.054,0,0,0-3.057,3.045v151.52a3.056,3.056,0,0,0,3.057,3.047H1246.58a3.056,3.056,0,0,0,3.057-3.047V142.622a3.054,3.054,0,0,0-3.057-3.045Z" fill="#ebebeb"/>
      </g>
      <g id="Group_10" data-name="Group 10">
        <g id="Group_4" data-name="Group 4">
          <g id="Group_2" data-name="Group 2">
            <path id="Path_3" data-name="Path 3" d="M1102.466,273.809h-37.184l-2.257-25.957h37.184Z" fill="#e6e6e6"/>
            <path id="Path_4" data-name="Path 4" d="M1104.392,273.809h-37.184l-2.257-25.957h37.184Z" fill="#f0f0f0"/>
            <path id="Path_5" data-name="Path 5" d="M1072.29,268.235l-1.239-14.809h26l1.24,14.809Z" fill="#fff"/>
          </g>
          <g id="Group_3" data-name="Group 3">
            <rect id="Rectangle_8" data-name="Rectangle 8" width="4.363" height="48.415" transform="translate(1106.463 273.809)" fill="#e6e6e6"/>
            <rect id="Rectangle_9" data-name="Rectangle 9" width="3.03" height="48.415" transform="translate(1109.172 273.809)" fill="#f0f0f0"/>
            <rect id="Rectangle_10" data-name="Rectangle 10" width="42.229" height="5.344" transform="matrix(-1, 0, 0, -1, 1112.202, 279.153)" fill="#f0f0f0"/>
            <rect id="Rectangle_11" data-name="Rectangle 11" width="4.363" height="43.071" transform="translate(1067.103 279.153)" fill="#e6e6e6"/>
            <rect id="Rectangle_12" data-name="Rectangle 12" width="3.03" height="43.071" transform="translate(1069.813 279.153)" fill="#f0f0f0"/>
            <rect id="Rectangle_13" data-name="Rectangle 13" width="4.363" height="43.071" transform="translate(1036.047 279.153)" fill="#e6e6e6"/>
            <rect id="Rectangle_14" data-name="Rectangle 14" width="3.03" height="43.071" transform="translate(1038.757 279.153)" fill="#f0f0f0"/>
            <rect id="Rectangle_15" data-name="Rectangle 15" width="4.363" height="43.071" transform="translate(1078.853 279.153)" fill="#e6e6e6"/>
            <rect id="Rectangle_16" data-name="Rectangle 16" width="3.03" height="43.071" transform="translate(1081.563 279.153)" fill="#f0f0f0"/>
            <rect id="Rectangle_17" data-name="Rectangle 17" width="33.926" height="5.344" transform="translate(1036.047 273.809)" fill="#e6e6e6"/>
          </g>
        </g>
        <g id="Group_6" data-name="Group 6">
          <g id="Group_5" data-name="Group 5">
            <rect id="Rectangle_18" data-name="Rectangle 18" width="131.225" height="72.824" transform="translate(1065.252 153.091)" fill="#e0e0e0"/>
            <rect id="Rectangle_19" data-name="Rectangle 19" width="137.769" height="72.824" transform="translate(1065.914 153.091)" fill="#f5f5f5"/>
            <rect id="Rectangle_20" data-name="Rectangle 20" width="68.336" height="133.266" transform="matrix(0, 1, -1, 0, 1201.432, 155.335)" fill="#fff"/>
            <path id="Path_6" data-name="Path 6" d="M1122.124,223.671l25.161-68.336h-41.524L1080.6,223.671Z" fill="#f5f5f5"/>
            <path id="Path_7" data-name="Path 7" d="M1162.094,223.671l25.161-68.336H1155.93l-25.161,68.336Z" fill="#f5f5f5"/>
          </g>
        </g>
        <g id="Group_8" data-name="Group 8">
          <g id="Group_7" data-name="Group 7">
            <rect id="Rectangle_21" data-name="Rectangle 21" width="11.155" height="69.552" transform="translate(1226.915 252.673)" fill="#e6e6e6"/>
            <path id="Path_8" data-name="Path 8" d="M1235.136,322.225h2.933V316.87h-6.008Z" fill="#fafafa"/>
            <rect id="Rectangle_22" data-name="Rectangle 22" width="11.155" height="69.552" transform="translate(1124.067 252.673)" fill="#e6e6e6"/>
            <rect id="Rectangle_23" data-name="Rectangle 23" width="105.408" height="68.107" transform="translate(1132.662 252.673)" fill="#fafafa"/>
            <path id="Path_9" data-name="Path 9" d="M1236.075,274.647H1134.657V255.411h101.419Zm-100.859-.558h100.3V255.97h-100.3Z" fill="#e6e6e6"/>
            <path id="Path_10" data-name="Path 10" d="M1218.221,264.751h-63.741c-2.96,0-5.811-2.38-7.817-6.529l-.193-.4h79.762l-.194.4C1224.03,262.371,1221.182,264.751,1218.221,264.751Zm-70.855-6.371c1.894,3.7,4.47,5.813,7.115,5.813h63.741c2.642,0,5.218-2.111,7.115-5.813Z" fill="#e6e6e6"/>
            <path id="Path_11" data-name="Path 11" d="M1135.595,322.225h-2.933V316.87h6.008Z" fill="#fafafa"/>
            <path id="Path_12" data-name="Path 12" d="M1236.075,296.345H1134.657V277.109h101.419Zm-100.859-.558h100.3v-18.12h-100.3Z" fill="#e6e6e6"/>
            <path id="Path_13" data-name="Path 13" d="M1218.221,286.449h-63.741c-2.96,0-5.811-2.38-7.817-6.531l-.193-.4h79.762l-.194.4C1224.03,284.069,1221.182,286.449,1218.221,286.449Zm-70.855-6.374c1.894,3.7,4.47,5.816,7.115,5.816h63.741c2.642,0,5.218-2.114,7.115-5.816Z" fill="#e6e6e6"/>
            <path id="Path_14" data-name="Path 14" d="M1236.075,318.042H1134.657V298.806h101.419Zm-100.859-.558h100.3v-18.12h-100.3Z" fill="#e6e6e6"/>
            <path id="Path_15" data-name="Path 15" d="M1218.221,308.143h-63.741c-2.96,0-5.811-2.38-7.817-6.529l-.193-.4h79.762l-.194.4C1224.03,305.763,1221.182,308.143,1218.221,308.143Zm-70.855-6.371c1.894,3.7,4.47,5.813,7.115,5.813h63.741c2.642,0,5.218-2.111,7.115-5.813Z" fill="#e6e6e6"/>
          </g>
        </g>
        <g id="Group_9" data-name="Group 9">
          <path id="Path_16" data-name="Path 16" d="M1060.478,261.872v1.35h-.867l-.715,10.587h-10.548l-.715-10.587h-.867v-1.35Z" fill="#e6e6e6"/>
          <path id="Path_17" data-name="Path 17" d="M1057.005,235.594c-.866-6.305-9.4-8.107-20.239-8.338-10.309-.218-13.613-3.857-13.613-3.857s.033,14.727,14.891,20.058C1052.151,248.52,1057.876,241.912,1057.005,235.594Z" fill="#e6e6e6"/>
          <path id="Path_18" data-name="Path 18" d="M1051.739,249.892c.181-2.593,4.337-7.361,14.328-5.194,7.227,1.568,9.915-2.167,9.915-2.167a15.975,15.975,0,0,1-11.539,13.71C1054.124,259.248,1051.42,254.455,1051.739,249.892Z" fill="#e6e6e6"/>
          <path id="Path_19" data-name="Path 19" d="M1054.019,265.848a.383.383,0,0,0,.3-.137c.723-.853.13-2.9-.69-5.727-1.051-3.628-2.362-8.148-1.252-11.428a45.477,45.477,0,0,1,2.151-5.065c1.568-3.306,2.922-6.163,1.792-9.145a.385.385,0,0,0-.72.271c1.013,2.677-.214,5.265-1.769,8.546a47.374,47.374,0,0,0-2.184,5.146c-1.186,3.509.16,8.155,1.242,11.89.639,2.2,1.3,4.476.843,5.016a.382.382,0,0,0,.043.54A.394.394,0,0,0,1054.019,265.848Z" fill="#e6e6e6"/>
        </g>
      </g>
    </g>
    <g id="Shadow">
      <ellipse id="_Path_" data-name="&lt;Path&gt;" cx="108.578" cy="6.321" rx="108.578" ry="6.321" transform="translate(1024.15 334.794)" fill="#f5f5f5"/>
    </g>
    <g id="Login">
      <g id="Group_13" data-name="Group 13">
        <path id="Path_20" data-name="Path 20" d="M1132.705,310.307h-79.52l-4.353-127.48h79.52Z" fill="#407bff"/>
        <g id="Group_11" data-name="Group 11">
          <path id="Path_21" data-name="Path 21" d="M1136.674,306.351h-79.52L1052.8,178.87h79.52Z" fill="#407bff"/>
          <path id="Path_22" data-name="Path 22" d="M1136.674,306.351h-79.52L1052.8,178.87h79.52Z" fill="#fff" opacity="0.3"/>
        </g>
        <g id="Group_12" data-name="Group 12">
          <ellipse id="Ellipse_1" data-name="Ellipse 1" cx="21.991" cy="22.68" rx="21.991" ry="22.68" transform="matrix(0.701, -0.713, 0.713, 0.701, 1062.168, 215.165)" fill="#407bff"/>
          <path id="Path_23" data-name="Path 23" d="M1112.269,215.432a17.707,17.707,0,0,1-17.833,18.4,19.206,19.206,0,0,1-16.558-9.637,18.719,18.719,0,0,1-2.53-8.764,17.692,17.692,0,0,1,17.833-18.4A19.209,19.209,0,0,1,1112.269,215.432Z" fill="#fff"/>
          <path id="Path_24" data-name="Path 24" d="M1110.337,224.2a17.7,17.7,0,0,1-15.9,9.637,19.206,19.206,0,0,1-16.558-9.637,28.374,28.374,0,0,1,16.062-4.9A29.98,29.98,0,0,1,1110.337,224.2Z" fill="#407bff" opacity="0.6"/>
          <ellipse id="Ellipse_2" data-name="Ellipse 2" cx="8.085" cy="8.338" rx="8.085" ry="8.338" transform="matrix(0.701, -0.713, 0.713, 0.701, 1081.962, 209.036)" fill="#407bff" opacity="0.6"/>
        </g>
        <path id="Path_25" data-name="Path 25" d="M1120.7,260.185h-50.727l-.343-10.048h50.727Z" fill="#fff"/>
        <path id="Path_26" data-name="Path 26" d="M1121.314,278.145h-50.728l-.343-10.048h50.727Z" fill="#fff"/>
        <path id="Path_27" data-name="Path 27" d="M1101.736,269.479l-12.223,1.657a.849.849,0,0,0-.738,1.007l1.6,8.165a.985.985,0,0,0,1.087.764l12.223-1.657a.851.851,0,0,0,.738-1.01l-1.606-8.165A.981.981,0,0,0,1101.736,269.479Zm-3.513,8.272-2.214.3-.222-2.634a1.56,1.56,0,0,1-.909-1.114,1.39,1.39,0,0,1,1.207-1.652,1.606,1.606,0,0,1,1.772,1.246,1.355,1.355,0,0,1-.435,1.3Z" fill="#407bff"/>
        <path id="Path_28" data-name="Path 28" d="M1100.53,269.04h0a.869.869,0,0,1-.965-.675l-.155-.8a4.605,4.605,0,0,0-4.829-3.661,3.929,3.929,0,0,0-3.62,4.684l.178.919a.751.751,0,0,1-.654.9h0a.868.868,0,0,1-.962-.677l-.153-.779a5.5,5.5,0,0,1,4.465-6.557,6.27,6.27,0,0,1,7.168,4.839l.181.919A.754.754,0,0,1,1100.53,269.04Z" fill="#407bff"/>
        <path id="Path_29" data-name="Path 29" d="M1112.941,292.215h-33.02l-.223-6.54h33.02Z" fill="#407bff"/>
        <path id="Path_30" data-name="Path 30" d="M1097.009,255.16a1.769,1.769,0,0,1-1.782,1.84,1.921,1.921,0,0,1-1.907-1.84,1.768,1.768,0,0,1,1.782-1.837A1.919,1.919,0,0,1,1097.009,255.16Z" fill="#263238"/>
        <path id="Path_31" data-name="Path 31" d="M1089.073,255.16a1.77,1.77,0,0,1-1.782,1.84,1.921,1.921,0,0,1-1.906-1.84,1.768,1.768,0,0,1,1.782-1.837A1.919,1.919,0,0,1,1089.073,255.16Z" fill="#263238"/>
        <path id="Path_32" data-name="Path 32" d="M1081.136,255.16a1.77,1.77,0,0,1-1.782,1.84,1.921,1.921,0,0,1-1.907-1.84,1.768,1.768,0,0,1,1.782-1.837A1.919,1.919,0,0,1,1081.136,255.16Z" fill="#263238"/>
        <path id="Path_33" data-name="Path 33" d="M1104.946,255.16a1.769,1.769,0,0,1-1.782,1.84,1.921,1.921,0,0,1-1.906-1.84,1.768,1.768,0,0,1,1.782-1.837A1.919,1.919,0,0,1,1104.946,255.16Z" fill="#263238"/>
        <path id="Path_34" data-name="Path 34" d="M1112.883,255.16A1.767,1.767,0,0,1,1111.1,257a1.918,1.918,0,0,1-1.906-1.84,1.764,1.764,0,0,1,1.779-1.837A1.917,1.917,0,0,1,1112.883,255.16Z" fill="#263238"/>
      </g>
    </g>
    <g id="Character">
      <g id="Group_18" data-name="Group 18">
        <path id="Path_35" data-name="Path 35" d="M1179.716,206.049c.748,1.19,1.364,2.334,2.006,3.522s1.214,2.385,1.779,3.606a51.71,51.71,0,0,1,2.856,7.663c.1.332.176.683.26,1.025l.122.518.061.256.071.426a7.449,7.449,0,0,1-.173,2.875,16.227,16.227,0,0,1-1.744,4.164,33.152,33.152,0,0,1-4.976,6.516l-2.357-1.779a62.25,62.25,0,0,0,3.156-6.722,14.158,14.158,0,0,0,.855-3.144,2.509,2.509,0,0,0-.046-.985l-.221-.683c-.092-.282-.173-.558-.285-.842a61.772,61.772,0,0,0-2.95-6.744c-1.1-2.223-2.324-4.486-3.525-6.6Z" fill="#ff8b7b"/>
        <path id="Path_36" data-name="Path 36" d="M1178.22,234.041l-2.571,1.36,2.955,3.448a4.57,4.57,0,0,0,1.929-3.144Z" fill="#ff8b7b"/>
        <path id="Path_37" data-name="Path 37" d="M1172.188,237.528l3.168,2.505,3.248-1.182-2.956-3.45Z" fill="#ff8b7b"/>
        <path id="Path_38" data-name="Path 38" d="M1161.371,187.785c-.064.312-.28.53-.484.487s-.316-.325-.252-.637.28-.528.481-.487S1161.435,187.475,1161.371,187.785Z" fill="#263238"/>
        <path id="Path_39" data-name="Path 39" d="M1161.122,188.32a11.369,11.369,0,0,1-2.029,2.352,1.837,1.837,0,0,0,1.431.581Z" fill="#ff5652"/>
        <path id="Path_40" data-name="Path 40" d="M1160.111,199.269l.026-3.659,4.859.586s-.081,3.146-2.8,4.073Z" fill="#ff8b7b"/>
        <path id="Path_41" data-name="Path 41" d="M1161.509,192.976l3.423.98.065,2.24-4.861-.586Z" fill="#ff8b7b"/>
        <path id="Path_42" data-name="Path 42" d="M1164.932,193.956l-3.421-.982-.667,1.274A5.429,5.429,0,0,0,1164,198.98a5.309,5.309,0,0,0,.99-2.784Z" opacity="0.2"/>
        <path id="Path_43" data-name="Path 43" d="M1162.863,186.293a.185.185,0,0,0,.137-.312,1.859,1.859,0,0,0-1.588-.617.187.187,0,1,0,.064.368h0a1.476,1.476,0,0,1,1.25.5A.193.193,0,0,0,1162.863,186.293Z" fill="#263238"/>
        <path id="Path_44" data-name="Path 44" d="M1170.018,193.433c-.565,2.872-.906,6.853,1.11,8.769,0,0-.786,2.915-6.142,2.915-5.888,0-2.833-2.558-2.833-2.558,2.449-.759,2.426-3.537,1.866-5.768Z" fill="#ff8b7b"/>
        <path id="Path_45" data-name="Path 45" d="M1172.23,204.123c.524-.738.5-3.078-.056-3.491-.9-.665-4.77-.817-9.976.376a3.655,3.655,0,0,1-.641,3.453Z" fill="#407bff"/>
        <path id="Path_46" data-name="Path 46" d="M1189.733,336.648a1.262,1.262,0,0,1-.98-.053.378.378,0,0,1-.092-.431.431.431,0,0,1,.242-.274c.532-.254,1.754.244,1.8.264a.1.1,0,0,1,.058.084.093.093,0,0,1-.053.086A4.892,4.892,0,0,1,1189.733,336.648Zm-.641-.627a.463.463,0,0,0-.109.036.253.253,0,0,0-.143.16c-.048.167.013.218.033.236.214.18,1,.015,1.553-.206A3.064,3.064,0,0,0,1189.091,336.022Z" fill="#407bff"/>
        <path id="Path_47" data-name="Path 47" d="M1190.692,336.331a.094.094,0,0,1-.046,0c-.445-.129-1.4-.8-1.41-1.248a.3.3,0,0,1,.239-.3.512.512,0,0,1,.412.033c.527.269.86,1.355.873,1.4a.088.088,0,0,1-.023.091A.083.083,0,0,1,1190.692,336.331Zm-1.115-1.388-.041.01c-.115.041-.115.1-.115.122.008.264.636.792,1.1,1.007a2.213,2.213,0,0,0-.715-1.1A.33.33,0,0,0,1189.578,334.943Z" fill="#407bff"/>
        <path id="Path_48" data-name="Path 48" d="M1160.651,337.308c-.5,0-.993-.071-1.158-.3a.351.351,0,0,1,.01-.406.471.471,0,0,1,.3-.218c.654-.178,2.031.6,2.09.639a.092.092,0,0,1,.046.094.1.1,0,0,1-.074.076A6.85,6.85,0,0,1,1160.651,337.308Zm-.624-.761a.666.666,0,0,0-.181.02.286.286,0,0,0-.183.129c-.066.117-.041.173-.018.206.183.254,1.178.261,1.911.157A4.209,4.209,0,0,0,1160.027,336.547Z" fill="#407bff"/>
        <path id="Path_49" data-name="Path 49" d="M1161.842,337.2l-.038-.008c-.476-.213-1.418-1.063-1.346-1.507.018-.1.092-.233.349-.259a.681.681,0,0,1,.517.16,2.645,2.645,0,0,1,.611,1.512.089.089,0,0,1-.038.084A.085.085,0,0,1,1161.842,337.2Zm-.962-1.591-.056,0c-.168.018-.178.084-.181.1-.043.266.6.934,1.082,1.226a2.174,2.174,0,0,0-.522-1.213A.491.491,0,0,0,1160.88,335.608Z" fill="#407bff"/>
        <path id="Path_50" data-name="Path 50" d="M1166.172,337.106h-3.939l-.392-9.093h3.939Z" fill="#ff8b7b"/>
        <path id="Path_51" data-name="Path 51" d="M1195.083,335.288l-3.85.831-3.865-8.469,3.85-.831Z" fill="#ff8b7b"/>
        <path id="Path_52" data-name="Path 52" d="M1190.863,335.735l4.325-.934a.341.341,0,0,1,.384.19l1.5,3.248a.578.578,0,0,1-.415.8c-1.517.3-2.268.37-4.17.779-1.171.254-3.813.9-5.429,1.243-1.581.34-2.171-1.2-1.542-1.484,2.825-1.289,4.006-2.421,4.773-3.476A.949.949,0,0,1,1190.863,335.735Z" fill="#263238"/>
        <path id="Path_53" data-name="Path 53" d="M1162.26,336.651h4.3a.345.345,0,0,1,.336.269l.776,3.489a.572.572,0,0,1-.565.7c-1.553-.028-3.8-.117-5.745-.117-2.281,0-4.251.122-6.924.122-1.616,0-2.067-1.629-1.39-1.776,3.083-.672,5.6-.743,8.26-2.38A1.832,1.832,0,0,1,1162.26,336.651Z" fill="#263238"/>
        <g id="Group_14" data-name="Group 14">
          <path id="Path_54" data-name="Path 54" d="M1178.181,203.09c3.691.845,6.735,10.238,6.735,10.238l-7.415,5.633a16.106,16.106,0,0,1-3.93-7.257C1172.3,206.782,1174.406,202.228,1178.181,203.09Z" fill="#407bff"/>
          <path id="Path_55" data-name="Path 55" d="M1178.181,203.09c3.691.845,6.735,10.238,6.735,10.238l-7.415,5.633a16.106,16.106,0,0,1-3.93-7.257C1172.3,206.782,1174.406,202.228,1178.181,203.09Z" opacity="0.4"/>
        </g>
        <path id="Path_56" data-name="Path 56" d="M1158.767,214.3c-.922.99-1.838,1.873-2.79,2.778-.473.452-.954.893-1.448,1.327l-.743.65-.188.162c-.092.076-.2.167-.318.259a4.683,4.683,0,0,1-1.082.637,3.625,3.625,0,0,1-1.362.282,3.379,3.379,0,0,1-1.176-.208,3.289,3.289,0,0,1-1.123-.71,3.384,3.384,0,0,1-.878-1.446,3.922,3.922,0,0,1-.158-.83,5.226,5.226,0,0,1,.01-1c.026-.269.064-.5.1-.721a13.925,13.925,0,0,1,.649-2.251,21.479,21.479,0,0,1,.87-2.017c.356-.71.7-1.226,1.041-1.822a45.7,45.7,0,0,1,4.732-6.394,43.221,43.221,0,0,1,5.743-5.425l2.062,2.114c-1.448,1.931-2.874,4-4.187,6.042a64.905,64.905,0,0,0-3.584,6.278c-.242.525-.54,1.1-.708,1.543-.2.48-.377,1-.527,1.5a10.441,10.441,0,0,0-.316,1.411,1.848,1.848,0,0,0-.02.221c0,.043.01.066.005-.053a1.668,1.668,0,0,0-.071-.365,2.446,2.446,0,0,0-.647-1.038,2.711,2.711,0,0,0-1.866-.754,2.367,2.367,0,0,0-.9.173,2.1,2.1,0,0,0-.277.137l.216-.2.672-.614,1.339-1.251c.886-.832,1.777-1.718,2.619-2.542Z" fill="#ff8b7b"/>
        <path id="Path_57" data-name="Path 57" d="M1175.017,210c2,1.977,2.657,5.58,2.815,8.711l-.328.251a16.131,16.131,0,0,1-3.935-7.257c-.076-.294-.14-.589-.193-.878Z" opacity="0.2"/>
        <g id="Group_15" data-name="Group 15">
          <path id="Path_58" data-name="Path 58" d="M1154.852,207.028c-.8,4.24-1.308,12.951,1.028,30.2h21.069c.145-3.225-1.889-18.949,1.232-34.141a55.019,55.019,0,0,0-7.053-.888,78.038,78.038,0,0,0-8.955,0c-.988.091-1.957.233-2.823.386A5.564,5.564,0,0,0,1154.852,207.028Z" fill="#407bff"/>
          <path id="Path_59" data-name="Path 59" d="M1154.852,207.028c-.8,4.24-1.308,12.951,1.028,30.2h21.069c.145-3.225-1.889-18.949,1.232-34.141a55.019,55.019,0,0,0-7.053-.888,78.038,78.038,0,0,0-8.955,0c-.988.091-1.957.233-2.823.386A5.564,5.564,0,0,0,1154.852,207.028Z" opacity="0.4"/>
        </g>
        <path id="Path_60" data-name="Path 60" d="M1158.075,213.3l-3.806-.911a86.469,86.469,0,0,0,.043,8.67C1156.064,219.068,1158.3,215.97,1158.075,213.3Z" opacity="0.2"/>
        <g id="Group_16" data-name="Group 16">
          <path id="Path_61" data-name="Path 61" d="M1161.842,328.016l.2,4.687h3.941l-.2-4.687Z" opacity="0.2"/>
          <path id="Path_62" data-name="Path 62" d="M1191.22,326.821l-3.851.831,1.994,4.365,3.851-.831Z" opacity="0.2"/>
        </g>
        <path id="Path_63" data-name="Path 63" d="M1171.889,189.231c-1.01,3.765-1.41,6.019-3.742,7.584a5.194,5.194,0,0,1-8.005-4.339c-.122-3.59,1.553-9.142,5.605-9.9A5.322,5.322,0,0,1,1171.889,189.231Z" fill="#ff8b7b"/>
        <path id="Path_64" data-name="Path 64" d="M1163.049,189.376c-.186-.5-1.059-4.395-.239-5.4s10.141-.282,11.521,1.071c2.288,2.243.7,4.245-1.8,6.828-1.881,1.944-1.955,4.133-2.9,4.453-1.665.563-4.246.036-4.763-1.736S1163.049,189.376,1163.049,189.376Z" fill="#263238"/>
        <path id="Path_65" data-name="Path 65" d="M1173.2,180.617c-3.3-1.4-9.474.147-12.809-.655a5.125,5.125,0,0,0,4.259,5.227,44,44,0,0,0,8.4.771C1176.713,185.813,1176,181.8,1173.2,180.617Z" fill="#263238"/>
        <path id="Path_66" data-name="Path 66" d="M1173.717,185.159a6.258,6.258,0,0,0,3.485-.665C1177.82,185.978,1174.432,186.384,1173.717,185.159Z" fill="#263238"/>
        <path id="Path_67" data-name="Path 67" d="M1164.846,189.53a4.4,4.4,0,0,1-1.107,2.6c-.858.944-1.754.358-1.907-.792-.137-1.033.145-2.771,1.194-3.291S1164.915,188.366,1164.846,189.53Z" fill="#ff8b7b"/>
        <path id="Path_68" data-name="Path 68" d="M1163.354,237.231s4.47,30.007,6.924,41.248c2.688,12.311,17.1,53.039,17.1,53.039l7.051-1.522s-10.077-33.192-12.333-50.4c-1.731-13.22-5.145-42.364-5.145-42.364Z" fill="#407bff"/>
        <path id="Path_69" data-name="Path 69" d="M1185.688,329.171c-.031.008,1.313,2.542,1.313,2.542l7.932-1.713-.667-2.378Z" fill="#263238"/>
        <path id="Path_70" data-name="Path 70" d="M1166.18,247.921c5.167,1.01,4.62,20.226,4,30.109-1.489-6.985-3.673-20.429-5.162-29.969A1.785,1.785,0,0,1,1166.18,247.921Z" opacity="0.3"/>
        <path id="Path_71" data-name="Path 71" d="M1155.881,237.231s-.542,29.358-.115,41.332c.446,12.454,4.811,53.232,4.811,53.232h6.672s.244-40.05.542-52.283c.323-13.334,1.937-42.281,1.937-42.281Z" fill="#407bff"/>
        <path id="Path_72" data-name="Path 72" d="M1159.292,329.145c-.031,0,.377,2.761.377,2.761h8.117l.219-2.464Z" fill="#263238"/>
        <g id="Group_17" data-name="Group 17">
          <path id="Path_73" data-name="Path 73" d="M1163.107,208.315c1.889,5.075-9.207,11.05-9.207,11.05l-4.8-6.156s3.2-6.359,7.137-9.223C1161.094,200.444,1161.672,204.453,1163.107,208.315Z" fill="#407bff"/>
          <path id="Path_74" data-name="Path 74" d="M1163.107,208.315c1.889,5.075-9.207,11.05-9.207,11.05l-4.8-6.156s3.2-6.359,7.137-9.223C1161.094,200.444,1161.672,204.453,1163.107,208.315Z" opacity="0.4"/>
        </g>
      </g>
    </g>
    <g id="Thinking">
      <g id="Group_19" data-name="Group 19">
        <ellipse id="Ellipse_3" data-name="Ellipse 3" cx="20.209" cy="12.839" rx="20.209" ry="12.839" transform="translate(1186.368 144.115)" fill="#407bff"/>
        <path id="Path_75" data-name="Path 75" d="M1199.281,163.416a5.657,5.657,0,0,1-5.559-4.684,5.706,5.706,0,0,1,4.317-6.458h0a5.643,5.643,0,0,1,6.061,2.522l12.974-2.669a2.032,2.032,0,0,1,2.378,1.393,1.948,1.948,0,0,1-1.494,2.405l-.341.068a.346.346,0,0,0-.255.462l.229.594a.883.883,0,0,1-.346,1.073,1.093,1.093,0,0,0-.5.789.862.862,0,0,1-.675.774l-.267.056a.871.871,0,0,1-.927-.444,1.089,1.089,0,0,0-2.021.416.871.871,0,0,1-.674.774l-.262.053a.873.873,0,0,1-.927-.444,1.1,1.1,0,0,0-.779-.528.882.882,0,0,1-.743-.85l-.028-.634a.333.333,0,0,0-.132-.256.338.338,0,0,0-.283-.066l-4.134.85a5.677,5.677,0,0,1-5.61,4.8Zm-1.12-10.6a5.139,5.139,0,0,0-3.887,5.816,5.1,5.1,0,0,0,10.088-.287l.023-.2,4.526-.931a.907.907,0,0,1,.743.175.89.89,0,0,1,.346.675l.028.634a.331.331,0,0,0,.265.32,1.638,1.638,0,0,1,1.181.8.321.321,0,0,0,.331.178l.26-.053a.318.318,0,0,0,.234-.292,1.649,1.649,0,0,1,3.06-.632.317.317,0,0,0,.331.178l.267-.053a.315.315,0,0,0,.229-.292,1.627,1.627,0,0,1,.764-1.2.329.329,0,0,0,.117-.4l-.227-.594a.886.886,0,0,1,.051-.756.9.9,0,0,1,.611-.452l.341-.071a1.387,1.387,0,0,0,1.067-1.715,1.461,1.461,0,0,0-1.723-.987l-13.366,2.748-.1-.175a5.074,5.074,0,0,0-5.557-2.428Zm1.128,8.533a3.582,3.582,0,0,1-3.505-2.855,3.59,3.59,0,1,1,4.236,2.781h0A3.756,3.756,0,0,1,1199.288,161.353Zm.018-6.595a3.06,3.06,0,0,0-.624.063,3.018,3.018,0,1,0,1.224,5.91h0a3.017,3.017,0,0,0-.6-5.973Z" fill="#fff"/>
        <ellipse id="Ellipse_4" data-name="Ellipse 4" cx="6.642" cy="4.22" rx="6.642" ry="4.22" transform="translate(1183.482 168.88)" fill="#407bff" opacity="0.6"/>
        <ellipse id="Ellipse_5" data-name="Ellipse 5" cx="2.727" cy="1.732" rx="2.727" ry="1.732" transform="translate(1176.833 175.588)" fill="#407bff" opacity="0.3"/>
      </g>
    </g>
  </g>
</svg>
