<svg xmlns="http://www.w3.org/2000/svg" width="202.005" height="52.742" viewBox="0 0 202.005 52.742">
  <g id="logo" transform="translate(294.575 -903.392)">
    <path id="Swipe_match_meet" data-name="Swipe, match &amp; meet" d="M3.4.088C5.434.088,6.38-.924,6.38-2.1c0-2.827-4.664-1.65-4.664-3.531,0-.671.561-1.221,1.87-1.221A3.977,3.977,0,0,1,5.7-6.226l.363-.88a4.53,4.53,0,0,0-2.475-.682c-2.024,0-2.948,1.012-2.948,2.2C.638-2.728,5.3-3.916,5.3-2.035c0,.671-.572,1.188-1.9,1.188A3.963,3.963,0,0,1,.858-1.738L.451-.88A4.571,4.571,0,0,0,3.4.088ZM15.7-5.83,13.959-1.166,12.232-5.83h-.891L9.581-1.188,7.887-5.83h-1L9.053,0h1.012l1.7-4.422L13.453,0h1.012l2.178-5.83Zm2.64-1.122a.691.691,0,0,0,.715-.7.684.684,0,0,0-.715-.671.7.7,0,0,0-.715.693A.686.686,0,0,0,18.337-6.952ZM17.809,0h1.056V-5.83H17.809Zm6.259-5.885a2.483,2.483,0,0,0-2.079.979V-5.83H20.977V2.134h1.056V-.88a2.49,2.49,0,0,0,2.035.946,2.833,2.833,0,0,0,2.948-2.981A2.83,2.83,0,0,0,24.068-5.885ZM23.98-.858a1.928,1.928,0,0,1-1.958-2.057A1.925,1.925,0,0,1,23.98-4.961a1.927,1.927,0,0,1,1.969,2.046A1.93,1.93,0,0,1,23.98-.858Zm9.867-2.024a2.811,2.811,0,0,0-2.882-3,2.855,2.855,0,0,0-2.926,2.97A2.919,2.919,0,0,0,31.174.066a2.926,2.926,0,0,0,2.3-.946l-.583-.682a2.177,2.177,0,0,1-1.683.7,1.975,1.975,0,0,1-2.112-1.7h4.73C33.836-2.662,33.847-2.794,33.847-2.882ZM30.965-4.994a1.818,1.818,0,0,1,1.87,1.672h-3.74A1.817,1.817,0,0,1,30.965-4.994Zm4.708,3.553a.72.72,0,0,0-.737.748.7.7,0,0,0,.462.682l-.407,1.639h.693L36.2.1a2.224,2.224,0,0,0,.187-.792A.708.708,0,0,0,35.673-1.441ZM48.356-5.885a2.627,2.627,0,0,0-2.244,1.078,2.158,2.158,0,0,0-2.024-1.078,2.363,2.363,0,0,0-2.013.924V-5.83H41.063V0h1.056V-3a1.693,1.693,0,0,1,1.749-1.936c.957,0,1.507.561,1.507,1.705V0h1.056V-3A1.693,1.693,0,0,1,48.18-4.939c.957,0,1.507.561,1.507,1.705V0h1.056V-3.355A2.235,2.235,0,0,0,48.356-5.885Zm6.556,0a3.882,3.882,0,0,0-2.409.748l.44.792a2.948,2.948,0,0,1,1.848-.627c1.045,0,1.562.517,1.562,1.408v.209H54.681c-1.738,0-2.343.77-2.343,1.7,0,1.012.836,1.716,2.156,1.716A2.164,2.164,0,0,0,56.408-.77V0h1V-3.52C57.409-5.115,56.507-5.885,54.912-5.885ZM54.67-.748c-.8,0-1.287-.363-1.287-.946,0-.5.3-.9,1.342-.9h1.628v.814A1.691,1.691,0,0,1,54.67-.748ZM62.414-1.1a1.33,1.33,0,0,1-.825.275.859.859,0,0,1-.913-.979V-4.961h1.672V-5.83H60.676V-7.106H59.62V-5.83h-.99v.869h.99v3.2A1.664,1.664,0,0,0,61.468.066a1.992,1.992,0,0,0,1.276-.407ZM66.462.066a2.608,2.608,0,0,0,2.376-1.254l-.8-.506a1.817,1.817,0,0,1-1.584.836,1.932,1.932,0,0,1-2-2.057,1.935,1.935,0,0,1,2-2.046,1.817,1.817,0,0,1,1.584.836l.8-.517a2.6,2.6,0,0,0-2.376-1.243,2.913,2.913,0,0,0-3.08,2.97A2.921,2.921,0,0,0,66.462.066Zm6.875-5.951a2.528,2.528,0,0,0-2.057.88V-8.162H70.224V0H71.28V-3a1.732,1.732,0,0,1,1.848-1.936c1,0,1.573.561,1.573,1.705V0h1.056V-3.355A2.259,2.259,0,0,0,73.337-5.885Zm13.915,5.3L86.218-1.617a5.065,5.065,0,0,0,.671-1.76l-.847-.275a4.848,4.848,0,0,1-.473,1.4l-1.9-1.892c1.177-.671,1.639-1.232,1.639-2.013,0-1-.748-1.606-1.914-1.606-1.265,0-2.079.693-2.079,1.727a2.411,2.411,0,0,0,.924,1.76c-1.331.759-1.87,1.419-1.87,2.365,0,1.177,1.133,2,2.695,2A3.6,3.6,0,0,0,85.635-.9L86.658.121ZM83.391-7c.66,0,1.023.341,1.023.847,0,.484-.33.836-1.342,1.408-.627-.638-.781-.924-.781-1.32C82.291-6.611,82.7-7,83.391-7Zm-.264,6.2c-1.034,0-1.727-.5-1.727-1.232,0-.616.341-1.067,1.419-1.672l2.189,2.178A2.616,2.616,0,0,1,83.127-.792ZM98.868-5.885a2.627,2.627,0,0,0-2.244,1.078A2.158,2.158,0,0,0,94.6-5.885a2.363,2.363,0,0,0-2.013.924V-5.83H91.575V0h1.056V-3A1.693,1.693,0,0,1,94.38-4.939c.957,0,1.507.561,1.507,1.705V0h1.056V-3a1.693,1.693,0,0,1,1.749-1.936c.957,0,1.507.561,1.507,1.705V0h1.056V-3.355A2.235,2.235,0,0,0,98.868-5.885Zm9.735,3a2.811,2.811,0,0,0-2.882-3,2.855,2.855,0,0,0-2.926,2.97A2.919,2.919,0,0,0,105.93.066a2.926,2.926,0,0,0,2.3-.946l-.583-.682a2.177,2.177,0,0,1-1.683.7,1.975,1.975,0,0,1-2.112-1.7h4.73C108.592-2.662,108.6-2.794,108.6-2.882Zm-2.882-2.112a1.818,1.818,0,0,1,1.87,1.672h-3.74A1.817,1.817,0,0,1,105.721-4.994Zm9.713,2.112a2.811,2.811,0,0,0-2.882-3,2.855,2.855,0,0,0-2.926,2.97A2.919,2.919,0,0,0,112.761.066a2.926,2.926,0,0,0,2.3-.946l-.583-.682a2.177,2.177,0,0,1-1.683.7,1.975,1.975,0,0,1-2.112-1.7h4.73C115.423-2.662,115.434-2.794,115.434-2.882Zm-2.882-2.112a1.818,1.818,0,0,1,1.87,1.672h-3.74A1.817,1.817,0,0,1,112.552-4.994ZM119.944-1.1a1.33,1.33,0,0,1-.825.275.859.859,0,0,1-.913-.979V-4.961h1.672V-5.83h-1.672V-7.106H117.15V-5.83h-.99v.869h.99v3.2A1.664,1.664,0,0,0,119,.066a1.992,1.992,0,0,0,1.276-.407Z" transform="translate(-214 954)" fill="#fff"/>
    <path id="Path_5093" data-name="Path 5093" d="M128.117,12.281a11.2,11.2,0,0,0-15.848,0,10.81,10.81,0,0,0-3.277,7.939v5.608h0a1.741,1.741,0,0,1-3.471,0h0V11.782A2.758,2.758,0,0,0,102.671,9H93.663a2.667,2.667,0,0,0-1.964.8,2.7,2.7,0,0,0-.814,1.975v10.25a3.837,3.837,0,1,1-7.664,0V11.782a2.779,2.779,0,1,0-5.557,0v10.25a3.837,3.837,0,0,1-6.545,2.707A3.674,3.674,0,0,1,70,22.032V11.782a2.789,2.789,0,1,0-5.568,0v10.25a9.4,9.4,0,0,0,9.4,9.364,9.018,9.018,0,0,0,6.606-2.728,9.385,9.385,0,0,0,13.232,0,9.059,9.059,0,0,0,2.758-6.647v-7.43h0a1.741,1.741,0,0,1,3.471,0h0V28.637a2.667,2.667,0,0,0,.8,1.964,2.718,2.718,0,0,0,1.964.794H111.7a2.779,2.779,0,0,0,2.779-2.779V20.2a5.445,5.445,0,0,1,1.659-4,5.619,5.619,0,0,1,7.97,0,5.445,5.445,0,0,1,1.69,4v8.418a2.769,2.769,0,0,0,4.733,1.964,2.616,2.616,0,0,0,.835-1.964V20.2a10.82,10.82,0,0,0-3.257-7.919Z" transform="translate(-293.425 903.552)" fill="#fff"/>
    <path id="Path_5094" data-name="Path 5094" d="M102.049,5.558a2.667,2.667,0,0,0,2.036-.8,2.657,2.657,0,0,0,.814-1.975,2.636,2.636,0,0,0-.814-1.964A2.677,2.677,0,0,0,102.049,0a2.718,2.718,0,0,0-1.975.814,2.667,2.667,0,0,0-.8,1.964,2.748,2.748,0,0,0,2.779,2.779Z" transform="translate(-292.803 903.394)" fill="#fff"/>
    <path id="Path_5095" data-name="Path 5095" d="M196.317,12.281a11.2,11.2,0,0,0-15.848,0,10.82,10.82,0,0,0-3.288,7.919v5.608h0a1.741,1.741,0,0,1-3.471,0h0V11.782a2.7,2.7,0,0,0-.814-1.975,2.667,2.667,0,0,0-1.964-.8h-9.039a2.758,2.758,0,0,0-2.779,2.779v10.25a3.837,3.837,0,1,1-7.664,0V11.782a2.7,2.7,0,0,0-.814-1.975,2.779,2.779,0,0,0-4.743,1.975v10.25a3.837,3.837,0,0,1-6.545,2.707,3.675,3.675,0,0,1-1.12-2.707V11.782a2.789,2.789,0,1,0-5.568,0v10.25a9.4,9.4,0,0,0,9.4,9.364,9.018,9.018,0,0,0,6.606-2.728,9.385,9.385,0,0,0,13.232,0,9.059,9.059,0,0,0,2.758-6.647v-7.43h0a1.73,1.73,0,0,1,3.461,0h0V28.637a2.667,2.667,0,0,0,.8,1.964,2.7,2.7,0,0,0,1.975.814h9.028a2.779,2.779,0,0,0,2.789-2.779V20.2a5.445,5.445,0,0,1,1.659-4,5.354,5.354,0,0,1,3.97-1.659,5.669,5.669,0,0,1,5.73,5.659v8.418a2.789,2.789,0,0,0,5.568,0V20.2a10.82,10.82,0,0,0-3.328-7.919Z" transform="translate(-292.207 903.552)" fill="#fff"/>
    <path id="Path_5096" data-name="Path 5096" d="M170.309,5.557a2.667,2.667,0,0,0,1.964-.8,2.7,2.7,0,0,0,.814-1.975,2.677,2.677,0,0,0-.814-1.964,2.789,2.789,0,0,0-3.939,0,2.667,2.667,0,0,0-.8,1.964,2.732,2.732,0,0,0,2.775,2.775Z" transform="translate(-291.584 903.394)" fill="#fff"/>
    <path id="Path_5097" data-name="Path 5097" d="M9.359,5.557A2.68,2.68,0,0,0,12.1,2.779,2.667,2.667,0,0,0,11.333.814a2.789,2.789,0,0,0-3.939,0A2.677,2.677,0,0,0,6.58,2.779a2.7,2.7,0,0,0,.814,1.975A2.667,2.667,0,0,0,9.359,5.557Z" transform="translate(-294.457 903.394)" fill="#f5ce3e"/>
    <path id="Path_5098" data-name="Path 5098" d="M9.69,10.89a2.779,2.779,0,0,0-2.779,2.769V30.046A4.01,4.01,0,0,1,5.68,33a4.071,4.071,0,0,1-2.9,1.221,2.667,2.667,0,0,0-1.964.8A2.718,2.718,0,0,0,0,37a2.677,2.677,0,0,0,.814,1.964,2.677,2.677,0,0,0,1.964.814,9.374,9.374,0,0,0,6.84-2.84,9.4,9.4,0,0,0,2.83-6.891V13.659A2.758,2.758,0,0,0,9.69,10.89Z" transform="translate(-294.575 903.589)" fill="#f5ce3e"/>
    <path id="Path_5099" data-name="Path 5099" d="M26.656,9a10.8,10.8,0,0,0-7.919,3.277A10.81,10.81,0,0,0,15.46,20.2a10.779,10.779,0,0,0,3.277,7.909A10.81,10.81,0,0,0,26.656,31.4,10.82,10.82,0,0,0,34.6,28.1a10.779,10.779,0,0,0,3.273-7.9A10.81,10.81,0,0,0,34.6,12.257,10.81,10.81,0,0,0,26.656,9Zm4,15.207a5.476,5.476,0,0,1-4,1.649A5.649,5.649,0,0,1,21.017,20.2a5.486,5.486,0,0,1,1.659-4,5.384,5.384,0,0,1,3.98-1.659A5.669,5.669,0,0,1,32.3,20.2a5.445,5.445,0,0,1-1.639,4.01Z" transform="translate(-294.299 903.555)" fill="#f5ce3e"/>
    <path id="Path_5100" data-name="Path 5100" d="M59.075,12.438A10.789,10.789,0,0,0,51.2,9.161a10.962,10.962,0,0,0-5.639,1.527V6.9a1.52,1.52,0,0,0,0-.214V2.758A2.626,2.626,0,0,0,44.672.814,2.657,2.657,0,0,0,42.728,0a2.7,2.7,0,0,0-1.975.814A2.657,2.657,0,0,0,40,2.758v17.6a10.779,10.779,0,0,0,3.277,7.909,11.2,11.2,0,0,0,15.848,0,10.789,10.789,0,0,0,3.267-7.909,10.82,10.82,0,0,0-3.318-7.919Zm-3.94,11.929a5.649,5.649,0,0,1-9.629-4.01,5.445,5.445,0,0,1,1.618-3.98,5.643,5.643,0,1,1,7.97,7.99Z" transform="translate(-293.861 903.394)" fill="#f5ce3e"/>
  </g>
</svg>
