<svg xmlns="http://www.w3.org/2000/svg" xmlns:xlink="http://www.w3.org/1999/xlink" width="288.736" height="111.265" viewBox="0 0 288.736 111.265">
  <defs>
    <linearGradient id="linear-gradient" y1="0.5" x2="1" y2="0.5" gradientUnits="objectBoundingBox">
      <stop offset="0" stop-color="#f4beb0"/>
      <stop offset="0.521" stop-color="#e3a590"/>
      <stop offset="1" stop-color="#d19484"/>
    </linearGradient>
    <clipPath id="clip-path">
      <path id="Path_10" data-name="Path 10" d="M543.939,355.856h24.414s6.078.637,3.412,8.392-11.621,32.29-11.621,32.29H509.7l5.562-6.16Z" fill="none"/>
    </clipPath>
    <clipPath id="clip-path-2">
      <path id="Path_17" data-name="Path 17" d="M334.515,355.856H310.1s-6.077.637-3.411,8.392,11.621,32.29,11.621,32.29h50.445l-5.561-6.16Z" fill="none"/>
    </clipPath>
    <linearGradient id="linear-gradient-2" x1="1.18" y1="1.595" x2="0.406" y2="0.347" xlink:href="#linear-gradient"/>
    <linearGradient id="linear-gradient-3" x1="0.662" y1="1.006" x2="0.014" y2="-0.818" xlink:href="#linear-gradient"/>
    <linearGradient id="linear-gradient-4" x1="0.896" y1="0.627" x2="-0.213" y2="0.215" xlink:href="#linear-gradient"/>
    <linearGradient id="linear-gradient-5" x1="9.546" y1="1.657" x2="8.537" y2="1.718" gradientUnits="objectBoundingBox">
      <stop offset="0" stop-color="#0281f7"/>
      <stop offset="1" stop-color="#0557ce"/>
    </linearGradient>
    <linearGradient id="linear-gradient-6" x1="2.708" y1="0.736" x2="2.766" y2="1.67" xlink:href="#linear-gradient-5"/>
    <linearGradient id="linear-gradient-8" x1="0" y1="0.5" x2="1.076" y2="0.5" xlink:href="#linear-gradient"/>
    <linearGradient id="linear-gradient-10" x1="9.234" y1="2.986" x2="9.459" y2="2.164" xlink:href="#linear-gradient"/>
    <linearGradient id="linear-gradient-11" x1="6.208" y1="1.689" x2="7.252" y2="1.689" xlink:href="#linear-gradient"/>
    <linearGradient id="linear-gradient-12" x1="29.193" y1="5.43" x2="27.959" y2="5.011" xlink:href="#linear-gradient"/>
    <linearGradient id="linear-gradient-14" x1="0" y1="0.5" x2="1" y2="0.5" xlink:href="#linear-gradient"/>
    <linearGradient id="linear-gradient-15" x1="0.885" y1="0.396" x2="-0.92" y2="0.879" gradientUnits="objectBoundingBox">
      <stop offset="0" stop-color="#f4beb0"/>
      <stop offset="0.521" stop-color="#e3a590"/>
      <stop offset="0.928" stop-color="#d49786"/>
      <stop offset="1" stop-color="#d19484"/>
    </linearGradient>
    <linearGradient id="linear-gradient-16" x1="-0.025" y1="4.219" x2="-1.04" y2="5.107" xlink:href="#linear-gradient"/>
    <linearGradient id="linear-gradient-17" x1="6.431" y1="1.727" x2="9.115" y2="2.335" xlink:href="#linear-gradient-5"/>
  </defs>
  <g id="type-background" transform="translate(-291.815 -315.966)">
    <g id="Group_35" data-name="Group 35">
      <rect id="Rectangle_1" data-name="Rectangle 1" width="288.736" height="1.617" rx="0.808" transform="translate(291.815 425.614)" fill="#a7b6c4"/>
      <g id="Group_34" data-name="Group 34">
        <path id="Path_1" data-name="Path 1" d="M519.469,327.874a4.888,4.888,0,0,0-2.441,2.16,5.93,5.93,0,0,0,.108,3.9,27.844,27.844,0,0,0,2.249,6.45,8.435,8.435,0,0,1,1.376,3.245c.1,1.347-.646,2.638-.609,3.988a4.517,4.517,0,0,0,1.88,3.329,10.041,10.041,0,0,0,3.6,1.586,36.333,36.333,0,0,0,8.94,1.063,28.558,28.558,0,0,0,8.311-.939,14.145,14.145,0,0,0,7.009-4.376c1.318-1.6,2.186-3.8,1.505-5.757a6.976,6.976,0,0,0-3.712-3.59,19.069,19.069,0,0,0-6.5-1.92,4.333,4.333,0,0,1-2.907-.982,3.477,3.477,0,0,1-.9-1.738c-.213-1.5-5.727-11.084-9.96-10.522C526.175,323.933,522.083,326.594,519.469,327.874Z" fill="#051938"/>
        <g id="Group_1" data-name="Group 1">
          <path id="Path_2" data-name="Path 2" d="M364.369,410.813l-5.3,10.552-7.414-.352,3.53-11.959Z" fill="#e3a590"/>
          <path id="Path_3" data-name="Path 3" d="M351.186,418.164l8.841,2.455a29.882,29.882,0,0,0,2.552,2c1.09.767,1.746.226,3.227.39a1.849,1.849,0,0,1,1.636,1.792l.021.743-7.4.195-10.888-3.024Z" fill="#2f1d18"/>
          <path id="Path_4" data-name="Path 4" d="M350.954,377.4s18.357-.351,22.947-.351,10.944,1.758,8.825,9.144c-1.172,4.086-18.634,28.945-18.634,28.945l-12.063-2.575,10.222-22.5S344.6,387.951,350.954,377.4Z" fill="#0a2958"/>
        </g>
        <g id="Group_4" data-name="Group 4">
          <g id="Group_3" data-name="Group 3">
            <path id="Path_5" data-name="Path 5" d="M522.69,401.039l8.542,15.9-9.025,9.072a8.267,8.267,0,0,1,.08-4.094c.646-1.847-.806-7.868-3.948-13.808Z" fill="url(#linear-gradient)"/>
            <g id="Group_2" data-name="Group 2">
              <path id="Path_6" data-name="Path 6" d="M529.255,413.258c-1.352.828-3.162,2.269-3.361,4.117-.215,1.995-2.181,3.117-3.463,3.642a3.185,3.185,0,0,1-.145.9,8.267,8.267,0,0,0-.08,4.094l9.025-9.072Z" fill="#0a2958"/>
            </g>
          </g>
          <path id="Path_7" data-name="Path 7" d="M502.947,387.149l17.039,28.141,8.821-7.313-12.644-21.791,25.543-8.51H505.2S499.08,379.121,502.947,387.149Z" fill="#0a2958"/>
        </g>
        <g id="Group_9" data-name="Group 9">
          <path id="Path_8" data-name="Path 8" d="M560.038,394.308l.107,2.231v3.612H508.885l.052-6.8Z" fill="#373f47"/>
          <path id="Path_9" data-name="Path 9" d="M543.939,355.856h24.414s6.078.637,3.412,8.392-11.621,32.29-11.621,32.29H512.384l2.877-6.16Z" fill="#97a4b4"/>
          <g id="Group_6" data-name="Group 6">
            <g id="Group_5" data-name="Group 5" clip-path="url(#clip-path)">
              <rect id="Rectangle_2" data-name="Rectangle 2" width="51.681" height="9.634" transform="matrix(-1, 0, 0, -1, 563.077, 401.227)" fill="#7b8fa3"/>
            </g>
          </g>
          <rect id="Rectangle_3" data-name="Rectangle 3" width="4.459" height="20.372" transform="matrix(-1, 0, 0, -1, 538.757, 418.749)" fill="#373f47"/>
          <g id="Group_7" data-name="Group 7">
            <path id="Path_11" data-name="Path 11" d="M537.542,413.424l27.932,7.542-1.493,1.275-27.932-5.948Z" fill="#373f47"/>
            <path id="Path_12" data-name="Path 12" d="M562.765,423.261a2.452,2.452,0,1,0,2.452-2.443A2.448,2.448,0,0,0,562.765,423.261Z" fill="#293035"/>
          </g>
          <g id="Group_8" data-name="Group 8">
            <path id="Path_13" data-name="Path 13" d="M534.685,413.424l-27.932,7.542,1.493,1.275,27.932-5.948Z" fill="#373f47"/>
            <path id="Path_14" data-name="Path 14" d="M509.462,423.261a2.452,2.452,0,1,1-2.452-2.443A2.448,2.448,0,0,1,509.462,423.261Z" fill="#293035"/>
          </g>
        </g>
        <g id="Group_14" data-name="Group 14">
          <path id="Path_15" data-name="Path 15" d="M318.416,394.308l-.107,2.231v3.612h51.259l-.052-6.8Z" fill="#373f47"/>
          <path id="Path_16" data-name="Path 16" d="M334.515,355.856H310.1s-6.077.637-3.411,8.392,11.621,32.29,11.621,32.29H366.07l-2.877-6.16Z" fill="#97a4b4"/>
          <g id="Group_11" data-name="Group 11">
            <g id="Group_10" data-name="Group 10" clip-path="url(#clip-path-2)">
              <rect id="Rectangle_4" data-name="Rectangle 4" width="51.681" height="9.634" transform="translate(315.376 391.593)" fill="#7b8fa3"/>
            </g>
          </g>
          <rect id="Rectangle_5" data-name="Rectangle 5" width="4.459" height="20.372" transform="translate(339.696 398.378)" fill="#373f47"/>
          <g id="Group_12" data-name="Group 12">
            <path id="Path_18" data-name="Path 18" d="M340.911,413.424l-27.932,7.542,1.493,1.275,27.932-5.948Z" fill="#373f47"/>
            <path id="Path_19" data-name="Path 19" d="M315.687,423.261a2.452,2.452,0,1,1-2.452-2.443A2.448,2.448,0,0,1,315.687,423.261Z" fill="#293035"/>
          </g>
          <g id="Group_13" data-name="Group 13">
            <path id="Path_20" data-name="Path 20" d="M343.768,413.424l27.932,7.542-1.493,1.275-27.932-5.948Z" fill="#373f47"/>
            <path id="Path_21" data-name="Path 21" d="M368.991,423.261a2.452,2.452,0,1,0,2.451-2.443A2.447,2.447,0,0,0,368.991,423.261Z" fill="#293035"/>
          </g>
        </g>
        <g id="Group_15" data-name="Group 15">
          <path id="Path_22" data-name="Path 22" d="M372.135,412.572l2.824,10.552,8.12-.352-1.765-11.959Z" fill="#e3a590"/>
          <path id="Path_23" data-name="Path 23" d="M373.9,420.662l9.178-1.056a19.142,19.142,0,0,0,7,3.127,2.8,2.8,0,0,1,2.176,2.714v.139H374.253Z" fill="#2f1d18"/>
          <path id="Path_24" data-name="Path 24" d="M333.832,371.243a13.682,13.682,0,0,0-3.177,12.31c1.766,7.387,6.708,8.09,15.886,8.09h16.945l8.743,25.973,12.159-1.335-8.9-33.43s-.353-5.98-10.944-5.98S333.832,371.243,333.832,371.243Z" fill="#245fd7"/>
        </g>
        <g id="Group_18" data-name="Group 18">
          <g id="Group_17" data-name="Group 17">
            <g id="Group_16" data-name="Group 16">
              <path id="Path_25" data-name="Path 25" d="M368.639,347.713l9.2,14.151s2.5,4.217-1.323,7c-2.808,2.043-6.034.3-8.362-2.877a136.284,136.284,0,0,1-7.625-12.048Z" fill="url(#linear-gradient-2)"/>
              <path id="Path_26" data-name="Path 26" d="M375.687,359.864l27.99,3.6s1.815,5.81-2.3,5.789c-6.473-.034-25.433,2.058-29.469.029S368.068,359.666,375.687,359.864Z" fill="url(#linear-gradient-3)"/>
              <path id="Path_27" data-name="Path 27" d="M399.713,375.362l-13.009-.845h0a6.73,6.73,0,0,0,4.045-4.591l3.568-14.117,13.009.845-3.646,14.135a6.711,6.711,0,0,1-3.311,4.217Z" fill="#d5d8db"/>
              <path id="Path_28" data-name="Path 28" d="M401.443,375.754H388.259a6.861,6.861,0,0,0,3.779-4.945l2.669-14.626h13.185l-2.747,14.647a6.857,6.857,0,0,1-3.063,4.519Z" fill="#f7f7f7"/>
              <path id="Path_29" data-name="Path 29" d="M406.987,363.285s.636,5.465-1.272,5.737-2.044-2.4-1.454-3.988S406.488,360.171,406.987,363.285Z" fill="url(#linear-gradient-4)"/>
            </g>
            <path id="Path_30" data-name="Path 30" d="M361.369,338.589l2.265.69,5.819,9.01-8.808,7.187S359.691,341.368,361.369,338.589Z" fill="url(#linear-gradient-5)"/>
          </g>
          <path id="Path_31" data-name="Path 31" d="M339.313,337.3l.8-1.025s7.731-1.476,11.33-1.367,11.786,1.946,12.2,4.373-5.394,38.265-5.394,38.265l-27.84,1.445Z" fill="url(#linear-gradient-6)"/>
        </g>
        <g id="Group_21" data-name="Group 21">
          <g id="Group_20" data-name="Group 20">
            <path id="Path_32" data-name="Path 32" d="M513.631,410.7l-2.659,15.013H498.08s1.933-2.408,3.948-2.97,4.835-13.087,4.835-13.087Z" fill="url(#linear-gradient)"/>
            <g id="Group_19" data-name="Group 19">
              <path id="Path_33" data-name="Path 33" d="M501.736,422.842a10.485,10.485,0,0,0-3.656,2.873h12.892l.782-4.416a17.374,17.374,0,0,0-3.618,1.575A6.952,6.952,0,0,1,501.736,422.842Z" fill="#0a2958"/>
            </g>
          </g>
          <path id="Path_34" data-name="Path 34" d="M544.285,371.574l2.9,10.438s2.74,9.233-7.172,9.955-22.71.683-22.71.683L515.681,416.7l-11.079-.985,3.181-30.328s.483-7.387,7.332-7.307a44.261,44.261,0,0,0,8.059-1.1c.413-.085,2.029-6.723,2.453-6.813C534.54,368.251,544.285,371.574,544.285,371.574Z" fill="#0281f7"/>
        </g>
        <g id="Group_24" data-name="Group 24">
          <g id="Group_22" data-name="Group 22">
            <path id="Path_35" data-name="Path 35" d="M517.908,361.892a104.175,104.175,0,0,1-15.245,3.717c-6.433.833-9.842,3.14-10.035,4.038s2.573,1.538,3.473,1.41,3.216-1.218,2.766-.32.579,1.218.836,1.154,2.381-.833,2.381-.833,10.678-1.346,16.4-2.244,5.661-5.383,5.661-5.383l1.123-5.818-6.457-1.091C518.159,359.513,517.908,361.892,517.908,361.892Z" fill="url(#linear-gradient-8)"/>
            <path id="Path_36" data-name="Path 36" d="M518.814,356.521l6.457,1.091,2.469-12.781C522.677,343.194,520.039,350.93,518.814,356.521Z" fill="#e2ac14"/>
          </g>
          <path id="Path_37" data-name="Path 37" d="M527.8,342.747a22.761,22.761,0,0,0-3.444,4.584c-1.65,2.891-1.518,6.551-.675,8.147s1.1,12.766,1.1,12.766l8.261,3.527,13.908-6.467-7.5-21.164-6.506-3.29Z" fill="#ffdf69"/>
          <g id="Group_23" data-name="Group 23">
            <path id="Path_38" data-name="Path 38" d="M532.447,340.613s9.456.181,10.871,2.109,8.084,24.219,8.084,24.219,1.286,4.641-3.28,6.208-22.079-.157-25.646-.669-6.116.679-6.651.281,2.307-5.613,4.3-5.757,6.454.817,6.9.677,16.375-1.66,16.375-1.9-4.838-15.945-6.06-17.995S532.447,342.24,532.447,340.613Z" fill="url(#linear-gradient)"/>
            <path id="Path_39" data-name="Path 39" d="M543.318,342.722c-1.415-1.928-10.871-2.109-10.871-2.109,0,1.627,3.666,5.123,4.888,7.172.64,1.073,2.072,6.181,3.639,10.988a30.823,30.823,0,0,0,7.416-1.637C546.427,350.888,544.09,343.774,543.318,342.722Z" fill="#ffdf69"/>
          </g>
        </g>
        <path id="Path_40" data-name="Path 40" d="M524.661,375.808H492.381V373.13h29.591a2.683,2.683,0,0,1,2.689,2.679Z" fill="#ced8f4"/>
        <path id="Rectangle_6" data-name="Rectangle 6" d="M7.683,0H25.543a7.683,7.683,0,0,1,7.683,7.683V23.143a0,0,0,0,1,0,0H0a0,0,0,0,1,0,0V7.683A7.683,7.683,0,0,1,7.683,0Z" transform="translate(479.599 352.678)" fill="#f7f7f7"/>
        <path id="Path_41" data-name="Path 41" d="M499.463,364.351a3.168,3.168,0,0,1-6.336,0c0-1.743,1.419-1.531,3.168-1.531S499.463,362.608,499.463,364.351Z" fill="#ced8f4"/>
        <g id="Group_25" data-name="Group 25">
          <rect id="Rectangle_7" data-name="Rectangle 7" width="29.269" height="1.025" rx="0.512" transform="translate(405.927 374.748)" fill="#c0c5ce"/>
          <rect id="Rectangle_8" data-name="Rectangle 8" width="29.269" height="1.025" rx="0.512" transform="translate(407.647 373.754)" fill="#f7f7f7"/>
          <path id="Path_42" data-name="Path 42" d="M438.219,373.7H409.98a.514.514,0,0,1-.515-.513h0c0-.283.23-.513.347-.457h28.24c.45-.056.681.174.681.457h0A.514.514,0,0,1,438.219,373.7Z" fill="#c0c5ce"/>
        </g>
        <g id="Group_28" data-name="Group 28">
          <path id="Path_43" data-name="Path 43" d="M350.613,327.91l-1.976,8.282s3.336,6.115,8.726,2l-.012-6.419Z" fill="url(#linear-gradient-10)"/>
          <path id="Path_44" data-name="Path 44" d="M358.894,317.6c1.705.452,3.719,2.943,2.855,6.3s.526,9.6-3.581,10.044c-4.269.465-8.592-1.58-8.951-7.94S350.648,315.421,358.894,317.6Z" fill="url(#linear-gradient-11)"/>
          <path id="Path_45" data-name="Path 45" d="M349.1,327.451s1.044-.176,1.1-1.968,1.682-.64,1.682-.64.872.924,1.1.172-.008-4.28.978-4.8,6.446,2.128,8.179-2.443c0,0-.175-1.041-.872-.924s-1.1-.171-4.064-.745-7.776.593-8.523,4.642A17.634,17.634,0,0,0,349.1,327.451Z" fill="#051938"/>
          <path id="Path_46" data-name="Path 46" d="M349.854,325.542s-1.1-2.512.575-2.95c1.366-.358,2.616,2.771,1.341,3.7S349.854,325.542,349.854,325.542Z" fill="url(#linear-gradient-12)"/>
          <g id="Group_26" data-name="Group 26">
            <path id="Path_47" data-name="Path 47" d="M356.732,328.086a2.328,2.328,0,1,1,2.338-2.328A2.335,2.335,0,0,1,356.732,328.086Zm0-4.205a1.877,1.877,0,1,0,1.885,1.877A1.883,1.883,0,0,0,356.732,323.881Z" fill="#051938"/>
          </g>
          <g id="Group_27" data-name="Group 27">
            <path id="Path_48" data-name="Path 48" d="M361.977,328.514a2.329,2.329,0,1,1,2.337-2.328A2.335,2.335,0,0,1,361.977,328.514Zm0-4.205a1.877,1.877,0,1,0,1.884,1.877A1.882,1.882,0,0,0,361.977,324.309Z" fill="#051938"/>
          </g>
          <path id="Path_49" data-name="Path 49" d="M353.8,328.988a5.353,5.353,0,0,0,3.991,1.138.308.308,0,0,1,.186.566c-1.219.789-3.377,1.6-4.5-1.476A.207.207,0,0,1,353.8,328.988Z" fill="#f7f7f7"/>
        </g>
        <g id="Group_29" data-name="Group 29">
          <path id="Path_50" data-name="Path 50" d="M527.472,343.249l-1.462-4.171s-4,1.573-5.761-1.206-2.606-6.982-2.165-8.81,7.668-5.776,10.713-1.9,2.275,9.725,2.275,9.725l1.824,4.67s-2.327,8.388-4.125,8.388S527.472,343.249,527.472,343.249Z" fill="url(#linear-gradient)"/>
          <path id="Path_51" data-name="Path 51" d="M522.739,328.346s-.325,3.457,4.114,3.64c0,0,2.149,5.816,5.378,6.511s2.363.471,2.363.471a27.406,27.406,0,0,1-2.036-6.792c-.55-3.655-1.347-10.339-8.414-9.423a6.661,6.661,0,0,0-6.395,2.137c-3.083,3.145-1.15,6.251-.782,7.713C516.968,332.6,522.3,331.2,522.739,328.346Z" fill="#051938"/>
          <path id="Path_52" data-name="Path 52" d="M526.445,332.635s-.678-2.436,1.009-2.582,2.018,2.34,0,3.765Z" fill="url(#linear-gradient-14)"/>
          <path id="Path_53" data-name="Path 53" d="M520.269,336.522a.359.359,0,0,1,.187-.551,11.667,11.667,0,0,0,3.667-1.669c.819-.863,1.016,2.544-.917,3.407C521.791,338.343,520.732,337.185,520.269,336.522Z" fill="#f7f7f7"/>
        </g>
        <g id="Group_32" data-name="Group 32">
          <path id="Path_54" data-name="Path 54" d="M334.681,343.784s-9.936,25.923-8.07,30.6,10.358,2.448,12.255-7.5,5.508-22.946,5.508-22.946.051-3.932-3.9-3.984S334.681,343.784,334.681,343.784Z" fill="url(#linear-gradient-15)"/>
          <g id="Group_31" data-name="Group 31">
            <rect id="Rectangle_9" data-name="Rectangle 9" width="7.714" height="10.042" rx="1.313" transform="matrix(-1, -0.005, 0.005, -1, 374.851, 353.814)" fill="#f7f7f7"/>
            <g id="Group_30" data-name="Group 30">
              <path id="Path_55" data-name="Path 55" d="M363.648,349.648l.007-1.449a2.96,2.96,0,0,1,5.92.027l-.007,1.449a2.96,2.96,0,0,1-5.92-.027Zm1.327-1.444-.006,1.449a1.639,1.639,0,0,0,3.278.015l.006-1.449a1.639,1.639,0,0,0-3.278-.015Z" fill="#f7f7f7"/>
            </g>
          </g>
          <path id="Path_56" data-name="Path 56" d="M329.5,366.576l27.03-16.512s9.655-5.7,9.949-2.887c0,0,1.445,4.072-2.438,5.434s-6.276,2.584-10.423,6.468-16.77,16.3-21.2,17.217S323.407,371.141,329.5,366.576Z" fill="url(#linear-gradient-16)"/>
          <path id="Path_57" data-name="Path 57" d="M341.283,336.254c-2.555-.266-5.629.588-7.853,10.357l10.446,1.9S347.843,336.937,341.283,336.254Z" fill="url(#linear-gradient-17)"/>
        </g>
        <g id="Group_33" data-name="Group 33">
          <path id="Path_58" data-name="Path 58" d="M576.2,425.643h-4.074V386.18a6.361,6.361,0,0,0-6.365-6.343H307.437a6.362,6.362,0,0,0-6.367,6.343v39.463H297V386.18a10.433,10.433,0,0,1,10.441-10.4H565.762a10.433,10.433,0,0,1,10.44,10.4Z" fill="#434c60"/>
        </g>
      </g>
    </g>
  </g>
</svg>
