<svg xmlns="http://www.w3.org/2000/svg" width="109.434" height="29.185" viewBox="0 0 109.434 29.185">
  <g id="Appstore2" transform="translate(-12.795 -6.219)">
    <path id="Path_2173" data-name="Path 2173" d="M68.541,38.446A5.8,5.8,0,0,1,71.3,33.58a5.941,5.941,0,0,0-4.679-2.529c-1.968-.207-3.877,1.177-4.88,1.177-1.023,0-2.566-1.157-4.23-1.123a6.229,6.229,0,0,0-5.243,3.2C50,38.229,51.692,44,53.868,47.168c1.087,1.554,2.356,3.288,4.018,3.227,1.626-.066,2.233-1.035,4.2-1.035,1.944,0,2.514,1.035,4.209,1,1.745-.027,2.844-1.56,3.892-3.128a12.821,12.821,0,0,0,1.78-3.624,5.61,5.61,0,0,1-3.426-5.162Zm-3.2-9.481a5.706,5.706,0,0,0,1.307-4.09,5.816,5.816,0,0,0-3.76,1.945,5.431,5.431,0,0,0-1.341,3.939,4.8,4.8,0,0,0,3.794-1.793Z" transform="translate(-38.396 -18.656)"/>
    <g id="Group_88" data-name="Group 88" transform="translate(42.453 18.004)">
      <path id="Path_2175" data-name="Path 2175" d="M181.053,85.525H178.78l-1.245-3.91h-4.326l-1.186,3.91h-2.212L174.1,72.213h2.647Zm-3.892-5.551L176.035,76.5q-.179-.533-.671-2.508h-.04q-.2.849-.632,2.508l-1.107,3.476Zm14.9.633a5.435,5.435,0,0,1-1.331,3.87,3.9,3.9,0,0,1-2.96,1.264,2.963,2.963,0,0,1-2.741-1.361v5.036H182.9V79.081q0-1.538-.079-3.155H184.7l.119,1.521h.04a3.8,3.8,0,0,1,6.074-.377,5.307,5.307,0,0,1,1.135,3.537Zm-2.173.078a3.956,3.956,0,0,0-.632-2.312,2.186,2.186,0,0,0-1.857-.947,2.219,2.219,0,0,0-1.432.523,2.426,2.426,0,0,0-.839,1.373,2.784,2.784,0,0,0-.1.649v1.6a2.568,2.568,0,0,0,.642,1.768,2.133,2.133,0,0,0,1.669.721,2.186,2.186,0,0,0,1.876-.928,4.085,4.085,0,0,0,.668-2.447Zm13.216-.078a5.435,5.435,0,0,1-1.331,3.87,3.9,3.9,0,0,1-2.961,1.264,2.963,2.963,0,0,1-2.741-1.361v5.036h-2.133V79.081q0-1.538-.079-3.155h1.876l.119,1.521h.04a3.8,3.8,0,0,1,6.075-.377,5.312,5.312,0,0,1,1.135,3.537Zm-2.174.078a3.957,3.957,0,0,0-.633-2.312,2.182,2.182,0,0,0-1.855-.947,2.228,2.228,0,0,0-1.434.523,2.425,2.425,0,0,0-.838,1.373,2.85,2.85,0,0,0-.1.649v1.6a2.576,2.576,0,0,0,.641,1.768,2.137,2.137,0,0,0,1.671.721,2.184,2.184,0,0,0,1.876-.928,4.085,4.085,0,0,0,.667-2.447Zm14.521,1.105a3.555,3.555,0,0,1-1.184,2.766,5.247,5.247,0,0,1-3.627,1.165,6.332,6.332,0,0,1-3.448-.829l.493-1.777a5.936,5.936,0,0,0,3.082.83,2.908,2.908,0,0,0,1.876-.543,1.774,1.774,0,0,0,.673-1.45,1.859,1.859,0,0,0-.554-1.363,5.139,5.139,0,0,0-1.837-1.026q-3.5-1.3-3.5-3.813a3.366,3.366,0,0,1,1.235-2.686,4.883,4.883,0,0,1,3.27-1.047,6.463,6.463,0,0,1,3.023.632l-.535,1.738a5.286,5.286,0,0,0-2.558-.612,2.6,2.6,0,0,0-1.765.553,1.583,1.583,0,0,0-.535,1.206,1.63,1.63,0,0,0,.613,1.3,6.91,6.91,0,0,0,1.935,1.026,6.56,6.56,0,0,1,2.528,1.618,3.373,3.373,0,0,1,.813,2.309Zm7.071-4.264h-2.351v4.66q0,1.778,1.245,1.776a3.748,3.748,0,0,0,.948-.1l.059,1.619a4.834,4.834,0,0,1-1.659.236,2.557,2.557,0,0,1-1.976-.771,3.781,3.781,0,0,1-.711-2.588V77.522h-1.4v-1.6h1.4V74.164l2.1-.632v2.39h2.351Zm10.588,3.12a5.265,5.265,0,0,1-1.265,3.634,4.509,4.509,0,0,1-3.516,1.461,4.3,4.3,0,0,1-3.369-1.4,5.1,5.1,0,0,1-1.255-3.535,5.222,5.222,0,0,1,1.3-3.653,4.485,4.485,0,0,1,3.488-1.422,4.388,4.388,0,0,1,3.4,1.4,5.038,5.038,0,0,1,1.213,3.515Zm-2.21.054a4.3,4.3,0,0,0-.571-2.265,2.112,2.112,0,0,0-1.917-1.143,2.142,2.142,0,0,0-1.956,1.143,4.368,4.368,0,0,0-.572,2.3A4.285,4.285,0,0,0,226.45,83a2.188,2.188,0,0,0,3.855-.019,4.314,4.314,0,0,0,.59-2.281Zm9.148-2.894a3.714,3.714,0,0,0-.672-.059,2.013,2.013,0,0,0-1.739.85,3.2,3.2,0,0,0-.532,1.9v5.036h-2.133V78.949q0-1.511-.062-3.022h1.858l.078,1.837h.059a3.293,3.293,0,0,1,1.067-1.521,2.58,2.58,0,0,1,1.542-.514,3.427,3.427,0,0,1,.533.039Zm9.54,2.47a5,5,0,0,1-.078.967h-6.4a2.783,2.783,0,0,0,.929,2.175,3.175,3.175,0,0,0,2.093.67,7.08,7.08,0,0,0,2.589-.453l.334,1.479a8.007,8.007,0,0,1-3.219.593,4.667,4.667,0,0,1-3.508-1.312,4.852,4.852,0,0,1-1.274-3.525,5.5,5.5,0,0,1,1.187-3.613,4.088,4.088,0,0,1,3.357-1.539,3.578,3.578,0,0,1,3.143,1.539,5.179,5.179,0,0,1,.842,3.019Zm-2.034-.553a2.887,2.887,0,0,0-.414-1.639,1.863,1.863,0,0,0-1.7-.89,2.023,2.023,0,0,0-1.7.869,3.185,3.185,0,0,0-.631,1.658Z" transform="translate(-169.812 -72.016)"/>
    </g>
    <g id="Group_89" data-name="Group 89" transform="translate(43.702 6.555)">
      <path id="Path_2176" data-name="Path 2176" d="M176.34,33.159a13.625,13.625,0,0,1-1.534-.078V26.645a11.615,11.615,0,0,1,1.806-.136c2.446,0,3.573,1.2,3.573,3.165C180.185,31.937,178.855,33.159,176.34,33.159Zm.358-5.825a4.281,4.281,0,0,0-.844.068v4.892a5.536,5.536,0,0,0,.708.029,2.318,2.318,0,0,0,2.515-2.621,2.135,2.135,0,0,0-2.377-2.367Zm7,5.874a2.245,2.245,0,0,1-2.272-2.427,2.3,2.3,0,0,1,2.35-2.495,2.228,2.228,0,0,1,2.272,2.418,2.311,2.311,0,0,1-2.35,2.5Zm.04-4.155c-.757,0-1.243.708-1.243,1.7,0,.971.5,1.679,1.233,1.679s1.233-.757,1.233-1.7c0-.961-.487-1.679-1.225-1.679Zm10.173-.669L192.433,33.1h-.962l-.611-2.049a15.519,15.519,0,0,1-.379-1.523h-.02a10.216,10.216,0,0,1-.378,1.523l-.65,2.049h-.972l-1.389-4.717h1.078l.534,2.243q.189.8.32,1.514h.02a14.216,14.216,0,0,1,.388-1.5l.67-2.252h.854l.641,2.2c.155.534.281,1.058.379,1.553h.028a13.575,13.575,0,0,1,.32-1.553l.573-2.2h1.03Zm5.433,4.717h-1.049V30.392c0-.834-.32-1.252-.952-1.252a1.089,1.089,0,0,0-1.049,1.155V33.1h-1.049V29.732c0-.417-.01-.864-.039-1.349h.922l.049.728h.029a1.7,1.7,0,0,1,1.5-.824c.991,0,1.641.757,1.641,1.99Zm2.892,0h-1.05V26.219h1.05Zm3.823.107a2.246,2.246,0,0,1-2.272-2.427,2.3,2.3,0,0,1,2.349-2.5,2.227,2.227,0,0,1,2.272,2.418,2.311,2.311,0,0,1-2.349,2.5Zm.039-4.155c-.757,0-1.243.708-1.243,1.7,0,.971.5,1.679,1.232,1.679s1.233-.757,1.233-1.7c0-.96-.483-1.678-1.222-1.678ZM212.54,33.1l-.076-.543h-.028a1.611,1.611,0,0,1-1.38.65,1.372,1.372,0,0,1-1.446-1.388c0-1.164,1.01-1.766,2.757-1.766v-.087c0-.621-.329-.932-.98-.932a2.208,2.208,0,0,0-1.233.35l-.213-.689a3.017,3.017,0,0,1,1.62-.408c1.233,0,1.855.65,1.855,1.952v1.737a7.117,7.117,0,0,0,.068,1.126h-.946Zm-.144-2.35c-1.165,0-1.749.282-1.749.951a.668.668,0,0,0,.719.737,1,1,0,0,0,1.03-.96Zm6.113,2.35-.049-.757h-.029a1.582,1.582,0,0,1-1.515.864,2.15,2.15,0,0,1-1.98-2.408A2.238,2.238,0,0,1,217,28.286a1.418,1.418,0,0,1,1.331.641h.021V26.219h1.05V31.83c0,.456.011.883.039,1.271h-.934Zm-.155-2.776a1.141,1.141,0,0,0-1.1-1.223c-.777,0-1.253.689-1.253,1.659,0,.951.493,1.6,1.232,1.6a1.177,1.177,0,0,0,1.126-1.252v-.786Zm7.7,2.883a2.245,2.245,0,0,1-2.271-2.427,2.3,2.3,0,0,1,2.349-2.5A2.227,2.227,0,0,1,228.4,30.7a2.31,2.31,0,0,1-2.35,2.5Zm.039-4.155c-.756,0-1.242.708-1.242,1.7,0,.971.5,1.679,1.232,1.679s1.233-.757,1.233-1.7c.006-.96-.48-1.678-1.216-1.678Zm7.95,4.048H233V30.392c0-.834-.32-1.252-.952-1.252A1.088,1.088,0,0,0,231,30.3v2.8h-1.05V29.732c0-.417-.01-.864-.039-1.349h.923l.049.728h.029a1.694,1.694,0,0,1,1.495-.825c.991,0,1.642.757,1.642,1.99Zm7.057-3.93h-1.154v2.291c0,.583.2.874.61.874a2.065,2.065,0,0,0,.465-.049l.029.8a2.323,2.323,0,0,1-.813.117c-.826,0-1.321-.456-1.321-1.65V29.17h-.688v-.786h.688V27.52l1.03-.311v1.174H241.1Zm5.551,3.931H245.6V30.412c0-.844-.319-1.271-.952-1.271a1.028,1.028,0,0,0-1.05,1.116V33.1H242.55V26.219h1.05v2.834h.021a1.591,1.591,0,0,1,1.419-.767c1,0,1.609.776,1.609,2.01v2.8Zm5.687-2.107h-3.147a1.354,1.354,0,0,0,1.487,1.4,3.544,3.544,0,0,0,1.272-.223l.163.728a3.94,3.94,0,0,1-1.583.291,2.19,2.19,0,0,1-2.349-2.378,2.3,2.3,0,0,1,2.231-2.534,1.981,1.981,0,0,1,1.962,2.243,2.02,2.02,0,0,1-.036.475Zm-.962-.747c0-.728-.367-1.242-1.038-1.242a1.244,1.244,0,0,0-1.147,1.242h2.184Z" transform="translate(-174.806 -26.219)"/>
    </g>
  </g>
</svg>
