<svg xmlns="http://www.w3.org/2000/svg" width="29" height="29" viewBox="0 0 29 29">
  <g id="circle-linkedin" transform="translate(-4.301 -48)">
    <g id="Group_11" data-name="Group 11">
      <g id="Group_9" data-name="Group 9">
        <g id="Group_8" data-name="Group 8">
          <circle id="Ellipse_2" data-name="Ellipse 2" cx="14.5" cy="14.5" r="14.5" transform="translate(4.301 48)" fill="#f2f2f2"/>
        </g>
      </g>
      <g id="Group_10" data-name="Group 10">
        <path id="Path_5" data-name="Path 5" d="M26.3,69h0V63.5c0-2.691-.58-4.764-3.726-4.764a3.266,3.266,0,0,0-2.942,1.617H19.59V58.985H16.607V69h3.106V64.04c0-1.305.248-2.568,1.865-2.568,1.593,0,1.617,1.49,1.617,2.652V69Z" fill="#0077b5"/>
        <path id="Path_6" data-name="Path 6" d="M11.549,58.986h3.11V69h-3.11Z" fill="#0077b5"/>
        <path id="Path_7" data-name="Path 7" d="M13.1,54a1.81,1.81,0,1,0,1.8,1.8A1.8,1.8,0,0,0,13.1,54Z" fill="#0077b5"/>
      </g>
    </g>
  </g>
</svg>
