<svg xmlns="http://www.w3.org/2000/svg" width="29" height="29" viewBox="0 0 29 29">
  <g id="circle-twitter" transform="translate(-52.107 -88.697)">
    <g id="Group_22" data-name="Group 22">
      <g id="Group_21" data-name="Group 21">
        <g id="Group_20" data-name="Group 20">
          <circle id="Ellipse_6" data-name="Ellipse 6" cx="14.5" cy="14.5" r="14.5" transform="translate(52.107 88.697)" fill="#f2f2f2"/>
        </g>
      </g>
      <path id="Path_21" data-name="Path 21" d="M73.767,98.474a5.68,5.68,0,0,1-.726.264,3.207,3.207,0,0,0,.653-1.148.242.242,0,0,0-.354-.282,5.7,5.7,0,0,1-1.687.667,3.221,3.221,0,0,0-5.474,2.3,3.288,3.288,0,0,0,.026.416,8.245,8.245,0,0,1-5.658-3,.242.242,0,0,0-.4.031,3.224,3.224,0,0,0,.33,3.706,2.737,2.737,0,0,1-.431-.192.242.242,0,0,0-.36.206c0,.014,0,.028,0,.043a3.231,3.231,0,0,0,1.576,2.769c-.082-.008-.164-.02-.245-.035a.242.242,0,0,0-.276.312,3.219,3.219,0,0,0,2.359,2.158,5.694,5.694,0,0,1-3.045.869,5.841,5.841,0,0,1-.682-.04.242.242,0,0,0-.159.444,8.683,8.683,0,0,0,4.7,1.377,8.354,8.354,0,0,0,6.472-2.843,9.01,9.01,0,0,0,2.243-5.872c0-.089,0-.178,0-.267a6.261,6.261,0,0,0,1.441-1.526.242.242,0,0,0-.3-.356Z" fill="#73a1fb"/>
    </g>
  </g>
</svg>
