<svg xmlns="http://www.w3.org/2000/svg" viewBox="0 0 20 23.49"><defs><style>.cls-1{fill:#858585;}</style></defs><g id="Layer_2" data-name="Layer 2"><g id="Calque_1" data-name="Calque 1"><g id="surface1"><path class="cls-1" d="M10,7.27a4.48,4.48,0,1,0,4.47,4.47A4.48,4.48,0,0,0,10,7.27Zm2.66,3.63L9.45,14.11a.69.69,0,0,1-1,0L7.25,12.88a.68.68,0,0,1,0-1,.69.69,0,0,1,1,0l.73.74,2.72-2.72a.69.69,0,0,1,1,0A.68.68,0,0,1,12.66,10.9Z"/><path class="cls-1" d="M20,6.37v0c0-.22,0-.46,0-.73a2.47,2.47,0,0,0-2.34-2.43A9.64,9.64,0,0,1,11,.41h0a1.51,1.51,0,0,0-2,0H9A9.64,9.64,0,0,1,2.39,3.19,2.47,2.47,0,0,0,.05,5.62c0,.27,0,.51,0,.73V6.4c0,2.75-.11,6.18,1,9.29a11.84,11.84,0,0,0,2.84,4.42,14.9,14.9,0,0,0,5.55,3.28,1,1,0,0,0,.23.06,1.38,1.38,0,0,0,.66,0,.86.86,0,0,0,.23-.06,15,15,0,0,0,5.55-3.28,11.86,11.86,0,0,0,2.83-4.43C20.09,12.56,20,9.13,20,6.37ZM10,17.6a5.86,5.86,0,1,1,5.85-5.86A5.86,5.86,0,0,1,10,17.6Z"/></g></g></g></svg>