<svg xmlns="http://www.w3.org/2000/svg" viewBox="0 0 20 13.1"><defs><style>.cls-1{fill:#858585;}</style></defs><g id="Layer_2" data-name="Layer 2"><g id="Capa_1" data-name="Capa 1"><path class="cls-1" d="M16.83,0H3.15A3.18,3.18,0,0,0,1,.71l.77.5L7.67,5a.46.46,0,0,1,.15.09L10,6.51l8.23-5.3L19,.71A3.33,3.33,0,0,0,16.83,0Z"/><path class="cls-1" d="M1.19,1.84.47,1.37A3.55,3.55,0,0,0,0,3.14v6.8a3.42,3.42,0,0,0,.63,2l.61-.63L6.85,5.52Z"/><path class="cls-1" d="M18.14,11.92,12.42,6,10.24,7.4l-.08,0H9.88l-.1,0L7.61,6,1.86,11.94l-.61.63a3.2,3.2,0,0,0,1.9.52h13.7a3.34,3.34,0,0,0,1.89-.55Z"/><path class="cls-1" d="M20,9.94V3.15a3.37,3.37,0,0,0-.45-1.78l-.73.47L13.17,5.5l5.6,5.83.61.64A3.21,3.21,0,0,0,20,9.94Z"/></g></g></svg>