<svg xmlns="http://www.w3.org/2000/svg" width="24.999" height="34" viewBox="0 0 24.999 34">
  <g id="apprentice" transform="translate(-457.509)">
    <g id="Group_25" data-name="Group 25">
      <g id="Group_24" data-name="Group 24">
        <path id="Path_52" data-name="Path 52" d="M475.806,24.143h-.066l-1.434-.054-1.065.961a1.813,1.813,0,0,1-1.214.467,1.789,1.789,0,0,1-.685-.134l-1.329-.543-1.33.543a1.786,1.786,0,0,1-.685.134,1.809,1.809,0,0,1-1.213-.467l-1.066-.961-1.434.054h-.065a1.8,1.8,0,0,1-1.6-.965l-.67-1.27-.054-.018v11.2a.9.9,0,0,0,1.311.807l6.406-3.212a.921.921,0,0,1,.815,0L476.82,33.9a.9.9,0,0,0,1.312-.807v-11.2l-.055.018-.67,1.269A1.8,1.8,0,0,1,475.806,24.143Z" fill="#405A98"/>
        <path id="Path_53" data-name="Path 53" d="M482.37,12.79a.9.9,0,0,0,0-.962l-.764-1.215a.908.908,0,0,1-.12-.67l.3-1.4a.906.906,0,0,0-.33-.9l-1.134-.879a.908.908,0,0,1-.341-.59l-.2-1.422a.912.912,0,0,0-.619-.738L477.8,3.566a.906.906,0,0,1-.522-.437l-.67-1.27a.906.906,0,0,0-.8-.481h-.032l-1.435.055h-.033A.9.9,0,0,1,473.7,1.2L472.636.235A.92.92,0,0,0,472.027,0a.86.86,0,0,0-.341.069l-1.329.542a.916.916,0,0,1-.341.069.852.852,0,0,1-.34-.069l-1.33-.542a.939.939,0,0,0-.34-.069.9.9,0,0,0-.609.235l-1.065.962a.905.905,0,0,1-.609.236h-.033l-1.434-.055h-.033a.9.9,0,0,0-.8.481l-.671,1.27a.89.89,0,0,1-.521.437l-1.366.441a.906.906,0,0,0-.62.738l-.2,1.422a.907.907,0,0,1-.341.59l-1.148.879a.906.906,0,0,0-.33.9l.305,1.4a.892.892,0,0,1-.12.67l-.764,1.215a.9.9,0,0,0,0,.962L458.412,14a.906.906,0,0,1,.12.669l-.305,1.4a.906.906,0,0,0,.33.9l1.134.879a.908.908,0,0,1,.341.59l.2,1.421a.909.909,0,0,0,.619.738l1.036.333.334.108a.906.906,0,0,1,.521.438l.671,1.269a.9.9,0,0,0,.8.481h.033l1.435-.054h.032a.9.9,0,0,1,.609.235l1.065.962a.919.919,0,0,0,.609.236.852.852,0,0,0,.34-.069l1.33-.543a.93.93,0,0,1,.34-.068.859.859,0,0,1,.341.068l1.33.543a.961.961,0,0,0,.34.069.9.9,0,0,0,.609-.236l1.065-.962a.9.9,0,0,1,.609-.235h.032l1.435.054h.032a.9.9,0,0,0,.8-.481l.67-1.269a.9.9,0,0,1,.522-.438l.333-.108,1.036-.333a.9.9,0,0,0,.62-.738l.2-1.421a.907.907,0,0,1,.341-.59l1.134-.879a.9.9,0,0,0,.329-.9l-.3-1.4A.884.884,0,0,1,481.6,14ZM478.773,16a9.8,9.8,0,0,1-.638,1.245,9.37,9.37,0,0,1-1.4,1.772A9.523,9.523,0,0,1,461.89,17.25,9.127,9.127,0,0,1,461.252,16a9.507,9.507,0,1,1,17.521,0Z" fill="#405A98"/>
        <path id="Path_54" data-name="Path 54" d="M470.009,3.9a8.411,8.411,0,1,0,8.423,8.409A8.416,8.416,0,0,0,470.009,3.9Zm3.75,12.3a.9.9,0,0,1-1.334.972l-2.416-1.367-2.42,1.367a.906.906,0,0,1-1.333-.972l.579-2.728-1.891-1.7-.21-.192a.905.905,0,0,1,.5-1.57l2.754-.336,1.2-2.564a.906.906,0,0,1,1.641,0l1.2,2.564,2.754.336a.9.9,0,0,1,.5,1.57l-.21.192-1.891,1.7Z" fill="#405A98"/>
      </g>
    </g>
  </g>
</svg>
