<svg xmlns="http://www.w3.org/2000/svg" width="15" height="14" viewBox="0 0 15 14">
  <g id="blogger" transform="translate(-82.462 -223.099)">
    <path id="Path_5" data-name="Path 5" d="M95.587,228.349c-.325,0-.625-.1-.625-.8v-.656a4.089,4.089,0,0,0-4.236-3.792H86.351a3.805,3.805,0,0,0-3.889,3.719l0,.073v6.417a3.792,3.792,0,0,0,3.81,3.79l.077,0h6.523c2.616,0,4.588-1.709,4.588-3.974V230.1C97.462,228.791,96.989,228.349,95.587,228.349Zm-8.436-1.75h3.124a.877.877,0,1,1,0,1.75H87.151a.877.877,0,1,1,0-1.75Zm5.624,7H87.151a.877.877,0,1,1,0-1.75h5.624a.877.877,0,1,1,0,1.75Z" fill="#ffc107"/>
  </g>
</svg>
