<svg xmlns="http://www.w3.org/2000/svg" width="13.001" height="12" viewBox="0 0 13.001 12">
  <g id="calender" transform="translate(-186.999 -238)">
    <g id="Vector_Smart_Object" data-name="Vector Smart Object" transform="translate(-472.1 238)">
      <g id="Group_31" data-name="Group 31">
        <g id="Group_2" data-name="Group 2">
          <g id="Group_1" data-name="Group 1">
            <path id="Path_1" data-name="Path 1" d="M670.576.938h-.608V0h-1.017V.938h-6.7V0h-1.017V.938h-.608A1.469,1.469,0,0,0,659.1,2.345v8.249A1.471,1.471,0,0,0,660.624,12h9.953a1.471,1.471,0,0,0,1.524-1.406V2.345A1.469,1.469,0,0,0,670.576.938Zm.507,9.655a.488.488,0,0,1-.507.468h-9.953a.488.488,0,0,1-.507-.468V4.406h10.967Zm0-7.126H660.117V2.345a.49.49,0,0,1,.507-.47h.608v.938h1.017V1.874h6.7v.938h1.017V1.874h.608a.49.49,0,0,1,.507.47Z"/>
          </g>
        </g>
        <g id="Group_4" data-name="Group 4">
          <g id="Group_3" data-name="Group 3">
            <rect id="Rectangle_1" data-name="Rectangle 1" width="1.016" height="0.938" transform="translate(661.03 5.391)"/>
          </g>
        </g>
        <g id="Group_6" data-name="Group 6">
          <g id="Group_5" data-name="Group 5">
            <rect id="Rectangle_2" data-name="Rectangle 2" width="1.016" height="0.938" transform="translate(663.061 5.391)"/>
          </g>
        </g>
        <g id="Group_8" data-name="Group 8">
          <g id="Group_7" data-name="Group 7">
            <rect id="Rectangle_3" data-name="Rectangle 3" width="1.016" height="0.938" transform="translate(665.092 5.391)"/>
          </g>
        </g>
        <g id="Group_10" data-name="Group 10">
          <g id="Group_9" data-name="Group 9">
            <rect id="Rectangle_4" data-name="Rectangle 4" width="1.016" height="0.938" transform="translate(667.123 5.391)"/>
          </g>
        </g>
        <g id="Group_12" data-name="Group 12">
          <g id="Group_11" data-name="Group 11">
            <rect id="Rectangle_5" data-name="Rectangle 5" width="1.016" height="0.938" transform="translate(669.155 5.391)"/>
          </g>
        </g>
        <g id="Group_14" data-name="Group 14">
          <g id="Group_13" data-name="Group 13">
            <rect id="Rectangle_6" data-name="Rectangle 6" width="1.016" height="0.938" transform="translate(661.03 7.266)"/>
          </g>
        </g>
        <g id="Group_16" data-name="Group 16">
          <g id="Group_15" data-name="Group 15">
            <rect id="Rectangle_7" data-name="Rectangle 7" width="1.016" height="0.938" transform="translate(663.061 7.266)"/>
          </g>
        </g>
        <g id="Group_18" data-name="Group 18">
          <g id="Group_17" data-name="Group 17">
            <rect id="Rectangle_8" data-name="Rectangle 8" width="1.016" height="0.938" transform="translate(665.092 7.266)"/>
          </g>
        </g>
        <g id="Group_20" data-name="Group 20">
          <g id="Group_19" data-name="Group 19">
            <rect id="Rectangle_9" data-name="Rectangle 9" width="1.016" height="0.938" transform="translate(667.123 7.266)"/>
          </g>
        </g>
        <g id="Group_22" data-name="Group 22">
          <g id="Group_21" data-name="Group 21">
            <rect id="Rectangle_10" data-name="Rectangle 10" width="1.016" height="0.938" transform="translate(661.03 9.141)"/>
          </g>
        </g>
        <g id="Group_24" data-name="Group 24">
          <g id="Group_23" data-name="Group 23">
            <rect id="Rectangle_11" data-name="Rectangle 11" width="1.016" height="0.938" transform="translate(663.061 9.141)"/>
          </g>
        </g>
        <g id="Group_26" data-name="Group 26">
          <g id="Group_25" data-name="Group 25">
            <rect id="Rectangle_12" data-name="Rectangle 12" width="1.016" height="0.938" transform="translate(665.092 9.141)"/>
          </g>
        </g>
        <g id="Group_28" data-name="Group 28">
          <g id="Group_27" data-name="Group 27">
            <rect id="Rectangle_13" data-name="Rectangle 13" width="1.016" height="0.938" transform="translate(667.123 9.141)"/>
          </g>
        </g>
        <g id="Group_30" data-name="Group 30">
          <g id="Group_29" data-name="Group 29">
            <rect id="Rectangle_14" data-name="Rectangle 14" width="1.016" height="0.938" transform="translate(669.155 7.266)"/>
          </g>
        </g>
      </g>
    </g>
    <path id="Color_Overlay" data-name="Color Overlay" d="M188.523,250A1.47,1.47,0,0,1,187,248.594v-8.249a1.469,1.469,0,0,1,1.524-1.406h.608V238h1.017v.939h6.7V238h1.017v.939h.608A1.469,1.469,0,0,1,200,240.344v8.249A1.47,1.47,0,0,1,198.476,250Zm-.507-1.406a.487.487,0,0,0,.507.468h9.953a.487.487,0,0,0,.507-.468v-6.187H188.016Zm0-8.249v1.123h10.966v-1.123a.489.489,0,0,0-.507-.47h-.608v.938h-1.017v-.938h-6.7v.938h-1.017v-.938h-.608A.489.489,0,0,0,188.016,240.344Zm7.007,7.734v-.938h1.016v.938Zm-2.031,0v-.938h1.016v.938Zm-2.031,0v-.938h1.016v.938Zm-2.031,0v-.938h1.016v.938Zm8.125-1.875v-.938h1.016v.938Zm-2.031,0v-.938h1.016v.938Zm-2.031,0v-.938h1.016v.938Zm-2.031,0v-.938h1.016v.938Zm-2.031,0v-.938h1.016v.938Zm8.125-1.876v-.937h1.016v.937Zm-2.031,0v-.937h1.016v.937Zm-2.031,0v-.937h1.016v.937Zm-2.031,0v-.937h1.016v.937Zm-2.031,0v-.937h1.016v.937Z" fill="#405A98"/>
  </g>
</svg>
