<svg xmlns="http://www.w3.org/2000/svg" width="30" height="30" viewBox="0 0 30 30">
  <g id="circle-website" transform="translate(-61.962 -346)">
    <g id="Group_7" data-name="Group 7">
      <g id="Group_1" data-name="Group 1">
        <circle id="Ellipse_1" data-name="Ellipse 1" cx="15" cy="15" r="15" transform="translate(61.962 346)" fill="#f2f2f2"/>
      </g>
      <g id="Group_6" data-name="Group 6">
        <g id="Group_3" data-name="Group 3">
          <g id="Group_2" data-name="Group 2">
            <path id="Path_1" data-name="Path 1" d="M83.565,359.687a.453.453,0,0,0-.612.195l-.529,1.024-.51-1.019a.455.455,0,0,0-.813,0l-.5,1.005-.5-1.005a.453.453,0,0,0-.434-.25h-.028a.455.455,0,0,0-.413.343.454.454,0,0,0-.847-.094l-.5,1.005-.5-1.005a.455.455,0,0,0-.813,0l-.5,1.005-.5-1.005a.455.455,0,0,0-.848.094.455.455,0,0,0-.413-.343h-.027a.453.453,0,0,0-.434.25l-.5,1.005-.5-1.005a.455.455,0,0,0-.813,0l-.509,1.019-.529-1.024a.455.455,0,0,0-.808.417l.94,1.819a.454.454,0,0,0,.81-.006l.5-1.005.5,1.005a.456.456,0,0,0,.814,0l.847-1.694a.459.459,0,0,0,.124-.216.465.465,0,0,0,.034.092l.909,1.818a.455.455,0,0,0,.813,0l.5-1.005.5,1.005a.456.456,0,0,0,.814,0l.909-1.818a.465.465,0,0,0,.034-.092.451.451,0,0,0,.124.216l.847,1.694a.455.455,0,0,0,.813,0l.5-1.005.5,1.005a.455.455,0,0,0,.811.006l.939-1.819A.453.453,0,0,0,83.565,359.687Z" fill="#233669"/>
          </g>
        </g>
        <g id="Group_5" data-name="Group 5">
          <g id="Group_4" data-name="Group 4">
            <path id="Path_2" data-name="Path 2" d="M84.146,358.07a7.758,7.758,0,0,0-14.368,0,1.36,1.36,0,0,0-.575,1.111v3.637a1.364,1.364,0,0,0,.575,1.112,7.759,7.759,0,0,0,14.368,0,1.366,1.366,0,0,0,.574-1.112v-3.637A1.362,1.362,0,0,0,84.146,358.07Zm-1.121-.253H80.7a8.754,8.754,0,0,0-1.313-3.1c-.04-.055-.081-.109-.122-.162A6.938,6.938,0,0,1,83.025,357.817Zm-5.609-3.591c1.244.418,2.022,2.3,2.349,3.591H77.416Zm-.909,0v3.591H74.159a7.622,7.622,0,0,1,1.115-2.567A2.722,2.722,0,0,1,76.507,354.226Zm-1.849.33c-.041.053-.081.107-.121.162a8.736,8.736,0,0,0-1.314,3.1H70.9A6.936,6.936,0,0,1,74.658,354.556ZM70.9,364.182h2.324a8.559,8.559,0,0,0,1.435,3.261A6.932,6.932,0,0,1,70.9,364.182Zm5.608,3.591c-1.244-.418-2.022-2.3-2.348-3.591h2.348Zm.909,0v-3.6h2.349C79.438,365.468,78.658,367.356,77.416,367.773Zm1.849-.33a8.57,8.57,0,0,0,1.435-3.267h2.325A6.941,6.941,0,0,1,79.265,367.443Zm4.546-4.625a.455.455,0,0,1-.454.455H70.567a.455.455,0,0,1-.455-.455v-3.637a.455.455,0,0,1,.455-.454h12.79a.455.455,0,0,1,.454.454Z" fill="#233669"/>
          </g>
        </g>
      </g>
    </g>
  </g>
</svg>
