<svg xmlns="http://www.w3.org/2000/svg" width="30" height="30" viewBox="0 0 30 30">
  <g id="circle-blogger" transform="translate(-61.962 -15)">
    <g id="Group_12" data-name="Group 12">
      <circle id="Ellipse_3" data-name="Ellipse 3" cx="15" cy="15" r="15" transform="translate(61.962 15)" fill="#f2f2f2"/>
      <path id="Path_10" data-name="Path 10" d="M82.781,28.06c-.336,0-.646-.108-.646-.888v-.728a4.354,4.354,0,0,0-4.383-4.2H73.227A4.074,4.074,0,0,0,69.2,26.364c0,.027,0,.053,0,.08v7.111a4.074,4.074,0,0,0,3.941,4.2h6.828a4.483,4.483,0,0,0,4.746-4.4V30C84.72,28.55,84.231,28.06,82.781,28.06Zm-8.727-1.939h3.232a.969.969,0,1,1,0,1.939H74.054a.969.969,0,1,1,0-1.939Zm5.818,7.758H74.054a.97.97,0,1,1,0-1.94h5.818a.97.97,0,1,1,0,1.94Z" fill="#ffc107"/>
    </g>
  </g>
</svg>
