<svg xmlns="http://www.w3.org/2000/svg" viewBox="0 0 50 47.32"><defs><style>.cls-1{fill:#858585;}</style></defs><title>contact</title><g id="Calque_2" data-name="Calque 2"><g id="Capa_1" data-name="Capa 1"><path class="cls-1" d="M38.08,40.71l-8.42-5.62a.86.86,0,0,0-1.16.19L26,38.43a2.63,2.63,0,0,1-3.37.7l-.45-.25c-1.64-.9-3.68-2-7.72-6.05s-5.16-6.09-6.05-7.72l-.25-.46a2.62,2.62,0,0,1,.69-3.37L12,18.83a.86.86,0,0,0,.19-1.16L6.61,9.24A.85.85,0,0,0,5.45,9L1.93,11.09a3.39,3.39,0,0,0-1.56,2c-1.15,4.22-.18,11.6,11,22.82S30,48.11,34.23,47a3.41,3.41,0,0,0,2-1.55l2.12-3.53A.86.86,0,0,0,38.08,40.71Z"/><path class="cls-1" d="M49.86.14A.5.5,0,0,0,49.51,0H12.09a.5.5,0,0,0-.35.14.5.5,0,0,0-.14.35v13l2.12,3.19a2.66,2.66,0,0,1-.58,3.56L10,22.69a.85.85,0,0,0-.23,1.09l.26.47a22.65,22.65,0,0,0,3,4.35H49.51a.49.49,0,0,0,.49-.48V.49A.5.5,0,0,0,49.86.14ZM24.48,16.38h0l-9.14,9.8a.91.91,0,0,1-1.27.05A.9.9,0,0,1,14,25l9.15-9.79a.9.9,0,0,1,1.26-.05A.89.89,0,0,1,24.48,16.38Zm6.32-.7A3,3,0,0,1,29,15.09L14.09,3.77a.89.89,0,1,1,1.08-1.42L30.09,13.67a1.23,1.23,0,0,0,1.42,0L46.43,2.35a.89.89,0,0,1,1.08,1.42L32.59,15.09A3,3,0,0,1,30.8,15.68ZM47.58,26.22a.84.84,0,0,1-.64.24.86.86,0,0,1-.62-.28l-9.15-9.8a.89.89,0,0,1,1.31-1.21L47.63,25A.9.9,0,0,1,47.58,26.22Z"/></g></g></svg>