<svg xmlns="http://www.w3.org/2000/svg" viewBox="0 0 89.5 89.5"><defs><style>.cls-1{fill:#f5ce3a;}.cls-2{fill:#fff;}</style></defs><g id="Layer_2" data-name="Layer 2"><g id="Capa_1" data-name="Capa 1"><circle class="cls-1" cx="44.75" cy="44.75" r="44.75"/><path class="cls-2" d="M46.05,38.66a4.8,4.8,0,1,0,4.8,4.8A4.79,4.79,0,0,0,46.05,38.66Zm0,7.31a2.51,2.51,0,0,1,0-5h0a2.51,2.51,0,1,1,0,5Z"/><path class="cls-2" d="M65.18,27.7,34,24.16a4.29,4.29,0,0,0-3.37,1,4.38,4.38,0,0,0-1.66,3l-.57,4.68H26.64a4.59,4.59,0,0,0-4.39,4.74V60.87a4.32,4.32,0,0,0,4.22,4.45H58a4.69,4.69,0,0,0,4.79-4.46V60A5.57,5.57,0,0,0,65,59,4.71,4.71,0,0,0,66.61,56l2.62-23.18A4.61,4.61,0,0,0,65.18,27.7ZM60.5,60.87A2.4,2.4,0,0,1,58,63H26.64a2.05,2.05,0,0,1-2.11-2,1.08,1.08,0,0,1,0-.18V56.65l8.85-6.51a2.73,2.73,0,0,1,3.54.17l6.22,5.48a5.42,5.42,0,0,0,3.37,1.26,5.19,5.19,0,0,0,2.74-.75L60.5,49.8V60.87Zm0-13.76L48.05,54.36a2.91,2.91,0,0,1-3.37-.28L38.4,48.54a5.07,5.07,0,0,0-6.33-.23l-7.54,5.48V37.52a2.31,2.31,0,0,1,2.11-2.46H58a2.64,2.64,0,0,1,2.51,2.46v9.59ZM67,32.47v0L64.27,55.68a1.94,1.94,0,0,1-.75,1.54c-.22.23-.74.34-.74.45V37.52A4.91,4.91,0,0,0,58,32.78H30.7l.51-4.45a2.61,2.61,0,0,1,.86-1.49,2.65,2.65,0,0,1,1.71-.45L64.9,30A2.29,2.29,0,0,1,67,32.47Z"/></g></g></svg>