<svg xmlns="http://www.w3.org/2000/svg" xmlns:xlink="http://www.w3.org/1999/xlink" width="49.929" height="38.159" viewBox="0 0 49.929 38.159">
  <defs>
    <linearGradient id="linear-gradient" y1="0.5" x2="1" y2="0.5" gradientUnits="objectBoundingBox">
      <stop offset="0" stop-color="#ff8f42"/>
      <stop offset="1" stop-color="#dd3191"/>
    </linearGradient>
  </defs>
  <g id="follow" transform="translate(-1840.458 -2372.418)">
    <line id="Line_1" data-name="Line 1" y1="17" x2="20" transform="translate(1865.5 2376.5)" fill="none" stroke="#707070" stroke-width="2"/>
    <line id="Line_4" data-name="Line 4" y1="17" x2="20" transform="translate(1848.5 2389.5)" fill="none" stroke="#707070" stroke-width="2"/>
    <line id="Line_2" data-name="Line 2" x2="20" y2="17" transform="translate(1845.5 2376.5)" fill="none" stroke="#707070" stroke-width="2"/>
    <line id="Line_3" data-name="Line 3" x2="20" y2="9" transform="translate(1865.5 2393.5)" fill="none" stroke="#707070" stroke-width="2"/>
    <circle id="Ellipse_14" data-name="Ellipse 14" cx="9" cy="9" r="9" transform="translate(1857 2384)" fill="#858585"/>
    <g id="circle-facebook" transform="translate(1763.78 2324.5)">
      <g id="Group_16" data-name="Group 16" transform="translate(78.36 48)">
        <g id="Group_14" data-name="Group 14">
          <g id="Group_13" data-name="Group 13">
            <circle id="Ellipse_4" data-name="Ellipse 4" cx="7.25" cy="7.25" r="7.25" fill="#f2f2f2"/>
          </g>
        </g>
        <g id="Group_15" data-name="Group 15" transform="translate(5.356 3.5)">
          <path id="Path_15" data-name="Path 15" d="M89.193,58.994h.822v3.384a.121.121,0,0,0,.121.121H91.53a.121.121,0,0,0,.121-.121V59.01H92.6a.121.121,0,0,0,.12-.107l.143-1.246a.121.121,0,0,0-.12-.135H91.651v-.781c0-.236.127-.355.377-.355h.712a.121.121,0,0,0,.121-.121V55.122A.121.121,0,0,0,92.739,55H91.714a1.88,1.88,0,0,0-1.229.463,1.289,1.289,0,0,0-.428,1.146v.914h-.863a.121.121,0,0,0-.121.121v1.23a.121.121,0,0,0,.121.121Z" transform="translate(-89.072 -55)" fill="#3b5998"/>
        </g>
      </g>
    </g>
    <g id="circle-instagram" transform="translate(1875.42 2372.418)">
      <g id="Group_19" data-name="Group 19" transform="translate(0 0)">
        <circle id="Ellipse_5" data-name="Ellipse 5" cx="7.213" cy="7.213" r="7.213" fill="#f2f2f2"/>
        <g id="Group_18" data-name="Group 18" transform="translate(3.483 3.482)">
          <g id="Group_17" data-name="Group 17">
            <path id="Path_16" data-name="Path 16" d="M60.086,33.69a1.975,1.975,0,1,0,1.975,1.975,1.975,1.975,0,0,0-1.975-1.975Zm0,3.513a1.538,1.538,0,1,1,1.538-1.538A1.538,1.538,0,0,1,60.086,37.2Z" transform="translate(-56.355 -31.934)" fill="url(#linear-gradient)"/>
            <path id="Path_17" data-name="Path 17" d="M61.291,30.912a2.542,2.542,0,0,0-1.808-.752H57.141a2.567,2.567,0,0,0-2.56,2.56v2.342a2.567,2.567,0,0,0,2.56,2.56h2.342a2.567,2.567,0,0,0,2.56-2.56V32.72a2.542,2.542,0,0,0-.752-1.808Zm.314,4.15a2.125,2.125,0,0,1-2.123,2.123H57.141a2.125,2.125,0,0,1-2.123-2.123V32.72A2.125,2.125,0,0,1,57.141,30.6h2.342A2.125,2.125,0,0,1,61.6,32.72Z" transform="translate(-54.581 -30.16)" fill="url(#linear-gradient)"/>
          </g>
          <path id="Path_18" data-name="Path 18" d="M65.947,33.133a.219.219,0,1,0,.155.064.219.219,0,0,0-.155-.064Z" transform="translate(-60.183 -31.654)" fill="url(#linear-gradient)"/>
        </g>
      </g>
    </g>
    <g id="circle-linkedin" transform="translate(1875.96 2395)">
      <g id="Group_11" data-name="Group 11" transform="translate(0 0)">
        <g id="Group_9" data-name="Group 9">
          <g id="Group_8" data-name="Group 8">
            <circle id="Ellipse_2" data-name="Ellipse 2" cx="7.213" cy="7.213" r="7.213" fill="#f2f2f2"/>
          </g>
        </g>
        <g id="Group_10" data-name="Group 10" transform="translate(3.472 2.985)">
          <path id="Path_5" data-name="Path 5" d="M21.429,63.841h0V61.1c0-1.339-.289-2.37-1.854-2.37a1.625,1.625,0,0,0-1.464.8h-.021v-.681H16.607v4.982h1.545V61.373c0-.649.123-1.277.928-1.277s.8.741.8,1.319v2.426Z" transform="translate(-13.957 -56.379)" fill="#0077b5"/>
          <path id="Path_6" data-name="Path 6" d="M11.549,58.986H13.1v4.982H11.549Z" transform="translate(-11.415 -56.506)" fill="#0077b5"/>
          <path id="Path_7" data-name="Path 7" d="M12.185,54a.9.9,0,1,0,.9.9.9.9,0,0,0-.9-.9Z" transform="translate(-11.28 -54)" fill="#0077b5"/>
        </g>
      </g>
    </g>
    <g id="circle-twitter" transform="translate(1840.458 2396.151)">
      <g id="Group_22" data-name="Group 22" transform="translate(0 0)">
        <g id="Group_21" data-name="Group 21">
          <g id="Group_20" data-name="Group 20">
            <circle id="Ellipse_6" data-name="Ellipse 6" cx="7.213" cy="7.213" r="7.213" fill="#f2f2f2"/>
          </g>
        </g>
        <path id="Path_21" data-name="Path 21" d="M66.4,97.761a2.827,2.827,0,0,1-.361.131,1.6,1.6,0,0,0,.325-.571.12.12,0,0,0-.176-.14,2.836,2.836,0,0,1-.839.332,1.6,1.6,0,0,0-2.723,1.144,1.636,1.636,0,0,0,.013.207,4.1,4.1,0,0,1-2.815-1.492.12.12,0,0,0-.2.015,1.6,1.6,0,0,0,.164,1.844,1.36,1.36,0,0,1-.214-.1.12.12,0,0,0-.179.1c0,.007,0,.014,0,.021a1.607,1.607,0,0,0,.784,1.377c-.041,0-.082-.01-.122-.017a.12.12,0,0,0-.137.155,1.6,1.6,0,0,0,1.174,1.074,2.833,2.833,0,0,1-1.515.432,2.9,2.9,0,0,1-.339-.02.12.12,0,0,0-.079.221,4.319,4.319,0,0,0,2.338.685,4.156,4.156,0,0,0,3.22-1.414,4.482,4.482,0,0,0,1.116-2.921V98.7a3.115,3.115,0,0,0,.717-.759.12.12,0,0,0-.149-.177Z" transform="translate(-55.623 -92.898)" fill="#73a1fb"/>
      </g>
    </g>
    <text id="Follow-2" data-name="Follow" transform="translate(1866 2395)" fill="#fff" font-size="4.7" font-family="Helvetica-Bold, Helvetica" font-weight="700"><tspan x="-7.44" y="0">Follow</tspan></text>
  </g>
</svg>
