<svg xmlns="http://www.w3.org/2000/svg" width="58.794" height="60" viewBox="0 0 58.794 60">
  <g id="google" transform="translate(-17.646 -14.019)">
    <path id="Path_38" data-name="Path 38" d="M37.845,15.67a30.17,30.17,0,0,0-17,14.885A29.7,29.7,0,0,0,18.235,38.1,30.018,30.018,0,0,0,39.877,73.016a32.1,32.1,0,0,0,15.352.161A26.472,26.472,0,0,0,75.113,54.341a35.227,35.227,0,0,0,.758-15.933H47.65V50.116H64a14.128,14.128,0,0,1-6,9.273A17.183,17.183,0,0,1,51.391,62a19.788,19.788,0,0,1-7.16-.016A17.758,17.758,0,0,1,37.555,59.1a18.547,18.547,0,0,1-6.87-9.208,18.2,18.2,0,0,1,0-11.676,18.735,18.735,0,0,1,4.354-7.079A17.638,17.638,0,0,1,52.81,26.507a16.15,16.15,0,0,1,6.467,3.806L64.792,24.8c.968-.984,1.984-1.935,2.919-2.951a29.25,29.25,0,0,0-9.66-5.983A30.275,30.275,0,0,0,37.845,15.67Z" transform="translate(0 -0.01)" fill="#fff"/>
    <g id="Group_10" data-name="Group 10" transform="translate(20.952 14.019)">
      <path id="Path_39" data-name="Path 39" d="M54.793,15.714a30.471,30.471,0,0,1,20.558.183,29.59,29.59,0,0,1,9.828,6.179c-.952,1.049-1.985,2.032-2.97,3.048L76.6,30.82a16.57,16.57,0,0,0-6.579-3.93,17.759,17.759,0,0,0-8.958-.366,18.164,18.164,0,0,0-9.122,5.146,19.271,19.271,0,0,0-4.43,7.311C44.178,36.349,40.847,33.734,37.5,31.1A30.812,30.812,0,0,1,54.793,15.714Z" transform="translate(-37.5 -14.019)" fill="#ea4335"/>
    </g>
    <g id="Group_11" data-name="Group 11" transform="translate(17.663 30.089)">
      <path id="Path_40" data-name="Path 40" d="M18.359,124.194a30.9,30.9,0,0,1,2.7-7.794c3.381,2.631,6.762,5.246,10.159,7.877a18.687,18.687,0,0,0,0,12.058q-5.071,3.947-10.142,7.877A30.823,30.823,0,0,1,18.359,124.194Z" transform="translate(-17.751 -116.4)" fill="#fbbc05"/>
    </g>
    <g id="Group_12" data-name="Group 12" transform="translate(46.691 37.216)">
      <path id="Path_41" data-name="Path 41" d="M203.617,165.1h29.145a36.638,36.638,0,0,1-.783,16.454,28.145,28.145,0,0,1-7.844,12.857l-9.843-7.644a14.59,14.59,0,0,0,6.2-9.576H203.6Q203.625,171.145,203.617,165.1Z" transform="translate(-203.6 -165.1)" fill="#4285f4"/>
    </g>
    <g id="Group_13" data-name="Group 13" transform="translate(20.952 49.057)">
      <path id="Path_42" data-name="Path 42" d="M37.5,244.077q4.944-3.922,9.889-7.877a19.217,19.217,0,0,0,6.917,9.51,17.765,17.765,0,0,0,6.722,2.981,19.086,19.086,0,0,0,7.209.017,17.053,17.053,0,0,0,6.657-2.7l9.6,7.644a27.025,27.025,0,0,1-12.373,6.6,31.538,31.538,0,0,1-15.458-.167A29.568,29.568,0,0,1,45.684,254.4,31.045,31.045,0,0,1,37.5,244.077Z" transform="translate(-37.5 -236.2)" fill="#34a853"/>
    </g>
  </g>
</svg>
