<svg xmlns="http://www.w3.org/2000/svg" width="15" height="15" viewBox="0 0 15 15">
  <g id="linkedin" transform="translate(-206.544 -239)">
    <g id="Group_3" data-name="Group 3">
      <path id="Path_2" data-name="Path 2" d="M221.54,254h0v-5.5c0-2.691-.579-4.765-3.726-4.765a3.268,3.268,0,0,0-2.942,1.617h-.043v-1.365H211.85V254h3.106V249.04c0-1.3.247-2.568,1.864-2.568,1.593,0,1.617,1.49,1.617,2.652V254Z" fill="#0077b5"/>
      <path id="Path_3" data-name="Path 3" d="M206.791,243.985h3.11V254h-3.11Z" fill="#0077b5"/>
      <path id="Path_4" data-name="Path 4" d="M208.345,239a1.81,1.81,0,1,0,1.8,1.8A1.8,1.8,0,0,0,208.345,239Z" fill="#0077b5"/>
    </g>
  </g>
</svg>
