<svg xmlns="http://www.w3.org/2000/svg" xmlns:xlink="http://www.w3.org/1999/xlink" viewBox="0 0 148.83 144.51"><defs><style>.cls-1{fill:none;}.cls-2{fill:#c5cfea;}.cls-3{clip-path:url(#clip-path);}.cls-4{fill:#f6e1a7;}.cls-5{fill:#ebba86;}.cls-6{fill:#21509b;}.cls-7{fill:#ddac7f;}.cls-8{fill:#1a407e;}.cls-9{fill:#fff;}.cls-10{fill:#5b4842;}</style><clipPath id="clip-path" transform="translate(5.05)"><circle class="cls-1" cx="71.61" cy="72.89" r="70.87"/></clipPath></defs><g id="Layer_2" data-name="Layer 2"><g id="Calque_1" data-name="Calque 1"><circle class="cls-2" cx="76.94" cy="71.89" r="71.89"/><g class="cls-3"><path class="cls-4" d="M108.89,12.08a21.34,21.34,0,0,0-8.07,1.68c-4.44,1.85-8.5,4.48-12.9,6.44l-.71.31-.24.11h0c-.52.22-1,.43-1.57.63-1.1.43-2.21.82-3.32,1.19-1.63.53-3.28,1-4.94,1.36a81,81,0,0,1-14,3.44,60.78,60.78,0,0,1-7.5.47,52.77,52.77,0,0,1-6.28-.36,46.67,46.67,0,0,1-10.45-2.88c-7.29-3.19-14.13-7.69-22-9.39a37.29,37.29,0,0,0-3.76-.62A22.69,22.69,0,0,0,2.38,21.18c-5.73,6.6-7.19,15.71-6.6,24.18.36,5.15,1.35,10.24,2.07,15.35,0,.1.09.64.09.64a1.13,1.13,0,0,1,0-.14,1.26,1.26,0,0,1,0-.21s0,.24,0,.29,0,.37.07.56c.08.65.15,1.29.21,1.94.12,1.2.22,2.41.27,3.62a46,46,0,0,1-.27,7.14s0,.07,0,.11c-.05.23-.07.46-.1.69-.09.58-.19,1.16-.3,1.73-.21,1.11-.45,2.22-.72,3.32-.35,1.43-.74,2.85-1.16,4.27.16.84.3,1.68.43,2.52a49.1,49.1,0,0,1-.07,11.87A82.18,82.18,0,0,0-5,111.35a24.86,24.86,0,0,0,3,12.33c4.16,7.17,12.56,10.38,20.54,10.38h.22a41.62,41.62,0,0,0,6.59-.6,15.49,15.49,0,0,0,7.1,3.26A21.71,21.71,0,0,0,36,137h.57c3.57-.85,7.11-1.87,10.66-2.83,1-.48,2.06-1,3.07-1.54,2.42-1.28,4.8-2.66,7.3-3.78a24.69,24.69,0,0,1,5-1.41,26.57,26.57,0,0,1,2.68-.14,29.84,29.84,0,0,1,3.26.19,47.16,47.16,0,0,1,10.59,3.11c6.91,3,13.38,6.89,20.42,9.59A44.74,44.74,0,0,0,111.17,143c1,.09,1.92.14,2.89.14a25.75,25.75,0,0,0,8.3-1.31,21.39,21.39,0,0,0,9.84-6.75,29.38,29.38,0,0,0,5.36-10.66,44.14,44.14,0,0,0,.91-16.59c-2.8-5.88-6.38-11.42-9.71-17-2.17-3.64-4.3-7.32-6.15-11.14-.46-1-.9-1.9-1.33-2.87,0-.06-.1-.25-.16-.38S121,76.09,121,76c-.2-.5-.4-1-.59-1.52a53.73,53.73,0,0,1-1.82-5.82c-.24-1-.46-2-.63-3,0-.23-.07-.46-.11-.69l0-.21q-.09-.69-.15-1.38a31.09,31.09,0,0,1,.05-6.1l.12-.75c.09-.52.2-1,.31-1.54.21-.95.45-1.9.72-2.84.56-2,1.22-3.89,1.9-5.82,2.65-7.55,5.69-16,2.75-23.92a15.9,15.9,0,0,0-3.35-5.15,16.37,16.37,0,0,0-4.64-3.72,14.92,14.92,0,0,0-6.6-1.45m-22,8.59h0l.11,0-.11,0M16.24,128.28a1.88,1.88,0,0,1,.31-.13h0c-.09,0-.2.07-.29.12Zm88,9.24a.38.38,0,0,1-.17-.06l.18.06h0" transform="translate(5.05)"/><polygon class="cls-5" points="98.6 112.19 103.41 106.13 85.53 101.19 85.53 85.47 72.97 85.47 60.42 85.47 60.42 101.19 42.54 106.13 47.34 112.19 98.6 112.19"/><path class="cls-6" d="M98.36,106.12,84.51,102.3l-7.23,6.77-19.71-1.25-2.2-6.63-17.88,4.93S29,110.62,29,144.51h77.94C106.89,110.62,98.36,106.12,98.36,106.12Z" transform="translate(5.05)"/><path class="cls-7" d="M67.92,85.47H55.37v4.92l.24.24a17.31,17.31,0,0,0,12.31,5.14h0a17.3,17.3,0,0,0,12.31-5.14l.25-.24V85.47Z" transform="translate(5.05)"/><path class="cls-5" d="M67.92,31.54s-21.68.92-21.68,22.67V69.76a22.22,22.22,0,0,0,6.41,15.62l3.1,3.13a16.84,16.84,0,0,0,12,5h.4a16.82,16.82,0,0,0,12-5l3.1-3.13a22.23,22.23,0,0,0,6.42-15.62V54.21C89.61,32.46,67.92,31.54,67.92,31.54Z" transform="translate(5.05)"/><polygon class="cls-8" points="60.42 101.19 72.97 144.51 53.3 111.27 59.49 107.39 52.27 103.44 60.42 101.19"/><polygon class="cls-9" points="60.42 101.19 72.97 107.6 85.53 101.19 72.97 144.51 60.42 101.19"/><polygon class="cls-8" points="85.53 101.19 72.97 144.51 92.65 111.27 86.45 107.39 93.68 103.44 85.53 101.19"/><path class="cls-10" d="M93.68,40.21c-.12-.77-.26-1.52-.43-2.27a21.12,21.12,0,0,0-5.06-9.69C82,21.68,69.3,19,61.17,22.83a12.13,12.13,0,0,0-3.62,2.57,21.12,21.12,0,0,1,.84-5.2c-5,2.36-3,6.83-3,6.83a7.47,7.47,0,0,0-7.61,2.23,4.22,4.22,0,0,1,5.1.92C43,35.39,42,44.38,42.5,50a27,27,0,0,0,.57,3.61c0,.06,0,.11,0,.17s0,.22.08.32a3.37,3.37,0,0,0,.09.34c.11.41.18.63.18.63s2.78-.06,2.78,7.44h2.22s-.29-10,2.77-15.6c3.56,1.56,16.32,6.06,33.41,0,3,5.59,2.75,15.55,2.75,15.55h2.22c0-7.5,2.77-7.44,2.77-7.44.29,0,.83-3.1.91-3.45.24-1.19.42-2.39.54-3.59A32.14,32.14,0,0,0,93.68,40.21Z" transform="translate(5.05)"/><path class="cls-10" d="M52.43,56.49v2.64A83.8,83.8,0,0,1,62.57,57.5l-.43-4.43A34,34,0,0,0,52.43,56.49Z" transform="translate(5.05)"/><path class="cls-10" d="M84,56.49v2.64A84.12,84.12,0,0,0,73.84,57.5l.42-4.43A34,34,0,0,1,84,56.49Z" transform="translate(5.05)"/><ellipse class="cls-10" cx="63.1" cy="63.52" rx="1.76" ry="3.15"/><ellipse class="cls-10" cx="82.99" cy="63.52" rx="1.76" ry="3.15"/><path class="cls-9" d="M68.2,75.87H62.67s.88,7.68,5.53,7.68,5.54-7.68,5.54-7.68Z" transform="translate(5.05)"/><path class="cls-5" d="M89.61,62.53s-1.31-8.81,2.77-7.44,0,11.58,0,11.58l-2.77,3.09" transform="translate(5.05)"/><path class="cls-5" d="M46.49,62.53s1.31-8.81-2.77-7.44,0,11.58,0,11.58l2.77,3.09" transform="translate(5.05)"/><circle class="cls-9" cx="62.74" cy="62.53" r="0.59"/><circle class="cls-9" cx="82.61" cy="62.53" r="0.59"/></g></g></g></svg>