<svg xmlns="http://www.w3.org/2000/svg" width="117.5" height="117.5" viewBox="0 0 117.5 117.5">
  <g id="modifierCV" transform="translate(-512.75 -261.75)">
    <circle id="Shape_8" data-name="Shape 8" cx="58.75" cy="58.75" r="58.75" transform="translate(512.75 261.75)" fill="#e3e9ff"/>
    <g id="Vector_Smart_Object" data-name="Vector Smart Object">
      <g id="Vector_Smart_Object-2" data-name="Vector Smart Object" transform="translate(315 300)">
        <g id="Group_9" data-name="Group 9">
          <g id="Group_8" data-name="Group 8">
            <g id="Group_7" data-name="Group 7">
              <path id="Path_7" data-name="Path 7" d="M260.2,9.453a.866.866,0,0,0-.871-.86h-8.979a.86.86,0,1,0,0,1.719h8.979A.866.866,0,0,0,260.2,9.453Z"/>
              <path id="Path_8" data-name="Path 8" d="M250.354,12.031a.86.86,0,1,0,0,1.719h5.453a.86.86,0,1,0,0-1.719Z"/>
              <path id="Path_9" data-name="Path 9" d="M252.4,20.282h-2.916a1.733,1.733,0,0,1-1.743-1.719V3.438a1.734,1.734,0,0,1,1.743-1.719H260.2a1.734,1.734,0,0,1,1.744,1.719V8.723a.872.872,0,0,0,1.743,0V3.438A3.466,3.466,0,0,0,260.2,0H249.487A3.466,3.466,0,0,0,246,3.438V18.562A3.466,3.466,0,0,0,249.487,22H252.4a.859.859,0,1,0,0-1.718Z"/>
              <path id="Path_10" data-name="Path 10" d="M265.235,12.442a2.644,2.644,0,0,0-3.7,0l-4.786,4.707a.852.852,0,0,0-.219.359l-1.042,3.382a.851.851,0,0,0,.21.85.878.878,0,0,0,.624.259.856.856,0,0,0,.233-.032l3.518-.96a.88.88,0,0,0,.384-.22l4.775-4.7A2.555,2.555,0,0,0,265.235,12.442Zm-5.845,6.97-1.77.483.518-1.681,3.229-3.176,1.233,1.216ZM264,14.873l-.169.166L262.6,13.823l.168-.166a.882.882,0,0,1,1.233,0A.852.852,0,0,1,264,14.873Z"/>
              <path id="Path_11" data-name="Path 11" d="M259.333,5.156h-8.979a.86.86,0,1,0,0,1.719h8.979a.86.86,0,1,0,0-1.719Z"/>
            </g>
          </g>
        </g>
      </g>
      <path id="Color_Overlay" data-name="Color Overlay" d="M570.7,321.74a.852.852,0,0,1-.21-.85l1.042-3.382a.852.852,0,0,1,.219-.359l4.786-4.707a2.643,2.643,0,0,1,3.7,0,2.555,2.555,0,0,1,0,3.646l-4.775,4.7a.876.876,0,0,1-.384.22l-3.518.96a.854.854,0,0,1-.232.031A.881.881,0,0,1,570.7,321.74Zm2.437-3.526-.518,1.681,1.77-.483,3.21-3.159-1.233-1.215Zm4.632-4.557-.168.166,1.232,1.216.169-.166a.853.853,0,0,0,0-1.216.882.882,0,0,0-1.233,0ZM564.487,322A3.466,3.466,0,0,1,561,318.562V303.438A3.466,3.466,0,0,1,564.487,300H575.2a3.466,3.466,0,0,1,3.487,3.438v5.285a.872.872,0,0,1-1.743,0v-5.285a1.734,1.734,0,0,0-1.743-1.72H564.487a1.734,1.734,0,0,0-1.743,1.72v15.124a1.733,1.733,0,0,0,1.743,1.719H567.4a.859.859,0,1,1,0,1.718Zm.867-8.249a.86.86,0,1,1,0-1.719h5.453a.86.86,0,1,1,0,1.719Zm0-3.437a.86.86,0,1,1,0-1.72h8.979a.86.86,0,1,1,0,1.72Zm0-3.438a.86.86,0,1,1,0-1.719h8.979a.86.86,0,1,1,0,1.719Z" fill="#445ca6"/>
    </g>
    <text id="Modifier_le_CV" data-name="Modifier le CV" transform="translate(530 341)" fill="#445ca6" font-size="13" font-family="Helvetica"><tspan x="0" y="0">Modifier le CV</tspan></text>
  </g>
</svg>
