<svg xmlns="http://www.w3.org/2000/svg" width="24.971" height="24.624" viewBox="0 0 24.971 24.624">
  <path id="Shape_5" data-name="Shape 5" d="M321.288,63.553h-.113l.68,4.759-7.478-4.759h-4.65l3.694-2.351H318.9a4.2,4.2,0,0,0,4.2-4.2V54.016l.01.018V48.1a4.2,4.2,0,0,1,2.379,3.783v7.469A4.2,4.2,0,0,1,321.288,63.553Zm-4.348-4h-5.06l-6.849,4.794.685-4.794h-1a4.2,4.2,0,0,1-4.2-4.2V47.885a4.2,4.2,0,0,1,4.2-4.2H316.94a4.2,4.2,0,0,1,4.2,4.2v7.469A4.2,4.2,0,0,1,316.94,59.551Zm-.627-12.7h-11.1a.793.793,0,1,0,0,1.586h11.1a.793.793,0,1,0,0-1.586Zm0,3.917h-11.1a.793.793,0,1,0,0,1.586h11.1a.793.793,0,0,0,0-1.586Zm0,3.973h-11.1a.793.793,0,1,0,0,1.586h11.1a.793.793,0,1,0,0-1.586Z" transform="translate(-300.515 -43.688)" fill="#445ca6"/>
</svg>
