<svg xmlns="http://www.w3.org/2000/svg" viewBox="0 0 20 20.05"><defs><style>.cls-1{fill:#858585;}</style></defs><g id="Layer_2" data-name="Layer 2"><g id="Capa_1" data-name="Capa 1"><path class="cls-1" d="M18.88,7.84H16.69a6.8,6.8,0,0,0-.41-1l1.53-1.53a1.12,1.12,0,0,0,0-1.59L16.28,2.19a1.11,1.11,0,0,0-1.58,0L13.17,3.72a6,6,0,0,0-1-.41V1.12A1.13,1.13,0,0,0,11.07,0H8.88A1.09,1.09,0,0,0,7.79,1.09V3.28a6.91,6.91,0,0,0-1,.41L5.27,2.16a1.11,1.11,0,0,0-1.58,0L2.16,3.74a1.12,1.12,0,0,0,0,1.59L3.72,6.86a6,6,0,0,0-.41,1H1.12A1.12,1.12,0,0,0,0,9v2.19a1.09,1.09,0,0,0,1.09,1.09H3.28a6.36,6.36,0,0,0,.41,1L2.16,14.75a1.12,1.12,0,0,0,0,1.59L3.72,17.9a1.13,1.13,0,0,0,1.58,0l1.53-1.56a7,7,0,0,0,1,.41v2.18a1.12,1.12,0,0,0,1.12,1.12h2.19A1.09,1.09,0,0,0,12.21,19V16.78a8.29,8.29,0,0,0,1-.41l1.53,1.53a1.13,1.13,0,0,0,1.58,0l1.56-1.56a1.12,1.12,0,0,0,0-1.59L16.28,13.2a5.73,5.73,0,0,0,.41-1h2.19A1.12,1.12,0,0,0,20,11.09V8.91A1.1,1.1,0,0,0,18.88,7.84ZM10,13.93A3.91,3.91,0,1,1,13.93,10,3.9,3.9,0,0,1,10,13.93Z"/></g></g></svg>