<svg xmlns="http://www.w3.org/2000/svg" viewBox="0 0 20 22.21"><defs><style>.cls-1{fill:#858585;}</style></defs><g id="Layer_2" data-name="Layer 2"><g id="Calque_1" data-name="Calque 1"><path class="cls-1" d="M4.42,13.55V9.31a3.24,3.24,0,0,1,.12-.89H1.68a1.71,1.71,0,0,0-1.19.49A1.69,1.69,0,0,0,0,10.1v3.37a1.68,1.68,0,0,0,.4,1.09,1.7,1.7,0,0,0,.46.38v4.91a.66.66,0,0,0,.65.65h4V16A3.27,3.27,0,0,1,4.42,13.55Z"/><path class="cls-1" d="M3.51,7.65A2.55,2.55,0,1,0,1,5.11,2.54,2.54,0,0,0,3.51,7.65Z"/><path class="cls-1" d="M12.25,7.36H7.66a1.94,1.94,0,0,0-1.37.57,1.91,1.91,0,0,0-.57,1.38v4.24a1.92,1.92,0,0,0,.46,1.25,2,2,0,0,0,.62.49v6.27a.65.65,0,0,0,.64.65h5a.66.66,0,0,0,.65-.65V15.29a2,2,0,0,0,1.08-1.74V9.31a1.95,1.95,0,0,0-1.95-1.95Z"/><path class="cls-1" d="M10,6.06a3,3,0,1,0-3-3A3,3,0,0,0,10,6.06Z"/><path class="cls-1" d="M19.51,8.91a1.71,1.71,0,0,0-1.19-.49h-3a3.24,3.24,0,0,1,.13.89v4.24A3.27,3.27,0,0,1,14.42,16v4.53h4.07a.66.66,0,0,0,.65-.65V14.94a1.7,1.7,0,0,0,.46-.38,1.68,1.68,0,0,0,.4-1.09V10.1A1.69,1.69,0,0,0,19.51,8.91Z"/><path class="cls-1" d="M16.49,7.65A2.55,2.55,0,1,0,14,5.11,2.55,2.55,0,0,0,16.49,7.65Z"/></g></g></svg>