<svg xmlns="http://www.w3.org/2000/svg" viewBox="0 0 20 20.88"><defs><style>.cls-1{fill:#858585;}</style></defs><g id="Layer_2" data-name="Layer 2"><g id="Calque_1" data-name="Calque 1"><path class="cls-1" d="M14.92,9.53H15a3.69,3.69,0,0,1,.58,0V2.46A2.46,2.46,0,0,0,13.15,0H2.46A2.46,2.46,0,0,0,0,2.46V16.63a2.46,2.46,0,0,0,2.46,2.46H9.6a6.17,6.17,0,0,1-.94-3.3A6.27,6.27,0,0,1,14.92,9.53ZM8.83,4h3.65a.62.62,0,0,1,.62.61.61.61,0,0,1-.62.61H8.83a.61.61,0,0,1-.61-.61A.62.62,0,0,1,8.83,4Zm0,2.45h3.65a.61.61,0,1,1,0,1.22H8.83a.61.61,0,0,1,0-1.22Zm-2,8.6H3.13a.61.61,0,0,1,0-1.22H6.78a.61.61,0,1,1,0,1.22Zm0-2.49H3.13a.61.61,0,0,1,0-1.22H6.78a.61.61,0,1,1,0,1.22Zm0-2.44H3.13a.62.62,0,0,1,0-1.23H6.78a.62.62,0,0,1,0,1.23Zm0-2.45H3.13a.61.61,0,1,1,0-1.22H6.78a.61.61,0,0,1,0,1.22Zm0-2.45H3.13a.61.61,0,0,1-.61-.61A.61.61,0,0,1,3.13,4H6.78a.61.61,0,0,1,.61.61A.61.61,0,0,1,6.78,5.24ZM8.22,9.53a.62.62,0,0,1,.61-.62h1.76a.62.62,0,0,1,0,1.23H8.83A.62.62,0,0,1,8.22,9.53Z"/><path class="cls-1" d="M18.54,12.23A5,5,0,0,0,15,10.71h-.09a5.09,5.09,0,1,0,3.62,1.52ZM17.09,15l-1.94,2.41a.62.62,0,0,1-.48.23.56.56,0,0,1-.35-.11l-1.45-1.05a.61.61,0,1,1,.72-1l1,.7,1.58-2a.61.61,0,1,1,.95.77Z"/></g></g></svg>