<svg xmlns="http://www.w3.org/2000/svg" width="26.25" height="26.35" viewBox="0 0 26.25 26.35">
  <path id="share" d="M21.4,18.8a3.064,3.064,0,0,1,1.7-.4,4.3,4.3,0,1,1-4.3,4.3,6.344,6.344,0,0,1,.3-2.4l-8.4-4.4a4.5,4.5,0,0,1-4,2.8,4.3,4.3,0,0,1,0-8.6,5.686,5.686,0,0,1,2.3.7,10.827,10.827,0,0,1,1.5,1.4l8.3-6a4.3,4.3,0,1,1,8.6,0,4.268,4.268,0,0,1-4.3,4.3,3.991,3.991,0,0,1-3-1.3" transform="translate(-1.775 -1.275)" fill="none" stroke="#858585" stroke-linecap="round" stroke-linejoin="round" stroke-miterlimit="10" stroke-width="1.25"/>
</svg>
