<svg xmlns="http://www.w3.org/2000/svg" width="23.685" height="21.2" viewBox="0 0 23.685 21.2">
  <path id="Intersection_1" data-name="Intersection 1" d="M-413.928,20.521a7.65,7.65,0,0,1-1.544-4.9,14.11,14.11,0,0,1,1.332-6.16,14.607,14.607,0,0,1,4.011-4.988q2.68-2.2,3.425-2.2a.951.951,0,0,1,.816.479,1.575,1.575,0,0,1,.32.834l-.106.284Q-411.5,7.6-411.5,12.853q0,1.633.568,1.634l.391-.107a2.216,2.216,0,0,1,.746-.177,3.658,3.658,0,0,1,2.768,1.207,4.184,4.184,0,0,1,1.136,2.983,3.908,3.908,0,0,1-1.207,2.893A4,4,0,0,1-410,22.474,4.793,4.793,0,0,1-413.928,20.521Zm-12.78,0a7.65,7.65,0,0,1-1.544-4.9,14.062,14.062,0,0,1,1.314-6.106,14.717,14.717,0,0,1,4.011-5.006q2.7-2.237,3.443-2.236a.951.951,0,0,1,.816.479,1.575,1.575,0,0,1,.32.834l-.106.284q-5.821,3.727-5.822,8.981,0,1.633.568,1.634l.391-.107a2.216,2.216,0,0,1,.746-.177,3.643,3.643,0,0,1,2.786,1.207,4.225,4.225,0,0,1,1.118,2.983,3.908,3.908,0,0,1-1.207,2.893,4,4,0,0,1-2.911,1.19A4.793,4.793,0,0,1-426.708,20.521Z" transform="translate(428.752 -1.774)" fill="#f5ce3e" stroke="rgba(0,0,0,0)" stroke-miterlimit="10" stroke-width="1"/>
</svg>
