<svg xmlns="http://www.w3.org/2000/svg" viewBox="0 0 30 30"><defs><style>.cls-1{fill:#445ca6;}</style></defs><g id="Layer_2" data-name="Layer 2"><g id="Capa_1" data-name="Capa 1"><path class="cls-1" d="M25.61,4.39A15,15,0,1,0,30,15,14.93,14.93,0,0,0,25.61,4.39ZM15,28.24A13.24,13.24,0,1,1,28.24,15,13.26,13.26,0,0,1,15,28.24Z"/><path class="cls-1" d="M18.87,6.14a.88.88,0,0,0-.71,1.61,7.91,7.91,0,1,1-6.32,0,.88.88,0,0,0-.71-1.61,9.67,9.67,0,1,0,7.74,0Z"/><path class="cls-1" d="M15,13a.87.87,0,0,0,.88-.88V5a.88.88,0,0,0-1.76,0v7A.87.87,0,0,0,15,13Z"/></g></g></svg>