<svg xmlns="http://www.w3.org/2000/svg" viewBox="0 0 50 37.9"><defs><style>.cls-1{fill:#858585;}</style></defs><title>suivez-nous</title><g id="Calque_2" data-name="Calque 2"><g id="Capa_1" data-name="Capa 1"><path class="cls-1" d="M12.55,8.32A1.07,1.07,0,0,0,11.5,9.49a1.06,1.06,0,1,0,2.1,0A1.07,1.07,0,0,0,12.55,8.32Z"/><path class="cls-1" d="M18.36,12.17l.25,6.41H44.24V0H0V18.68H6.3ZM30.08,9.49a2.47,2.47,0,0,1-2.65,2.45,2.46,2.46,0,1,1,0-4.9A2.47,2.47,0,0,1,30.08,9.49Zm-5.81,1.12v1.22H20.58V7.14h1.58v3.47ZM9,9.14v1.19h-2v1.5H5.48V7.14H9.29v1.2H7.06v.8Zm21.49-2h1.63L33,9.81l.87-2.67h1.45l.82,2.7L37,7.14h1.5L37,11.83H35.26l-.76-2.5-.8,2.5H32Zm-18,4.8a2.46,2.46,0,1,1,0-4.9,2.46,2.46,0,1,1,0,4.9Zm3.56-.11V7.14h1.58v3.47h2.12v1.22Z"/><polygon class="cls-1" points="50 5.86 47.17 5.86 47.17 21.51 18.72 21.51 18.84 24.54 50 24.54 50 5.86"/><path class="cls-1" d="M27.43,8.32a1.07,1.07,0,0,0-1.05,1.17,1.06,1.06,0,1,0,2.11,0A1.07,1.07,0,0,0,27.43,8.32Z"/><polygon class="cls-1" points="15.62 16.98 0.44 25.17 4.37 27.4 0.98 33.36 8.96 37.9 12.35 31.93 16.28 34.17 15.62 16.98"/></g></g></svg>