<svg xmlns="http://www.w3.org/2000/svg" width="15" height="12" viewBox="0 0 15 12">
  <g id="twitter-input" transform="translate(-450.929 -287.495)">
    <path id="Path_9" data-name="Path 9" d="M465.589,288.88a5.611,5.611,0,0,1-.726.258,3.1,3.1,0,0,0,.653-1.122.233.233,0,0,0-.08-.257.248.248,0,0,0-.274-.019,5.778,5.778,0,0,1-1.687.652,3.277,3.277,0,0,0-2.254-.9,3.187,3.187,0,0,0-3.22,3.146,3.049,3.049,0,0,0,.026.406,8.306,8.306,0,0,1-5.658-2.933.246.246,0,0,0-.4.03,3.093,3.093,0,0,0,.33,3.621,2.705,2.705,0,0,1-.431-.188.246.246,0,0,0-.237,0,.234.234,0,0,0-.122.2v.042a3.143,3.143,0,0,0,1.576,2.706c-.082-.008-.164-.02-.245-.034a.246.246,0,0,0-.227.075.234.234,0,0,0-.049.229,3.193,3.193,0,0,0,2.359,2.109,5.791,5.791,0,0,1-3.045.849,6.079,6.079,0,0,1-.682-.038.241.241,0,0,0-.256.154.233.233,0,0,0,.1.278,8.827,8.827,0,0,0,4.7,1.345,8.434,8.434,0,0,0,6.472-2.778,8.688,8.688,0,0,0,2.243-5.739c0-.086,0-.173,0-.26a6.181,6.181,0,0,0,1.441-1.491.232.232,0,0,0-.016-.283A.244.244,0,0,0,465.589,288.88Z" fill="#73a1fb"/>
  </g>
</svg>
