<?xml version="1.0" encoding="utf-8"?>
<!-- Generator: Adobe Illustrator 23.0.0, SVG Export Plug-In . SVG Version: 6.00 Build 0)  -->
<svg version="1.1" id="Calque_1" xmlns="http://www.w3.org/2000/svg" xmlns:xlink="http://www.w3.org/1999/xlink" x="0px" y="0px"
	 viewBox="0 0 50 50" style="enable-background:new 0 0 50 50;" xml:space="preserve">
<style type="text/css">
	.st0{fill:#858585;}
</style>
<title>modifier1</title>
<g>
	<g id="bold">
		<path class="st0" d="M29.7,0h-24C2.5,0,0,2.6,0,5.7V38c0,3.2,2.6,5.7,5.7,5.7c0,0,0,0,0,0h15.4l0.5-2.6c0.2-1.2,0.8-2.2,1.6-3.1
			l12.3-12.2V5.7C35.4,2.6,32.9,0,29.7,0z M8.3,8.3h8.3c1.2,0.1,2,1.1,1.9,2.2c-0.1,1-0.9,1.9-1.9,1.9H8.3c-1.2-0.1-2-1.1-1.9-2.2
			C6.5,9.2,7.3,8.4,8.3,8.3z M18.8,29.2H8.3c-1.2-0.1-2-1.1-1.9-2.2c0.1-1,0.9-1.9,1.9-1.9h10.4c1.2,0.1,2,1.1,1.9,2.2
			C20.6,28.3,19.8,29.1,18.8,29.2z M27.1,20.8H8.3c-1.1,0-2.1-0.9-2.1-2.1c0-1.1,0.9-2.1,2.1-2.1h18.8c1.1,0,2.1,0.9,2.1,2.1
			S28.2,20.8,27.1,20.8C27.1,20.8,27.1,20.8,27.1,20.8z"/>
		<path class="st0" d="M26.1,50c-0.4,0-0.8-0.2-1.1-0.5c-0.4-0.4-0.5-0.9-0.4-1.4l1.1-6.3c0.1-0.3,0.2-0.6,0.4-0.8l15.5-15.5
			c1.9-1.9,3.8-1.4,4.8-0.4l2.6,2.6c1.4,1.4,1.4,3.7,0,5.1c0,0,0,0,0,0L33.5,48.4c-0.2,0.2-0.5,0.4-0.8,0.4L26.4,50
			C26.3,50,26.2,50,26.1,50z M32.4,47.3L32.4,47.3z"/>
	</g>
</g>
</svg>
