<svg xmlns="http://www.w3.org/2000/svg" width="17.886" height="15.135" viewBox="0 0 17.886 15.135">
  <g id="video" transform="translate(-133.057 -402.432)">
    <g id="Vector_Smart_Object" data-name="Vector Smart Object" transform="translate(-101.252 349.052)">
      <g id="Group_3" data-name="Group 3">
        <path id="Path_2" data-name="Path 2" d="M252.2,65.488h-1.048v-9.08H252.2V53.381H234.309v3.027h1.048v9.08h-1.048v3.027H252.2ZM251.147,55.4h-1.781V54.39h1.781Zm-12.96,0V54.39h1.747V55.4Zm2.794-1.009h1.747V55.4h-1.747Zm2.8,0h1.747V55.4h-1.747Zm2.794,0h1.747V55.4H246.57Zm-11.213,0h1.781V55.4h-1.781Zm1.048,2.018H250.1v9.08H236.406ZM239.935,66.5v1.009h-1.747V66.5Zm1.046,0h1.747v1.009h-1.747Zm2.8,0h1.747v1.009h-1.747Zm2.794,0h1.747v1.009H246.57Zm-11.213,0h1.781v1.009h-1.781Zm15.79,1.009h-1.781V66.5h1.781Z"/>
        <path id="Path_3" data-name="Path 3" d="M241.68,57.987v5.922l4.613-2.96Zm1.048,1.886,1.676,1.076-1.676,1.075Z"/>
      </g>
    </g>
    <path id="Color_Overlay" data-name="Color Overlay" d="M133.057,417.567V414.54H134.1v-9.08h-1.048v-3.028h17.886v3.028H149.9v9.08h1.048v3.027Zm15.056-1.009H149.9v-1.009h-1.782Zm-2.8,0h1.748v-1.009h-1.748Zm-2.794,0h1.747v-1.009h-1.747Zm-2.8,0h1.747v-1.009h-1.747Zm-2.795,0h1.748v-1.009h-1.748Zm-2.83,0h1.782v-1.009H134.1Zm1.048-2.018h13.693v-9.08H135.153Zm12.96-10.089H149.9v-1.01h-1.782Zm-2.8,0h1.748v-1.01h-1.748Zm-2.794,0h1.747v-1.01h-1.747Zm-2.8,0h1.747v-1.01h-1.747Zm-2.795,0h1.748v-1.01h-1.748Zm-2.83,0h1.782v-1.01H134.1Zm6.323,2.587L145.04,410l-4.613,2.96Zm1.048,4.036L143.151,410l-1.676-1.076Z" fill="#445ca6"/>
  </g>
</svg>
