<svg xmlns="http://www.w3.org/2000/svg" width="117.5" height="117.5" viewBox="0 0 117.5 117.5">
  <g id="VisualiserCV" transform="translate(-649.75 -261.75)">
    <circle id="Shape_8" data-name="Shape 8" cx="58.75" cy="58.75" r="58.75" transform="translate(649.75 261.75)" fill="#e3e9ff"/>
    <text id="Visualiser_le_CV" data-name="Visualiser le CV" transform="translate(663 340)" fill="#445ca6" font-size="13" font-family="Helvetica"><tspan x="0" y="0">Visualiser le CV</tspan></text>
    <g id="Vector_Smart_Object" data-name="Vector Smart Object">
      <g id="Vector_Smart_Object-2" data-name="Vector Smart Object" transform="translate(453 301)">
        <g id="Group_23" data-name="Group 23">
          <g id="Group_14" data-name="Group 14">
            <g id="Group_13" data-name="Group 13">
              <path id="Path_17" data-name="Path 17" d="M262.849,14.812a4.11,4.11,0,0,0-.383-5.362,4.064,4.064,0,0,0-1.143-.806V5.034L256.289,0H246V20.013h15.323V16.06a4.135,4.135,0,0,0,.7-.419l3.148,3.182L266,18ZM256.632,2l2.689,2.689h-2.689V2ZM260.15,18.84H247.173V1.173h8.287v4.69h4.69V8.291a4.1,4.1,0,1,0,0,8.121Zm1.487-4.415a2.932,2.932,0,1,1,0-4.146A2.935,2.935,0,0,1,261.637,14.425Z"/>
            </g>
          </g>
          <g id="Group_16" data-name="Group 16">
            <g id="Group_15" data-name="Group 15">
              <rect id="Rectangle_3" data-name="Rectangle 3" width="8.287" height="1.173" transform="translate(248.346 7.075)"/>
            </g>
          </g>
          <g id="Group_18" data-name="Group 18">
            <g id="Group_17" data-name="Group 17">
              <rect id="Rectangle_4" data-name="Rectangle 4" width="5.941" height="1.173" transform="translate(248.346 9.42)"/>
            </g>
          </g>
          <g id="Group_20" data-name="Group 20">
            <g id="Group_19" data-name="Group 19">
              <rect id="Rectangle_5" data-name="Rectangle 5" width="5.941" height="1.173" transform="translate(248.346 14.111)"/>
            </g>
          </g>
          <g id="Group_22" data-name="Group 22">
            <g id="Group_21" data-name="Group 21">
              <rect id="Rectangle_6" data-name="Rectangle 6" width="5.941" height="1.173" transform="translate(248.346 11.766)"/>
            </g>
          </g>
        </g>
      </g>
      <path id="Color_Overlay" data-name="Color Overlay" d="M699,321V301h10.29l5.034,5.031v3.607a4.1,4.1,0,0,1,1.526,6.165L719,318.986l-.833.824-3.148-3.18a4.077,4.077,0,0,1-.7.419V321Zm1.174-1.173H713.15V317.4a4.1,4.1,0,1,1,0-8.117v-2.426h-4.691v-4.686h-8.286Zm10.318-8.555a2.937,2.937,0,1,0,2.074-.857A2.932,2.932,0,0,0,710.491,311.272Zm-.859-5.585h2.688L709.632,303Zm-8.286,10.586V315.1h5.941v1.172Zm0-2.344v-1.172h5.941v1.172Zm0-2.344v-1.172h5.941v1.172Zm0-2.344V308.07h8.286v1.172Z" fill="#445ca6"/>
    </g>
  </g>
</svg>
