<svg xmlns="http://www.w3.org/2000/svg" width="15" height="15" viewBox="0 0 15 15">
  <g id="blogger" transform="translate(-82.462 -239)">
    <g id="Group_8" data-name="Group 8">
      <g id="Group_5" data-name="Group 5">
        <g id="Group_4" data-name="Group 4">
          <path id="Path_6" data-name="Path 6" d="M96.345,245.23a.439.439,0,0,0-.592.189l-.511.99-.493-.985a.439.439,0,0,0-.786,0l-.486.972-.485-.972a.442.442,0,0,0-.42-.242l-.027,0a.315.315,0,1,1-.629.044.438.438,0,0,0-.589.2l-.486.972-.486-.972a.439.439,0,0,0-.786,0l-.486.972-.486-.972a.863.863,0,0,1-1.218-.24l-.027,0a.44.44,0,0,0-.42.242l-.486.972-.486-.972a.44.44,0,0,0-.786,0l-.492.985-.511-.99a.44.44,0,1,0-.781.4l.908,1.757a.439.439,0,0,0,.783-.005l.486-.972.486.972a.44.44,0,0,0,.786,0l.819-1.638a.43.43,0,0,0,.12-.209.415.415,0,0,0,.033.089l.879,1.758a.44.44,0,0,0,.786,0l.486-.972.486.972a.44.44,0,0,0,.786,0l.879-1.758a.412.412,0,0,0,.032-.089.443.443,0,0,0,.121.21l.818,1.637a.44.44,0,0,0,.786,0l.486-.972.486.972a.44.44,0,0,0,.784.005l.908-1.758A.44.44,0,0,0,96.345,245.23Z" fill="#233669"/>
        </g>
      </g>
      <g id="Group_7" data-name="Group 7">
        <g id="Group_6" data-name="Group 6">
          <path id="Path_7" data-name="Path 7" d="M96.906,243.668a7.5,7.5,0,0,0-13.889,0,1.318,1.318,0,0,0-.555,1.074v3.516a1.32,1.32,0,0,0,.555,1.074,7.5,7.5,0,0,0,13.889,0,1.318,1.318,0,0,0,.556-1.074v-3.516A1.316,1.316,0,0,0,96.906,243.668Zm-1.084-.244H93.576a8.442,8.442,0,0,0-1.27-3c-.039-.054-.078-.106-.118-.157A6.7,6.7,0,0,1,95.822,243.424ZM90.4,239.952c1.2.4,1.955,2.224,2.27,3.472H90.4Zm-.879,0v3.472h-2.27a7.376,7.376,0,0,1,1.078-2.482A2.635,2.635,0,0,1,89.522,239.952Zm-1.787.319c-.039.051-.079.1-.117.157a8.424,8.424,0,0,0-1.27,3H84.1A6.7,6.7,0,0,1,87.735,240.271ZM84.1,249.576h2.247a8.27,8.27,0,0,0,1.387,3.152A6.7,6.7,0,0,1,84.1,249.576Zm5.421,3.471c-1.2-.4-1.954-2.224-2.27-3.471h2.27Zm.879,0V249.57h2.27C92.355,250.819,91.6,252.644,90.4,253.047Zm1.787-.319a8.283,8.283,0,0,0,1.388-3.158h2.246A6.706,6.706,0,0,1,92.188,252.728Zm4.395-4.47a.44.44,0,0,1-.44.439H83.78a.44.44,0,0,1-.439-.439v-3.516a.44.44,0,0,1,.439-.44H96.143a.441.441,0,0,1,.44.44Z" fill="#233669"/>
        </g>
      </g>
    </g>
  </g>
</svg>
