<svg xmlns="http://www.w3.org/2000/svg" viewBox="0 0 20 20"><defs><style>.cls-1{fill:#445ca6;}.cls-2{fill:#fff;}</style></defs><g id="Layer_2" data-name="Layer 2"><g id="Calque_1" data-name="Calque 1"><rect class="cls-1" width="20" height="20" rx="4.54"/><path class="cls-2" d="M16.94,9.23a2.58,2.58,0,0,0-3.64,0,2.46,2.46,0,0,0-.76,1.83v1.28h0a.39.39,0,0,1-.4.39.4.4,0,0,1-.4-.39h0V9.12a.62.62,0,0,0-.64-.64H9a.62.62,0,0,0-.64.64v2.35a.85.85,0,0,1-.26.62.88.88,0,0,1-1.25,0,.85.85,0,0,1-.26-.62V9.12a.64.64,0,1,0-1.27,0v2.35a.85.85,0,0,1-.26.62.82.82,0,0,1-.62.26.82.82,0,0,1-.63-.26.85.85,0,0,1-.26-.62V9.12a.64.64,0,0,0-1.09-.46.66.66,0,0,0-.19.46v2.35a2.17,2.17,0,0,0,2.17,2.16A2.05,2.05,0,0,0,6,13a2.16,2.16,0,0,0,3,0,2.08,2.08,0,0,0,.63-1.53V9.76h0a.4.4,0,0,1,.79,0h0V13a.62.62,0,0,0,.19.45.6.6,0,0,0,.45.19h2.08a.65.65,0,0,0,.64-.64V11.06a1.26,1.26,0,0,1,.38-.92,1.31,1.31,0,0,1,2.22.92V13a.61.61,0,0,0,.18.45.62.62,0,0,0,.46.19.58.58,0,0,0,.44-.19.59.59,0,0,0,.2-.45V11.06A2.5,2.5,0,0,0,16.94,9.23Z"/><path class="cls-2" d="M11.1,7.65a.62.62,0,0,0,.46-.19.65.65,0,0,0,0-.9.62.62,0,0,0-.46-.19.6.6,0,0,0-.45.19.63.63,0,0,0,0,.9A.6.6,0,0,0,11.1,7.65Z"/></g></g></svg>
