<svg xmlns="http://www.w3.org/2000/svg" viewBox="0 0 80 37.73"><defs><style>.cls-1{fill:#f5ce3e;}</style></defs><g id="Layer_2" data-name="Layer 2"><g id="Mode_Isolation" data-name="Mode Isolation"><path class="cls-1" d="M76.08,14.87a13.41,13.41,0,0,0-18.95,0,12.92,12.92,0,0,0-3.92,9.48v6.74h0a2.08,2.08,0,0,1-4.15,0h0V14.27A3.3,3.3,0,0,0,45.73,11H34.94a3.3,3.3,0,0,0-3.33,3.32V26.52a4.37,4.37,0,0,1-1.34,3.23,4.58,4.58,0,0,1-7.82-3.23V14.27a3.33,3.33,0,0,0-5.67-2.36,3.2,3.2,0,0,0-1,2.36V26.52a4.58,4.58,0,0,1-4.57,4.57A4.46,4.46,0,0,1,8,29.75a4.4,4.4,0,0,1-1.33-3.23V14.27A3.3,3.3,0,0,0,3.32,11a3.22,3.22,0,0,0-2.35,1,3.2,3.2,0,0,0-1,2.36V26.52a10.83,10.83,0,0,0,3.3,7.94,10.82,10.82,0,0,0,7.94,3.27,10.8,10.8,0,0,0,7.89-3.25A10.77,10.77,0,0,0,27,37.73,11.22,11.22,0,0,0,38.26,26.52V17.63h0v0h0a2.08,2.08,0,0,1,4.15,0h0V34.41a3.3,3.3,0,0,0,3.32,3.32h10.8a3.3,3.3,0,0,0,3.33-3.32V24.35a6.5,6.5,0,0,1,2-4.77,6.41,6.41,0,0,1,4.75-2,6.78,6.78,0,0,1,6.76,6.76V34.41A3.32,3.32,0,0,0,79,36.77a3.18,3.18,0,0,0,1-2.36V24.35A12.92,12.92,0,0,0,76.08,14.87Z"/><path class="cls-1" d="M45.73,6.65a3.24,3.24,0,0,0,2.36-1,3.24,3.24,0,0,0,1-2.36,3.23,3.23,0,0,0-1-2.35,3.34,3.34,0,0,0-4.71,0,3.19,3.19,0,0,0-1,2.35,3.2,3.2,0,0,0,1,2.36A3.23,3.23,0,0,0,45.73,6.65Z"/></g></g></svg>